<svg xmlns="http://www.w3.org/2000/svg" fill="none" viewBox="0 0 314 68" height="68" width="314">
<g clip-path="url(#clip0_4962_7496)">
<path fill="white" d="M92.47 33.5404V0.69043H112.9V5.93043H98.03V15.1504H111.38V20.2904H98.03V33.5404H92.47Z"></path>
<path fill="white" d="M127.92 16.3102C127.32 16.2202 126.71 16.1702 126.16 16.1702C121.99 16.1702 120.09 18.5802 120.09 22.8002V33.5502H114.72V10.9802H119.96V14.5902C121.03 12.1302 123.53 10.7002 126.49 10.7002C127.14 10.7002 127.69 10.7902 127.93 10.8402V16.3102H127.92Z"></path>
<path fill="white" d="M146.08 19.7803C145.99 17.1403 144.23 14.7803 140.52 14.7803C137.14 14.7803 135.19 17.3703 135.01 19.7803H146.08ZM151.22 27.1003C150.02 31.0403 146.45 34.2303 141.03 34.2303C134.92 34.2303 129.49 29.7803 129.49 22.1403C129.49 15.0003 134.77 10.2803 140.47 10.2803C147.42 10.2803 151.5 14.8703 151.5 22.0003C151.5 22.8803 151.41 23.6203 151.36 23.7103H134.87C135.01 27.1403 137.7 29.5903 141.03 29.5903C144.36 29.5903 145.94 27.8803 146.68 25.6503L151.22 27.0903V27.1003Z"></path>
<path fill="white" d="M166.28 29.37C169.8 29.37 172.26 26.45 172.26 22.14C172.26 17.83 169.85 15.14 166.33 15.14C162.81 15.14 160.21 17.87 160.21 22.18C160.21 26.49 162.62 29.36 166.28 29.36V29.37ZM177.45 29.42C177.45 31.46 177.63 33.17 177.68 33.54H172.54C172.45 33.03 172.31 31.55 172.31 30.62C171.25 32.52 168.88 34.09 165.69 34.09C159.2 34.09 154.85 28.99 154.85 22.18C154.85 15.37 159.25 10.37 165.6 10.37C169.54 10.37 171.53 12.18 172.23 13.61V0H177.47V29.42H177.45Z"></path>
<path fill="white" d="M217.1 33.5404V19.5104H201.67V33.5404H196.11V0.69043H201.67V14.2704H217.1V0.69043H222.71V33.5404H217.1Z"></path>
<path fill="white" d="M236.1 34.1905C230.73 34.1905 227.58 30.2105 227.58 25.2005V10.9805H232.96V24.2305C232.96 27.0105 234.26 29.3705 237.5 29.3705C240.74 29.3705 242.23 27.2905 242.23 24.3205V10.9805H247.6V29.4205C247.6 31.2705 247.74 32.7105 247.83 33.5405H242.69C242.6 33.0305 242.51 31.9605 242.51 31.0405C241.4 33.0805 238.76 34.1905 236.12 34.1905H236.1Z"></path>
<path fill="white" d="M260.26 10.9801H264.94V15.7501H260.26V26.2201C260.26 28.2101 261.14 29.0501 263.13 29.0501C263.87 29.0501 264.75 28.9101 264.98 28.8601V33.3101C264.65 33.4501 263.64 33.8201 261.69 33.8201C257.52 33.8201 254.93 31.3201 254.93 27.1001V15.7501H250.76V10.9801H251.92C254.33 10.9801 255.39 9.45008 255.39 7.46008V4.08008H260.26V10.9801Z"></path>
<path fill="white" d="M272.49 22.24C272.49 26.78 275.41 29.33 278.79 29.33C282.17 29.33 283.93 26.87 284.44 25.16L289.17 26.87C288.1 30.39 284.72 34.24 278.79 34.24C272.17 34.24 267.12 29.1 267.12 22.24C267.12 15.38 272.17 10.29 278.66 10.29C284.73 10.29 288.06 14.09 288.99 17.7L284.17 19.46C283.66 17.47 282.13 15.24 278.7 15.24C275.27 15.24 272.49 17.7 272.49 22.24Z"></path>
<path fill="white" d="M298.39 33.54H293.02V0H298.39V13.16C299.92 11.17 302.47 10.33 304.83 10.33C310.39 10.33 313.08 14.31 313.08 19.27V33.54H307.7V20.2C307.7 17.42 306.45 15.2 303.07 15.2C300.1 15.2 298.48 17.42 298.39 20.3V33.55V33.54Z"></path>
<path fill="white" d="M90.48 54.9204C90.48 46.9704 96.43 42.1904 102.77 42.1904C109.11 42.1904 112.65 45.8404 113.75 50.1004L109.86 51.4104C109.14 48.4504 106.87 46.0804 102.77 46.0804C98.67 46.0804 94.72 49.0104 94.72 54.9204C94.72 60.8304 98.64 63.6604 102.81 63.6604C106.98 63.6604 109.25 61.0404 110.07 58.2904L113.86 59.5304C112.76 63.6604 109.04 67.6204 102.81 67.6204C96.24 67.6204 90.49 62.8704 90.49 54.9204H90.48Z"></path>
<path fill="white" d="M126.37 60.1501V59.3901L122 60.0401C120.76 60.2501 119.76 60.9301 119.76 62.3101C119.76 63.4501 120.62 64.4801 122.2 64.4801C124.44 64.4801 126.36 63.4101 126.36 60.1401L126.37 60.1501ZM120.83 57.5001L125.13 56.8501C126.09 56.7101 126.37 56.2301 126.37 55.6501C126.37 54.2401 125.41 53.1001 123.2 53.1001C120.99 53.1001 119.93 54.4401 119.76 56.1301L116.11 55.3001C116.42 52.4101 119.04 49.8301 123.16 49.8301C128.32 49.8301 130.28 52.7501 130.28 56.0901V64.4201C130.28 65.9301 130.45 66.9301 130.49 67.1001H126.77C126.74 67.0001 126.6 66.3101 126.6 64.9701C125.81 66.2401 124.16 67.6201 121.44 67.6201C117.93 67.6201 115.76 65.2101 115.76 62.5601C115.76 59.5701 117.96 57.9101 120.82 57.5001H120.83Z"></path>
<path fill="white" d="M138.17 67.1003H134.18V50.3404H138.07V52.5804C139.17 50.6504 141.17 49.8604 143.03 49.8604C147.12 49.8604 149.09 52.8204 149.09 56.5004V67.1003H145.1V57.1903C145.1 55.1303 144.17 53.4704 141.66 53.4704C139.39 53.4704 138.18 55.2204 138.18 57.4304V67.1003H138.17Z"></path>
<path fill="white" d="M155.68 58.6996C155.68 62.0696 157.85 63.9596 160.36 63.9596C162.87 63.9596 164.18 62.1396 164.56 60.8596L168.07 62.1296C167.28 64.7496 164.77 67.5996 160.36 67.5996C155.44 67.5996 151.69 63.7796 151.69 58.6896C151.69 53.5996 155.44 49.8096 160.26 49.8096C164.77 49.8096 167.25 52.6296 167.93 55.3196L164.35 56.6296C163.97 55.1496 162.84 53.4996 160.29 53.4996C157.74 53.4996 155.68 55.3196 155.68 58.6996Z"></path>
<path fill="white" d="M182.32 56.8801C182.25 54.9201 180.94 53.1601 178.19 53.1601C175.68 53.1601 174.23 55.0901 174.1 56.8801H182.32ZM186.14 62.3201C185.25 65.2501 182.6 67.6201 178.57 67.6201C174.03 67.6201 170 64.3201 170 58.6401C170 53.3401 173.92 49.8301 178.15 49.8301C183.31 49.8301 186.34 53.2401 186.34 58.5401C186.34 59.1901 186.27 59.7401 186.24 59.8101H173.99C174.09 62.3601 176.09 64.1801 178.57 64.1801C181.05 64.1801 182.22 62.9101 182.77 61.2601L186.14 62.3301V62.3201Z"></path>
<path fill="white" d="M199.52 54.2999C199.07 54.2299 198.63 54.1999 198.21 54.1999C195.11 54.1999 193.7 55.9899 193.7 59.1199V67.0999H189.71V50.3399H193.6V53.0199C194.39 51.1999 196.25 50.1299 198.45 50.1299C198.93 50.1299 199.34 50.1999 199.52 50.2299V54.2899V54.2999Z"></path>
<path fill="white" d="M210.15 54.9204C210.15 46.9704 216.1 42.1904 222.43 42.1904C228.76 42.1904 232.31 45.8404 233.41 50.1004L229.52 51.4104C228.8 48.4504 226.53 46.0804 222.43 46.0804C218.33 46.0804 214.38 49.0104 214.38 54.9204C214.38 60.8304 218.3 63.6604 222.47 63.6604C226.64 63.6604 228.9 61.0404 229.73 58.2904L233.52 59.5304C232.42 63.6604 228.7 67.6204 222.47 67.6204C215.9 67.6204 210.15 62.8704 210.15 54.9204Z"></path>
<path fill="white" d="M247.87 56.8801C247.8 54.9201 246.49 53.1601 243.74 53.1601C241.23 53.1601 239.78 55.0901 239.64 56.8801H247.86H247.87ZM251.69 62.3201C250.8 65.2501 248.15 67.6201 244.12 67.6201C239.58 67.6201 235.55 64.3201 235.55 58.6401C235.55 53.3401 239.47 49.8301 243.7 49.8301C248.86 49.8301 251.89 53.2401 251.89 58.5401C251.89 59.1901 251.82 59.7401 251.79 59.8101H239.54C239.64 62.3601 241.64 64.1801 244.12 64.1801C246.6 64.1801 247.77 62.9101 248.32 61.2601L251.69 62.3301V62.3201Z"></path>
<path fill="white" d="M258.71 67.1003H254.72V50.3404H258.61V52.5804C259.71 50.6504 261.71 49.8604 263.56 49.8604C267.65 49.8604 269.62 52.8204 269.62 56.5004V67.1003H265.63V57.1903C265.63 55.1303 264.7 53.4704 262.19 53.4704C259.92 53.4704 258.71 55.2204 258.71 57.4304V67.1003Z"></path>
<path fill="white" d="M278.6 50.34H282.08V53.88H278.6V61.66C278.6 63.14 279.25 63.76 280.73 63.76C281.28 63.76 281.93 63.66 282.11 63.62V66.92C281.87 67.02 281.11 67.3 279.67 67.3C276.57 67.3 274.65 65.44 274.65 62.31V53.88H271.55V50.34H272.41C274.2 50.34 274.99 49.2 274.99 47.72V45.21H278.6V50.34Z"></path>
<path fill="white" d="M296.1 56.8801C296.03 54.9201 294.72 53.1601 291.97 53.1601C289.46 53.1601 288.01 55.0901 287.88 56.8801H296.1ZM299.92 62.3201C299.03 65.2501 296.38 67.6201 292.35 67.6201C287.81 67.6201 283.78 64.3201 283.78 58.6401C283.78 53.3401 287.7 49.8301 291.94 49.8301C297.1 49.8301 300.13 53.2401 300.13 58.5401C300.13 59.1901 300.06 59.7401 300.03 59.8101H287.78C287.88 62.3601 289.88 64.1801 292.36 64.1801C294.84 64.1801 296.01 62.9101 296.56 61.2601L299.93 62.3301L299.92 62.3201Z"></path>
<path fill="white" d="M313.03 54.2999C312.58 54.2299 312.14 54.1999 311.72 54.1999C308.62 54.1999 307.21 55.9899 307.21 59.1199V67.0999H303.22V50.3399H307.11V53.0199C307.9 51.1999 309.76 50.1299 311.96 50.1299C312.44 50.1299 312.85 50.1999 313.03 50.2299V54.2899V54.2999Z"></path>
<path fill="white" d="M46.141 1.18579L38.6457 8.68112C37.1773 10.1495 37.1757 12.5286 38.6421 13.995C40.1085 15.4614 42.4877 15.4599 43.956 13.9915L51.4514 6.49616C52.9197 5.02779 52.9213 2.64867 51.4549 1.18226C49.9885 -0.284163 47.6094 -0.282579 46.141 1.18579Z"></path>
<path fill="white" d="M61.1443 16.1858L53.649 23.6811C52.1806 25.1495 52.179 27.5286 53.6454 28.995C55.1118 30.4614 57.491 30.4599 58.9593 28.9915L66.4547 21.4962C67.923 20.0278 67.9246 17.6487 66.4582 16.1823C64.9918 14.7158 62.6127 14.7174 61.1443 16.1858Z"></path>
<path fill="white" d="M61.1932 1.13984L37.0738 25.2592C35.6054 26.7276 35.6038 29.1067 37.0702 30.5732C38.5366 32.0396 40.9158 32.038 42.3841 30.5696L66.5035 6.45021C67.9719 4.98184 67.9735 2.60272 66.5071 1.1363C65.0407 -0.330117 62.6615 -0.328533 61.1932 1.13984Z"></path>
<path fill="white" d="M16.1021 16.2283L1.1044 31.226C-0.363971 32.6944 -0.365555 35.0735 1.10086 36.54C2.56728 38.0064 4.9464 38.0048 6.41477 36.5364L21.4125 21.5387C22.8809 20.0703 22.8825 17.6912 21.416 16.2248C19.9496 14.7584 17.5705 14.7599 16.1021 16.2283Z"></path>
<path fill="white" d="M46.1056 46.2215L31.1078 61.2192C29.6394 62.6876 29.6379 65.0667 31.1043 66.5331C32.5707 67.9995 34.9498 67.998 36.4182 66.5296L51.4159 51.5318C52.8843 50.0635 52.8859 47.6844 51.4195 46.2179C49.953 44.7515 47.5739 44.7531 46.1056 46.2215Z"></path>
<path fill="white" d="M25.1166 37.202L1.1033 61.2153C-0.36507 62.6837 -0.366652 65.0628 1.09977 66.5292C2.56619 67.9956 4.9453 67.994 6.41367 66.5257L30.427 42.5123C31.8954 41.044 31.897 38.6648 30.4306 37.1984C28.9641 35.732 26.585 35.7336 25.1166 37.202Z"></path>
<path fill="white" d="M3.76 22.6304C5.83659 22.6304 7.52 20.9469 7.52 18.8704C7.52 16.7938 5.83659 15.1104 3.76 15.1104C1.68341 15.1104 0 16.7938 0 18.8704C0 20.9469 1.68341 22.6304 3.76 22.6304Z"></path>
<path fill="white" d="M33.76 7.55027C35.8366 7.55027 37.52 5.86686 37.52 3.79027C37.52 1.71368 35.8366 0.0302734 33.76 0.0302734C31.6834 0.0302734 30 1.71368 30 3.79027C30 5.86686 31.6834 7.55027 33.76 7.55027Z"></path>
<path fill="white" d="M63.84 37.6411C65.9165 37.6411 67.6 35.9577 67.6 33.8811C67.6 31.8045 65.9165 30.1211 63.84 30.1211C61.7634 30.1211 60.08 31.8045 60.08 33.8811C60.08 35.9577 61.7634 37.6411 63.84 37.6411Z"></path>
<path fill="white" d="M48.76 67.6411C50.8366 67.6411 52.52 65.9577 52.52 63.8811C52.52 61.8045 50.8366 60.1211 48.76 60.1211C46.6834 60.1211 45 61.8045 45 63.8811C45 65.9577 46.6834 67.6411 48.76 67.6411Z"></path>
<path fill="white" d="M8.60108 38.7258L1.10574 46.2212C-0.362628 47.6895 -0.36421 50.0687 1.10221 51.5351C2.56863 53.0015 4.94774 52.9999 6.41612 51.5315L13.9114 44.0362C15.3798 42.5678 15.3814 40.1887 13.915 38.7223C12.4486 37.2559 10.0694 37.2575 8.60108 38.7258Z"></path>
<path fill="white" d="M23.5942 53.7258L16.0989 61.2212C14.6305 62.6895 14.629 65.0687 16.0954 66.5351C17.5618 68.0015 19.9409 67.9999 21.4093 66.5315L28.9046 59.0362C30.373 57.5678 30.3746 55.1887 28.9081 53.7223C27.4417 52.2559 25.0626 52.2575 23.5942 53.7258Z"></path>
</g>
<defs>
<clipPath id="clip0_4962_7496">
<rect fill="white" height="67.64" width="313.08"></rect>
</clipPath>
</defs>
</svg>
