<svg width="306" height="169" viewBox="0 0 306 169" fill="none" xmlns="http://www.w3.org/2000/svg">
<g clip-path="url(#clip0_95_8146)">
<path d="M60.6348 14.248V153.766" stroke="#FF6D00" stroke-dasharray="2 2"/>
<path d="M129.145 84.002H111.693" stroke="#FF6D00" stroke-dasharray="2 2"/>
<path d="M183.031 84.002H165.58" stroke="#FF6D00" stroke-dasharray="2 2"/>
<path d="M252.889 84.002H219.342" stroke="#FF6D00" stroke-dasharray="2 2"/>
<path d="M41.2793 0C65.1142 20.6989 138.591 63.1722 241.818 67.4736" stroke="#FF6D00" stroke-dasharray="2 2"/>
<path d="M41.2793 168.012C65.1142 147.313 138.591 104.84 241.818 100.538" stroke="#FF6D00" stroke-dasharray="2 2"/>
<circle cx="201.169" cy="84.0059" r="16.0322" stroke="#FF6D00"/>
<circle cx="3.85547" cy="3.85547" r="3.85547" transform="matrix(-1 0 0 1 205.023 80.1504)" fill="#FF6D00"/>
<circle cx="2.56055" cy="2.56055" r="2.56055" transform="matrix(-1 0 0 1 255.068 97.1338)" fill="#FF6D00"/>
<circle cx="2.56055" cy="2.56055" r="2.56055" transform="matrix(-1 0 0 1 284.92 59.9521)" fill="#FF6D00"/>
<circle cx="3.85547" cy="3.85547" r="3.85547" transform="matrix(-1 0 0 1 151.527 80.1504)" fill="#0D0C0C" fill-opacity="0.5"/>
<circle cx="2.14941" cy="2.14941" r="2.14941" transform="matrix(-1 0 0 1 44.7422 92.835)" fill="#0D0C0C" fill-opacity="0.5"/>
<circle cx="2.14941" cy="2.14941" r="2.14941" transform="matrix(-1 0 0 1 17.3203 67.0381)" fill="#0D0C0C" fill-opacity="0.5"/>
<circle cx="2.14941" cy="2.14941" r="2.14941" transform="matrix(-1 0 0 1 34.6055 38.7783)" fill="#0D0C0C" fill-opacity="0.5"/>
<circle cx="2.14941" cy="2.14941" r="2.14941" transform="matrix(-1 0 0 1 9.58398 14.248)" fill="#0D0C0C" fill-opacity="0.5"/>
<circle cx="2.14941" cy="2.14941" r="2.14941" transform="matrix(-1 0 0 1 7.43359 121.179)" fill="#0D0C0C" fill-opacity="0.5"/>
<circle cx="2.14941" cy="2.14941" r="2.14941" transform="matrix(-1 0 0 1 47.5625 143.024)" fill="#0D0C0C" fill-opacity="0.5"/>
<circle cx="3.85547" cy="3.85547" r="3.35547" transform="matrix(-1 0 0 1 97.0312 80.1504)" stroke="#0D0C0C" stroke-opacity="0.5"/>
<circle cx="6.6748" cy="6.6748" r="6.1748" transform="matrix(-1 0 0 1 45.4141 55.8379)" stroke="#0D0C0C" stroke-opacity="0.5"/>
<circle cx="6.6748" cy="6.6748" r="6.1748" transform="matrix(-1 0 0 1 36.0762 114.504)" stroke="#0D0C0C" stroke-opacity="0.5"/>
<circle cx="6.6748" cy="6.6748" r="6.1748" transform="matrix(-1 0 0 1 18.6348 87.1885)" stroke="#0D0C0C" stroke-opacity="0.5"/>
<circle cx="6.6748" cy="6.6748" r="6.1748" transform="matrix(-1 0 0 1 13.3496 41.3838)" stroke="#0D0C0C" stroke-opacity="0.5"/>
<circle cx="6.6748" cy="6.6748" r="6.1748" transform="matrix(-1 0 0 1 41.2793 12.668)" stroke="#0D0C0C" stroke-opacity="0.5"/>
<circle cx="6.6748" cy="6.6748" r="6.1748" transform="matrix(-1 0 0 1 17.3203 148.85)" stroke="#0D0C0C" stroke-opacity="0.5"/>
<circle cx="271.601" cy="84.0059" r="16.0322" stroke="#FF6D00"/>
<circle cx="271.601" cy="84.1885" r="24.501" stroke="#FF6D00"/>
<circle cx="271.601" cy="84.1885" r="33.5908" stroke="#FF6D00"/>
<circle cx="271.6" cy="84.0059" r="7.12305" fill="url(#paint0_radial_95_8146)"/>
<circle cx="147.673" cy="84.0059" r="16.0322" stroke="#FF6D00" stroke-dasharray="2 2"/>
<circle cx="93.1768" cy="84.0059" r="16.0322" stroke="#FF6D00" stroke-dasharray="6 6"/>
</g>
<defs>
<radialGradient id="paint0_radial_95_8146" cx="0" cy="0" r="1" gradientUnits="userSpaceOnUse" gradientTransform="translate(269.167 82.0812) rotate(74.9534) scale(9.36888)">
<stop stop-color="#FFB57E"/>
<stop offset="1" stop-color="#FF5900"/>
</radialGradient>
<clipPath id="clip0_95_8146">
<rect width="305.691" height="168.012" fill="white"/>
</clipPath>
</defs>
</svg>
