<svg width="60" height="60" viewBox="0 0 60 60" fill="none" xmlns="http://www.w3.org/2000/svg">
<g clip-path="url(#clip0_9_1053)">
<g filter="url(#filter0_f_9_1053)">
<circle cx="30" cy="30" r="16" fill="#55EC85" fill-opacity="0.4"/>
</g>
<rect x="30" y="3" width="1" height="55" fill="#55EC85"/>
<rect x="2" y="15" width="1" height="32" fill="#55EC85"/>
<rect x="57" y="15" width="1" height="32" fill="#55EC85"/>
<path d="M2 15L30.5 3L58 15L30.5 26L2 15Z" stroke="#55EC85" stroke-linejoin="round"/>
<path d="M2 30L30.5 18L58 30L30.5 41L2 30Z" stroke="#55EC85" stroke-linejoin="round"/>
<path d="M2 47L30.5 35L58 47L30.5 58L2 47Z" stroke="#55EC85" stroke-linejoin="round"/>
<circle cx="47.5" cy="14.5" r="1.5" fill="#55EC85"/>
<circle cx="18.5" cy="17.5" r="1.5" fill="#55EC85"/>
<circle cx="27.5" cy="7.5" r="1.5" fill="#55EC85"/>
<circle cx="23.5" cy="30.5" r="1.5" fill="#55EC85"/>
<circle cx="41.5" cy="26.5" r="1.5" fill="#55EC85"/>
<circle cx="39.5" cy="47.5" r="1.5" fill="#55EC85"/>
<circle cx="26.5" cy="50.5" r="1.5" fill="#55EC85"/>
<circle cx="13.5" cy="46.5" r="1.5" fill="#55EC85"/>
</g>
<defs>
<filter id="filter0_f_9_1053" x="-10" y="-10" width="80" height="80" filterUnits="userSpaceOnUse" color-interpolation-filters="sRGB">
<feFlood flood-opacity="0" result="BackgroundImageFix"/>
<feBlend mode="normal" in="SourceGraphic" in2="BackgroundImageFix" result="shape"/>
<feGaussianBlur stdDeviation="12" result="effect1_foregroundBlur_9_1053"/>
</filter>
<clipPath id="clip0_9_1053">
<rect width="60" height="60" fill="white"/>
</clipPath>
</defs>
</svg>
