<svg width="60" height="60" viewBox="0 0 60 60" fill="none" xmlns="http://www.w3.org/2000/svg">
<g clip-path="url(#clip0_9_1032)">
<g filter="url(#filter0_f_9_1032)">
<circle cx="30" cy="30" r="16" fill="#5DAEE0" fill-opacity="0.4"/>
</g>
<rect x="30" y="2" width="1" height="56" fill="#5DAEE0"/>
<rect x="16" y="2" width="1" height="56" fill="#5DAEE0"/>
<rect x="44" y="2" width="1" height="56" fill="#5DAEE0"/>
<rect x="58" y="31" width="1" height="56" transform="rotate(90 58 31)" fill="#5DAEE0"/>
<rect x="58" y="45" width="1" height="56" transform="rotate(90 58 45)" fill="#5DAEE0"/>
<rect x="58" y="17" width="1" height="56" transform="rotate(90 58 17)" fill="#5DAEE0"/>
<circle cx="34.5" cy="24.5" r="1.5" fill="#5DAEE0"/>
<circle cx="41.5" cy="28.5" r="1.5" fill="#5DAEE0"/>
<circle cx="47.5" cy="14.5" r="1.5" fill="#5DAEE0"/>
<circle cx="23.5" cy="27.5" r="1.5" fill="#5DAEE0"/>
<circle cx="26.5" cy="48.5" r="1.5" fill="#5DAEE0"/>
<circle cx="37.5" cy="37.5" r="1.5" fill="#5DAEE0"/>
<circle cx="48.5" cy="48.5" r="1.5" fill="#5DAEE0"/>
<circle cx="8.5" cy="38.5" r="1.5" fill="#5DAEE0"/>
<circle cx="12.5" cy="13.5" r="1.5" fill="#5DAEE0"/>
</g>
<defs>
<filter id="filter0_f_9_1032" x="-10" y="-10" width="80" height="80" filterUnits="userSpaceOnUse" color-interpolation-filters="sRGB">
<feFlood flood-opacity="0" result="BackgroundImageFix"/>
<feBlend mode="normal" in="SourceGraphic" in2="BackgroundImageFix" result="shape"/>
<feGaussianBlur stdDeviation="12" result="effect1_foregroundBlur_9_1032"/>
</filter>
<clipPath id="clip0_9_1032">
<rect width="60" height="60" fill="white"/>
</clipPath>
</defs>
</svg>
