<svg width="60" height="60" viewBox="0 0 60 60" fill="none" xmlns="http://www.w3.org/2000/svg">
<g clip-path="url(#clip0_9_1138)">
<g filter="url(#filter0_f_9_1138)">
<circle cx="30" cy="30" r="16" fill="#ED69DB" fill-opacity="0.4"/>
</g>
<rect x="46" y="8" width="1" height="44" rx="0.5" fill="#ED69DB"/>
<rect x="13" y="8" width="1" height="44" rx="0.5" fill="#ED69DB"/>
<rect x="30" y="3" width="1" height="54" rx="0.5" fill="#ED69DB"/>
<rect x="57" y="29.5" width="1" height="54" rx="0.5" transform="rotate(90 57 29.5)" fill="#ED69DB"/>
<rect x="54" y="17" width="1" height="48" rx="0.500001" transform="rotate(90 54 17)" fill="#ED69DB"/>
<rect x="54" y="42" width="1" height="48" rx="0.500001" transform="rotate(90 54 42)" fill="#ED69DB"/>
<circle cx="49.5" cy="14.5" r="1.5" fill="#ED69DB"/>
<circle cx="18.5" cy="22.5" r="1.5" fill="#ED69DB"/>
<circle cx="24.5" cy="8.5" r="1.5" fill="#ED69DB"/>
<circle cx="23.5" cy="34.5" r="1.5" fill="#ED69DB"/>
<circle cx="41.5" cy="24.5" r="1.5" fill="#ED69DB"/>
<circle cx="41.5" cy="47.5" r="1.5" fill="#ED69DB"/>
<circle cx="51.5" cy="35.5" r="1.5" fill="#ED69DB"/>
<circle cx="26.5" cy="50.5" r="1.5" fill="#ED69DB"/>
<circle cx="17.5" cy="46.5" r="1.5" fill="#ED69DB"/>
<circle cx="30" cy="30" r="27" stroke="#ED69DB"/>
</g>
<defs>
<filter id="filter0_f_9_1138" x="-10" y="-10" width="80" height="80" filterUnits="userSpaceOnUse" color-interpolation-filters="sRGB">
<feFlood flood-opacity="0" result="BackgroundImageFix"/>
<feBlend mode="normal" in="SourceGraphic" in2="BackgroundImageFix" result="shape"/>
<feGaussianBlur stdDeviation="12" result="effect1_foregroundBlur_9_1138"/>
</filter>
<clipPath id="clip0_9_1138">
<rect width="60" height="60" fill="white"/>
</clipPath>
</defs>
</svg>
