<svg width="611" height="471" viewBox="0 0 611 471" fill="none" xmlns="http://www.w3.org/2000/svg">
<path d="M285.102 21V72.4424" stroke="#F76A00" stroke-width="1.42895"/>
<path d="M403.416 56.0381L375.352 99.1925" stroke="#F76A00" stroke-width="1.42895"/>
<path d="M481.942 146.404L435.301 168.124" stroke="#F76A00" stroke-width="1.42895"/>
<path d="M500.182 268.438L449.254 261.293" stroke="#F76A00" stroke-width="1.42895"/>
<path d="M449.037 380.697L410.227 346.974" stroke="#F76A00" stroke-width="1.42895"/>
<path d="M344.937 447L330.762 397.559" stroke="#F76A00" stroke-width="1.42895"/>
<path d="M225.242 447L239.417 397.559" stroke="#F76A00" stroke-width="1.42895"/>
<path d="M121.176 380.697L159.986 346.974" stroke="#F76A00" stroke-width="1.42895"/>
<path d="M70 268.438L120.928 261.293" stroke="#F76A00" stroke-width="1.42895"/>
<path d="M88.2422 146.404L134.883 168.124" stroke="#F76A00" stroke-width="1.42895"/>
<path d="M166.766 56.0381L194.83 99.1925" stroke="#F76A00" stroke-width="1.42895"/>
<path d="M515.032 274V265.48H516.328V274H515.032ZM518.369 274V267.616H519.533L519.569 269.2L519.425 269.152C519.497 268.8 519.621 268.5 519.797 268.252C519.981 268.004 520.205 267.812 520.469 267.676C520.733 267.54 521.021 267.472 521.333 267.472C521.877 267.472 522.321 267.628 522.665 267.94C523.009 268.244 523.225 268.664 523.313 269.2H523.109C523.181 268.824 523.301 268.512 523.469 268.264C523.645 268.008 523.869 267.812 524.141 267.676C524.413 267.54 524.721 267.472 525.065 267.472C525.513 267.472 525.893 267.568 526.205 267.76C526.525 267.944 526.765 268.216 526.925 268.576C527.093 268.936 527.177 269.376 527.177 269.896V274H525.905V270.208C525.905 269.656 525.805 269.24 525.605 268.96C525.405 268.68 525.101 268.54 524.693 268.54C524.429 268.54 524.197 268.608 523.997 268.744C523.797 268.88 523.641 269.076 523.529 269.332C523.425 269.588 523.373 269.896 523.373 270.256V274H522.161V270.256C522.161 269.712 522.069 269.292 521.885 268.996C521.709 268.692 521.405 268.54 520.973 268.54C520.701 268.54 520.465 268.608 520.265 268.744C520.073 268.88 519.921 269.08 519.809 269.344C519.697 269.6 519.641 269.904 519.641 270.256V274H518.369ZM528.763 274V267.616H529.927L529.963 269.2L529.819 269.152C529.891 268.8 530.015 268.5 530.191 268.252C530.375 268.004 530.599 267.812 530.863 267.676C531.127 267.54 531.415 267.472 531.727 267.472C532.271 267.472 532.715 267.628 533.059 267.94C533.403 268.244 533.619 268.664 533.707 269.2H533.503C533.575 268.824 533.695 268.512 533.863 268.264C534.039 268.008 534.263 267.812 534.535 267.676C534.807 267.54 535.115 267.472 535.459 267.472C535.907 267.472 536.287 267.568 536.599 267.76C536.919 267.944 537.159 268.216 537.319 268.576C537.487 268.936 537.571 269.376 537.571 269.896V274H536.299V270.208C536.299 269.656 536.199 269.24 535.999 268.96C535.799 268.68 535.495 268.54 535.087 268.54C534.823 268.54 534.591 268.608 534.391 268.744C534.191 268.88 534.035 269.076 533.923 269.332C533.819 269.588 533.767 269.896 533.767 270.256V274H532.555V270.256C532.555 269.712 532.463 269.292 532.279 268.996C532.103 268.692 531.799 268.54 531.367 268.54C531.095 268.54 530.859 268.608 530.659 268.744C530.467 268.88 530.315 269.08 530.203 269.344C530.091 269.6 530.035 269.904 530.035 270.256V274H528.763ZM541.316 274.144C540.676 274.144 540.164 273.932 539.78 273.508C539.404 273.076 539.216 272.48 539.216 271.72V267.616H540.488V271.396C540.488 271.972 540.588 272.396 540.788 272.668C540.988 272.94 541.292 273.076 541.7 273.076C542.164 273.076 542.524 272.928 542.78 272.632C543.044 272.328 543.176 271.904 543.176 271.36V267.616H544.448V274H543.26L543.236 272.332L543.416 272.404C543.304 272.964 543.068 273.396 542.708 273.7C542.348 273.996 541.884 274.144 541.316 274.144ZM546.248 274V267.616H547.412L547.46 269.32L547.304 269.236C547.376 268.82 547.512 268.484 547.712 268.228C547.912 267.972 548.156 267.784 548.444 267.664C548.732 267.536 549.044 267.472 549.38 267.472C549.86 267.472 550.256 267.58 550.568 267.796C550.888 268.004 551.128 268.292 551.288 268.66C551.456 269.02 551.54 269.432 551.54 269.896V274H550.268V270.28C550.268 269.904 550.228 269.588 550.148 269.332C550.068 269.076 549.936 268.88 549.752 268.744C549.568 268.608 549.328 268.54 549.032 268.54C548.584 268.54 548.22 268.688 547.94 268.984C547.66 269.28 547.52 269.712 547.52 270.28V274H546.248ZM555.825 274.144C555.217 274.144 554.685 274.008 554.229 273.736C553.773 273.464 553.421 273.076 553.173 272.572C552.925 272.068 552.801 271.48 552.801 270.808C552.801 270.128 552.925 269.54 553.173 269.044C553.421 268.548 553.773 268.164 554.229 267.892C554.685 267.612 555.217 267.472 555.825 267.472C556.433 267.472 556.965 267.612 557.421 267.892C557.877 268.164 558.229 268.548 558.477 269.044C558.725 269.54 558.849 270.128 558.849 270.808C558.849 271.48 558.725 272.068 558.477 272.572C558.229 273.076 557.877 273.464 557.421 273.736C556.965 274.008 556.433 274.144 555.825 274.144ZM555.825 273.04C556.369 273.04 556.789 272.844 557.085 272.452C557.381 272.052 557.529 271.504 557.529 270.808C557.529 270.112 557.381 269.568 557.085 269.176C556.789 268.776 556.369 268.576 555.825 268.576C555.289 268.576 554.869 268.776 554.565 269.176C554.269 269.568 554.121 270.112 554.121 270.808C554.121 271.504 554.269 272.052 554.565 272.452C554.869 272.844 555.289 273.04 555.825 273.04ZM562.702 275.944C562.198 275.944 561.754 275.868 561.37 275.716C560.986 275.564 560.67 275.348 560.422 275.068C560.174 274.796 560.006 274.476 559.918 274.108L561.238 274.024C561.326 274.288 561.478 274.496 561.694 274.648C561.918 274.808 562.254 274.888 562.702 274.888C563.23 274.888 563.634 274.776 563.914 274.552C564.202 274.328 564.346 273.988 564.346 273.532V272.608C564.194 272.936 563.95 273.196 563.614 273.388C563.278 273.58 562.902 273.676 562.486 273.676C561.95 273.676 561.474 273.544 561.058 273.28C560.642 273.016 560.318 272.652 560.086 272.188C559.854 271.724 559.738 271.188 559.738 270.58C559.738 269.964 559.85 269.424 560.074 268.96C560.306 268.496 560.626 268.132 561.034 267.868C561.45 267.604 561.918 267.472 562.438 267.472C562.894 267.472 563.294 267.576 563.638 267.784C563.99 267.992 564.242 268.272 564.394 268.624V267.616H565.618V273.496C565.618 274.024 565.498 274.468 565.258 274.828C565.026 275.196 564.69 275.472 564.25 275.656C563.818 275.848 563.302 275.944 562.702 275.944ZM562.69 272.596C563.186 272.596 563.582 272.416 563.878 272.056C564.182 271.696 564.338 271.2 564.346 270.568C564.354 270.152 564.29 269.796 564.154 269.5C564.018 269.196 563.822 268.964 563.566 268.804C563.318 268.636 563.026 268.552 562.69 268.552C562.17 268.552 561.766 268.736 561.478 269.104C561.198 269.464 561.058 269.952 561.058 270.568C561.058 271.192 561.202 271.688 561.49 272.056C561.786 272.416 562.186 272.596 562.69 272.596ZM568.815 274C568.399 274 568.063 273.892 567.807 273.676C567.551 273.46 567.423 273.116 567.423 272.644V265.48H568.695V272.524C568.695 272.668 568.731 272.776 568.803 272.848C568.883 272.92 568.995 272.956 569.139 272.956H569.643V274H568.815ZM573.356 274.144C572.748 274.144 572.216 274.008 571.76 273.736C571.304 273.464 570.952 273.076 570.704 272.572C570.456 272.068 570.332 271.48 570.332 270.808C570.332 270.128 570.456 269.54 570.704 269.044C570.952 268.548 571.304 268.164 571.76 267.892C572.216 267.612 572.748 267.472 573.356 267.472C573.964 267.472 574.496 267.612 574.952 267.892C575.408 268.164 575.76 268.548 576.008 269.044C576.256 269.54 576.38 270.128 576.38 270.808C576.38 271.48 576.256 272.068 576.008 272.572C575.76 273.076 575.408 273.464 574.952 273.736C574.496 274.008 573.964 274.144 573.356 274.144ZM573.356 273.04C573.9 273.04 574.32 272.844 574.616 272.452C574.912 272.052 575.06 271.504 575.06 270.808C575.06 270.112 574.912 269.568 574.616 269.176C574.32 268.776 573.9 268.576 573.356 268.576C572.82 268.576 572.4 268.776 572.096 269.176C571.8 269.568 571.652 270.112 571.652 270.808C571.652 271.504 571.8 272.052 572.096 272.452C572.4 272.844 572.82 273.04 573.356 273.04ZM580.846 274.144C580.406 274.144 580.014 274.048 579.67 273.856C579.334 273.656 579.074 273.384 578.89 273.04L578.854 274H577.666V265.48H578.938V268.516C579.106 268.236 579.354 267.992 579.682 267.784C580.018 267.576 580.406 267.472 580.846 267.472C581.398 267.472 581.878 267.608 582.286 267.88C582.694 268.152 583.006 268.54 583.222 269.044C583.446 269.54 583.558 270.128 583.558 270.808C583.558 271.488 583.446 272.08 583.222 272.584C583.006 273.08 582.694 273.464 582.286 273.736C581.878 274.008 581.398 274.144 580.846 274.144ZM580.642 273.04C581.13 273.04 581.518 272.844 581.806 272.452C582.094 272.052 582.238 271.504 582.238 270.808C582.238 270.112 582.094 269.568 581.806 269.176C581.518 268.776 581.134 268.576 580.654 268.576C580.294 268.576 579.986 268.664 579.73 268.84C579.474 269.016 579.278 269.272 579.142 269.608C579.006 269.936 578.938 270.336 578.938 270.808C578.938 271.264 579.006 271.66 579.142 271.996C579.278 272.332 579.474 272.592 579.73 272.776C579.986 272.952 580.29 273.04 580.642 273.04ZM586.949 274.144C586.309 274.144 585.797 273.932 585.413 273.508C585.037 273.076 584.849 272.48 584.849 271.72V267.616H586.121V271.396C586.121 271.972 586.221 272.396 586.421 272.668C586.621 272.94 586.925 273.076 587.333 273.076C587.797 273.076 588.157 272.928 588.413 272.632C588.677 272.328 588.809 271.904 588.809 271.36V267.616H590.081V274H588.893L588.869 272.332L589.049 272.404C588.937 272.964 588.701 273.396 588.341 273.7C587.981 273.996 587.517 274.144 586.949 274.144ZM593.272 274C592.856 274 592.52 273.892 592.264 273.676C592.008 273.46 591.88 273.116 591.88 272.644V265.48H593.152V272.524C593.152 272.668 593.188 272.776 593.26 272.848C593.34 272.92 593.452 272.956 593.596 272.956H594.1V274H593.272ZM595.173 274V267.616H596.445V274H595.173ZM595.149 266.692V265.42H596.469V266.692H595.149ZM598.349 274V267.616H599.513L599.561 269.32L599.405 269.236C599.477 268.82 599.613 268.484 599.813 268.228C600.013 267.972 600.257 267.784 600.545 267.664C600.833 267.536 601.145 267.472 601.481 267.472C601.961 267.472 602.357 267.58 602.669 267.796C602.989 268.004 603.229 268.292 603.389 268.66C603.557 269.02 603.641 269.432 603.641 269.896V274H602.369V270.28C602.369 269.904 602.329 269.588 602.249 269.332C602.169 269.076 602.037 268.88 601.853 268.744C601.669 268.608 601.429 268.54 601.133 268.54C600.685 268.54 600.321 268.688 600.041 268.984C599.761 269.28 599.621 269.712 599.621 270.28V274H598.349ZM607.758 274.144C607.158 274.144 606.65 274.052 606.234 273.868C605.826 273.684 605.51 273.432 605.286 273.112C605.062 272.784 604.934 272.408 604.902 271.984L606.21 271.924C606.274 272.276 606.426 272.556 606.666 272.764C606.906 272.972 607.27 273.076 607.758 273.076C608.158 273.076 608.474 273.012 608.706 272.884C608.938 272.756 609.054 272.552 609.054 272.272C609.054 272.12 609.014 271.992 608.934 271.888C608.862 271.776 608.718 271.684 608.502 271.612C608.286 271.532 607.966 271.456 607.542 271.384C606.91 271.264 606.414 271.124 606.054 270.964C605.694 270.804 605.438 270.6 605.286 270.352C605.134 270.104 605.058 269.804 605.058 269.452C605.058 268.868 605.274 268.392 605.706 268.024C606.146 267.656 606.778 267.472 607.602 267.472C608.154 267.472 608.618 267.568 608.994 267.76C609.37 267.944 609.662 268.196 609.87 268.516C610.086 268.828 610.222 269.18 610.278 269.572L608.97 269.644C608.93 269.42 608.85 269.228 608.73 269.068C608.618 268.9 608.466 268.772 608.274 268.684C608.082 268.588 607.854 268.54 607.59 268.54C607.182 268.54 606.878 268.62 606.678 268.78C606.478 268.94 606.378 269.148 606.378 269.404C606.378 269.596 606.422 269.752 606.51 269.872C606.606 269.992 606.758 270.092 606.966 270.172C607.174 270.244 607.45 270.308 607.794 270.364C608.458 270.476 608.978 270.616 609.354 270.784C609.73 270.944 609.994 271.144 610.146 271.384C610.298 271.624 610.374 271.916 610.374 272.26C610.374 272.66 610.262 273 610.038 273.28C609.814 273.56 609.506 273.776 609.114 273.928C608.722 274.072 608.27 274.144 607.758 274.144Z" fill="black"/>
<path d="M176.032 466V457.48H177.328V466H176.032ZM181.714 467.944C181.21 467.944 180.766 467.868 180.382 467.716C179.998 467.564 179.682 467.348 179.434 467.068C179.186 466.796 179.018 466.476 178.93 466.108L180.25 466.024C180.338 466.288 180.49 466.496 180.706 466.648C180.93 466.808 181.266 466.888 181.714 466.888C182.242 466.888 182.646 466.776 182.926 466.552C183.214 466.328 183.358 465.988 183.358 465.532V464.608C183.206 464.936 182.962 465.196 182.626 465.388C182.29 465.58 181.914 465.676 181.498 465.676C180.962 465.676 180.486 465.544 180.07 465.28C179.654 465.016 179.33 464.652 179.098 464.188C178.866 463.724 178.75 463.188 178.75 462.58C178.75 461.964 178.862 461.424 179.086 460.96C179.318 460.496 179.638 460.132 180.046 459.868C180.462 459.604 180.93 459.472 181.45 459.472C181.906 459.472 182.306 459.576 182.65 459.784C183.002 459.992 183.254 460.272 183.406 460.624V459.616H184.63V465.496C184.63 466.024 184.51 466.468 184.27 466.828C184.038 467.196 183.702 467.472 183.262 467.656C182.83 467.848 182.314 467.944 181.714 467.944ZM181.702 464.596C182.198 464.596 182.594 464.416 182.89 464.056C183.194 463.696 183.35 463.2 183.358 462.568C183.366 462.152 183.302 461.796 183.166 461.5C183.03 461.196 182.834 460.964 182.578 460.804C182.33 460.636 182.038 460.552 181.702 460.552C181.182 460.552 180.778 460.736 180.49 461.104C180.21 461.464 180.07 461.952 180.07 462.568C180.07 463.192 180.214 463.688 180.502 464.056C180.798 464.416 181.198 464.596 181.702 464.596ZM189.915 466.192C189.107 466.192 188.415 466.004 187.839 465.628C187.263 465.244 186.823 464.72 186.519 464.056C186.215 463.384 186.063 462.616 186.063 461.752C186.063 460.896 186.215 460.132 186.519 459.46C186.831 458.788 187.279 458.26 187.863 457.876C188.447 457.484 189.147 457.288 189.963 457.288C190.659 457.288 191.247 457.412 191.727 457.66C192.215 457.908 192.599 458.248 192.879 458.68C193.167 459.112 193.367 459.604 193.479 460.156L192.123 460.228C192.027 459.708 191.811 459.288 191.475 458.968C191.139 458.64 190.635 458.476 189.963 458.476C189.371 458.476 188.887 458.624 188.511 458.92C188.135 459.216 187.855 459.612 187.671 460.108C187.495 460.604 187.407 461.152 187.407 461.752C187.407 462.376 187.495 462.932 187.671 463.42C187.855 463.908 188.135 464.296 188.511 464.584C188.895 464.864 189.383 465.004 189.975 465.004C190.439 465.004 190.839 464.904 191.175 464.704C191.511 464.504 191.771 464.232 191.955 463.888C192.147 463.544 192.251 463.164 192.267 462.748H189.987V461.656H193.503V466H192.615L192.531 464.08L192.699 464.224C192.611 464.608 192.431 464.948 192.159 465.244C191.887 465.54 191.555 465.772 191.163 465.94C190.779 466.108 190.363 466.192 189.915 466.192ZM200.368 466.144C199.768 466.144 199.26 466.052 198.844 465.868C198.436 465.684 198.12 465.432 197.896 465.112C197.672 464.784 197.544 464.408 197.512 463.984L198.82 463.924C198.884 464.276 199.036 464.556 199.276 464.764C199.516 464.972 199.88 465.076 200.368 465.076C200.768 465.076 201.084 465.012 201.316 464.884C201.548 464.756 201.664 464.552 201.664 464.272C201.664 464.12 201.624 463.992 201.544 463.888C201.472 463.776 201.328 463.684 201.112 463.612C200.896 463.532 200.576 463.456 200.152 463.384C199.52 463.264 199.024 463.124 198.664 462.964C198.304 462.804 198.048 462.6 197.896 462.352C197.744 462.104 197.668 461.804 197.668 461.452C197.668 460.868 197.884 460.392 198.316 460.024C198.756 459.656 199.388 459.472 200.212 459.472C200.764 459.472 201.228 459.568 201.604 459.76C201.98 459.944 202.272 460.196 202.48 460.516C202.696 460.828 202.832 461.18 202.888 461.572L201.58 461.644C201.54 461.42 201.46 461.228 201.34 461.068C201.228 460.9 201.076 460.772 200.884 460.684C200.692 460.588 200.464 460.54 200.2 460.54C199.792 460.54 199.488 460.62 199.288 460.78C199.088 460.94 198.988 461.148 198.988 461.404C198.988 461.596 199.032 461.752 199.12 461.872C199.216 461.992 199.368 462.092 199.576 462.172C199.784 462.244 200.06 462.308 200.404 462.364C201.068 462.476 201.588 462.616 201.964 462.784C202.34 462.944 202.604 463.144 202.756 463.384C202.908 463.624 202.984 463.916 202.984 464.26C202.984 464.66 202.872 465 202.648 465.28C202.424 465.56 202.116 465.776 201.724 465.928C201.332 466.072 200.88 466.144 200.368 466.144ZM206.371 466.144C205.731 466.144 205.219 465.932 204.835 465.508C204.459 465.076 204.271 464.48 204.271 463.72V459.616H205.543V463.396C205.543 463.972 205.643 464.396 205.843 464.668C206.043 464.94 206.347 465.076 206.755 465.076C207.219 465.076 207.579 464.928 207.835 464.632C208.099 464.328 208.231 463.904 208.231 463.36V459.616H209.503V466H208.315L208.291 464.332L208.471 464.404C208.359 464.964 208.123 465.396 207.763 465.7C207.403 465.996 206.939 466.144 206.371 466.144ZM211.302 467.8V459.616H212.502L212.538 460.984L212.394 460.912C212.554 460.44 212.818 460.084 213.186 459.844C213.554 459.596 213.978 459.472 214.458 459.472C215.082 459.472 215.594 459.628 215.994 459.94C216.402 460.244 216.702 460.648 216.894 461.152C217.094 461.656 217.194 462.208 217.194 462.808C217.194 463.408 217.094 463.96 216.894 464.464C216.702 464.968 216.402 465.376 215.994 465.688C215.594 465.992 215.082 466.144 214.458 466.144C214.138 466.144 213.838 466.088 213.558 465.976C213.278 465.864 213.038 465.708 212.838 465.508C212.646 465.3 212.51 465.056 212.43 464.776L212.574 464.632V467.8H211.302ZM214.23 465.04C214.742 465.04 215.142 464.844 215.43 464.452C215.726 464.06 215.874 463.512 215.874 462.808C215.874 462.104 215.726 461.556 215.43 461.164C215.142 460.772 214.742 460.576 214.23 460.576C213.894 460.576 213.602 460.66 213.354 460.828C213.106 460.988 212.914 461.236 212.778 461.572C212.642 461.908 212.574 462.32 212.574 462.808C212.574 463.296 212.638 463.708 212.766 464.044C212.902 464.38 213.094 464.632 213.342 464.8C213.598 464.96 213.894 465.04 214.23 465.04ZM221.114 466.144C220.49 466.144 219.95 466.008 219.494 465.736C219.046 465.464 218.698 465.076 218.45 464.572C218.21 464.068 218.09 463.48 218.09 462.808C218.09 462.136 218.21 461.552 218.45 461.056C218.698 460.552 219.046 460.164 219.494 459.892C219.942 459.612 220.47 459.472 221.078 459.472C221.654 459.472 222.162 459.608 222.602 459.88C223.042 460.144 223.382 460.528 223.622 461.032C223.87 461.536 223.994 462.144 223.994 462.856V463.18H219.41C219.442 463.804 219.606 464.272 219.902 464.584C220.206 464.896 220.614 465.052 221.126 465.052C221.502 465.052 221.814 464.964 222.062 464.788C222.31 464.612 222.482 464.376 222.578 464.08L223.898 464.164C223.73 464.756 223.398 465.236 222.902 465.604C222.414 465.964 221.818 466.144 221.114 466.144ZM219.41 462.22H222.65C222.61 461.652 222.446 461.232 222.158 460.96C221.878 460.688 221.518 460.552 221.078 460.552C220.622 460.552 220.246 460.696 219.95 460.984C219.662 461.264 219.482 461.676 219.41 462.22ZM225.283 466V459.616H226.447L226.495 461.308L226.387 461.272C226.475 460.696 226.651 460.276 226.915 460.012C227.187 459.748 227.551 459.616 228.007 459.616H228.619V460.756H228.007C227.687 460.756 227.419 460.808 227.203 460.912C226.987 461.016 226.823 461.176 226.711 461.392C226.607 461.608 226.555 461.888 226.555 462.232V466H225.283ZM230.126 466V459.208C230.126 458.68 230.274 458.26 230.57 457.948C230.866 457.636 231.33 457.48 231.962 457.48H233.09V458.524H232.13C231.882 458.524 231.698 458.592 231.578 458.728C231.458 458.856 231.398 459.04 231.398 459.28V466H230.126ZM229.238 460.732V459.7H232.994V460.732H229.238ZM235.848 466.144C235.184 466.144 234.652 465.992 234.252 465.688C233.86 465.384 233.664 464.956 233.664 464.404C233.664 463.852 233.828 463.424 234.156 463.12C234.492 462.808 235.008 462.584 235.704 462.448L237.9 462.028C237.9 461.532 237.784 461.164 237.552 460.924C237.32 460.676 236.976 460.552 236.52 460.552C236.112 460.552 235.792 460.644 235.56 460.828C235.328 461.004 235.168 461.268 235.08 461.62L233.772 461.536C233.892 460.896 234.188 460.392 234.66 460.024C235.14 459.656 235.76 459.472 236.52 459.472C237.384 459.472 238.04 459.704 238.488 460.168C238.944 460.624 239.172 461.268 239.172 462.1V464.584C239.172 464.736 239.196 464.844 239.244 464.908C239.3 464.964 239.388 464.992 239.508 464.992H239.736V466C239.696 466.008 239.632 466.016 239.544 466.024C239.456 466.032 239.364 466.036 239.268 466.036C238.996 466.036 238.76 465.992 238.56 465.904C238.368 465.816 238.224 465.672 238.128 465.472C238.032 465.264 237.984 464.988 237.984 464.644L238.116 464.704C238.052 464.984 237.912 465.232 237.696 465.448C237.488 465.664 237.22 465.836 236.892 465.964C236.572 466.084 236.224 466.144 235.848 466.144ZM236.052 465.136C236.436 465.136 236.764 465.064 237.036 464.92C237.308 464.768 237.52 464.56 237.672 464.296C237.824 464.032 237.9 463.732 237.9 463.396V462.988L236.028 463.348C235.644 463.42 235.372 463.536 235.212 463.696C235.06 463.848 234.984 464.044 234.984 464.284C234.984 464.556 235.076 464.768 235.26 464.92C235.452 465.064 235.716 465.136 236.052 465.136ZM240.81 466V459.616H241.974L242.01 461.2L241.866 461.152C241.938 460.8 242.062 460.5 242.238 460.252C242.422 460.004 242.646 459.812 242.91 459.676C243.174 459.54 243.462 459.472 243.774 459.472C244.318 459.472 244.762 459.628 245.106 459.94C245.45 460.244 245.666 460.664 245.754 461.2H245.55C245.622 460.824 245.742 460.512 245.91 460.264C246.086 460.008 246.31 459.812 246.582 459.676C246.854 459.54 247.162 459.472 247.506 459.472C247.954 459.472 248.334 459.568 248.646 459.76C248.966 459.944 249.206 460.216 249.366 460.576C249.534 460.936 249.618 461.376 249.618 461.896V466H248.346V462.208C248.346 461.656 248.246 461.24 248.046 460.96C247.846 460.68 247.542 460.54 247.134 460.54C246.87 460.54 246.638 460.608 246.438 460.744C246.238 460.88 246.082 461.076 245.97 461.332C245.866 461.588 245.814 461.896 245.814 462.256V466H244.602V462.256C244.602 461.712 244.51 461.292 244.326 460.996C244.15 460.692 243.846 460.54 243.414 460.54C243.142 460.54 242.906 460.608 242.706 460.744C242.514 460.88 242.362 461.08 242.25 461.344C242.138 461.6 242.082 461.904 242.082 462.256V466H240.81ZM251.31 466V459.616H252.582V466H251.31ZM251.286 458.692V457.42H252.606V458.692H251.286ZM255.679 466C255.263 466 254.927 465.892 254.671 465.676C254.415 465.46 254.287 465.116 254.287 464.644V457.48H255.559V464.524C255.559 464.668 255.595 464.776 255.667 464.848C255.747 464.92 255.859 464.956 256.003 464.956H256.507V466H255.679ZM257.705 467.8V466.756H258.485C258.701 466.756 258.861 466.724 258.965 466.66C259.069 466.596 259.149 466.488 259.205 466.336L259.409 465.808H259.013L256.709 459.616H258.053L259.805 464.632L261.473 459.616H262.829L260.285 466.744C260.157 467.112 259.965 467.38 259.709 467.548C259.461 467.716 259.113 467.8 258.665 467.8H257.705Z" fill="black"/>
<path d="M99.416 406.192C98.648 406.192 97.972 406.016 97.388 405.664C96.804 405.304 96.348 404.792 96.02 404.128C95.692 403.464 95.528 402.672 95.528 401.752C95.528 400.84 95.688 400.052 96.008 399.388C96.336 398.716 96.792 398.2 97.376 397.84C97.96 397.472 98.644 397.288 99.428 397.288C100.484 397.288 101.304 397.552 101.888 398.08C102.472 398.608 102.852 399.34 103.028 400.276L101.672 400.348C101.56 399.764 101.32 399.308 100.952 398.98C100.584 398.644 100.076 398.476 99.428 398.476C98.908 398.476 98.456 398.608 98.072 398.872C97.696 399.136 97.4 399.512 97.184 400C96.976 400.488 96.872 401.072 96.872 401.752C96.872 402.432 96.976 403.016 97.184 403.504C97.4 403.992 97.7 404.364 98.084 404.62C98.468 404.876 98.912 405.004 99.416 405.004C100.104 405.004 100.636 404.824 101.012 404.464C101.396 404.096 101.636 403.592 101.732 402.952L103.088 403.024C102.984 403.672 102.776 404.232 102.464 404.704C102.152 405.176 101.74 405.544 101.228 405.808C100.716 406.064 100.112 406.192 99.416 406.192ZM104.552 406V397.48H107.288C108.624 397.48 109.652 397.852 110.372 398.596C111.092 399.332 111.452 400.384 111.452 401.752C111.452 403.112 111.096 404.16 110.384 404.896C109.68 405.632 108.672 406 107.36 406H104.552ZM105.848 404.812H107.288C108.232 404.812 108.936 404.56 109.4 404.056C109.872 403.544 110.108 402.776 110.108 401.752C110.108 400.712 109.872 399.94 109.4 399.436C108.936 398.924 108.232 398.668 107.288 398.668H105.848V404.812ZM114.248 406V399.928H112.448V398.884H113.18C113.5 398.884 113.76 398.844 113.96 398.764C114.16 398.676 114.304 398.532 114.392 398.332C114.48 398.124 114.524 397.84 114.524 397.48H115.544V406H114.248ZM120.543 406.192C119.871 406.192 119.303 406.044 118.839 405.748C118.375 405.444 118.023 405.008 117.783 404.44C117.543 403.864 117.423 403.168 117.423 402.352C117.423 401.64 117.483 400.98 117.603 400.372C117.731 399.756 117.931 399.22 118.203 398.764C118.475 398.3 118.827 397.94 119.259 397.684C119.699 397.42 120.231 397.288 120.855 397.288C121.639 397.288 122.251 397.48 122.691 397.864C123.131 398.24 123.435 398.744 123.603 399.376L122.319 399.484C122.223 399.172 122.063 398.924 121.839 398.74C121.623 398.556 121.295 398.464 120.855 398.464C120.199 398.464 119.683 398.744 119.307 399.304C118.931 399.864 118.731 400.72 118.707 401.872L118.479 401.824C118.567 401.552 118.715 401.304 118.923 401.08C119.131 400.848 119.391 400.664 119.703 400.528C120.023 400.384 120.387 400.312 120.795 400.312C121.363 400.312 121.859 400.432 122.283 400.672C122.715 400.904 123.047 401.236 123.279 401.668C123.519 402.1 123.639 402.604 123.639 403.18C123.639 403.804 123.507 404.344 123.243 404.8C122.979 405.248 122.615 405.592 122.151 405.832C121.687 406.072 121.151 406.192 120.543 406.192ZM120.555 405.04C121.075 405.04 121.495 404.876 121.815 404.548C122.143 404.212 122.307 403.756 122.307 403.18C122.307 402.82 122.235 402.508 122.091 402.244C121.955 401.972 121.759 401.764 121.503 401.62C121.255 401.476 120.967 401.404 120.639 401.404C120.279 401.404 119.959 401.476 119.679 401.62C119.399 401.764 119.179 401.972 119.019 402.244C118.859 402.508 118.779 402.82 118.779 403.18C118.779 403.54 118.851 403.86 118.995 404.14C119.139 404.42 119.343 404.64 119.607 404.8C119.879 404.96 120.195 405.04 120.555 405.04Z" fill="black"/>
<path d="M340.416 466.192C339.648 466.192 338.972 466.016 338.388 465.664C337.804 465.304 337.348 464.792 337.02 464.128C336.692 463.464 336.528 462.672 336.528 461.752C336.528 460.84 336.688 460.052 337.008 459.388C337.336 458.716 337.792 458.2 338.376 457.84C338.96 457.472 339.644 457.288 340.428 457.288C341.484 457.288 342.304 457.552 342.888 458.08C343.472 458.608 343.852 459.34 344.028 460.276L342.672 460.348C342.56 459.764 342.32 459.308 341.952 458.98C341.584 458.644 341.076 458.476 340.428 458.476C339.908 458.476 339.456 458.608 339.072 458.872C338.696 459.136 338.4 459.512 338.184 460C337.976 460.488 337.872 461.072 337.872 461.752C337.872 462.432 337.976 463.016 338.184 463.504C338.4 463.992 338.7 464.364 339.084 464.62C339.468 464.876 339.912 465.004 340.416 465.004C341.104 465.004 341.636 464.824 342.012 464.464C342.396 464.096 342.636 463.592 342.732 462.952L344.088 463.024C343.984 463.672 343.776 464.232 343.464 464.704C343.152 465.176 342.74 465.544 342.228 465.808C341.716 466.064 341.112 466.192 340.416 466.192ZM345.552 466V457.48H348.288C349.624 457.48 350.652 457.852 351.372 458.596C352.092 459.332 352.452 460.384 352.452 461.752C352.452 463.112 352.096 464.16 351.384 464.896C350.68 465.632 349.672 466 348.36 466H345.552ZM346.848 464.812H348.288C349.232 464.812 349.936 464.56 350.4 464.056C350.872 463.544 351.108 462.776 351.108 461.752C351.108 460.712 350.872 459.94 350.4 459.436C349.936 458.924 349.232 458.668 348.288 458.668H346.848V464.812ZM357.612 466V464.224H353.316V463.12L357.456 457.48H358.908V463.048H359.952V464.224H358.908V466H357.612ZM354.792 463.048H357.612V459.28L354.792 463.048Z" fill="black"/>
<path d="M446.9 403.8V395.616H448.1L448.136 396.984L447.992 396.912C448.152 396.44 448.416 396.084 448.784 395.844C449.152 395.596 449.576 395.472 450.056 395.472C450.68 395.472 451.192 395.628 451.592 395.94C452 396.244 452.3 396.648 452.492 397.152C452.692 397.656 452.792 398.208 452.792 398.808C452.792 399.408 452.692 399.96 452.492 400.464C452.3 400.968 452 401.376 451.592 401.688C451.192 401.992 450.68 402.144 450.056 402.144C449.736 402.144 449.436 402.088 449.156 401.976C448.876 401.864 448.636 401.708 448.436 401.508C448.244 401.3 448.108 401.056 448.028 400.776L448.172 400.632V403.8H446.9ZM449.828 401.04C450.34 401.04 450.74 400.844 451.028 400.452C451.324 400.06 451.472 399.512 451.472 398.808C451.472 398.104 451.324 397.556 451.028 397.164C450.74 396.772 450.34 396.576 449.828 396.576C449.492 396.576 449.2 396.66 448.952 396.828C448.704 396.988 448.512 397.236 448.376 397.572C448.24 397.908 448.172 398.32 448.172 398.808C448.172 399.296 448.236 399.708 448.364 400.044C448.5 400.38 448.692 400.632 448.94 400.8C449.196 400.96 449.492 401.04 449.828 401.04ZM454.216 402V393.48H455.992L458.524 400.476L461.056 393.48H462.832V402H461.536V395.76L459.244 401.988H457.804L455.512 395.76V402H454.216ZM464.68 402V393.48H465.976V397.584L465.352 397.128H470.536L469.912 397.584V393.48H471.208V402H469.912V397.848L470.536 398.304H465.352L465.976 397.848V402H464.68ZM476.479 402.192C475.711 402.192 475.035 402.016 474.451 401.664C473.867 401.304 473.411 400.792 473.083 400.128C472.755 399.464 472.591 398.672 472.591 397.752C472.591 396.84 472.751 396.052 473.071 395.388C473.399 394.716 473.855 394.2 474.439 393.84C475.023 393.472 475.707 393.288 476.491 393.288C477.547 393.288 478.367 393.552 478.951 394.08C479.535 394.608 479.915 395.34 480.091 396.276L478.735 396.348C478.623 395.764 478.383 395.308 478.015 394.98C477.647 394.644 477.139 394.476 476.491 394.476C475.971 394.476 475.519 394.608 475.135 394.872C474.759 395.136 474.463 395.512 474.247 396C474.039 396.488 473.935 397.072 473.935 397.752C473.935 398.432 474.039 399.016 474.247 399.504C474.463 399.992 474.763 400.364 475.146 400.62C475.531 400.876 475.975 401.004 476.479 401.004C477.167 401.004 477.699 400.824 478.075 400.464C478.459 400.096 478.699 399.592 478.795 398.952L480.151 399.024C480.047 399.672 479.839 400.232 479.527 400.704C479.215 401.176 478.803 401.544 478.291 401.808C477.779 402.064 477.175 402.192 476.479 402.192Z" fill="black"/>
<path d="M478.416 114.192C477.648 114.192 476.972 114.016 476.388 113.664C475.804 113.304 475.348 112.792 475.02 112.128C474.692 111.464 474.528 110.672 474.528 109.752C474.528 108.84 474.688 108.052 475.008 107.388C475.336 106.716 475.792 106.2 476.376 105.84C476.96 105.472 477.644 105.288 478.428 105.288C479.484 105.288 480.304 105.552 480.888 106.08C481.472 106.608 481.852 107.34 482.028 108.276L480.672 108.348C480.56 107.764 480.32 107.308 479.952 106.98C479.584 106.644 479.076 106.476 478.428 106.476C477.908 106.476 477.456 106.608 477.072 106.872C476.696 107.136 476.4 107.512 476.184 108C475.976 108.488 475.872 109.072 475.872 109.752C475.872 110.432 475.976 111.016 476.184 111.504C476.4 111.992 476.7 112.364 477.084 112.62C477.468 112.876 477.912 113.004 478.416 113.004C479.104 113.004 479.636 112.824 480.012 112.464C480.396 112.096 480.636 111.592 480.732 110.952L482.088 111.024C481.984 111.672 481.776 112.232 481.464 112.704C481.152 113.176 480.74 113.544 480.228 113.808C479.716 114.064 479.112 114.192 478.416 114.192ZM485.989 114.144C485.381 114.144 484.849 114.008 484.393 113.736C483.937 113.464 483.585 113.076 483.337 112.572C483.089 112.068 482.965 111.48 482.965 110.808C482.965 110.128 483.089 109.54 483.337 109.044C483.585 108.548 483.937 108.164 484.393 107.892C484.849 107.612 485.381 107.472 485.989 107.472C486.597 107.472 487.129 107.612 487.585 107.892C488.041 108.164 488.393 108.548 488.641 109.044C488.889 109.54 489.013 110.128 489.013 110.808C489.013 111.48 488.889 112.068 488.641 112.572C488.393 113.076 488.041 113.464 487.585 113.736C487.129 114.008 486.597 114.144 485.989 114.144ZM485.989 113.04C486.533 113.04 486.953 112.844 487.249 112.452C487.545 112.052 487.693 111.504 487.693 110.808C487.693 110.112 487.545 109.568 487.249 109.176C486.953 108.776 486.533 108.576 485.989 108.576C485.453 108.576 485.033 108.776 484.729 109.176C484.433 109.568 484.285 110.112 484.285 110.808C484.285 111.504 484.433 112.052 484.729 112.452C485.033 112.844 485.453 113.04 485.989 113.04ZM490.298 114V107.616H491.462L491.498 109.2L491.354 109.152C491.426 108.8 491.55 108.5 491.726 108.252C491.91 108.004 492.134 107.812 492.398 107.676C492.662 107.54 492.95 107.472 493.262 107.472C493.806 107.472 494.25 107.628 494.594 107.94C494.938 108.244 495.154 108.664 495.242 109.2H495.038C495.11 108.824 495.23 108.512 495.398 108.264C495.574 108.008 495.798 107.812 496.07 107.676C496.342 107.54 496.65 107.472 496.994 107.472C497.442 107.472 497.822 107.568 498.134 107.76C498.454 107.944 498.694 108.216 498.854 108.576C499.022 108.936 499.106 109.376 499.106 109.896V114H497.834V110.208C497.834 109.656 497.734 109.24 497.534 108.96C497.334 108.68 497.03 108.54 496.622 108.54C496.358 108.54 496.126 108.608 495.926 108.744C495.726 108.88 495.57 109.076 495.458 109.332C495.354 109.588 495.302 109.896 495.302 110.256V114H494.09V110.256C494.09 109.712 493.998 109.292 493.814 108.996C493.638 108.692 493.334 108.54 492.902 108.54C492.63 108.54 492.394 108.608 492.194 108.744C492.002 108.88 491.85 109.08 491.738 109.344C491.626 109.6 491.57 109.904 491.57 110.256V114H490.298ZM500.693 115.8V107.616H501.893L501.929 108.984L501.785 108.912C501.945 108.44 502.209 108.084 502.577 107.844C502.945 107.596 503.369 107.472 503.849 107.472C504.473 107.472 504.985 107.628 505.385 107.94C505.793 108.244 506.093 108.648 506.285 109.152C506.485 109.656 506.585 110.208 506.585 110.808C506.585 111.408 506.485 111.96 506.285 112.464C506.093 112.968 505.793 113.376 505.385 113.688C504.985 113.992 504.473 114.144 503.849 114.144C503.529 114.144 503.229 114.088 502.949 113.976C502.669 113.864 502.429 113.708 502.229 113.508C502.037 113.3 501.901 113.056 501.821 112.776L501.965 112.632V115.8H500.693ZM503.621 113.04C504.133 113.04 504.533 112.844 504.821 112.452C505.117 112.06 505.265 111.512 505.265 110.808C505.265 110.104 505.117 109.556 504.821 109.164C504.533 108.772 504.133 108.576 503.621 108.576C503.285 108.576 502.993 108.66 502.745 108.828C502.497 108.988 502.305 109.236 502.169 109.572C502.033 109.908 501.965 110.32 501.965 110.808C501.965 111.296 502.029 111.708 502.157 112.044C502.293 112.38 502.485 112.632 502.733 112.8C502.989 112.96 503.285 113.04 503.621 113.04ZM509.327 114C508.911 114 508.575 113.892 508.319 113.676C508.063 113.46 507.935 113.116 507.935 112.644V105.48H509.207V112.524C509.207 112.668 509.243 112.776 509.315 112.848C509.395 112.92 509.507 112.956 509.651 112.956H510.155V114H509.327ZM513.868 114.144C513.244 114.144 512.704 114.008 512.248 113.736C511.8 113.464 511.452 113.076 511.204 112.572C510.964 112.068 510.844 111.48 510.844 110.808C510.844 110.136 510.964 109.552 511.204 109.056C511.452 108.552 511.8 108.164 512.248 107.892C512.696 107.612 513.224 107.472 513.832 107.472C514.408 107.472 514.916 107.608 515.356 107.88C515.796 108.144 516.136 108.528 516.376 109.032C516.624 109.536 516.748 110.144 516.748 110.856V111.18H512.164C512.196 111.804 512.36 112.272 512.656 112.584C512.96 112.896 513.368 113.052 513.88 113.052C514.256 113.052 514.568 112.964 514.816 112.788C515.064 112.612 515.236 112.376 515.332 112.08L516.652 112.164C516.484 112.756 516.152 113.236 515.656 113.604C515.168 113.964 514.572 114.144 513.868 114.144ZM512.164 110.22H515.404C515.364 109.652 515.2 109.232 514.912 108.96C514.632 108.688 514.272 108.552 513.832 108.552C513.376 108.552 513 108.696 512.704 108.984C512.416 109.264 512.236 109.676 512.164 110.22ZM517.162 114L519.478 110.736L517.258 107.616H518.674L520.246 109.908L521.77 107.616H523.222L521.026 110.76L523.318 114H521.902L520.258 111.564L518.602 114H517.162ZM474.9 133.8V125.616H476.1L476.136 126.984L475.992 126.912C476.152 126.44 476.416 126.084 476.784 125.844C477.152 125.596 477.576 125.472 478.056 125.472C478.68 125.472 479.192 125.628 479.592 125.94C480 126.244 480.3 126.648 480.492 127.152C480.692 127.656 480.792 128.208 480.792 128.808C480.792 129.408 480.692 129.96 480.492 130.464C480.3 130.968 480 131.376 479.592 131.688C479.192 131.992 478.68 132.144 478.056 132.144C477.736 132.144 477.436 132.088 477.156 131.976C476.876 131.864 476.636 131.708 476.436 131.508C476.244 131.3 476.108 131.056 476.028 130.776L476.172 130.632V133.8H474.9ZM477.828 131.04C478.34 131.04 478.74 130.844 479.028 130.452C479.324 130.06 479.472 129.512 479.472 128.808C479.472 128.104 479.324 127.556 479.028 127.164C478.74 126.772 478.34 126.576 477.828 126.576C477.492 126.576 477.2 126.66 476.952 126.828C476.704 126.988 476.512 127.236 476.376 127.572C476.24 127.908 476.172 128.32 476.172 128.808C476.172 129.296 476.236 129.708 476.364 130.044C476.5 130.38 476.692 130.632 476.94 130.8C477.196 130.96 477.492 131.04 477.828 131.04ZM482.084 132V125.616H483.248L483.296 127.308L483.188 127.272C483.276 126.696 483.452 126.276 483.716 126.012C483.988 125.748 484.352 125.616 484.808 125.616H485.42V126.756H484.808C484.488 126.756 484.22 126.808 484.004 126.912C483.788 127.016 483.624 127.176 483.512 127.392C483.408 127.608 483.356 127.888 483.356 128.232V132H482.084ZM488.954 132.144C488.346 132.144 487.814 132.008 487.358 131.736C486.902 131.464 486.55 131.076 486.302 130.572C486.054 130.068 485.93 129.48 485.93 128.808C485.93 128.128 486.054 127.54 486.302 127.044C486.55 126.548 486.902 126.164 487.358 125.892C487.814 125.612 488.346 125.472 488.954 125.472C489.562 125.472 490.094 125.612 490.55 125.892C491.006 126.164 491.358 126.548 491.606 127.044C491.854 127.54 491.978 128.128 491.978 128.808C491.978 129.48 491.854 130.068 491.606 130.572C491.358 131.076 491.006 131.464 490.55 131.736C490.094 132.008 489.562 132.144 488.954 132.144ZM488.954 131.04C489.498 131.04 489.918 130.844 490.214 130.452C490.51 130.052 490.658 129.504 490.658 128.808C490.658 128.112 490.51 127.568 490.214 127.176C489.918 126.776 489.498 126.576 488.954 126.576C488.418 126.576 487.998 126.776 487.694 127.176C487.398 127.568 487.25 128.112 487.25 128.808C487.25 129.504 487.398 130.052 487.694 130.452C487.998 130.844 488.418 131.04 488.954 131.04ZM495.477 132C494.869 132 494.421 131.86 494.133 131.58C493.845 131.3 493.701 130.864 493.701 130.272V124.116H494.973V130.176C494.973 130.472 495.037 130.676 495.165 130.788C495.293 130.9 495.489 130.956 495.753 130.956H496.665V132H495.477ZM492.729 126.66V125.616H496.665V126.66H492.729ZM500.403 132.144C499.779 132.144 499.239 132.008 498.783 131.736C498.335 131.464 497.987 131.076 497.739 130.572C497.499 130.068 497.379 129.48 497.379 128.808C497.379 128.136 497.499 127.552 497.739 127.056C497.987 126.552 498.335 126.164 498.783 125.892C499.231 125.612 499.759 125.472 500.367 125.472C500.943 125.472 501.451 125.608 501.891 125.88C502.331 126.144 502.671 126.528 502.911 127.032C503.159 127.536 503.283 128.144 503.283 128.856V129.18H498.699C498.731 129.804 498.895 130.272 499.191 130.584C499.495 130.896 499.903 131.052 500.415 131.052C500.791 131.052 501.103 130.964 501.351 130.788C501.599 130.612 501.771 130.376 501.867 130.08L503.187 130.164C503.019 130.756 502.687 131.236 502.191 131.604C501.703 131.964 501.107 132.144 500.403 132.144ZM498.699 128.22H501.939C501.899 127.652 501.735 127.232 501.447 126.96C501.167 126.688 500.807 126.552 500.367 126.552C499.911 126.552 499.535 126.696 499.239 126.984C498.951 127.264 498.771 127.676 498.699 128.22ZM504.572 132V125.616H505.844V132H504.572ZM504.548 124.692V123.42H505.868V124.692H504.548ZM507.748 132V125.616H508.912L508.96 127.32L508.804 127.236C508.876 126.82 509.012 126.484 509.212 126.228C509.412 125.972 509.656 125.784 509.944 125.664C510.232 125.536 510.544 125.472 510.88 125.472C511.36 125.472 511.756 125.58 512.068 125.796C512.388 126.004 512.628 126.292 512.788 126.66C512.956 127.02 513.04 127.432 513.04 127.896V132H511.768V128.28C511.768 127.904 511.728 127.588 511.648 127.332C511.568 127.076 511.436 126.88 511.252 126.744C511.068 126.608 510.828 126.54 510.532 126.54C510.084 126.54 509.72 126.688 509.44 126.984C509.16 127.28 509.02 127.712 509.02 128.28V132H507.748ZM517.157 132.144C516.557 132.144 516.049 132.052 515.633 131.868C515.225 131.684 514.909 131.432 514.685 131.112C514.461 130.784 514.333 130.408 514.301 129.984L515.609 129.924C515.673 130.276 515.825 130.556 516.065 130.764C516.305 130.972 516.669 131.076 517.157 131.076C517.557 131.076 517.873 131.012 518.105 130.884C518.337 130.756 518.453 130.552 518.453 130.272C518.453 130.12 518.413 129.992 518.333 129.888C518.261 129.776 518.117 129.684 517.901 129.612C517.685 129.532 517.365 129.456 516.941 129.384C516.309 129.264 515.813 129.124 515.453 128.964C515.093 128.804 514.837 128.6 514.685 128.352C514.533 128.104 514.457 127.804 514.457 127.452C514.457 126.868 514.673 126.392 515.105 126.024C515.545 125.656 516.177 125.472 517.001 125.472C517.553 125.472 518.017 125.568 518.393 125.76C518.769 125.944 519.061 126.196 519.269 126.516C519.485 126.828 519.621 127.18 519.677 127.572L518.369 127.644C518.329 127.42 518.249 127.228 518.129 127.068C518.017 126.9 517.865 126.772 517.673 126.684C517.481 126.588 517.253 126.54 516.989 126.54C516.581 126.54 516.277 126.62 516.077 126.78C515.877 126.94 515.777 127.148 515.777 127.404C515.777 127.596 515.821 127.752 515.909 127.872C516.005 127.992 516.157 128.092 516.365 128.172C516.573 128.244 516.849 128.308 517.193 128.364C517.857 128.476 518.377 128.616 518.753 128.784C519.129 128.944 519.393 129.144 519.545 129.384C519.697 129.624 519.773 129.916 519.773 130.26C519.773 130.66 519.661 131 519.437 131.28C519.213 131.56 518.905 131.776 518.513 131.928C518.121 132.072 517.669 132.144 517.157 132.144Z" fill="black"/>
<path d="M400.416 45.192C399.648 45.192 398.972 45.016 398.388 44.664C397.804 44.304 397.348 43.792 397.02 43.128C396.692 42.464 396.528 41.672 396.528 40.752C396.528 39.84 396.688 39.052 397.008 38.388C397.336 37.716 397.792 37.2 398.376 36.84C398.96 36.472 399.644 36.288 400.428 36.288C401.484 36.288 402.304 36.552 402.888 37.08C403.472 37.608 403.852 38.34 404.028 39.276L402.672 39.348C402.56 38.764 402.32 38.308 401.952 37.98C401.584 37.644 401.076 37.476 400.428 37.476C399.908 37.476 399.456 37.608 399.072 37.872C398.696 38.136 398.4 38.512 398.184 39C397.976 39.488 397.872 40.072 397.872 40.752C397.872 41.432 397.976 42.016 398.184 42.504C398.4 42.992 398.7 43.364 399.084 43.62C399.468 43.876 399.912 44.004 400.416 44.004C401.104 44.004 401.636 43.824 402.012 43.464C402.396 43.096 402.636 42.592 402.732 41.952L404.088 42.024C403.984 42.672 403.776 43.232 403.464 43.704C403.152 44.176 402.74 44.544 402.228 44.808C401.716 45.064 401.112 45.192 400.416 45.192ZM404.478 45L407.55 36.48H409.194L412.266 45H410.886L410.106 42.78H406.626L405.858 45H404.478ZM407.034 41.604H409.71L408.366 37.716L407.034 41.604ZM413.286 45V36.48H416.682C417.29 36.48 417.814 36.584 418.254 36.792C418.694 37 419.034 37.296 419.274 37.68C419.514 38.064 419.634 38.52 419.634 39.048C419.634 39.432 419.546 39.776 419.37 40.08C419.202 40.384 418.974 40.628 418.686 40.812C418.406 40.988 418.106 41.088 417.786 41.112L417.726 41.004C418.262 41.004 418.678 41.128 418.974 41.376C419.27 41.616 419.442 41.996 419.49 42.516L419.718 45H418.41L418.206 42.684C418.182 42.34 418.066 42.088 417.858 41.928C417.65 41.76 417.31 41.676 416.838 41.676H414.582V45H413.286ZM414.582 40.488H416.706C417.194 40.488 417.578 40.368 417.858 40.128C418.146 39.88 418.29 39.532 418.29 39.084C418.29 38.628 418.146 38.28 417.858 38.04C417.57 37.792 417.15 37.668 416.598 37.668H414.582V40.488ZM424.36 45V36.48H429.904V37.668H425.656V40.152H429.76V41.304H425.656V43.812H430V45H424.36ZM435.057 45.192C434.289 45.192 433.613 45.016 433.029 44.664C432.445 44.304 431.989 43.792 431.661 43.128C431.333 42.464 431.169 41.672 431.169 40.752C431.169 39.84 431.329 39.052 431.649 38.388C431.977 37.716 432.433 37.2 433.017 36.84C433.601 36.472 434.285 36.288 435.069 36.288C436.125 36.288 436.945 36.552 437.529 37.08C438.113 37.608 438.493 38.34 438.669 39.276L437.313 39.348C437.201 38.764 436.961 38.308 436.593 37.98C436.225 37.644 435.717 37.476 435.069 37.476C434.549 37.476 434.097 37.608 433.713 37.872C433.337 38.136 433.041 38.512 432.825 39C432.617 39.488 432.513 40.072 432.513 40.752C432.513 41.432 432.617 42.016 432.825 42.504C433.041 42.992 433.341 43.364 433.725 43.62C434.109 43.876 434.553 44.004 435.057 44.004C435.745 44.004 436.277 43.824 436.653 43.464C437.037 43.096 437.277 42.592 437.373 41.952L438.729 42.024C438.625 42.672 438.417 43.232 438.105 43.704C437.793 44.176 437.381 44.544 436.869 44.808C436.357 45.064 435.753 45.192 435.057 45.192ZM440.192 45V36.48H442.928C444.264 36.48 445.292 36.852 446.012 37.596C446.732 38.332 447.092 39.384 447.092 40.752C447.092 42.112 446.736 43.16 446.024 43.896C445.32 44.632 444.312 45 443 45H440.192ZM441.488 43.812H442.928C443.872 43.812 444.576 43.56 445.04 43.056C445.512 42.544 445.748 41.776 445.748 40.752C445.748 39.712 445.512 38.94 445.04 38.436C444.576 37.924 443.872 37.668 442.928 37.668H441.488V43.812ZM451.122 45.144C450.522 45.144 450.014 45.052 449.598 44.868C449.19 44.684 448.874 44.432 448.65 44.112C448.426 43.784 448.298 43.408 448.266 42.984L449.574 42.924C449.638 43.276 449.79 43.556 450.03 43.764C450.27 43.972 450.634 44.076 451.122 44.076C451.522 44.076 451.838 44.012 452.07 43.884C452.302 43.756 452.418 43.552 452.418 43.272C452.418 43.12 452.378 42.992 452.298 42.888C452.226 42.776 452.082 42.684 451.866 42.612C451.65 42.532 451.33 42.456 450.906 42.384C450.274 42.264 449.778 42.124 449.418 41.964C449.058 41.804 448.802 41.6 448.65 41.352C448.498 41.104 448.422 40.804 448.422 40.452C448.422 39.868 448.638 39.392 449.07 39.024C449.51 38.656 450.142 38.472 450.966 38.472C451.518 38.472 451.982 38.568 452.358 38.76C452.734 38.944 453.026 39.196 453.234 39.516C453.45 39.828 453.586 40.18 453.642 40.572L452.334 40.644C452.294 40.42 452.214 40.228 452.094 40.068C451.982 39.9 451.83 39.772 451.638 39.684C451.446 39.588 451.218 39.54 450.954 39.54C450.546 39.54 450.242 39.62 450.042 39.78C449.842 39.94 449.742 40.148 449.742 40.404C449.742 40.596 449.786 40.752 449.874 40.872C449.97 40.992 450.122 41.092 450.33 41.172C450.538 41.244 450.814 41.308 451.158 41.364C451.822 41.476 452.342 41.616 452.718 41.784C453.094 41.944 453.358 42.144 453.51 42.384C453.662 42.624 453.738 42.916 453.738 43.26C453.738 43.66 453.626 44 453.402 44.28C453.178 44.56 452.87 44.776 452.478 44.928C452.086 45.072 451.634 45.144 451.122 45.144Z" fill="black"/>
<path d="M274.416 13.192C273.648 13.192 272.972 13.016 272.388 12.664C271.804 12.304 271.348 11.792 271.02 11.128C270.692 10.464 270.528 9.672 270.528 8.752C270.528 7.84 270.688 7.052 271.008 6.388C271.336 5.716 271.792 5.2 272.376 4.84C272.96 4.472 273.644 4.288 274.428 4.288C275.484 4.288 276.304 4.552 276.888 5.08C277.472 5.608 277.852 6.34 278.028 7.276L276.672 7.348C276.56 6.764 276.32 6.308 275.952 5.98C275.584 5.644 275.076 5.476 274.428 5.476C273.908 5.476 273.456 5.608 273.072 5.872C272.696 6.136 272.4 6.512 272.184 7C271.976 7.488 271.872 8.072 271.872 8.752C271.872 9.432 271.976 10.016 272.184 10.504C272.4 10.992 272.7 11.364 273.084 11.62C273.468 11.876 273.912 12.004 274.416 12.004C275.104 12.004 275.636 11.824 276.012 11.464C276.396 11.096 276.636 10.592 276.732 9.952L278.088 10.024C277.984 10.672 277.776 11.232 277.464 11.704C277.152 12.176 276.74 12.544 276.228 12.808C275.716 13.064 275.112 13.192 274.416 13.192ZM279.552 13V4.48H282.288C283.624 4.48 284.652 4.852 285.372 5.596C286.092 6.332 286.452 7.384 286.452 8.752C286.452 10.112 286.096 11.16 285.384 11.896C284.68 12.632 283.672 13 282.36 13H279.552ZM280.848 11.812H282.288C283.232 11.812 283.936 11.56 284.4 11.056C284.872 10.544 285.108 9.776 285.108 8.752C285.108 7.712 284.872 6.94 284.4 6.436C283.936 5.924 283.232 5.668 282.288 5.668H280.848V11.812ZM291.612 13V11.224H287.316V10.12L291.456 4.48H292.908V10.048H293.952V11.224H292.908V13H291.612ZM288.792 10.048H291.612V6.28L288.792 10.048ZM298.355 13.192C297.723 13.192 297.183 13.092 296.735 12.892C296.287 12.684 295.935 12.396 295.679 12.028C295.423 11.66 295.275 11.236 295.235 10.756L296.567 10.672C296.631 11.12 296.819 11.456 297.131 11.68C297.451 11.896 297.859 12.004 298.355 12.004C298.915 12.004 299.355 11.848 299.675 11.536C300.003 11.224 300.167 10.788 300.167 10.228C300.167 9.86 300.091 9.544 299.939 9.28C299.795 9.008 299.587 8.8 299.315 8.656C299.043 8.504 298.719 8.428 298.343 8.428C297.967 8.428 297.631 8.508 297.335 8.668C297.039 8.828 296.827 9.048 296.699 9.328H295.355L295.931 4.48H300.923V5.668H297.083L296.723 8.584L296.519 8.404C296.655 8.164 296.827 7.968 297.035 7.816C297.243 7.656 297.483 7.536 297.755 7.456C298.035 7.368 298.331 7.324 298.643 7.324C299.219 7.324 299.719 7.448 300.143 7.696C300.575 7.944 300.911 8.288 301.151 8.728C301.391 9.168 301.511 9.668 301.511 10.228C301.511 10.812 301.379 11.328 301.115 11.776C300.851 12.224 300.483 12.572 300.011 12.82C299.539 13.068 298.987 13.192 298.355 13.192Z" fill="black"/>
<path d="M152.416 45.192C151.648 45.192 150.972 45.016 150.388 44.664C149.804 44.304 149.348 43.792 149.02 43.128C148.692 42.464 148.528 41.672 148.528 40.752C148.528 39.84 148.688 39.052 149.008 38.388C149.336 37.716 149.792 37.2 150.376 36.84C150.96 36.472 151.644 36.288 152.428 36.288C153.484 36.288 154.304 36.552 154.888 37.08C155.472 37.608 155.852 38.34 156.028 39.276L154.672 39.348C154.56 38.764 154.32 38.308 153.952 37.98C153.584 37.644 153.076 37.476 152.428 37.476C151.908 37.476 151.456 37.608 151.072 37.872C150.696 38.136 150.4 38.512 150.184 39C149.976 39.488 149.872 40.072 149.872 40.752C149.872 41.432 149.976 42.016 150.184 42.504C150.4 42.992 150.7 43.364 151.084 43.62C151.468 43.876 151.912 44.004 152.416 44.004C153.104 44.004 153.636 43.824 154.012 43.464C154.396 43.096 154.636 42.592 154.732 41.952L156.088 42.024C155.984 42.672 155.776 43.232 155.464 43.704C155.152 44.176 154.74 44.544 154.228 44.808C153.716 45.064 153.112 45.192 152.416 45.192ZM157.552 45V36.48H160.288C161.624 36.48 162.652 36.852 163.372 37.596C164.092 38.332 164.452 39.384 164.452 40.752C164.452 42.112 164.096 43.16 163.384 43.896C162.68 44.632 161.672 45 160.36 45H157.552ZM158.848 43.812H160.288C161.232 43.812 161.936 43.56 162.4 43.056C162.872 42.544 163.108 41.776 163.108 40.752C163.108 39.712 162.872 38.94 162.4 38.436C161.936 37.924 161.232 37.668 160.288 37.668H158.848V43.812ZM167.248 45V38.928H165.448V37.884H166.18C166.5 37.884 166.76 37.844 166.96 37.764C167.16 37.676 167.304 37.532 167.392 37.332C167.48 37.124 167.524 36.84 167.524 36.48H168.544V45H167.248ZM173.419 45.192C172.683 45.192 172.087 45.016 171.631 44.664C171.175 44.312 170.859 43.844 170.683 43.26L171.991 43.176C172.087 43.44 172.251 43.648 172.483 43.8C172.723 43.944 173.035 44.016 173.419 44.016C174.091 44.016 174.599 43.752 174.943 43.224C175.295 42.696 175.475 41.84 175.483 40.656L175.723 40.716C175.523 41.22 175.219 41.604 174.811 41.868C174.411 42.132 173.939 42.264 173.395 42.264C172.835 42.264 172.343 42.144 171.919 41.904C171.495 41.656 171.163 41.312 170.923 40.872C170.683 40.432 170.563 39.92 170.563 39.336C170.563 38.704 170.691 38.164 170.947 37.716C171.203 37.26 171.559 36.908 172.015 36.66C172.471 36.412 172.999 36.288 173.599 36.288C174.335 36.288 174.935 36.452 175.399 36.78C175.871 37.108 176.219 37.572 176.443 38.172C176.675 38.764 176.791 39.476 176.791 40.308C176.791 41.028 176.731 41.688 176.611 42.288C176.491 42.888 176.295 43.404 176.023 43.836C175.759 44.268 175.411 44.604 174.979 44.844C174.555 45.076 174.035 45.192 173.419 45.192ZM173.575 41.148C173.935 41.148 174.251 41.076 174.523 40.932C174.795 40.788 175.007 40.584 175.159 40.32C175.311 40.048 175.387 39.72 175.387 39.336C175.387 38.968 175.315 38.644 175.171 38.364C175.035 38.076 174.835 37.852 174.571 37.692C174.307 37.524 173.991 37.44 173.623 37.44C173.263 37.44 172.951 37.52 172.687 37.68C172.431 37.84 172.231 38.064 172.087 38.352C171.951 38.632 171.883 38.956 171.883 39.324C171.883 39.7 171.955 40.024 172.099 40.296C172.243 40.568 172.439 40.78 172.687 40.932C172.943 41.076 173.239 41.148 173.575 41.148Z" fill="black"/>
<path d="M1.032 114V105.48H2.328V114H1.032ZM4.36875 114V107.616H5.53275L5.58075 109.32L5.42475 109.236C5.49675 108.82 5.63275 108.484 5.83275 108.228C6.03275 107.972 6.27675 107.784 6.56475 107.664C6.85275 107.536 7.16475 107.472 7.50075 107.472C7.98075 107.472 8.37675 107.58 8.68875 107.796C9.00875 108.004 9.24875 108.292 9.40875 108.66C9.57675 109.02 9.66075 109.432 9.66075 109.896V114H8.38875V110.28C8.38875 109.904 8.34875 109.588 8.26875 109.332C8.18875 109.076 8.05675 108.88 7.87275 108.744C7.68875 108.608 7.44875 108.54 7.15275 108.54C6.70475 108.54 6.34075 108.688 6.06075 108.984C5.78075 109.28 5.64075 109.712 5.64075 110.28V114H4.36875ZM13.4496 114C12.8416 114 12.3936 113.86 12.1056 113.58C11.8176 113.3 11.6736 112.864 11.6736 112.272V106.116H12.9456V112.176C12.9456 112.472 13.0096 112.676 13.1376 112.788C13.2656 112.9 13.4616 112.956 13.7256 112.956H14.6376V114H13.4496ZM10.7016 108.66V107.616H14.6376V108.66H10.7016ZM18.3757 114.144C17.7517 114.144 17.2117 114.008 16.7557 113.736C16.3077 113.464 15.9597 113.076 15.7117 112.572C15.4717 112.068 15.3517 111.48 15.3517 110.808C15.3517 110.136 15.4717 109.552 15.7117 109.056C15.9597 108.552 16.3077 108.164 16.7557 107.892C17.2037 107.612 17.7317 107.472 18.3397 107.472C18.9157 107.472 19.4237 107.608 19.8637 107.88C20.3037 108.144 20.6437 108.528 20.8837 109.032C21.1317 109.536 21.2557 110.144 21.2557 110.856V111.18H16.6717C16.7037 111.804 16.8677 112.272 17.1637 112.584C17.4677 112.896 17.8757 113.052 18.3877 113.052C18.7637 113.052 19.0757 112.964 19.3237 112.788C19.5717 112.612 19.7437 112.376 19.8397 112.08L21.1597 112.164C20.9917 112.756 20.6597 113.236 20.1637 113.604C19.6757 113.964 19.0797 114.144 18.3757 114.144ZM16.6717 110.22H19.9117C19.8717 109.652 19.7077 109.232 19.4197 108.96C19.1397 108.688 18.7797 108.552 18.3397 108.552C17.8837 108.552 17.5077 108.696 17.2117 108.984C16.9237 109.264 16.7437 109.676 16.6717 110.22ZM22.5445 114V107.616H23.7085L23.7565 109.308L23.6485 109.272C23.7365 108.696 23.9125 108.276 24.1765 108.012C24.4485 107.748 24.8125 107.616 25.2685 107.616H25.8805V108.756H25.2685C24.9485 108.756 24.6805 108.808 24.4645 108.912C24.2485 109.016 24.0845 109.176 23.9725 109.392C23.8685 109.608 23.8165 109.888 23.8165 110.232V114H22.5445ZM28.3193 114C27.9033 114 27.5673 113.892 27.3113 113.676C27.0553 113.46 26.9273 113.116 26.9273 112.644V105.48H28.1993V112.524C28.1993 112.668 28.2353 112.776 28.3073 112.848C28.3873 112.92 28.4993 112.956 28.6433 112.956H29.1473V114H28.3193ZM32.86 114.144C32.236 114.144 31.696 114.008 31.24 113.736C30.792 113.464 30.444 113.076 30.196 112.572C29.956 112.068 29.836 111.48 29.836 110.808C29.836 110.136 29.956 109.552 30.196 109.056C30.444 108.552 30.792 108.164 31.24 107.892C31.688 107.612 32.216 107.472 32.824 107.472C33.4 107.472 33.908 107.608 34.348 107.88C34.788 108.144 35.128 108.528 35.368 109.032C35.616 109.536 35.74 110.144 35.74 110.856V111.18H31.156C31.188 111.804 31.352 112.272 31.648 112.584C31.952 112.896 32.36 113.052 32.872 113.052C33.248 113.052 33.56 112.964 33.808 112.788C34.056 112.612 34.228 112.376 34.324 112.08L35.644 112.164C35.476 112.756 35.144 113.236 34.648 113.604C34.16 113.964 33.564 114.144 32.86 114.144ZM31.156 110.22H34.396C34.356 109.652 34.192 109.232 33.904 108.96C33.624 108.688 33.264 108.552 32.824 108.552C32.368 108.552 31.992 108.696 31.696 108.984C31.408 109.264 31.228 109.676 31.156 110.22ZM39.1289 114.144C38.4889 114.144 37.9769 113.932 37.5929 113.508C37.2169 113.076 37.0289 112.48 37.0289 111.72V107.616H38.3009V111.396C38.3009 111.972 38.4009 112.396 38.6009 112.668C38.8009 112.94 39.1049 113.076 39.5129 113.076C39.9769 113.076 40.3369 112.928 40.5929 112.632C40.8569 112.328 40.9889 111.904 40.9889 111.36V107.616H42.2609V114H41.0729L41.0489 112.332L41.2289 112.404C41.1169 112.964 40.8809 113.396 40.5209 113.7C40.1609 113.996 39.6969 114.144 39.1289 114.144ZM43.9078 114V105.48H45.1798V110.772L48.0478 107.616H49.6558L47.1598 110.304L49.7518 114H48.2878L46.3078 111.096L45.1798 112.296V114H43.9078ZM50.6227 114V107.616H51.8947V114H50.6227ZM50.5987 106.692V105.42H51.9187V106.692H50.5987ZM53.7984 114V107.616H54.9624L55.0104 109.32L54.8544 109.236C54.9264 108.82 55.0624 108.484 55.2624 108.228C55.4624 107.972 55.7064 107.784 55.9944 107.664C56.2824 107.536 56.5944 107.472 56.9304 107.472C57.4104 107.472 57.8064 107.58 58.1184 107.796C58.4384 108.004 58.6784 108.292 58.8384 108.66C59.0064 109.02 59.0904 109.432 59.0904 109.896V114H57.8184V110.28C57.8184 109.904 57.7784 109.588 57.6984 109.332C57.6184 109.076 57.4864 108.88 57.3024 108.744C57.1184 108.608 56.8784 108.54 56.5824 108.54C56.1344 108.54 55.7704 108.688 55.4904 108.984C55.2104 109.28 55.0704 109.712 55.0704 110.28V114H53.7984ZM63.2077 114.144C62.6077 114.144 62.0997 114.052 61.6837 113.868C61.2757 113.684 60.9597 113.432 60.7357 113.112C60.5117 112.784 60.3837 112.408 60.3517 111.984L61.6597 111.924C61.7237 112.276 61.8757 112.556 62.1157 112.764C62.3557 112.972 62.7197 113.076 63.2077 113.076C63.6077 113.076 63.9237 113.012 64.1557 112.884C64.3877 112.756 64.5037 112.552 64.5037 112.272C64.5037 112.12 64.4637 111.992 64.3837 111.888C64.3117 111.776 64.1677 111.684 63.9517 111.612C63.7357 111.532 63.4157 111.456 62.9917 111.384C62.3597 111.264 61.8637 111.124 61.5037 110.964C61.1437 110.804 60.8877 110.6 60.7357 110.352C60.5837 110.104 60.5077 109.804 60.5077 109.452C60.5077 108.868 60.7237 108.392 61.1557 108.024C61.5957 107.656 62.2277 107.472 63.0517 107.472C63.6037 107.472 64.0677 107.568 64.4437 107.76C64.8197 107.944 65.1117 108.196 65.3197 108.516C65.5357 108.828 65.6717 109.18 65.7277 109.572L64.4197 109.644C64.3797 109.42 64.2997 109.228 64.1797 109.068C64.0677 108.9 63.9157 108.772 63.7237 108.684C63.5317 108.588 63.3037 108.54 63.0397 108.54C62.6317 108.54 62.3277 108.62 62.1277 108.78C61.9277 108.94 61.8277 109.148 61.8277 109.404C61.8277 109.596 61.8717 109.752 61.9597 109.872C62.0557 109.992 62.2077 110.092 62.4157 110.172C62.6237 110.244 62.8997 110.308 63.2437 110.364C63.9077 110.476 64.4277 110.616 64.8037 110.784C65.1797 110.944 65.4437 111.144 65.5957 111.384C65.7477 111.624 65.8237 111.916 65.8237 112.26C65.8237 112.66 65.7117 113 65.4877 113.28C65.2637 113.56 64.9557 113.776 64.5637 113.928C64.1717 114.072 63.7197 114.144 63.2077 114.144ZM71.9341 114.144C71.2701 114.144 70.7381 113.992 70.3381 113.688C69.9461 113.384 69.7501 112.956 69.7501 112.404C69.7501 111.852 69.9141 111.424 70.2421 111.12C70.5781 110.808 71.0941 110.584 71.7901 110.448L73.9861 110.028C73.9861 109.532 73.8701 109.164 73.6381 108.924C73.4061 108.676 73.0621 108.552 72.6061 108.552C72.1981 108.552 71.8781 108.644 71.6461 108.828C71.4141 109.004 71.2541 109.268 71.1661 109.62L69.8581 109.536C69.9781 108.896 70.2741 108.392 70.7461 108.024C71.2261 107.656 71.8461 107.472 72.6061 107.472C73.4701 107.472 74.1261 107.704 74.5741 108.168C75.0301 108.624 75.2581 109.268 75.2581 110.1V112.584C75.2581 112.736 75.2821 112.844 75.3301 112.908C75.3861 112.964 75.4741 112.992 75.5941 112.992H75.8221V114C75.7821 114.008 75.7181 114.016 75.6301 114.024C75.5421 114.032 75.4501 114.036 75.3541 114.036C75.0821 114.036 74.8461 113.992 74.6461 113.904C74.4541 113.816 74.3101 113.672 74.2141 113.472C74.1181 113.264 74.0701 112.988 74.0701 112.644L74.2021 112.704C74.1381 112.984 73.9981 113.232 73.7821 113.448C73.5741 113.664 73.3061 113.836 72.9781 113.964C72.6581 114.084 72.3101 114.144 71.9341 114.144ZM72.1381 113.136C72.5221 113.136 72.8501 113.064 73.1221 112.92C73.3941 112.768 73.6061 112.56 73.7581 112.296C73.9101 112.032 73.9861 111.732 73.9861 111.396V110.988L72.1141 111.348C71.7301 111.42 71.4581 111.536 71.2981 111.696C71.1461 111.848 71.0701 112.044 71.0701 112.284C71.0701 112.556 71.1621 112.768 71.3461 112.92C71.5381 113.064 71.8021 113.136 72.1381 113.136ZM76.8961 114V107.616H78.0601L78.1081 109.32L77.9521 109.236C78.0241 108.82 78.1601 108.484 78.3601 108.228C78.5601 107.972 78.8041 107.784 79.0921 107.664C79.3801 107.536 79.6921 107.472 80.0281 107.472C80.5081 107.472 80.9041 107.58 81.2161 107.796C81.5361 108.004 81.7761 108.292 81.9361 108.66C82.1041 109.02 82.1881 109.432 82.1881 109.896V114H80.9161V110.28C80.9161 109.904 80.8761 109.588 80.7961 109.332C80.7161 109.076 80.5841 108.88 80.4001 108.744C80.2161 108.608 79.9761 108.54 79.6801 108.54C79.2321 108.54 78.8681 108.688 78.5881 108.984C78.3081 109.28 78.1681 109.712 78.1681 110.28V114H76.8961ZM86.1133 114.144C85.5693 114.144 85.0933 114.008 84.6853 113.736C84.2853 113.464 83.9773 113.08 83.7613 112.584C83.5533 112.08 83.4493 111.488 83.4493 110.808C83.4493 110.128 83.5573 109.54 83.7733 109.044C83.9893 108.54 84.2973 108.152 84.6973 107.88C85.0973 107.608 85.5693 107.472 86.1133 107.472C86.5533 107.472 86.9453 107.564 87.2893 107.748C87.6333 107.932 87.8933 108.188 88.0693 108.516V105.48H89.3413V114H88.1533L88.1173 113.04C87.9413 113.384 87.6733 113.656 87.3133 113.856C86.9613 114.048 86.5613 114.144 86.1133 114.144ZM86.4493 113.04C86.7933 113.04 87.0853 112.952 87.3253 112.776C87.5653 112.6 87.7493 112.344 87.8773 112.008C88.0053 111.672 88.0693 111.272 88.0693 110.808C88.0693 110.328 88.0053 109.924 87.8773 109.596C87.7493 109.26 87.5653 109.008 87.3253 108.84C87.0853 108.664 86.7933 108.576 86.4493 108.576C85.9373 108.576 85.5293 108.776 85.2253 109.176C84.9213 109.568 84.7693 110.112 84.7693 110.808C84.7693 111.496 84.9213 112.04 85.2253 112.44C85.5293 112.84 85.9373 113.04 86.4493 113.04ZM0.9 132V125.616H2.064L2.112 127.308L2.004 127.272C2.092 126.696 2.268 126.276 2.532 126.012C2.804 125.748 3.168 125.616 3.624 125.616H4.236V126.756H3.624C3.304 126.756 3.036 126.808 2.82 126.912C2.604 127.016 2.44 127.176 2.328 127.392C2.224 127.608 2.172 127.888 2.172 128.232V132H0.9ZM7.77019 132.144C7.14619 132.144 6.60619 132.008 6.15019 131.736C5.70219 131.464 5.35419 131.076 5.10619 130.572C4.86619 130.068 4.74619 129.48 4.74619 128.808C4.74619 128.136 4.86619 127.552 5.10619 127.056C5.35419 126.552 5.70219 126.164 6.15019 125.892C6.59819 125.612 7.12619 125.472 7.73419 125.472C8.31019 125.472 8.81819 125.608 9.25819 125.88C9.69819 126.144 10.0382 126.528 10.2782 127.032C10.5262 127.536 10.6502 128.144 10.6502 128.856V129.18H6.06619C6.09819 129.804 6.26219 130.272 6.55819 130.584C6.86219 130.896 7.27019 131.052 7.78219 131.052C8.15819 131.052 8.47019 130.964 8.71819 130.788C8.96619 130.612 9.13819 130.376 9.23419 130.08L10.5542 130.164C10.3862 130.756 10.0542 131.236 9.55819 131.604C9.07019 131.964 8.47419 132.144 7.77019 132.144ZM6.06619 128.22H9.30619C9.26619 127.652 9.10219 127.232 8.81419 126.96C8.53419 126.688 8.17419 126.552 7.73419 126.552C7.27819 126.552 6.90219 126.696 6.60619 126.984C6.31819 127.264 6.13819 127.676 6.06619 128.22ZM14.5671 132.144C13.9591 132.144 13.4271 132.008 12.9711 131.736C12.5151 131.464 12.1631 131.076 11.9151 130.572C11.6671 130.068 11.5431 129.48 11.5431 128.808C11.5431 128.136 11.6671 127.552 11.9151 127.056C12.1631 126.552 12.5151 126.164 12.9711 125.892C13.4271 125.612 13.9591 125.472 14.5671 125.472C15.0871 125.472 15.5471 125.564 15.9471 125.748C16.3551 125.924 16.6831 126.184 16.9311 126.528C17.1871 126.872 17.3511 127.292 17.4231 127.788L16.0911 127.86C16.0271 127.444 15.8591 127.128 15.5871 126.912C15.3151 126.688 14.9751 126.576 14.5671 126.576C14.0311 126.576 13.6111 126.776 13.3071 127.176C13.0111 127.568 12.8631 128.112 12.8631 128.808C12.8631 129.504 13.0111 130.052 13.3071 130.452C13.6111 130.844 14.0311 131.04 14.5671 131.04C14.9751 131.04 15.3151 130.928 15.5871 130.704C15.8591 130.472 16.0271 130.124 16.0911 129.66L17.4231 129.732C17.3511 130.22 17.1871 130.644 16.9311 131.004C16.6831 131.364 16.3551 131.644 15.9471 131.844C15.5471 132.044 15.0871 132.144 14.5671 132.144ZM21.2116 132.144C20.5876 132.144 20.0476 132.008 19.5916 131.736C19.1436 131.464 18.7956 131.076 18.5476 130.572C18.3076 130.068 18.1876 129.48 18.1876 128.808C18.1876 128.136 18.3076 127.552 18.5476 127.056C18.7956 126.552 19.1436 126.164 19.5916 125.892C20.0396 125.612 20.5676 125.472 21.1756 125.472C21.7516 125.472 22.2596 125.608 22.6996 125.88C23.1396 126.144 23.4796 126.528 23.7196 127.032C23.9676 127.536 24.0916 128.144 24.0916 128.856V129.18H19.5076C19.5396 129.804 19.7036 130.272 19.9996 130.584C20.3036 130.896 20.7116 131.052 21.2236 131.052C21.5996 131.052 21.9116 130.964 22.1596 130.788C22.4076 130.612 22.5796 130.376 22.6756 130.08L23.9956 130.164C23.8276 130.756 23.4956 131.236 22.9996 131.604C22.5116 131.964 21.9156 132.144 21.2116 132.144ZM19.5076 128.22H22.7476C22.7076 127.652 22.5436 127.232 22.2556 126.96C21.9756 126.688 21.6156 126.552 21.1756 126.552C20.7196 126.552 20.3436 126.696 20.0476 126.984C19.7596 127.264 19.5796 127.676 19.5076 128.22ZM25.3805 133.8V125.616H26.5805L26.6165 126.984L26.4725 126.912C26.6325 126.44 26.8965 126.084 27.2645 125.844C27.6325 125.596 28.0565 125.472 28.5365 125.472C29.1605 125.472 29.6725 125.628 30.0725 125.94C30.4805 126.244 30.7805 126.648 30.9725 127.152C31.1725 127.656 31.2725 128.208 31.2725 128.808C31.2725 129.408 31.1725 129.96 30.9725 130.464C30.7805 130.968 30.4805 131.376 30.0725 131.688C29.6725 131.992 29.1605 132.144 28.5365 132.144C28.2165 132.144 27.9165 132.088 27.6365 131.976C27.3565 131.864 27.1165 131.708 26.9165 131.508C26.7245 131.3 26.5885 131.056 26.5085 130.776L26.6525 130.632V133.8H25.3805ZM28.3085 131.04C28.8205 131.04 29.2205 130.844 29.5085 130.452C29.8045 130.06 29.9525 129.512 29.9525 128.808C29.9525 128.104 29.8045 127.556 29.5085 127.164C29.2205 126.772 28.8205 126.576 28.3085 126.576C27.9725 126.576 27.6805 126.66 27.4325 126.828C27.1845 126.988 26.9925 127.236 26.8565 127.572C26.7205 127.908 26.6525 128.32 26.6525 128.808C26.6525 129.296 26.7165 129.708 26.8445 130.044C26.9805 130.38 27.1725 130.632 27.4205 130.8C27.6765 130.96 27.9725 131.04 28.3085 131.04ZM34.7777 132C34.1697 132 33.7217 131.86 33.4337 131.58C33.1457 131.3 33.0017 130.864 33.0017 130.272V124.116H34.2737V130.176C34.2737 130.472 34.3377 130.676 34.4657 130.788C34.5937 130.9 34.7897 130.956 35.0537 130.956H35.9657V132H34.7777ZM32.0297 126.66V125.616H35.9657V126.66H32.0297ZM39.7038 132.144C39.0958 132.144 38.5638 132.008 38.1078 131.736C37.6518 131.464 37.2998 131.076 37.0518 130.572C36.8038 130.068 36.6798 129.48 36.6798 128.808C36.6798 128.128 36.8038 127.54 37.0518 127.044C37.2998 126.548 37.6518 126.164 38.1078 125.892C38.5638 125.612 39.0958 125.472 39.7038 125.472C40.3118 125.472 40.8438 125.612 41.2998 125.892C41.7558 126.164 42.1078 126.548 42.3558 127.044C42.6038 127.54 42.7278 128.128 42.7278 128.808C42.7278 129.48 42.6038 130.068 42.3558 130.572C42.1078 131.076 41.7558 131.464 41.2998 131.736C40.8438 132.008 40.3118 132.144 39.7038 132.144ZM39.7038 131.04C40.2478 131.04 40.6678 130.844 40.9638 130.452C41.2598 130.052 41.4078 129.504 41.4078 128.808C41.4078 128.112 41.2598 127.568 40.9638 127.176C40.6678 126.776 40.2478 126.576 39.7038 126.576C39.1678 126.576 38.7478 126.776 38.4438 127.176C38.1478 127.568 37.9998 128.112 37.9998 128.808C37.9998 129.504 38.1478 130.052 38.4438 130.452C38.7478 130.844 39.1678 131.04 39.7038 131.04ZM44.0133 132V125.616H45.1773L45.2253 127.308L45.1173 127.272C45.2053 126.696 45.3813 126.276 45.6453 126.012C45.9173 125.748 46.2813 125.616 46.7373 125.616H47.3493V126.756H46.7373C46.4173 126.756 46.1493 126.808 45.9333 126.912C45.7173 127.016 45.5533 127.176 45.4413 127.392C45.3373 127.608 45.2853 127.888 45.2853 128.232V132H44.0133ZM54.1139 132.144C53.5139 132.144 53.0059 132.052 52.5899 131.868C52.1819 131.684 51.8659 131.432 51.6419 131.112C51.4179 130.784 51.2899 130.408 51.2579 129.984L52.5659 129.924C52.6299 130.276 52.7819 130.556 53.0219 130.764C53.2619 130.972 53.6259 131.076 54.1139 131.076C54.5139 131.076 54.8299 131.012 55.0619 130.884C55.2939 130.756 55.4099 130.552 55.4099 130.272C55.4099 130.12 55.3699 129.992 55.2899 129.888C55.2179 129.776 55.0739 129.684 54.8579 129.612C54.6419 129.532 54.3219 129.456 53.8979 129.384C53.2659 129.264 52.7699 129.124 52.4099 128.964C52.0499 128.804 51.7939 128.6 51.6419 128.352C51.4899 128.104 51.4139 127.804 51.4139 127.452C51.4139 126.868 51.6299 126.392 52.0619 126.024C52.5019 125.656 53.1339 125.472 53.9579 125.472C54.5099 125.472 54.9739 125.568 55.3499 125.76C55.7259 125.944 56.0179 126.196 56.2259 126.516C56.4419 126.828 56.5779 127.18 56.6339 127.572L55.3259 127.644C55.2859 127.42 55.2059 127.228 55.0859 127.068C54.9739 126.9 54.8219 126.772 54.6299 126.684C54.4379 126.588 54.2099 126.54 53.9459 126.54C53.5379 126.54 53.2339 126.62 53.0339 126.78C52.8339 126.94 52.7339 127.148 52.7339 127.404C52.7339 127.596 52.7779 127.752 52.8659 127.872C52.9619 127.992 53.1139 128.092 53.3219 128.172C53.5299 128.244 53.8059 128.308 54.1499 128.364C54.8139 128.476 55.3339 128.616 55.7099 128.784C56.0859 128.944 56.3499 129.144 56.5019 129.384C56.6539 129.624 56.7299 129.916 56.7299 130.26C56.7299 130.66 56.6179 131 56.3939 131.28C56.1699 131.56 55.8619 131.776 55.4699 131.928C55.0779 132.072 54.6259 132.144 54.1139 132.144ZM60.1172 132.144C59.4772 132.144 58.9652 131.932 58.5812 131.508C58.2052 131.076 58.0172 130.48 58.0172 129.72V125.616H59.2892V129.396C59.2892 129.972 59.3892 130.396 59.5892 130.668C59.7892 130.94 60.0932 131.076 60.5012 131.076C60.9652 131.076 61.3252 130.928 61.5812 130.632C61.8452 130.328 61.9772 129.904 61.9772 129.36V125.616H63.2492V132H62.0612L62.0372 130.332L62.2172 130.404C62.1052 130.964 61.8692 131.396 61.5092 131.7C61.1492 131.996 60.6852 132.144 60.1172 132.144ZM68.0761 132.144C67.6361 132.144 67.2441 132.048 66.9001 131.856C66.5641 131.656 66.3041 131.384 66.1201 131.04L66.0841 132H64.8961V123.48H66.1681V126.516C66.3361 126.236 66.5841 125.992 66.9121 125.784C67.2481 125.576 67.6361 125.472 68.0761 125.472C68.6281 125.472 69.1081 125.608 69.5161 125.88C69.9241 126.152 70.2361 126.54 70.4521 127.044C70.6761 127.54 70.7881 128.128 70.7881 128.808C70.7881 129.488 70.6761 130.08 70.4521 130.584C70.2361 131.08 69.9241 131.464 69.5161 131.736C69.1081 132.008 68.6281 132.144 68.0761 132.144ZM67.8721 131.04C68.3601 131.04 68.7481 130.844 69.0361 130.452C69.3241 130.052 69.4681 129.504 69.4681 128.808C69.4681 128.112 69.3241 127.568 69.0361 127.176C68.7481 126.776 68.3641 126.576 67.8841 126.576C67.5241 126.576 67.2161 126.664 66.9601 126.84C66.7041 127.016 66.5081 127.272 66.3721 127.608C66.2361 127.936 66.1681 128.336 66.1681 128.808C66.1681 129.264 66.2361 129.66 66.3721 129.996C66.5081 130.332 66.7041 130.592 66.9601 130.776C67.2161 130.952 67.5201 131.04 67.8721 131.04ZM74.1797 132.144C73.5397 132.144 73.0277 131.932 72.6437 131.508C72.2677 131.076 72.0797 130.48 72.0797 129.72V125.616H73.3517V129.396C73.3517 129.972 73.4517 130.396 73.6517 130.668C73.8517 130.94 74.1557 131.076 74.5637 131.076C75.0277 131.076 75.3877 130.928 75.6437 130.632C75.9077 130.328 76.0397 129.904 76.0397 129.36V125.616H77.3117V132H76.1237L76.0997 130.332L76.2797 130.404C76.1677 130.964 75.9317 131.396 75.5717 131.7C75.2117 131.996 74.7477 132.144 74.1797 132.144ZM79.1109 132V125.616H80.2749L80.3229 127.32L80.1669 127.236C80.2389 126.82 80.3749 126.484 80.5749 126.228C80.7749 125.972 81.0189 125.784 81.3069 125.664C81.5949 125.536 81.9069 125.472 82.2429 125.472C82.7229 125.472 83.1189 125.58 83.4309 125.796C83.7509 126.004 83.9909 126.292 84.1509 126.66C84.3189 127.02 84.4029 127.432 84.4029 127.896V132H83.1309V128.28C83.1309 127.904 83.0909 127.588 83.0109 127.332C82.9309 127.076 82.7989 126.88 82.6149 126.744C82.4309 126.608 82.1909 126.54 81.8949 126.54C81.4469 126.54 81.0829 126.688 80.8029 126.984C80.5229 127.28 80.3829 127.712 80.3829 128.28V132H79.1109ZM86.0836 132V125.616H87.3556V132H86.0836ZM86.0596 124.692V123.42H87.3796V124.692H86.0596ZM91.1683 132C90.5603 132 90.1123 131.86 89.8243 131.58C89.5363 131.3 89.3923 130.864 89.3923 130.272V124.116H90.6643V130.176C90.6643 130.472 90.7283 130.676 90.8563 130.788C90.9843 130.9 91.1803 130.956 91.4443 130.956H92.3563V132H91.1683ZM88.4203 126.66V125.616H92.3563V126.66H88.4203ZM95.9264 132.144C95.3264 132.144 94.8184 132.052 94.4024 131.868C93.9944 131.684 93.6784 131.432 93.4544 131.112C93.2304 130.784 93.1024 130.408 93.0704 129.984L94.3784 129.924C94.4424 130.276 94.5944 130.556 94.8344 130.764C95.0744 130.972 95.4384 131.076 95.9264 131.076C96.3264 131.076 96.6424 131.012 96.8744 130.884C97.1064 130.756 97.2224 130.552 97.2224 130.272C97.2224 130.12 97.1824 129.992 97.1024 129.888C97.0304 129.776 96.8864 129.684 96.6704 129.612C96.4544 129.532 96.1344 129.456 95.7104 129.384C95.0784 129.264 94.5824 129.124 94.2224 128.964C93.8624 128.804 93.6064 128.6 93.4544 128.352C93.3024 128.104 93.2264 127.804 93.2264 127.452C93.2264 126.868 93.4424 126.392 93.8744 126.024C94.3144 125.656 94.9464 125.472 95.7704 125.472C96.3224 125.472 96.7864 125.568 97.1624 125.76C97.5384 125.944 97.8304 126.196 98.0384 126.516C98.2544 126.828 98.3904 127.18 98.4464 127.572L97.1384 127.644C97.0984 127.42 97.0184 127.228 96.8984 127.068C96.7864 126.9 96.6344 126.772 96.4424 126.684C96.2504 126.588 96.0224 126.54 95.7584 126.54C95.3504 126.54 95.0464 126.62 94.8464 126.78C94.6464 126.94 94.5464 127.148 94.5464 127.404C94.5464 127.596 94.5904 127.752 94.6784 127.872C94.7744 127.992 94.9264 128.092 95.1344 128.172C95.3424 128.244 95.6184 128.308 95.9624 128.364C96.6264 128.476 97.1464 128.616 97.5224 128.784C97.8984 128.944 98.1624 129.144 98.3144 129.384C98.4664 129.624 98.5424 129.916 98.5424 130.26C98.5424 130.66 98.4304 131 98.2064 131.28C97.9824 131.56 97.6744 131.776 97.2824 131.928C96.8904 132.072 96.4384 132.144 95.9264 132.144Z" fill="black"/>
<path d="M2.76 273V265.668H0.144V264.48H6.672V265.668H4.056V273H2.76ZM7.53591 273V264.48H9.17991L13.1159 271.428V264.48H14.4119V273H12.7079L8.83191 266.208V273H7.53591ZM16.2664 273V264.48H21.7984V265.668H16.8784L17.5624 264.96V268.872L16.8784 268.26H21.5824V269.412H16.8784L17.5624 268.8V273H16.2664ZM23.1922 273V264.48H26.5882C27.1962 264.48 27.7202 264.584 28.1602 264.792C28.6002 265 28.9402 265.296 29.1802 265.68C29.4202 266.064 29.5402 266.52 29.5402 267.048C29.5402 267.432 29.4522 267.776 29.2762 268.08C29.1082 268.384 28.8802 268.628 28.5922 268.812C28.3122 268.988 28.0122 269.088 27.6922 269.112L27.6322 269.004C28.1682 269.004 28.5842 269.128 28.8802 269.376C29.1762 269.616 29.3482 269.996 29.3962 270.516L29.6242 273H28.3162L28.1122 270.684C28.0882 270.34 27.9722 270.088 27.7642 269.928C27.5562 269.76 27.2162 269.676 26.7442 269.676H24.4882V273H23.1922ZM24.4882 268.488H26.6122C27.1002 268.488 27.4842 268.368 27.7642 268.128C28.0522 267.88 28.1962 267.532 28.1962 267.084C28.1962 266.628 28.0522 266.28 27.7642 266.04C27.4762 265.792 27.0562 265.668 26.5042 265.668H24.4882V268.488ZM3.36 291.144C2.76 291.144 2.252 291.052 1.836 290.868C1.428 290.684 1.112 290.432 0.888 290.112C0.664 289.784 0.536 289.408 0.504 288.984L1.812 288.924C1.876 289.276 2.028 289.556 2.268 289.764C2.508 289.972 2.872 290.076 3.36 290.076C3.76 290.076 4.076 290.012 4.308 289.884C4.54 289.756 4.656 289.552 4.656 289.272C4.656 289.12 4.616 288.992 4.536 288.888C4.464 288.776 4.32 288.684 4.104 288.612C3.888 288.532 3.568 288.456 3.144 288.384C2.512 288.264 2.016 288.124 1.656 287.964C1.296 287.804 1.04 287.6 0.888 287.352C0.736 287.104 0.66 286.804 0.66 286.452C0.66 285.868 0.876 285.392 1.308 285.024C1.748 284.656 2.38 284.472 3.204 284.472C3.756 284.472 4.22 284.568 4.596 284.76C4.972 284.944 5.264 285.196 5.472 285.516C5.688 285.828 5.824 286.18 5.88 286.572L4.572 286.644C4.532 286.42 4.452 286.228 4.332 286.068C4.22 285.9 4.068 285.772 3.876 285.684C3.684 285.588 3.456 285.54 3.192 285.54C2.784 285.54 2.48 285.62 2.28 285.78C2.08 285.94 1.98 286.148 1.98 286.404C1.98 286.596 2.024 286.752 2.112 286.872C2.208 286.992 2.36 287.092 2.568 287.172C2.776 287.244 3.052 287.308 3.396 287.364C4.06 287.476 4.58 287.616 4.956 287.784C5.332 287.944 5.596 288.144 5.748 288.384C5.9 288.624 5.976 288.916 5.976 289.26C5.976 289.66 5.864 290 5.64 290.28C5.416 290.56 5.108 290.776 4.716 290.928C4.324 291.072 3.872 291.144 3.36 291.144ZM9.36328 291.144C8.72328 291.144 8.21128 290.932 7.82728 290.508C7.45128 290.076 7.26328 289.48 7.26328 288.72V284.616H8.53528V288.396C8.53528 288.972 8.63528 289.396 8.83528 289.668C9.03528 289.94 9.33928 290.076 9.74728 290.076C10.2113 290.076 10.5713 289.928 10.8273 289.632C11.0913 289.328 11.2233 288.904 11.2233 288.36V284.616H12.4953V291H11.3073L11.2833 289.332L11.4633 289.404C11.3513 289.964 11.1153 290.396 10.7553 290.7C10.3953 290.996 9.93128 291.144 9.36328 291.144ZM14.2945 292.8V284.616H15.4945L15.5305 285.984L15.3865 285.912C15.5465 285.44 15.8105 285.084 16.1785 284.844C16.5465 284.596 16.9705 284.472 17.4505 284.472C18.0745 284.472 18.5865 284.628 18.9865 284.94C19.3945 285.244 19.6945 285.648 19.8865 286.152C20.0865 286.656 20.1865 287.208 20.1865 287.808C20.1865 288.408 20.0865 288.96 19.8865 289.464C19.6945 289.968 19.3945 290.376 18.9865 290.688C18.5865 290.992 18.0745 291.144 17.4505 291.144C17.1305 291.144 16.8305 291.088 16.5505 290.976C16.2705 290.864 16.0305 290.708 15.8305 290.508C15.6385 290.3 15.5025 290.056 15.4225 289.776L15.5665 289.632V292.8H14.2945ZM17.2225 290.04C17.7345 290.04 18.1345 289.844 18.4225 289.452C18.7185 289.06 18.8665 288.512 18.8665 287.808C18.8665 287.104 18.7185 286.556 18.4225 286.164C18.1345 285.772 17.7345 285.576 17.2225 285.576C16.8865 285.576 16.5945 285.66 16.3465 285.828C16.0985 285.988 15.9065 286.236 15.7705 286.572C15.6345 286.908 15.5665 287.32 15.5665 287.808C15.5665 288.296 15.6305 288.708 15.7585 289.044C15.8945 289.38 16.0865 289.632 16.3345 289.8C16.5905 289.96 16.8865 290.04 17.2225 290.04ZM24.1061 291.144C23.4821 291.144 22.9421 291.008 22.4861 290.736C22.0381 290.464 21.6901 290.076 21.4421 289.572C21.2021 289.068 21.0821 288.48 21.0821 287.808C21.0821 287.136 21.2021 286.552 21.4421 286.056C21.6901 285.552 22.0381 285.164 22.4861 284.892C22.9341 284.612 23.4621 284.472 24.0701 284.472C24.6461 284.472 25.1541 284.608 25.5941 284.88C26.0341 285.144 26.3741 285.528 26.6141 286.032C26.8621 286.536 26.9861 287.144 26.9861 287.856V288.18H22.4021C22.4341 288.804 22.5981 289.272 22.8941 289.584C23.1981 289.896 23.6061 290.052 24.1181 290.052C24.4941 290.052 24.8061 289.964 25.0541 289.788C25.3021 289.612 25.4741 289.376 25.5701 289.08L26.8901 289.164C26.7221 289.756 26.3901 290.236 25.8941 290.604C25.4061 290.964 24.8101 291.144 24.1061 291.144ZM22.4021 287.22H25.6421C25.6021 286.652 25.4381 286.232 25.1501 285.96C24.8701 285.688 24.5101 285.552 24.0701 285.552C23.6141 285.552 23.2381 285.696 22.9421 285.984C22.6541 286.264 22.4741 286.676 22.4021 287.22ZM28.275 291V284.616H29.439L29.487 286.308L29.379 286.272C29.467 285.696 29.643 285.276 29.907 285.012C30.179 284.748 30.543 284.616 30.999 284.616H31.611V285.756H30.999C30.679 285.756 30.411 285.808 30.195 285.912C29.979 286.016 29.815 286.176 29.703 286.392C29.599 286.608 29.547 286.888 29.547 287.232V291H28.275ZM33.1183 291V284.208C33.1183 283.68 33.2663 283.26 33.5623 282.948C33.8583 282.636 34.3223 282.48 34.9543 282.48H36.0823V283.524H35.1223C34.8743 283.524 34.6903 283.592 34.5703 283.728C34.4503 283.856 34.3903 284.04 34.3903 284.28V291H33.1183ZM32.2303 285.732V284.7H35.9863V285.732H32.2303ZM38.8403 291.144C38.1763 291.144 37.6443 290.992 37.2443 290.688C36.8523 290.384 36.6563 289.956 36.6563 289.404C36.6563 288.852 36.8203 288.424 37.1483 288.12C37.4843 287.808 38.0003 287.584 38.6963 287.448L40.8923 287.028C40.8923 286.532 40.7763 286.164 40.5443 285.924C40.3123 285.676 39.9683 285.552 39.5123 285.552C39.1043 285.552 38.7843 285.644 38.5523 285.828C38.3203 286.004 38.1603 286.268 38.0723 286.62L36.7643 286.536C36.8843 285.896 37.1803 285.392 37.6523 285.024C38.1323 284.656 38.7523 284.472 39.5123 284.472C40.3763 284.472 41.0323 284.704 41.4803 285.168C41.9363 285.624 42.1643 286.268 42.1643 287.1V289.584C42.1643 289.736 42.1883 289.844 42.2363 289.908C42.2923 289.964 42.3803 289.992 42.5003 289.992H42.7283V291C42.6883 291.008 42.6243 291.016 42.5363 291.024C42.4483 291.032 42.3563 291.036 42.2603 291.036C41.9883 291.036 41.7523 290.992 41.5523 290.904C41.3603 290.816 41.2163 290.672 41.1203 290.472C41.0243 290.264 40.9763 289.988 40.9763 289.644L41.1083 289.704C41.0443 289.984 40.9043 290.232 40.6883 290.448C40.4803 290.664 40.2123 290.836 39.8843 290.964C39.5643 291.084 39.2163 291.144 38.8403 291.144ZM39.0443 290.136C39.4283 290.136 39.7563 290.064 40.0283 289.92C40.3003 289.768 40.5123 289.56 40.6643 289.296C40.8163 289.032 40.8923 288.732 40.8923 288.396V287.988L39.0203 288.348C38.6363 288.42 38.3643 288.536 38.2043 288.696C38.0523 288.848 37.9763 289.044 37.9763 289.284C37.9763 289.556 38.0683 289.768 38.2523 289.92C38.4443 290.064 38.7083 290.136 39.0443 290.136ZM43.8023 291V284.616H44.9663L45.0023 286.2L44.8583 286.152C44.9303 285.8 45.0543 285.5 45.2303 285.252C45.4143 285.004 45.6383 284.812 45.9023 284.676C46.1663 284.54 46.4543 284.472 46.7663 284.472C47.3103 284.472 47.7543 284.628 48.0983 284.94C48.4423 285.244 48.6583 285.664 48.7463 286.2H48.5423C48.6143 285.824 48.7343 285.512 48.9023 285.264C49.0783 285.008 49.3023 284.812 49.5743 284.676C49.8463 284.54 50.1543 284.472 50.4983 284.472C50.9463 284.472 51.3263 284.568 51.6383 284.76C51.9583 284.944 52.1983 285.216 52.3583 285.576C52.5263 285.936 52.6103 286.376 52.6103 286.896V291H51.3383V287.208C51.3383 286.656 51.2383 286.24 51.0383 285.96C50.8383 285.68 50.5343 285.54 50.1263 285.54C49.8623 285.54 49.6303 285.608 49.4303 285.744C49.2303 285.88 49.0743 286.076 48.9623 286.332C48.8583 286.588 48.8063 286.896 48.8063 287.256V291H47.5943V287.256C47.5943 286.712 47.5023 286.292 47.3183 285.996C47.1423 285.692 46.8383 285.54 46.4063 285.54C46.1343 285.54 45.8983 285.608 45.6983 285.744C45.5063 285.88 45.3543 286.08 45.2423 286.344C45.1303 286.6 45.0743 286.904 45.0743 287.256V291H43.8023ZM54.3023 291V284.616H55.5743V291H54.3023ZM54.2783 283.692V282.42H55.5983V283.692H54.2783ZM58.6709 291C58.2549 291 57.9189 290.892 57.6629 290.676C57.4069 290.46 57.2789 290.116 57.2789 289.644V282.48H58.5509V289.524C58.5509 289.668 58.5869 289.776 58.6589 289.848C58.7389 289.92 58.8509 289.956 58.9949 289.956H59.4989V291H58.6709ZM60.6975 292.8V291.756H61.4775C61.6935 291.756 61.8535 291.724 61.9575 291.66C62.0615 291.596 62.1415 291.488 62.1975 291.336L62.4015 290.808H62.0055L59.7015 284.616H61.0455L62.7975 289.632L64.4655 284.616H65.8215L63.2775 291.744C63.1495 292.112 62.9575 292.38 62.7015 292.548C62.4535 292.716 62.1055 292.8 61.6575 292.8H60.6975Z" fill="black"/>
</svg>
