<svg width="135" height="52" viewBox="0 0 135 52" fill="none" xmlns="http://www.w3.org/2000/svg">
<path d="M71.4369 17.7665H67.0704L62.3296 34.0899H65.5733L66.4466 30.2271H71.5616L72.5597 34.0899H76.0528L71.4369 17.7665ZM67.1951 27.6104L69.1912 20.2586L70.9378 27.6104H67.1951Z" fill="black" fill-opacity="0.5"/>
<path d="M83.662 28.358C83.662 31.3485 83.4125 32.0962 82.2897 32.0962C81.4164 32.0962 81.0421 31.3485 81.0421 28.2334C81.0421 25.6167 81.4164 24.4952 82.4144 24.4952C83.4125 24.4952 83.662 25.3675 83.662 28.358ZM83.9115 23.9968C83.4125 23.1245 82.2897 22.5015 81.1669 22.5015C78.6717 22.5015 77.7985 24.4952 77.7985 27.9842C77.7985 31.847 78.2975 34.0899 81.1669 34.0899C82.2897 34.0899 83.163 33.5914 83.662 32.5946V33.8407C83.662 36.0836 83.2877 36.4574 82.2897 36.4574C81.5411 36.4574 81.2916 36.0836 81.2916 35.2113V34.8375H78.048V35.4605C78.048 37.7034 79.2955 38.4511 82.2897 38.4511C85.6581 38.4511 86.9057 37.3296 86.9057 34.7129V22.7507H83.9115V23.9968Z" fill="black" fill-opacity="0.5"/>
<path d="M93.1464 17.7665H89.9028V20.3832H93.1464V17.7665ZM93.1464 22.7507H89.9028V34.0899H93.1464V22.7507Z" fill="black" fill-opacity="0.5"/>
<path d="M99.3842 17.7665H96.1377V34.0928H99.3842V17.7665Z" fill="black" fill-opacity="0.5"/>
<path d="M111.108 27.8625C111.108 24.2489 110.11 22.6291 106.617 22.6291C103.498 22.6291 102.001 23.8751 102.001 28.3609C102.001 33.096 103.498 34.342 106.617 34.342C109.487 34.342 110.859 33.096 111.108 30.4792H107.74C107.74 31.8499 107.366 32.3483 106.492 32.3483C105.494 32.3483 105.245 30.8531 105.245 29.2332V29.1086H111.108V27.8625ZM105.245 27.2395V26.9903C105.245 25.9934 105.494 24.4982 106.617 24.4982C107.366 24.4982 107.865 25.1212 107.865 26.4919V27.2395H105.245Z" fill="black" fill-opacity="0.5"/>
<path d="M116.85 22.7507H113.731V34.0899H116.975V26.6135C116.975 25.2428 117.599 24.4952 118.347 24.4952C118.971 24.4952 119.47 24.9936 119.47 25.9905V34.0899H122.714V26.1151C122.714 23.7476 121.84 22.5015 119.844 22.5015C118.472 22.5015 117.474 23.1245 116.85 24.3706V22.7507Z" fill="black" fill-opacity="0.5"/>
<path d="M131.197 32.2237C130.948 32.2237 130.449 32.3483 130.199 32.3483C129.451 32.3483 129.076 31.9745 129.076 30.7285V24.872H130.948V22.7537H129.076V19.6385L125.833 20.8846V22.7537H124.336V24.872H125.833V31.6007C125.833 33.5944 126.955 34.342 129.451 34.342C130.074 34.342 130.698 34.342 131.197 34.2174V32.2237Z" fill="black" fill-opacity="0.5"/>
<path d="M24.2799 16.3978L24.4027 16.2702L24.5304 16.1476L24.6532 16.0249H24.776L24.9037 15.8974H25.0265L25.1542 15.7748H25.277L25.3998 15.6472H26.5245L26.6473 15.7748H26.8978V15.8974H27.1483L27.2711 16.0249H27.3988L27.5216 16.1476L27.6493 16.2702L27.7721 16.5204V16.6479H27.8949L28.0226 16.7706V16.8933L28.1454 17.0208V17.1434L28.2731 17.271V17.6438H28.3959V18.2669L28.2731 18.3895V18.6397L28.1454 18.7623V19.0126H28.0226V19.1401H27.8949V19.2627H27.7721V19.3853L27.3988 19.7631L27.2711 19.8858H27.1483V20.0084H27.0255L26.8978 20.1359H26.6473V20.2586H25.277V20.1359H25.0265V20.0084H24.9037L24.776 19.8858H24.6532L24.0294 19.1401L23.9066 19.0126V18.7623H23.7789V18.5171L23.6561 18.3895V17.5163L23.7789 17.3937V17.1434H23.9066V16.8933L24.0294 16.7706V16.6479L24.2799 16.3978Z" fill="black" fill-opacity="0.5"/>
<path d="M25.0266 10.4177V10.2902H25.1543L25.2771 10.1675V10.0399H25.5276V9.9173H26.5246V10.0399H26.7751V10.1675H26.8979L27.0256 10.2902H27.1484V10.4177H27.2712V10.6629H27.3989V10.9132H27.5217V11.1633L27.6494 11.286V11.6638H27.5217V12.0366H27.3989V12.2868H27.2712V12.4094H27.1484V12.6596H27.0256L26.8979 12.7823H26.7751V12.9098H25.2771V12.7823L25.1543 12.6596H25.0266V12.5321H24.9038V12.4094H24.7761V12.2868H24.6533V11.7864H24.5305V11.0407H24.6533V10.6629L24.7761 10.5403V10.4177H25.0266Z" fill="black" fill-opacity="0.5"/>
<path d="M25.277 5.43344H25.5275V5.30588H25.778V5.18327H26.5246V5.30588H26.7751V5.43344H27.0256V5.55605H27.1483V6.05646H27.2711V6.42932L27.1483 6.55193V6.92479H27.0256V7.05234H26.8979V7.17496H26.7751L26.6474 7.30251H25.6503L25.5275 7.17496H25.3998V7.05234H25.277V6.80217L25.1542 6.67948V6.55193H25.0265V6.05646H25.1542V5.80629L25.277 5.67874V5.43344Z" fill="black" fill-opacity="0.5"/>
<path d="M25.778 1.19488V1.07227H26.7751V1.19488H26.8979V1.31749H27.0256V1.56774H27.1484V1.94052H27.0256V2.19076H26.8979V2.31831H26.6474V2.44093H25.9008V2.31831H25.6503V2.06807H25.5275V1.44505H25.6503V1.19488H25.778Z" fill="black" fill-opacity="0.5"/>
<path d="M27.7721 35.3389L27.3988 35.7117H27.2711L27.1483 35.8344V35.9619H26.6473L26.5245 36.0846H25.3998L25.277 35.9619H24.9037L24.776 35.8344H24.6532V35.7117L24.0294 35.0887V34.9611L23.9066 34.8385V34.7158H23.7789V34.3381L23.6561 34.2155V33.4698L23.7789 33.3422V32.9694H23.9066V32.8467L24.0294 32.7192V32.5966L24.6532 31.846H24.776L24.9037 31.7233H25.0265V31.6007H26.8978L27.0255 31.7233H27.1483V31.846H27.2711L27.7721 32.3464V32.469H27.8949V32.5966L28.0226 32.7192V32.8467H28.1454V32.9694L28.2731 33.092V33.4698H28.3959V34.0928H28.2731V34.5883L28.0226 34.8385V34.9611L27.8949 35.0887V35.2114H27.7721V35.3389Z" fill="black" fill-opacity="0.5"/>
<path d="M27.1484 41.4417H27.0256V41.5692H26.6474V41.6918H26.5246L26.4019 41.8145H25.3999V41.6918H25.2771L25.1543 41.5692H24.9038V41.4417H24.7761V41.3189H24.6533V40.9461H24.5305V40.696H24.4028V39.9453H24.5305V39.7001H24.6533V39.3224H24.7761V39.1998H24.9038V39.077H25.2771V38.9496H25.3999L25.5276 38.8268H26.4019V38.9496H26.6474V39.077H27.0256V39.1998H27.1484V39.5725H27.2712V39.7001H27.3989V40.0729L27.5217 40.1956V40.4458L27.3989 40.5684V40.9461H27.2712V41.0688L27.1484 41.1914V41.4417Z" fill="black" fill-opacity="0.5"/>
<path d="M26.6473 46.4259H26.5245V46.5534H25.2769L24.9037 46.1757V46.0531H24.776V45.9303H24.6532V45.3074L24.776 45.1798V44.9297H24.9037V44.8069H25.0264V44.6843H25.2769V44.5567H25.3997V44.4341H26.1512V44.5567H26.4017L26.5245 44.6843H26.6473V44.8069L26.775 44.9297V45.0572H26.8978V45.43H27.0255V45.5526L26.8978 45.6802V45.9303L26.775 46.0531V46.1757H26.6473V46.4259Z" fill="black" fill-opacity="0.5"/>
<path d="M26.2742 50.537L26.1514 50.6644H26.0237V50.7871H25.7781V50.9147H25.6504V50.7871H25.2771V50.6644L25.0266 50.4142V50.2916H24.9038V49.7912L25.2771 49.4183V49.2908H26.0237V49.4183H26.1514L26.5246 49.7912V50.2916H26.4019V50.4142L26.2742 50.537Z" fill="black" fill-opacity="0.5"/>
<path d="M16.544 27.4847L16.2935 27.2395L16.043 26.9893V26.8617L15.9202 26.7391V26.1161L15.7974 25.9934V25.6157L15.9202 25.4931V24.7473H16.043L16.1707 24.6198V24.4972H16.2935V24.3696L16.544 24.1243L16.6668 23.9968H16.7945V23.8742H16.9172L17.0449 23.7466H17.1677V23.624H17.4183V23.5013H18.7886L18.9163 23.624H19.0391V23.7466H19.1619L19.2896 23.8742H19.4124L19.6629 24.1243H19.7857V24.247L20.1639 24.6198V24.7473H20.2867V25.2428L20.4095 25.3704V26.3663H20.2867V26.8617L20.1639 26.9893V27.112H20.0362V27.2395L19.7857 27.3621V27.4847H19.6629V27.6123L19.5401 27.735H19.4124V27.8625H19.0391V27.9852H18.7886L18.6658 28.1078H17.5411L17.4183 27.9852H17.1677V27.8625H16.9172L16.7945 27.735H16.6668L16.544 27.4847Z" fill="black" fill-opacity="0.5"/>
<path d="M10.5567 26.8617H10.429V26.7391L10.3062 26.6165H10.1834V25.9934H10.0557V25.4931H10.1834V24.9926L10.3062 24.87V24.7473H10.5567V24.6198H10.6795V24.4972H10.8072V24.3696H11.0528V24.247H12.1776V24.3696H12.3004L12.4281 24.4972H12.5508V24.6198H12.6785V24.7473H12.8013V24.87H12.9241V25.1202L13.0519 25.2428V25.3704H13.1747V26.1161H13.0519V26.3663L12.9241 26.4889V26.6165H12.8013V26.8617H12.6785V26.9893H12.5508L12.4281 27.112H12.3004V27.2395H10.8072V27.112L10.5567 26.8617Z" fill="black" fill-opacity="0.5"/>
<path d="M5.68924 26.4889H5.56644V26.3663H5.43873V26.1161H5.31593V25.9934L5.19317 25.8658V25.3704H5.31593V25.1202H5.43873V24.9927H5.56644V24.87L5.68924 24.7474H5.93975V24.6198H6.814L6.93679 24.7474H7.1873L7.3101 24.9927V25.1202H7.43781V25.3704H7.56057V25.9934H7.43781V26.1161H7.3101V26.3663H7.1873V26.6165H6.814L6.68632 26.7391H6.06251L5.93975 26.6165H5.68924V26.4889Z" fill="black" fill-opacity="0.5"/>
<path d="M1.45048 25.9934H1.19997V25.7432H1.07227V25.3704H1.19997V25.1202H1.32277V24.9927H1.45048V24.87H1.57328V24.7474H2.19706V24.87H2.44753V24.9927H2.57033V25.2428H2.69803V25.8658H2.57033V25.9934H2.44753V26.1161H2.19706V26.2387H1.94655V26.3663L1.82375 26.2387H1.57328V26.1161H1.45048V25.9934Z" fill="black" fill-opacity="0.5"/>
<path d="M35.6307 24.1243L35.8812 24.4972V24.6198H36.004V24.7473H36.1317V24.9927H36.2545V25.3704H36.3822V26.2387L36.2545 26.3663V26.6165H36.1317V26.8617L35.8812 27.112V27.2395L35.3802 27.735H35.2574V27.8625H34.8841V27.9852H34.6336V28.1078H33.3861V27.9852H33.1356V27.8625H32.7623V27.735H32.6395L32.5118 27.6123L32.1385 27.2395L32.0157 26.9893V26.8617L31.888 26.7391V26.6165H31.7652V26.1161H31.6375V25.4931L31.7652 25.3704V25.1202L31.888 24.9927V24.7473H32.0157L32.1385 24.6198V24.3696L32.7623 23.8742L32.8851 23.7466H33.0128L33.1356 23.624H33.3861V23.5013H34.6336L34.7564 23.624H34.8841L35.0069 23.7466H35.1346L35.2574 23.8742L35.5079 24.1243H35.6307Z" fill="black" fill-opacity="0.5"/>
<path d="M41.4954 24.7473H41.6182V24.87H41.7458V24.9926H41.8686V25.2428H41.9963V25.3704L42.1191 25.4931V26.2387L41.9963 26.3662V26.6165H41.8686L41.7458 26.7391V26.8617H41.6182V26.9893H41.4954V27.2395H40.9943L40.8716 27.3621H40.125V27.2395H39.624V27.112L39.5012 26.9893H39.3735V26.7391H39.2507V26.6165H39.123V26.4889H39.0002V25.3704H39.123V25.1202L39.3735 24.87V24.7473H39.624V24.6198H39.7468V24.4972H39.9973V24.3696H40.9943L41.1221 24.4972H41.2449L41.3726 24.6198H41.4954V24.7473Z" fill="black" fill-opacity="0.5"/>
<path d="M46.4855 25.1202L46.6083 25.3704H46.7361V25.6157H46.8588V26.2387L46.7361 26.3663V26.6165H46.6083L46.4855 26.8617H46.3627V26.9893H46.1122V27.112H45.3608L45.238 26.9893L45.1152 26.8617H44.9875V26.7391H44.8647V26.6165H44.737V26.4889H44.6142V25.4931H44.737V25.3704H44.8647V25.2428H44.9875V25.1202H45.1152L45.238 24.9927V24.87H46.1122L46.235 24.9927H46.3627V25.1202H46.4855Z" fill="black" fill-opacity="0.5"/>
<path d="M50.8521 25.4931V25.8658H50.9749V26.4889H50.8521V26.6165L50.7293 26.7391H50.6016V26.8617H49.9778L49.855 26.7391H49.7273V26.6165H49.6046V26.3663H49.4818V25.9934H49.6046V25.4931H49.7273L49.855 25.3704H50.7293V25.4931H50.8521Z" fill="black" fill-opacity="0.5"/>
<path d="M18.1648 19.7632L18.2925 19.6356V19.3854L18.4153 19.2627V19.0126L19.0391 18.3895H19.1619L19.2896 18.2669H19.4124V18.1393H19.6629V18.0167H19.9134L20.0362 17.894H20.9104V18.0167H21.2837V18.1393H21.5342V18.2669L21.657 18.3895H21.7847L22.158 18.6397V18.7623L22.2808 18.8899V19.0126H22.4085V19.1401H22.5313V19.2627L22.659 19.3854V19.6356L22.7818 19.7632V20.8816L22.659 21.0092V21.1318L22.5313 21.2545V21.3821L22.158 21.7548V21.8775L21.7847 22.2553H21.5342V22.3779H21.2837V22.5006H20.9104L20.7876 22.6281H20.0362V22.5006H19.6629V22.3779H19.4124V22.2553H19.0391L18.4153 21.6322V21.2545L18.2925 21.1318V21.0092L18.1648 20.8816V19.7632Z" fill="black" fill-opacity="0.5"/>
<path d="M14.2993 15.4019H14.4221V15.0242H14.5498V14.7789H14.6726L14.9231 14.4012H15.0459V14.2785H15.1736L15.2964 14.1559H16.5439V14.2785H16.6667V14.4012H16.9172V14.5287H17.0449V14.6513L17.1677 14.7789V15.0242H17.2905V15.2743L17.4182 15.4019V16.0249H17.2905V16.2702H17.1677V16.648H17.0449L16.9172 16.7706L16.7945 16.8933H16.6667V17.0208H16.5439V17.1434H16.043V17.271H15.6697V17.1434H15.2964V17.0208H15.1736L15.0459 16.8933H14.9231V16.7706H14.7954V16.648H14.6726V16.5204L14.5498 16.3978V16.2702L14.4221 16.1476V16.0249L14.2993 15.8974V15.4019Z" fill="black" fill-opacity="0.5"/>
<path d="M11.1804 11.9091H11.0528L11.1804 11.7864V11.5362L11.3032 11.4135V11.286H11.431V11.0407H11.6766V10.9132H11.927V10.7905H12.6785V10.9132H12.8013V11.0407H13.0518L13.1746 11.1633V11.286H13.3023V11.5362H13.4251V12.2868H13.3023V12.4094L13.1746 12.5321V12.6596H13.0518V12.7823H12.9241V12.9098H11.5538V12.7823H11.431V12.5321L11.3032 12.4094V12.2868H11.1804V11.9091Z" fill="black" fill-opacity="0.5"/>
<path d="M8.31201 8.42101H8.43481V8.17084H8.55761V8.04823H8.68532V7.92554H9.68236V8.04823H9.80516V8.29839H9.93287V8.92142H9.80516V9.17159H9.5596V9.29428H9.30909L9.18138 9.41689H9.05858V9.29428H8.80811V9.17159H8.55761V9.04411H8.43481V8.79386H8.31201V8.42101Z" fill="black" fill-opacity="0.5"/>
<path d="M34.01 32.2237H33.8872V32.3464L33.7595 32.469V32.5966L33.6368 32.7192V32.8467L33.3862 33.092L33.2635 33.2196L33.0129 33.4698H32.8853L32.7625 33.5925H32.512V33.7151H32.1387V33.8426H31.2644L31.1416 33.7151H30.8911V33.5925H30.6406L30.3901 33.4698H30.2673L30.1445 33.2196L29.8941 32.9694L29.7663 32.8467H29.6436V32.3464H29.5208V32.2237L29.393 32.0962V30.9777L29.5208 30.8501V30.5999H29.6436V30.3546L29.7663 30.2271V30.1045L30.2673 29.6041H30.3901L30.5178 29.4815H30.6406L30.7683 29.3539H30.8911V29.2312H31.2644L31.3921 29.1086H32.1387V29.2312H32.3892L32.512 29.3539H32.7625V29.4815L32.8853 29.6041H33.0129L33.6368 30.2271V30.3546H33.7595V30.4773L33.8872 30.5999V30.8501H34.01V32.2237Z" fill="black" fill-opacity="0.5"/>
<path d="M37.7526 36.7077L37.6298 36.8303V36.9578L37.5021 37.0804L37.1288 37.3306V37.4532H37.006L36.8783 37.5808H36.6278V37.7034H35.8812V37.5808H35.6308L35.508 37.4532H35.3802V37.3306H35.2574V37.208H35.1347L35.007 37.0804V36.9578H34.8842V36.8303L34.7565 36.7077V36.4573H34.6337V35.8344H34.7565V35.4615H34.8842V35.3389H35.007V35.2114H35.1347V35.0887H35.2574V34.8385H35.3802V34.7158H36.004L36.1317 34.5883H36.3822L36.505 34.7158H37.1288V34.9611H37.2516V35.0887H37.3793V35.2114H37.5021V35.3389H37.6298V35.4615H37.7526V36.7077Z" fill="black" fill-opacity="0.5"/>
<path d="M40.8717 39.8227H40.9944L40.8717 39.9453V40.4458L40.6212 40.696V40.8186H40.3707V40.9461H39.2508V40.8186H39.1231V40.696H39.0003V40.4458H38.8775V40.3232H38.7498V39.5725H38.8775V39.3224H39.0003V39.077H39.1231L39.2508 38.9496H39.3736L39.5013 38.8268H40.2479V38.9496H40.4984V39.077H40.7489V39.1998H40.8717V39.8227Z" fill="black" fill-opacity="0.5"/>
<path d="M43.7399 43.4382H43.6171V43.5609H43.4894V43.6836L43.3666 43.8112V43.9338H42.62V43.8112H42.4923L42.2419 43.5609V43.4382H42.1191V42.8153H42.2419L42.4923 42.5651H42.62V42.4376H42.8656V42.3148L42.9933 42.4376H43.3666V42.5651L43.4894 42.6877V42.8153H43.6171L43.7399 42.9379V43.4382Z" fill="black" fill-opacity="0.5"/>
<path d="M20.0362 33.7151L19.9134 33.5925H19.6629V33.4698H19.4124L19.1619 33.3422H19.0391V33.2196L18.9163 33.092L18.5381 32.8467V32.7192H18.4153V32.2237H18.2925V32.0962L18.1648 31.9736V30.8501L18.2925 30.7275V30.4773H18.4153V30.3546L18.5381 30.1045V29.9769L19.0391 29.4815H19.1619L19.2896 29.3539H19.4124L19.5401 29.2312H19.6629V29.1086H21.1609L21.2837 29.2312H21.5342V29.3539L21.657 29.4815H21.7847L22.158 29.7316V29.8542L22.4085 30.1045V30.2271L22.5313 30.3546L22.659 30.4773V30.7275H22.7818V32.0962H22.659V32.2237L22.5313 32.3464V32.469L22.4085 32.5966V32.7192L22.158 32.8467V32.9694L21.7847 33.3422H21.657L21.5342 33.4698H21.2837V33.5925H20.9104V33.7151H20.0362Z" fill="black" fill-opacity="0.5"/>
<path d="M15.2964 37.4532V37.3306H15.1736L15.0459 37.208H14.7954L14.6726 37.0804V36.8303H14.5498V36.7077L14.4221 36.5849L14.2993 36.4573V35.4615L14.5498 35.2114V35.0887H14.6726V34.9611L14.7954 34.7158H15.0459L15.1736 34.5883H15.2964V34.4656H16.2934V34.5883H16.5439V34.7158H16.7945L16.9172 34.8385L17.0449 34.9611V35.0887H17.1677V35.3389L17.2905 35.4615V36.4573L17.1677 36.5849V36.8303H17.0449V36.9578L16.7945 37.208H16.5439V37.3306H16.2934V37.4532H15.2964Z" fill="black" fill-opacity="0.5"/>
<path d="M12.1777 40.696L12.0549 40.8186L11.9271 40.696H11.8044L11.6767 40.5684H11.4311V40.4458L11.1806 40.3232V40.1956H11.0529V40.0729L10.9301 39.9453V39.077H11.0529V38.9496H11.1806V38.8268H11.3034V38.6993H11.4311V38.5767L11.5539 38.454H12.5509V38.5767H12.8014V38.8268H12.9242V38.9496L13.0519 39.077L13.1747 39.1998V39.8227L13.0519 39.9453V40.1956H12.9242V40.3232H12.8014V40.4458H12.6786L12.5509 40.5684H12.3005V40.696H12.1777Z" fill="black" fill-opacity="0.5"/>
<path d="M8.31212 43.4382V43.1881H8.18441V43.0605H8.06165V42.8153H7.93394V42.4376H8.06165V42.1922H8.18441L8.31212 42.0646V41.942H8.68543V41.8145H8.80823L8.9359 41.942H9.18149V42.0646H9.3092V42.1922H9.432V42.3148H9.55971V42.9379H9.432V43.1881H9.3092V43.3107H9.05869V43.4382H8.31212Z" fill="black" fill-opacity="0.5"/>
<path d="M32.512 17.894V18.0167H32.7625V18.1393H32.8853V18.2669H33.0129L33.2635 18.5171H33.3862V18.6397L33.6368 18.8899V19.0126L33.7595 19.1401L33.8872 19.2627V19.5129H34.01V20.8816H33.8872V21.0092L33.7595 21.1318V21.2545L33.6368 21.3821V21.5047L33.3862 21.6322V21.8775H33.2635L33.0129 22.1277H32.8853V22.2553H32.512V22.3779H32.1387V22.5006H31.3921L31.2644 22.3779H30.8911V22.2553H30.5178L30.3901 22.1277H30.2673V22.0051L29.8941 21.6322H29.7663V21.5047L29.6436 21.3821V21.0092H29.5208V20.759L29.393 20.6315V19.7632L29.5208 19.6356V19.2627H29.6436V18.8899H29.7663V18.7623H29.8941V18.6397L30.0169 18.5171L30.2673 18.3895V18.2669H30.3901L30.5178 18.1393H30.6406L30.7683 18.0167H30.8911V17.894H32.512Z" fill="black" fill-opacity="0.5"/>
<path d="M37.129 14.1559V14.2785L37.2518 14.4012H37.3795V14.5287H37.5023V14.6513H37.63V14.7789H37.7528V15.4019H37.8756V15.7748L37.7528 15.8974V16.3978H37.63V16.648H37.3795V16.7706H37.2518V16.8933H37.129V17.0208H36.8785L36.7557 17.1434H35.8814V17.0208H35.6309L35.5081 16.8933H35.3804V16.7706H35.2576V16.648H35.1349V16.5204L35.0071 16.3978V16.2702H34.8843V16.0249H34.7566V15.2743H34.8843V14.9016H35.0071V14.7789H35.1349V14.6513H35.2576V14.4012H35.3804L35.5081 14.2785H35.6309V14.1559H37.129Z" fill="black" fill-opacity="0.5"/>
<path d="M40.125 10.9132V10.7905L40.2478 10.9132L40.3706 11.0407H40.8716V11.286H40.9943V11.5362H41.1221V11.6638L41.2449 11.7864V12.2868H41.1221V12.5321H40.9943V12.7823H40.8716V12.9098H40.6211V13.0324H40.2478V13.1551H39.8745V13.0324H39.624V12.9098H39.2507V12.7823L39.123 12.6596V12.5321H39.0002V11.5362H39.123V11.4135L39.2507 11.286V11.1633H39.3735V11.0407H39.7468L39.8745 10.9132H40.125Z" fill="black" fill-opacity="0.5"/>
<path d="M43.74 8.17084V8.29839H43.8677L43.9904 8.421V8.54856H44.1132V9.17158H43.9904V9.54444H43.8677L43.74 9.66713H43.4895V9.79468H43.2439V9.66713H42.9934V9.54444H42.7429V9.17158H42.6201V8.67125H42.7429V8.421H42.8657V8.29839H42.9934V8.17084H43.74Z" fill="black" fill-opacity="0.5"/>
</svg>
