<svg width="126" height="30" viewBox="0 0 126 30" fill="none" xmlns="http://www.w3.org/2000/svg">
<g clip-path="url(#clip0_353_15816)">
<path d="M81.3731 12.5745H66.4922V19.1594H74.6173C72.8955 22.6955 68.8699 24.4306 65.1476 23.2574C61.4171 22.0841 59.0968 18.3414 59.6872 14.45C60.2775 10.5585 63.5898 7.67502 67.4925 7.66676C69.8865 7.62545 72.1248 8.82346 73.4448 10.8394H80.5532C79.3808 5.74169 73.8138 0.941406 67.5007 0.941406C61.3515 0.941406 55.391 4.98158 54.1283 10.9468V10.9551V1.96591C46.61 1.96591 41.6415 10.4759 40.4855 15.4992C39.3212 10.4759 34.3527 1.96591 26.8426 1.96591V28.9665H33.3688V13.4172C33.3688 13.4172 37.1403 16.7633 37.1403 28.9582H43.8142C43.8142 16.7633 47.5857 13.4172 47.5857 13.4172V28.9582H54.1119V19.5725C55.6779 26.3722 61.04 30.2223 67.4843 30.2223C73.9942 30.2223 79.7907 26.4796 81.3649 19.2089V28.9665C81.3649 28.9582 94.8602 28.983 94.6389 28.9665V22.5468H87.6862V19.1511H94.6389V12.5745H87.6862C87.6617 12.5745 87.6862 8.94739 87.6862 8.94739H94.6389V2.36249H81.3731V12.5745ZM108.946 13.5494C103.297 5.3699 97.7954 2.37075 96.254 2.37075V28.9582H103.174V16.3998C103.174 16.3998 107.987 21.6297 108.946 28.9665H115.694V2.37075H108.946V13.5494ZM13.995 5.21292C10.2563 8.04682 7.977 12.2605 6.17325 16.0776C4.3613 19.9112 2.58215 25.6616 1.68848 29.016H8.44433C8.91167 27.1406 10.0677 23.0508 10.2481 22.2907H18.7093V28.983H25.2684V1.90807C19.07 1.32146 15.7249 3.89924 13.995 5.21292ZM18.7257 16.1106H13.0193C14.3803 14.0368 16.6268 11.2938 18.7339 9.81491L18.7257 16.1106ZM121.466 1.10665C120.309 1.10665 119.268 1.80066 118.825 2.87474C118.383 3.94881 118.629 5.17987 119.44 6.00608C120.252 6.82403 121.482 7.07189 122.548 6.62574C123.614 6.17958 124.302 5.1303 124.302 3.9736C124.294 2.39554 123.032 1.11491 121.466 1.10665ZM121.466 6.31178C120.531 6.31178 119.686 5.74995 119.326 4.88243C118.965 4.01491 119.162 3.00693 119.818 2.3377C120.473 1.66847 121.474 1.46192 122.335 1.82545C123.204 2.18072 123.769 3.03172 123.769 3.9736C123.769 5.25423 122.745 6.30351 121.466 6.31178ZM122.966 3.39525C122.991 3.08129 122.859 2.77559 122.605 2.59383C122.343 2.4699 122.056 2.42032 121.769 2.43685H120.285V5.5434H120.883V4.22973H121.49L122.171 5.5434H122.876L122.13 4.22973C122.679 4.18842 122.974 3.95708 122.966 3.39525ZM121.785 3.76705H120.892V2.89953H121.638C121.933 2.89953 122.367 2.89953 122.367 3.30437C122.376 3.69269 122.13 3.77531 121.785 3.76705Z" fill="black" fill-opacity="0.5"/>
</g>
<defs>
<clipPath id="clip0_353_15816">
<rect width="126" height="30" fill="white"/>
</clipPath>
</defs>
</svg>
