<svg width="52" height="52" viewBox="0 0 52 52" fill="none" xmlns="http://www.w3.org/2000/svg">
<g clip-path="url(#clip0_353_15867)">
<path fill-rule="evenodd" clip-rule="evenodd" d="M26 0C39.821 1.01487e-05 51.1105 10.8105 51.9315 24.3579C52 24.9053 52 25.4527 52 25.9316C52 26.479 51.9315 27.0264 51.9315 27.5737C51.9315 27.1647 51.8816 26.7057 51.8244 26.2395C51.8816 26.707 51.9316 27.1746 51.9316 27.6421C51.1105 41.1895 39.8211 52 26 52C12.1789 52 0.889458 41.1895 0.0684023 27.6421C-1.87082e-05 27.0947 0 26.5473 0 26.0684C1.6828e-06 25.521 0.0684005 24.9737 0.0684023 24.4263C0.0684044 24.8744 0.128359 25.3824 0.192105 25.8942C0.128357 25.3821 0.0684023 24.87 0.0684023 24.3579C0.889459 10.8105 12.1789 0 26 0ZM26 3.21577C13.9579 3.21577 4.10523 12.5895 3.28418 24.3579C3.21575 24.9053 3.21577 25.4526 3.21577 26C3.21577 26.5474 3.21575 27.0947 3.28418 27.6421C4.1017 39.3599 13.8732 48.7034 25.8446 48.7836C25.8964 48.7839 25.9482 48.7842 26 48.7842C38.0421 48.7842 47.8947 39.479 48.7158 27.6421C48.7842 27.0947 48.7842 26.5474 48.7842 26C48.7842 25.4526 48.7842 24.9053 48.7158 24.3579C47.8983 12.6401 38.1267 3.29653 26.1553 3.21633C26.1036 3.21603 26.0518 3.21577 26 3.21577Z" fill="black" fill-opacity="0.5"/>
<path d="M22.7842 4.99474V12.179H27.779C29.0105 12.179 29.9685 11.2211 29.9685 9.98948C29.9685 9.37369 29.6948 8.8263 29.2842 8.41577C29.5579 8.07367 29.7631 7.59472 29.8315 7.11577C29.8315 5.95261 28.8737 4.99474 27.7105 4.99474H22.7842ZM24.4263 6.5H27.4368C27.7789 6.5 28.0527 6.77367 28.0527 7.11577C28.0527 7.45788 27.7789 7.73155 27.4368 7.73155H24.4263V6.5ZM24.4263 9.2368H27.5053C27.9158 9.2368 28.1895 9.51051 28.1895 9.92103C28.1895 10.3316 27.9158 10.6053 27.5053 10.6053H24.4263V9.2368Z" fill="black" fill-opacity="0.5"/>
<path d="M25.179 13.5473L21.621 20.7315H23.4685L24.0158 19.5H28.0527L28.6 20.7315H30.4473L26.821 13.5473H25.179ZM26 15.3947L27.2315 17.9947H24.7685L26 15.3947Z" fill="black" fill-opacity="0.5"/>
<path d="M28.4632 22.3053H30.5158L26.8895 26.9579V29.4895H25.1789V26.9579L21.5526 22.3053H23.6053L26.0684 25.5895L28.4632 22.3053Z" fill="black" fill-opacity="0.5"/>
<path d="M40.2315 22.3053V29.4895H41.9421V26.7527H43.2421L45.2947 29.4895H47.3473L45.2263 26.6842C46.1158 26.4105 46.8 25.5895 46.8 24.5632C46.8 23.3316 45.8421 22.3053 44.6105 22.3053H40.2315ZM42.0105 23.8105H44.4737C44.8158 23.8105 45.1579 24.1526 45.1579 24.4947C45.1579 24.8368 44.8842 25.179 44.4737 25.179H42.0105V23.8105Z" fill="black" fill-opacity="0.5"/>
<path d="M5.26842 22.3052V29.4895H10.2632C11.4947 29.4895 12.4526 28.5316 12.4526 27.3C12.4526 26.6842 12.1789 26.1368 11.7684 25.7263C12.0421 25.3842 12.2473 24.9052 12.3157 24.4263C12.3157 23.2631 11.3579 22.3052 10.1947 22.3052H5.26842ZM6.91048 23.8105H9.921C10.2631 23.8105 10.5369 24.0842 10.5369 24.4263C10.5369 24.7684 10.2631 25.042 9.921 25.042H6.91048V23.8105ZM6.91048 26.5473H9.98945C10.4 26.5473 10.6737 26.821 10.6737 27.2315C10.6737 27.6421 10.4 27.9158 9.98945 27.9158H6.91048V26.5473Z" fill="black" fill-opacity="0.5"/>
<path d="M17.0369 22.3053L13.479 29.4895H15.3264L15.8737 28.2579H19.9106L20.4579 29.4895H22.3053L18.679 22.3053H17.0369ZM17.8579 24.1527L19.0895 26.7527H16.6264L17.8579 24.1527Z" fill="black" fill-opacity="0.5"/>
<path d="M37.9737 22.3053V23.8495H33.1842V25.0581H37.8368V26.6024H33.1842V27.9452H37.9737V29.4895H31.4737V22.3053H37.9737Z" fill="black" fill-opacity="0.5"/>
<path d="M22.7158 39.9579V47.1422H24.4263V44.4054H25.7263L27.779 47.1422H29.8315L27.7105 44.3369C28.6 44.0632 29.2842 43.2422 29.2842 42.2159C29.2842 40.9843 28.3263 39.9579 27.0947 39.9579H22.7158ZM24.4947 41.4632H26.9579C27.3 41.4632 27.6422 41.8053 27.6422 42.1474C27.6422 42.4895 27.3685 42.8316 26.9579 42.8316H24.4947V41.4632Z" fill="black" fill-opacity="0.5"/>
<path d="M29.2842 31.0472V32.5914H24.4947V33.8H29.1474V35.3443H24.4947V36.6871H29.2842V38.2314H22.7842V31.0472H29.2842Z" fill="black" fill-opacity="0.5"/>
</g>
<defs>
<clipPath id="clip0_353_15867">
<rect width="52" height="52" fill="white"/>
</clipPath>
</defs>
</svg>
