<svg width="103" height="40" viewBox="0 0 103 40" fill="none" xmlns="http://www.w3.org/2000/svg">
<g clip-path="url(#clip0_353_15889)">
<path d="M87.2284 9.76299H82.711V30.3805H87.2284C94.1135 30.3805 97.9575 26.3007 97.9575 20.0718C97.9575 13.7946 94.1801 9.76299 87.2284 9.76299ZM87.528 34.6826H80.3468C79.0335 34.6826 77.9828 33.6895 77.9828 32.3148V7.78795C77.9828 6.47247 79.0335 5.46094 80.3468 5.46094H87.528C97.2656 5.46094 102.645 12.0011 102.645 20.0718C102.645 28.1461 97.2101 34.6826 87.528 34.6826ZM64.3123 21.3872H55.6846V30.3397H64.3123C67.7641 30.3397 69.3513 28.1016 69.3513 25.8635C69.3513 23.6254 67.7863 21.3872 64.3123 21.3872ZM63.2394 9.76299H55.6846V17.1333H63.2394C66.2362 17.1333 67.6457 15.4658 67.6457 13.4463C67.6457 11.386 66.3212 9.76299 63.2394 9.76299ZM64.1421 34.6826H53.3205C52.0034 34.6826 50.9971 33.6302 50.9971 32.3148V7.78795C50.9971 6.47247 52.0034 5.46094 53.3205 5.46094H63.4392C69.0035 5.46094 72.3296 8.70326 72.3296 12.9164C72.3296 17.1741 69.7324 18.6933 68.826 19.0194C70.2319 19.3751 74.0389 20.987 74.0389 26.3155C74.0389 30.877 70.365 34.6826 64.1421 34.6826Z" fill="black" fill-opacity="0.5"/>
<path d="M26.3163 14.6355C26.3496 14.6355 26.3829 14.6274 26.4162 14.6193C26.4975 14.5978 37.7891 11.8032 37.7891 11.8032C36.2352 8.4126 33.7416 5.54453 30.6449 3.525C30.6449 3.525 26.2534 14.3748 26.2312 14.4267C26.2124 14.4748 26.2097 14.5009 26.2097 14.5267C26.2097 14.5861 26.257 14.6355 26.3163 14.6355ZM22.2141 11.9478C22.2329 12.0403 22.2845 12.0701 22.3325 12.0701C22.3843 12.0701 22.4214 12.0367 22.4732 11.9811C22.7358 11.7032 30.5238 3.44729 30.5238 3.44729C27.4937 1.5056 23.8976 0.371762 20.0351 0.356946C20.0351 0.356946 22.1106 11.4068 22.2141 11.9478ZM28.3039 18.9697C28.3705 18.9912 39.3846 22.7568 39.3846 22.7568C39.5105 21.8563 39.5771 20.9336 39.5771 19.9998C39.5771 17.1281 38.9592 14.3972 37.853 11.9404C37.853 11.9404 28.3188 18.6732 28.2633 18.7177C28.204 18.7586 28.1783 18.7954 28.1783 18.8401C28.1783 18.9178 28.2371 18.9477 28.3039 18.9697ZM13.7199 14.5269C13.7199 14.5 13.7172 14.475 13.6984 14.4268C13.6769 14.3749 9.28468 3.52516 9.28468 3.52516C6.18804 5.54467 3.69445 8.41268 2.14056 11.8032C2.14056 11.8032 13.4321 14.5973 13.5135 14.6195C13.5505 14.6276 13.58 14.633 13.6133 14.633C13.6724 14.633 13.7199 14.5863 13.7199 14.5269ZM19.8956 0.355469C16.0331 0.368914 12.4369 1.50421 9.40688 3.44589C9.40688 3.44589 17.1948 11.7018 17.4575 11.9797C17.5093 12.0353 17.5501 12.0686 17.5981 12.0686C17.6462 12.0686 17.7018 12.039 17.7165 11.9463C17.8202 11.4053 19.8956 0.355469 19.8956 0.355469ZM11.6268 18.9682C11.5602 18.9898 0.546154 22.7553 0.546154 22.7553C0.420238 21.8549 0.357422 20.9322 0.357422 19.9984C0.357422 17.1267 0.971556 14.3956 2.07776 11.9389C2.07776 11.9389 11.6119 18.6718 11.6674 18.7163C11.7268 18.7572 11.7526 18.794 11.7526 18.8387C11.7526 18.9164 11.6937 18.9462 11.6268 18.9682Z" fill="black" fill-opacity="0.5"/>
<path d="M19.9635 39.6445C29.7936 39.6445 37.933 32.4039 39.3537 22.9585L32.0467 23.9775C31.9321 23.9964 31.8875 24.0552 31.858 24.1332C30.4114 28.3612 26.7598 31.5813 22.2313 32.4039C23.9554 31.5627 25.143 29.7915 25.143 27.7387C25.143 24.8743 22.8233 22.5547 19.9634 22.5547C17.1035 22.5547 14.7875 24.8743 14.7875 27.7387C14.7875 29.7915 15.9751 31.5627 17.6992 32.4039C13.1708 31.5813 9.51913 28.3612 8.06885 24.1332C8.042 24.0555 7.99477 23.9961 7.88388 23.9775L0.573242 22.9585C1.99762 32.4039 10.137 39.6445 19.9635 39.6445Z" fill="black" fill-opacity="0.5"/>
</g>
<defs>
<clipPath id="clip0_353_15889">
<rect width="103" height="40" fill="white"/>
</clipPath>
</defs>
</svg>
