<svg width="114" height="52" viewBox="0 0 114 52" fill="none" xmlns="http://www.w3.org/2000/svg">
<g clip-path="url(#clip0_353_15869)">
<path d="M113.436 25.0078L111.138 36.6884H109.124L104.87 29.3732H104.834L103.394 36.6884H100.88L103.16 25.0078H105.095L109.418 32.4571H109.454L110.94 25.0078H113.436Z" fill="black" fill-opacity="0.5"/>
<path d="M89.4624 25.0078L85.1563 29.8178L82.5513 25.0078H80.5788L78.2998 36.6884H80.8143L82.2667 29.3045H82.3027L84.5773 33.4694L88.4504 29.1727H88.4875L87.0198 36.6884H89.5354L91.8329 25.0078H89.4624Z" fill="black" fill-opacity="0.5"/>
<path d="M76.4725 25.0078L71.6572 30.173L72.6735 25.0078H70.1404L67.8604 36.6884H70.3749L71.4533 31.2083L75.2785 36.6884H78.4265L74.0866 30.5795L79.4755 25.0078H76.4725Z" fill="black" fill-opacity="0.5"/>
<path d="M76.3083 49.3439L76.9593 46.09L80.9033 46.0883L81.2653 44.2826H77.3213L77.9003 41.2805H82.7494L83.1114 39.4727H75.7293L73.4492 51.1533H81.4104L83.2554 49.3444L76.3083 49.3439Z" fill="black" fill-opacity="0.5"/>
<path d="M65.8347 24.7188C65.1554 24.7188 64.5 24.7689 63.8807 24.9312C60.785 25.7431 58.5627 28.499 58.5703 31.9152C58.5764 34.3344 60.1656 36.9769 63.4969 36.9769C66.0157 36.9769 67.2817 35.8567 68.2947 35.241L67.2817 33.723C66.6394 34.1437 66.1956 34.5065 65.5087 34.7528C65.0736 34.9086 64.5414 35.0394 63.7989 35.0394C62.3432 35.0394 61.1623 33.8015 61.1732 31.8422C61.1863 29.3784 62.6834 26.6356 65.4367 26.6356C66.7757 26.6356 67.2097 27.1412 67.6797 27.6119L68.9468 26.1288C68.2227 25.3333 67.1301 24.7188 65.8347 24.7188Z" fill="black" fill-opacity="0.5"/>
<path d="M65.3796 39.4727L65.0176 41.2805H68.3008L66.3741 51.1533H68.8896L70.8317 41.2805H73.9197L75.7647 39.4727H65.3796Z" fill="black" fill-opacity="0.5"/>
<path d="M52.4821 34.8806L53.1331 31.6256H57.0771L57.4392 29.8178H53.4951L54.0741 26.8167H58.9221L59.2841 25.0078H51.9031L49.623 36.6884H57.8372L59.6821 34.8806H52.4821Z" fill="black" fill-opacity="0.5"/>
<path d="M60.6978 49.3439L62.63 39.4668H60.1188L57.8398 51.1529H64.9679L66.8129 49.3439H60.6978Z" fill="black" fill-opacity="0.5"/>
<path d="M56.4429 39.4727L54.9043 47.3556C54.6524 48.648 53.5151 49.4533 52.2448 49.4533C50.9733 49.4533 50.198 48.4693 50.4172 47.3556L51.9732 39.4727H49.4588L47.9747 47.0309C47.4284 49.814 49.209 51.4061 51.8468 51.4061C55.1311 51.4061 56.915 49.875 57.4733 47.0309L58.9574 39.4727H56.4429Z" fill="black" fill-opacity="0.5"/>
<path d="M33.2213 37.6641C32.4984 37.6641 31.7983 37.6783 31.1332 37.8417C27.6689 38.696 25.1446 41.7167 25.1348 45.4381C25.1261 48.6603 27.3909 51.4413 30.7341 51.4413C33.4187 51.4413 34.7512 50.357 35.6922 49.6694L34.749 48.085C33.8603 48.8303 33.0872 49.4852 31.2455 49.4852C29.286 49.4852 27.827 47.9073 27.8292 45.5361C27.831 42.5362 29.5488 39.5177 32.8408 39.5177C34.0402 39.5177 34.8995 40.238 35.5221 40.8722L36.835 39.4098C36.1622 38.7483 34.7577 37.6641 33.2213 37.6641Z" fill="black" fill-opacity="0.5"/>
<path d="M33.6237 6.24252C31.0798 2.44052 25.9428 0.558594 21.5375 0.558594C10.1318 0.558594 0.564453 9.97807 0.564453 21.407C0.564453 23.5962 0.970092 25.7189 1.74102 27.6456L1.7323 27.6162C1.59273 27.1334 1.46186 26.0819 1.46296 25.6972C1.46296 23.1113 2.97755 20.9613 5.13876 19.8999C5.31432 19.4902 5.52149 19.0805 5.76138 18.6609C7.4777 15.6577 11.6126 12.4746 16.8335 12.4735C21.459 12.4727 25.8807 15.0725 30.95 15.0725C31.2455 15.0725 31.529 15.0551 31.8005 15.018C31.8256 12.4289 30.7494 9.94322 29.2184 7.89893C27.6646 5.82412 24.8131 4.3236 22.3281 4.09803C22.7337 4.07292 23.1383 4.01635 23.533 4.01199C28.6819 3.96404 32.8517 8.11255 32.8517 13.28C32.8517 13.8117 32.8201 14.3141 32.7536 14.8012C34.2365 14.2988 35.1765 13.1111 35.243 11.2858C35.2855 10.1264 34.7937 7.9915 33.6237 6.24252Z" fill="black" fill-opacity="0.5"/>
<path d="M28.9927 17.9828C24.1523 17.9958 19.2978 15.1092 13.668 15.1016C9.39572 15.0963 7.92584 16.4713 6.36327 18.7728C6.19535 19.0202 6.04814 19.2883 5.92383 19.5727C6.64132 19.3242 7.41115 19.1891 8.20825 19.1869C13.0486 19.1738 17.9042 22.0605 23.533 22.0681C27.8063 22.0733 29.2751 20.6983 30.8377 18.3969C31.0056 18.1495 31.1528 17.8814 31.2771 17.597C30.5607 17.8455 29.7898 17.9806 28.9927 17.9828Z" fill="black" fill-opacity="0.5"/>
<path d="M35.5531 9.70604C35.3765 9.2549 35.4692 9.55459 35.4692 9.55459C35.4692 9.55459 35.7396 11.0889 35.7396 11.4736C35.7387 14.0594 34.2239 16.2095 32.0638 17.2708C31.8872 17.6806 31.6811 18.0903 31.4401 18.5098C29.7238 21.5131 25.5889 24.6961 20.3691 24.6972C15.7436 24.6981 11.3208 22.0982 6.25147 22.0982C5.95597 22.0982 5.67247 22.1157 5.40095 22.1516C5.37583 24.7418 6.45211 27.2264 7.98305 29.2718C9.53689 31.3466 12.3883 32.8471 14.8734 33.0727C14.4678 33.0967 14.0632 33.1544 13.6685 33.1587C8.51954 33.2055 4.34979 29.0581 4.34979 23.8907C4.34979 23.3589 4.38251 22.8555 4.44902 22.3706C2.96496 22.8719 2.02501 24.0596 1.9585 25.8849C1.91706 27.0444 2.40012 29.1846 3.57777 30.9281C6.16532 34.7595 11.3088 36.697 15.7773 36.697C27.2125 36.697 36.7657 27.7505 36.7493 16.1788C36.7458 13.909 36.3415 11.7035 35.5531 9.70604Z" fill="black" fill-opacity="0.5"/>
<path d="M98.0752 25.0078H96.4854L89.5361 36.6884H92.2491L93.7331 33.9402H97.6565L98.2202 36.6884H100.934L98.0752 25.0078ZM94.6491 32.1323L96.4832 28.6605H96.5552L97.2727 32.1323H94.6491Z" fill="black" fill-opacity="0.5"/>
<path d="M89.3616 45.8278C90.5654 45.6927 92.3504 45.0051 92.7724 42.7995C93.1454 40.849 91.6646 39.4727 88.9004 39.4727H85.1013L82.8213 51.1533H85.3358L86.3738 45.8747H86.447L90.0584 51.1533H93.3155L89.3616 45.8278ZM86.6803 44.3186L87.2778 41.2805H88.1949C89.9483 41.2805 90.2983 41.9626 90.1304 42.7995C89.9188 43.8631 89.2613 44.3186 87.7968 44.3186H86.6803Z" fill="black" fill-opacity="0.5"/>
<path d="M46.9413 29.6014L46.9457 29.5633C47.5607 29.2745 49.0643 28.8757 49.4067 27.033C49.868 24.5495 47.9052 23.4893 44.7746 23.4893H40.8306L38.2256 36.6878H43.0016C47.0667 36.6878 48.9716 35.3562 49.4067 33.1801C49.7916 31.2545 48.2847 29.8531 46.9413 29.6014ZM42.9831 25.297H44.1596C46.0373 25.297 47.0231 25.7384 46.7646 27.0329C46.5542 28.0921 45.8269 28.7678 43.7616 28.7678H42.2961L42.9831 25.297ZM46.8377 32.7463C46.4757 34.5552 44.851 34.88 42.6036 34.88H41.1021L41.9341 30.5767H43.4356C45.4027 30.5767 47.2084 30.8905 46.8377 32.7463Z" fill="black" fill-opacity="0.5"/>
<path d="M42.7016 39.2197C41.9623 39.2197 41.2634 39.2916 40.6135 39.4922C37.725 40.3846 35.832 43.1481 35.832 46.3791C35.832 48.7917 37.3662 51.406 40.5012 51.406C41.1511 51.406 41.7693 51.3591 42.3505 51.2022C45.3721 50.3893 47.3708 47.5647 47.3708 44.2455C47.3708 41.8339 45.8366 39.2197 42.7016 39.2197ZM41.6985 49.4434C41.4051 49.5088 41.0998 49.5044 40.7858 49.5044C39.5602 49.5044 38.2931 48.1946 38.2931 46.1982C38.2931 44.2891 39.3126 41.8677 41.2645 41.2553C41.6363 41.1387 42.0234 41.1213 42.4171 41.1213C43.6351 41.1213 44.9097 42.4158 44.9097 44.3904C44.9097 46.4053 43.8444 48.9596 41.6985 49.4434Z" fill="black" fill-opacity="0.5"/>
</g>
<defs>
<clipPath id="clip0_353_15869">
<rect width="114" height="52" fill="white"/>
</clipPath>
</defs>
</svg>
