<svg width="169" height="30" viewBox="0 0 169 30" fill="none" xmlns="http://www.w3.org/2000/svg">
<g clip-path="url(#clip0_353_15896)">
<path fill-rule="evenodd" clip-rule="evenodd" d="M4.90076 29.4645H0.107422V0.0966797H4.91148V11.1538C5.81939 9.56811 6.73088 8.52168 7.64594 8.01454C8.63249 7.50025 9.72627 7.24311 10.8415 7.26454C13.172 7.26454 15.1022 8.25025 16.6321 10.2217C18.1548 12.2003 18.9162 14.936 18.9162 18.4288C18.9162 21.5931 18.162 24.2967 16.6536 26.5395C15.1523 28.7824 12.9897 29.9038 10.1659 29.9038C9.08287 29.9038 7.99981 29.6895 7.00254 29.2502C6.20901 28.8752 5.50127 28.361 4.90076 27.7288V29.4645ZM4.90076 20.411C4.90076 22.3038 5.30467 23.7003 6.1125 24.6003C6.92747 25.5003 8.08559 25.9931 9.29733 25.961C10.5412 25.9717 11.7208 25.3931 12.4822 24.4074C13.3329 23.3645 13.7868 21.3324 13.844 18.311C13.844 16.0967 13.458 14.3931 12.6859 13.2002C12.0103 12.0431 10.7557 11.3574 9.42601 11.4003C8.16066 11.3788 6.95964 11.936 6.16611 12.9217C5.30825 13.9431 4.87931 15.386 4.87931 17.2502L4.90076 20.411ZM53.0808 20.4645H48.6306C48.3518 23.0467 47.3974 25.1788 45.746 26.8503C43.7515 28.8574 41.2315 29.861 38.186 29.861C34.9047 29.861 32.399 28.7467 30.669 26.5181C28.9532 24.3431 28.0417 21.6431 28.0739 18.8788C28.0739 15.786 29.0319 13.211 30.9478 11.1538C32.8565 9.10382 35.3801 8.07882 38.5185 8.07882C41.4924 8.07882 43.9373 9.07525 45.8532 11.0681C47.2902 12.5788 48.2231 14.486 48.5341 16.5431H53.0808V20.4645ZM38.3683 25.961C41.3423 25.961 43.0044 24.1288 43.3547 20.4645H38.0574L38.7115 16.5324H43.2046C43.0544 15.5681 42.722 14.636 42.2073 13.8003C41.4066 12.5645 40.1699 11.9467 38.497 11.9467C36.7598 11.9467 35.4766 12.586 34.6473 13.8645C33.8109 15.1431 33.3927 16.836 33.3927 18.9431C33.3927 21.2217 33.8324 22.961 34.7117 24.161C35.5481 25.3395 36.9207 26.0145 38.3683 25.961ZM21.1681 10.3288H25.9721V29.4538H21.1681V10.3288Z" fill="black" fill-opacity="0.5"/>
<path fill-rule="evenodd" clip-rule="evenodd" d="M64.3722 25.6822V29.4215C63.2784 29.6787 62.1632 29.8394 61.048 29.8822C59.8898 29.9144 58.7424 29.6465 57.7237 29.1108C56.8337 28.6501 56.1259 27.9108 55.697 27.0108C55.2681 26.1251 55.05 24.7572 55.0429 22.9072V11.9251H51.7508V8.20723H55.3217L55.7613 2.67866L59.6968 2.32508V8.20723H63.954V11.9251H59.6968V22.2751C59.6968 23.6037 59.9399 24.5108 60.426 24.9965C60.9121 25.4751 61.8236 25.7179 63.1605 25.7251C63.5465 25.7358 63.954 25.7037 64.3722 25.6822ZM79.653 22.6501L83.9852 23.2394C83.4383 25.1358 82.2909 26.8072 80.7039 27.9858C79.0811 29.2358 77.04 29.8608 74.5808 29.8608C71.6355 29.8608 69.2656 28.8715 67.4712 26.8929C65.6769 24.9215 64.7797 22.2501 64.7797 18.8787C64.7797 15.6644 65.684 13.0108 67.4927 10.9179C69.3014 8.81794 71.757 7.76794 74.8596 7.76794C77.8908 7.76794 80.232 8.80365 81.8834 10.8751C83.5348 12.9465 84.3641 15.6072 84.3712 18.8572L84.3498 19.4037H69.7768C69.7446 20.5715 69.884 21.7394 70.1842 22.8644C70.4845 23.7644 71.0528 24.5572 71.8142 25.1251C72.6935 25.7894 73.7658 26.1322 74.8596 26.0894C77.2474 26.0965 78.8451 24.9501 79.653 22.6501ZM79.3527 16.3072C79.3384 14.7787 78.8773 13.5322 77.9694 12.5679C76.2001 10.7144 73.2619 10.6287 71.396 12.3965C71.3674 12.4251 71.3388 12.4537 71.3102 12.4822C70.438 13.3822 69.9269 14.6608 69.7768 16.3179L79.3527 16.3072ZM99.4375 21.6108L103.566 22.0394C103.03 24.7037 101.997 26.6715 100.467 27.9429C98.9121 29.2287 96.9497 29.9037 94.9337 29.8501C92.0027 29.8501 89.7508 28.7787 88.178 26.6358C86.6053 24.4929 85.8153 21.8787 85.8082 18.7929C85.8082 15.6001 86.6732 12.9608 88.4032 10.8751C90.1261 8.78937 92.4245 7.74651 95.2983 7.74651C99.9308 7.74651 102.687 10.1787 103.566 15.0429L99.4375 15.6322C99.073 12.9965 97.7754 11.6787 95.545 11.6787C94.0437 11.6037 92.6389 12.4501 92.0063 13.8108C91.2699 15.2251 90.9018 16.9465 90.9018 18.9751C90.9018 21.1179 91.2842 22.7715 92.0492 23.9358C92.7247 25.0501 93.9472 25.7144 95.2554 25.6715C97.3572 25.6715 98.7513 24.3179 99.4375 21.6108ZM123.05 29.4537H118.246V15.5679C118.246 14.0679 117.928 13.0144 117.292 12.4072C116.702 11.8179 115.887 11.4858 115.051 11.4965C113.721 11.4751 112.456 12.0751 111.619 13.1144C110.69 14.1929 110.225 15.9715 110.225 18.4501V29.4537H105.432V0.782227H110.236V11.9572C111.43 8.90723 113.521 7.38223 116.509 7.38223C120.87 7.38223 123.05 9.87865 123.05 14.8715V29.4537ZM143.21 29.4537H138.406V16.2001C138.406 14.8001 138.081 13.7465 137.43 13.0394C136.851 12.3644 135.993 11.9787 135.103 11.9787C133.852 11.9787 132.755 12.5251 131.811 13.6179C130.875 14.7108 130.407 16.3572 130.407 18.5572V29.4537H125.613V8.23937H129.999V13.1572C131.529 9.5858 133.674 7.80008 136.433 7.80008C138.192 7.76794 139.907 8.40008 141.226 9.56794C142.549 10.7465 143.21 12.8108 143.21 15.7608V29.4537ZM159.864 22.6501L164.196 23.2394C163.66 25.1358 162.502 26.8072 160.925 27.9858C159.302 29.2358 157.261 29.8608 154.802 29.8608C151.85 29.8608 149.48 28.8715 147.693 26.8929C145.898 24.9215 144.997 22.2465 144.99 18.8679C144.99 15.6608 145.898 13.0072 147.714 10.9072C149.523 8.81437 151.975 7.76437 155.07 7.75723C158.101 7.75723 160.446 8.79294 162.105 10.8644C163.756 12.9429 164.582 15.6037 164.582 18.8465L164.56 19.3929H149.966C149.934 20.5715 150.073 21.7287 150.373 22.8644C150.684 23.7644 151.253 24.5572 152.014 25.1251C152.893 25.7894 153.966 26.1322 155.06 26.0894C157.44 26.0965 159.042 24.9501 159.864 22.6501ZM159.563 16.3072C159.596 14.9358 159.113 13.5965 158.191 12.5679C156.421 10.7144 153.473 10.6287 151.607 12.3965C151.578 12.4251 151.549 12.4537 151.521 12.4822C150.649 13.3822 150.13 14.6608 149.966 16.3179L159.563 16.3072ZM26.0898 5.89294C26.0898 7.26437 24.9746 8.38937 23.5913 8.38937C22.208 8.38937 21.082 7.26437 21.082 5.89294C21.082 4.5108 22.1973 3.3858 23.5913 3.3858C24.9639 3.3858 26.0898 4.5108 26.0898 5.89294ZM166.426 7.75723C167.799 7.75723 168.903 8.88223 168.893 10.2537C168.893 11.6251 167.767 12.7287 166.394 12.7179C165.022 12.7072 163.917 11.5929 163.928 10.2322C163.917 8.87151 165.011 7.75723 166.373 7.75723C166.394 7.75723 166.412 7.75723 166.426 7.75723ZM166.426 8.14294C165.268 8.08937 164.282 8.98937 164.239 10.1465C164.185 11.3037 165.086 12.2894 166.255 12.3322C167.413 12.3858 168.389 11.4858 168.442 10.3287C168.442 10.2929 168.442 10.2608 168.442 10.2322C168.464 9.09651 167.563 8.16437 166.426 8.14294C166.419 8.14294 166.416 8.14294 166.416 8.14294H166.426ZM165.954 11.6679H165.493V8.91437C165.758 8.87151 166.022 8.84651 166.287 8.83937C166.598 8.82865 166.898 8.89294 167.166 9.05365C167.338 9.18223 167.434 9.40723 167.413 9.62151C167.413 9.95365 167.188 10.2322 166.866 10.2965V10.3179C167.113 10.3608 167.284 10.5858 167.338 10.9929C167.37 11.2287 167.424 11.4537 167.52 11.6679H167.048C166.941 11.4537 166.877 11.2179 166.855 10.9715C166.845 10.6822 166.598 10.4572 166.308 10.4787C166.287 10.4787 166.269 10.4822 166.255 10.4894H165.944L165.954 11.6679ZM165.954 10.1465H166.276C166.652 10.1465 166.962 10.0179 166.962 9.67508C166.962 9.42865 166.791 9.18223 166.276 9.18223C166.169 9.18937 166.062 9.19651 165.954 9.20365V10.1465Z" fill="black" fill-opacity="0.5"/>
</g>
<defs>
<clipPath id="clip0_353_15896">
<rect width="169" height="30" fill="white"/>
</clipPath>
</defs>
</svg>
