<svg width="200" height="32" viewBox="0 0 200 32" fill="none" xmlns="http://www.w3.org/2000/svg">
<path d="M10.0402 28.8909C9.83409 29.3122 9.39604 29.5835 8.92433 29.5835C8.73579 29.5835 8.55409 29.5422 8.38409 29.4598C4.49433 27.5922 2.43945 24.3012 2.43945 19.9412V15.0169C2.43945 14.3395 2.99531 13.7889 3.67897 13.7889C4.36238 13.7889 4.91872 14.3395 4.91872 15.0169V19.941C4.91872 23.3418 6.44823 25.8008 9.46604 27.2509C10.0804 27.5466 10.3385 28.2823 10.0402 28.8909ZM6.37214 17.4779C6.37214 18.1742 6.94189 18.7381 7.64409 18.7381C8.34677 18.7381 8.91653 18.1742 8.91653 17.4779V7.42923C8.91653 6.73269 8.34701 6.16904 7.64409 6.16904C6.94189 6.16904 6.37214 6.73269 6.37214 7.42923V17.4779ZM10.308 17.1858C10.308 17.8816 10.8775 18.4457 11.5797 18.4457C12.2824 18.4457 12.8519 17.8816 12.8519 17.1858V3.67524C12.8519 2.97919 12.2824 2.41602 11.5797 2.41602C10.8775 2.41602 10.308 2.97919 10.308 3.67524V17.1858ZM14.2436 18.1155C14.2436 18.8115 14.8131 19.3752 15.5153 19.3752C16.2182 19.3752 16.7877 18.8115 16.7877 18.1155V5.98711C16.7877 5.29106 16.2182 4.72693 15.5153 4.72693C14.8131 4.72693 14.2436 5.29106 14.2436 5.98711V18.1155ZM18.1792 19.7207C18.1792 20.3959 18.7316 20.9429 19.4129 20.9429C20.0943 20.9429 20.6468 20.3959 20.6468 19.7207V11.5239C20.6468 10.8486 20.0943 10.3014 19.4129 10.3014C18.7316 10.3014 18.1792 10.8486 18.1792 11.5239V19.7207Z" fill="black" fill-opacity="0.5"/>
<path d="M33.8193 17.4052L33.8215 17.3296C35.4225 16.7845 36.4149 15.8307 36.4149 14.1281V13.8667C36.4149 11.9119 34.8103 10.3038 31.5381 10.3038H27.0117V25.5604H31.8666C35.0468 25.5604 37.23 23.9767 37.23 21.4414V21.2894C37.2303 19.3114 36.0544 17.8628 33.8193 17.4052ZM28.9922 12.0257H31.2554C33.4127 12.0257 34.5127 12.8348 34.5127 14.2842V14.4374C34.5127 16.187 32.9859 16.7476 30.9798 16.7476H28.9922V12.0257ZM35.2012 21.2664C35.2012 23.1541 33.7 23.86 31.5095 23.86H28.9922V18.3605H31.5451C33.7015 18.3605 35.2012 19.0703 35.2012 21.0265V21.2664ZM43.7027 14.009H44.2746V15.7961H43.8127C41.9639 15.7961 40.7537 16.7113 40.7537 19.1314V25.5602H38.9064V14.009H40.7537V16.0798H40.842C41.172 15.0341 42.0305 14.009 43.7027 14.009ZM45.919 14.009H47.7678V25.5607H45.919V14.009ZM47.9705 11.4176C47.9705 12.3098 47.5605 12.7278 46.8429 12.7278C46.1251 12.7278 45.7146 12.3098 45.7146 11.4176C45.7146 10.5256 46.1251 10.082 46.8429 10.082C47.5607 10.082 47.9705 10.5254 47.9705 11.4176ZM58.02 22.3783C58.02 24.6017 56.3473 25.7781 53.9054 25.7781C51.441 25.7781 49.8127 24.732 49.6807 22.3783H51.5293C51.5951 23.7953 52.651 24.2531 53.9054 24.2531C55.1593 24.2531 56.1715 23.7081 56.1715 22.5085C56.1715 19.6975 49.8127 21.6378 49.8127 17.0829C49.8127 15.1854 51.221 13.7908 53.7951 13.7908C56.15 13.7908 57.7122 14.9462 57.8883 17.1911H56.0398C55.9298 15.8396 54.9837 15.3165 53.7951 15.3165C52.4529 15.3165 51.6171 15.9268 51.6171 17.0831C51.6168 19.8067 58.02 18.1283 58.02 22.3783ZM62.2839 14.009H64.7925V15.6219H62.2839V22.0074C62.2839 23.6858 62.7246 24.0345 63.8464 24.0345C64.1542 24.0345 64.5064 23.9907 64.7925 23.969V25.5389C64.4407 25.6041 63.9783 25.6474 63.6486 25.6474C61.3603 25.6474 60.4364 24.7537 60.4364 22.2901V15.6219H58.4778V14.009H60.4364V10.3041H62.2839V14.009ZM70.2522 13.7908C67.3693 13.7908 65.8293 15.7529 65.8293 18.9348V20.6349C65.8293 23.8168 67.369 25.7783 70.2522 25.7783C73.1339 25.7783 74.6739 23.8168 74.6739 20.6349V18.9348C74.6739 15.7529 73.1342 13.7908 70.2522 13.7908ZM72.8044 20.5257C72.8044 23.272 71.8361 24.1654 70.2522 24.1654C68.6676 24.1654 67.7003 23.272 67.7003 20.5257V19.0435C67.7003 16.2972 68.6678 15.4038 70.2522 15.4038C71.8361 15.4038 72.8044 16.2972 72.8044 19.0435V20.5257ZM76.6276 10.3041H78.4764V25.5599H76.6276V10.3041ZM96.3037 10.3041H99.4405V25.5607H97.4822V12.4186H97.3725L93.4334 23.0347H91.0349L87.1415 12.4186H87.0315V25.5607H85.0954V10.3041H88.3854L92.2678 20.9014H92.3783L96.3037 10.3041ZM108.429 14.009H110.299L105.128 29.2654H103.214L104.512 25.6469L100.727 14.0085H102.686L105.48 23.0106H105.568L108.429 14.009ZM115.264 13.7908C112.382 13.7908 110.842 15.8394 110.842 18.9348V20.6349C110.842 23.8168 112.382 25.7783 115.264 25.7783C117.575 25.7783 118.938 24.5143 119.4 22.3568H117.509C117.179 23.6861 116.43 24.1657 115.264 24.1657C113.681 24.1657 112.712 23.2722 112.712 20.5259V20.3735H119.466V18.9348C119.467 15.8396 118.147 13.7908 115.264 13.7908ZM115.264 15.404C116.762 15.404 117.572 16.2772 117.595 18.9348H112.715C112.741 16.2772 113.702 15.404 115.264 15.404ZM126.319 14.009H126.891V15.7961H126.429C124.581 15.7961 123.371 16.7113 123.371 19.1314V25.5602H121.523V14.009H123.371V16.0798H123.459C123.789 15.0341 124.647 14.009 126.319 14.009ZM136.22 22.3783C136.22 24.6017 134.549 25.7781 132.105 25.7781C129.641 25.7781 128.014 24.732 127.881 22.3783H129.73C129.796 23.7953 130.852 24.2531 132.105 24.2531C133.36 24.2531 134.372 23.7081 134.372 22.5085C134.372 19.6975 128.014 21.6378 128.014 17.0829C128.014 15.1854 129.422 13.7908 131.996 13.7908C134.35 13.7908 135.913 14.9462 136.088 17.1911H134.24C134.131 15.8396 133.184 15.3165 131.996 15.3165C130.653 15.3165 129.818 15.9268 129.818 17.0831C129.818 19.8067 136.22 18.1283 136.22 22.3783ZM150.91 21.5279C150.91 24.2526 149.018 25.7783 146.113 25.7783C143.384 25.7783 141.14 24.4708 140.855 21.5503H142.9C143.143 23.2722 144.375 24.0782 146.09 24.0782C148.05 24.0782 148.93 22.9231 148.93 21.6378C148.93 17.2996 141.097 19.8067 141.097 14.1182C141.097 11.6773 143.055 10.0864 145.784 10.0864C148.423 10.0864 150.624 11.3719 150.757 14.3799H148.709C148.534 12.5273 147.346 11.7863 145.762 11.7863C143.891 11.7863 143.077 12.8764 143.077 14.0308C143.077 17.8669 150.91 15.5999 150.91 21.5279ZM159.261 15.404H159.17C158.671 14.3845 157.722 13.7911 156.51 13.7911C153.628 13.7911 152.308 15.7531 152.308 18.9352V20.6349C152.308 23.8173 153.628 25.7783 156.51 25.7783C157.722 25.7783 158.672 25.1852 159.17 24.1659H159.261V25.5607V29.2658H161.109V14.009H159.261V15.404ZM156.73 24.1657C155.147 24.1657 154.178 23.2722 154.178 20.5259V19.0437C154.178 16.2974 155.147 15.404 156.73 15.404C158.314 15.404 159.283 16.2974 159.283 19.0437V20.5259C159.283 23.2722 158.314 24.1657 156.73 24.1657ZM169.597 14.009H171.446V25.5607H169.597V24.078H169.51C169.069 25.0151 168.123 25.7781 166.65 25.7781C164.471 25.7781 163.128 24.557 163.128 21.8328V14.009H164.999V21.5721C164.999 23.4247 165.77 24.2311 167.156 24.2311C168.497 24.2311 169.597 23.3374 169.597 21.0927V14.009ZM173.819 14.009H175.667V25.5607H173.819V14.009ZM182.744 13.7908C181.515 13.7908 180.577 14.3842 180.083 15.4038H179.994V14.009V10.3041H178.147V25.5607H179.994V24.1659H180.083C180.577 25.1852 181.515 25.7783 182.744 25.7783C185.626 25.7783 186.946 23.8173 186.946 20.6349V18.9352C186.947 15.7529 185.627 13.7908 182.744 13.7908ZM185.077 20.5257C185.077 23.272 184.109 24.1654 182.525 24.1654C180.94 24.1654 179.973 23.272 179.973 20.5257V19.0435C179.973 16.2972 180.94 15.4038 182.525 15.4038C184.109 15.4038 185.077 16.2972 185.077 19.0435V20.5257ZM193.359 13.7908C192.129 13.7908 191.191 14.3842 190.697 15.4038H190.609V14.009V10.3041H188.761V25.5607H190.609V24.1659H190.697C191.191 25.1852 192.129 25.7783 193.359 25.7783C196.241 25.7783 197.561 23.8173 197.561 20.6349V18.9352C197.561 15.7529 196.241 13.7908 193.359 13.7908ZM195.691 20.5257C195.691 23.272 194.723 24.1654 193.138 24.1654C191.555 24.1654 190.586 23.272 190.586 20.5257V19.0435C190.586 16.2972 191.555 15.4038 193.138 15.4038C194.723 15.4038 195.691 16.2972 195.691 19.0435V20.5257ZM175.871 11.4176C175.871 12.3098 175.46 12.7278 174.743 12.7278C174.027 12.7278 173.616 12.3098 173.616 11.4176C173.616 10.5256 174.027 10.082 174.743 10.082C175.46 10.082 175.871 10.5254 175.871 11.4176Z" fill="black" fill-opacity="0.5"/>
</svg>
