<svg width="180" height="43" viewBox="0 0 180 43" fill="none" xmlns="http://www.w3.org/2000/svg">
<path fill-rule="evenodd" clip-rule="evenodd" d="M114.109 7.38679C117.381 5.40217 120.109 4.63038 123.709 4.96115C114.654 -1.87475 111.163 9.15089 101.672 6.28423C98.0723 5.18166 95.9996 2.09448 91.636 2.75602C85.9633 3.52782 81.9269 9.92269 72.9814 4.74064C77.9996 11.9073 84.436 9.92269 88.9087 7.27653C91.0905 5.95346 95.6724 3.74833 98.1814 5.18166C98.9451 5.62269 99.3814 6.17397 99.9269 6.72525C100.472 7.27653 101.018 7.82781 101.563 8.15858C102 8.48935 102.327 8.70987 102.763 8.93038C98.2905 10.6945 94.1451 14.6637 86.6178 10.2535C91.636 17.4201 98.0724 15.4355 102.545 12.7894C104.727 11.4663 109.309 9.26115 111.818 10.6945C112.581 11.1355 113.018 11.6868 113.563 12.2381C114.109 12.7894 114.654 13.3406 115.2 13.6714C119.236 16.5381 124.036 15.215 127.963 12.8996C131.236 10.915 133.963 10.1432 137.563 10.474C128.509 3.63807 125.018 14.6637 115.527 11.797C113.672 11.2458 112.145 10.1432 110.618 9.26115C111.6 8.70987 112.909 8.04833 114.109 7.38679Z" fill="black" fill-opacity="0.5"/>
<path fill-rule="evenodd" clip-rule="evenodd" d="M16.3635 34.0692H18.4362C18.218 35.9436 17.3453 37.4872 15.9271 38.7C14.5089 39.9128 12.7635 40.4641 10.6907 40.4641C8.18164 40.4641 6.10891 39.6923 4.58164 38.0384C3.05437 36.4949 2.18164 34.4 2.18164 31.8641C2.18164 29.3282 2.94528 27.2333 4.47255 25.6897C5.99982 24.1461 8.07255 23.3743 10.5816 23.3743C12.5453 23.3743 14.2907 23.9256 15.7089 25.0282C17.1271 26.1308 17.9998 27.5641 18.218 29.2179H16.0362C15.7089 28.0051 14.9453 27.0128 14.0725 26.3513C13.0907 25.6897 11.8907 25.359 10.5816 25.359C8.7271 25.359 7.19982 25.9102 5.99982 27.1231C4.90891 28.3359 4.36346 29.8795 4.36346 31.8641C4.36346 33.8487 4.90891 35.3923 6.10891 36.6051C7.19982 37.8179 8.83619 38.3692 10.6907 38.3692C12.1089 38.3692 13.3089 37.9282 14.3998 37.1564C15.3816 36.4949 16.0362 35.3923 16.3635 34.0692ZM21.0544 39.9128V18.082H23.018V26.7923C23.7816 25.6897 24.7635 24.9179 25.8544 24.3666C26.9453 23.8154 28.2544 23.4846 29.6726 23.4846C31.7453 23.4846 33.2726 23.9256 34.2544 24.9179C35.2362 25.9102 35.7816 27.3436 35.7816 29.4384V39.8025H33.7089V30.8718C33.7089 28.8872 33.3816 27.4538 32.7271 26.682C32.0725 25.9102 30.9816 25.4692 29.3453 25.4692C27.4907 25.4692 26.0725 26.0205 24.8725 27.0128C23.6726 28.0051 23.1271 29.3282 23.1271 30.8718V40.0231H21.0544V39.9128ZM55.5271 37.9282V39.6923C55.1998 39.8025 54.8726 39.9128 54.6544 39.9128C54.3271 39.9128 54.1089 40.0231 53.7816 40.0231C53.1271 40.0231 52.5816 39.8025 52.2544 39.4718C51.9271 39.141 51.7089 38.4795 51.7089 37.4872C50.8362 38.4795 49.8544 39.2513 48.7635 39.6923C47.6726 40.1333 46.3635 40.3538 44.8362 40.3538C42.8726 40.3538 41.4544 39.9128 40.3635 39.141C39.2726 38.259 38.8362 37.1564 38.8362 35.6128C38.8362 34.9513 38.9453 34.2897 39.2726 33.7384C39.5998 33.1872 39.9271 32.6359 40.4725 32.3051C40.9089 31.9743 41.4544 31.7538 42.218 31.5333C42.9816 31.3128 44.2907 31.0923 46.0362 30.8718C46.4726 30.8718 47.018 30.7615 47.6726 30.6513C50.2907 30.3205 51.4907 29.5487 51.4907 28.3359C51.4907 27.4538 51.1635 26.7923 50.3998 26.3513C49.6362 25.9102 48.5453 25.6897 47.1271 25.6897C45.2726 25.6897 43.9635 26.0205 42.9816 26.5718C41.9998 27.2333 41.5635 28.1154 41.4544 29.3282H39.3816C39.4907 27.4538 40.1453 26.0205 41.4544 25.1384C42.6544 24.2564 44.5089 23.7051 46.7998 23.7051C48.3271 23.7051 49.5271 23.8154 50.3998 24.1461C51.2726 24.4769 52.0362 24.9179 52.5816 25.5795C52.9089 26.0205 53.1271 26.4615 53.2362 27.0128C53.3453 27.5641 53.4544 28.3359 53.4544 29.4384V36.3846C53.4544 37.0461 53.5635 37.4872 53.6726 37.7077C53.7816 37.9282 53.9998 37.9282 54.3271 37.9282C54.4362 37.9282 54.6544 37.9282 54.7635 37.9282C55.1998 37.9282 55.3089 37.9282 55.5271 37.9282ZM51.5998 31.2025C51.2725 31.4231 50.618 31.6436 49.8544 31.7538C49.0907 31.9743 47.8907 32.1949 46.1453 32.4154C43.8544 32.7461 42.4362 33.1872 41.7816 33.6282C41.1271 34.0692 40.9089 34.6205 40.9089 35.5025C40.9089 36.3846 41.2362 37.0461 41.9998 37.5974C42.7635 38.1487 43.7453 38.3692 44.9453 38.3692C46.9089 38.3692 48.4362 37.9282 49.7453 36.9359C50.9453 36.0538 51.5998 34.841 51.5998 33.2974V31.2025ZM60.4362 39.9128H58.3635V23.9256H60.4362V26.5718C60.8726 25.5795 61.5271 24.8077 62.3998 24.1461C63.2726 23.5949 64.1453 23.2641 65.2362 23.2641C65.5635 23.2641 65.8907 23.2641 66.218 23.3743C66.5453 23.4846 66.8726 23.5949 67.3089 23.7051V25.6897C66.9816 25.5795 66.6544 25.4692 66.3271 25.4692C65.9998 25.4692 65.7816 25.359 65.4544 25.359C64.2544 25.359 63.1635 25.6897 62.3998 26.3513C61.5271 27.0128 60.9816 28.0051 60.5453 29.4384V39.9128H60.4362ZM69.2726 39.9128V18.082H71.3453V39.9128H69.2726ZM76.9089 30.6513H89.1271C89.018 29.1077 88.3635 27.7846 87.2726 26.7923C86.1816 25.8 84.7635 25.359 83.018 25.359C81.2726 25.359 79.8544 25.8 78.7635 26.7923C77.6725 27.7846 77.018 28.9974 76.9089 30.6513ZM90.8726 34.841C90.4362 36.6051 89.5635 37.9282 88.1453 39.0308C86.7271 40.0231 85.0907 40.5743 83.018 40.5743C80.5089 40.5743 78.4362 39.8025 76.9089 38.259C75.3816 36.7154 74.618 34.6205 74.618 32.0846C74.618 29.5487 75.3816 27.4538 76.9089 25.9102C78.4362 24.3666 80.5089 23.5949 83.018 23.5949C85.5271 23.5949 87.5998 24.3666 89.1271 25.9102C90.6544 27.4538 91.418 29.5487 91.418 32.0846V32.5256H76.7998C76.9089 34.5102 77.5635 35.9436 78.5453 37.0461C79.6362 38.1487 81.0544 38.5897 82.9089 38.5897C84.218 38.5897 85.418 38.259 86.3998 37.5974C87.3816 36.9359 88.0362 36.0538 88.4725 34.9513H90.8726V34.841ZM93.0544 34.841H95.1271C95.2362 36.0538 95.7816 36.9359 96.7635 37.4872C97.6362 38.0384 98.9453 38.3692 100.691 38.3692C102.436 38.3692 103.854 38.1487 104.727 37.5974C105.709 37.0461 106.145 36.3846 106.145 35.3923C106.145 34.7307 105.927 34.1795 105.491 33.8487C105.054 33.5179 104.291 33.1872 103.2 33.0769L98.618 32.4154C96.7635 32.1949 95.5635 31.6436 94.6907 30.982C93.9271 30.3205 93.4907 29.3282 93.4907 28.0051C93.4907 26.5718 94.1453 25.4692 95.3453 24.5872C96.5453 23.7051 98.2907 23.3743 100.473 23.3743C102.654 23.3743 104.4 23.8154 105.709 24.6974C107.018 25.5795 107.563 26.9025 107.673 28.5564H105.6C105.491 27.4538 104.945 26.682 104.073 26.1308C103.2 25.5795 101.891 25.359 100.254 25.359C98.8362 25.359 97.6362 25.5795 96.8726 26.0205C96.1089 26.4615 95.6725 27.1231 95.6725 28.0051C95.6725 28.6666 95.8907 29.2179 96.4362 29.5487C96.9816 29.8795 97.8544 30.2102 99.2726 30.4307L103.309 31.0923C105.054 31.3128 106.363 31.8641 107.127 32.5256C107.891 33.1872 108.327 34.1795 108.327 35.3923C108.327 37.0461 107.673 38.3692 106.363 39.2513C105.054 40.1333 103.091 40.5743 100.582 40.5743C98.2907 40.5743 96.5453 40.1333 95.3453 39.141C93.9271 38.0384 93.2726 36.6051 93.0544 34.841ZM119.454 39.9128H117.382V23.9256H119.454V26.5718C119.891 25.5795 120.545 24.8077 121.418 24.1461C122.291 23.5949 123.163 23.2641 124.254 23.2641C124.582 23.2641 124.909 23.2641 125.236 23.3743C125.563 23.4846 125.891 23.5949 126.327 23.7051V25.6897C126 25.5795 125.673 25.4692 125.345 25.4692C125.018 25.4692 124.8 25.359 124.473 25.359C123.273 25.359 122.182 25.6897 121.418 26.3513C120.545 27.0128 120 28.0051 119.563 29.4384V39.9128H119.454ZM128.291 20.6179V18.1923H130.363V20.6179H128.291ZM128.291 39.9128V23.9256H130.363V39.9128H128.291ZM139.2 39.9128L132 23.9256H134.4L140.291 37.8179L146.291 23.9256H148.582L141.382 39.9128H139.2ZM151.309 30.541H163.527C163.418 28.9974 162.763 27.6743 161.673 26.682C160.582 25.6897 159.163 25.2487 157.418 25.2487C155.673 25.2487 154.254 25.6897 153.163 26.682C152.073 27.6743 151.418 28.8872 151.309 30.541ZM165.273 34.7307C164.836 36.4949 163.963 37.8179 162.545 38.9205C161.127 39.9128 159.491 40.4641 157.418 40.4641C154.909 40.4641 152.836 39.6923 151.309 38.1487C149.782 36.6051 149.018 34.5102 149.018 31.9743C149.018 29.4384 149.782 27.3436 151.309 25.8C152.836 24.2564 154.909 23.4846 157.418 23.4846C159.927 23.4846 162 24.2564 163.527 25.8C165.054 27.3436 165.818 29.4384 165.818 31.9743V32.4154H151.2C151.309 34.4 151.963 35.8333 152.945 36.9359C154.036 38.0384 155.454 38.4795 157.309 38.4795C158.618 38.4795 159.818 38.1487 160.8 37.4872C161.782 36.8256 162.436 35.9436 162.873 34.841H165.273V34.7307ZM170.727 39.8025H168.654V23.8154H170.727V26.4615C171.163 25.4692 171.818 24.6974 172.691 24.0359C173.563 23.4846 174.436 23.1538 175.527 23.1538C175.854 23.1538 176.182 23.1538 176.509 23.2641C176.836 23.3743 177.163 23.4846 177.6 23.5949V25.5795C177.273 25.4692 176.945 25.359 176.618 25.359C176.291 25.359 176.073 25.2487 175.745 25.2487C174.545 25.2487 173.454 25.5795 172.691 26.241C171.818 26.9025 171.273 27.8949 170.836 29.3282V39.8025H170.727Z" fill="black" fill-opacity="0.5"/>
</svg>
