<svg width="145" height="40" viewBox="0 0 145 40" fill="none" xmlns="http://www.w3.org/2000/svg">
<g clip-path="url(#clip0_353_15758)">
<path fill-rule="evenodd" clip-rule="evenodd" d="M55.8488 18.8922L55.8428 25.8352C55.3546 26.017 54.3179 26.2801 52.3918 26.2801C47.6612 26.2801 44.6053 23.5685 44.6053 19.3722C44.6053 15.2134 47.7615 12.5237 52.6468 12.5237C54.4931 12.5237 55.931 12.7892 57.3037 13.3795L57.7363 13.5661L58.6449 10.8316L58.3066 10.6788C57.3061 10.2255 55.2447 9.69703 52.7362 9.69703C44.7298 9.69703 41.083 14.7637 41.083 19.4716C41.083 22.2037 42.1318 24.7164 43.96 26.3649C45.984 28.1988 48.6677 29.091 52.1646 29.091C54.4672 29.0826 56.7528 28.6948 58.9301 27.9431L59.208 27.8449V18.8995L55.8488 18.8922ZM64.0413 29.091H66.458V9.69703H64.0413V29.091ZM77.0249 26.1576V9.69703H73.708V29.091H85.7913V26.1576H77.0249ZM93.9065 26.2073V20.4304H101.805V17.5455H93.9065V12.5819H102.265V9.69703H90.6247V29.091H102.708V26.2073H93.9065ZM115.29 13.5128C115.479 14.1019 117.328 18.9891 117.873 20.4025H112.755C112.755 20.4025 115.109 14.097 115.29 13.5128ZM117.018 9.69703H113.692L106.333 29.091H109.73L111.889 23.1698H118.745L121.002 29.091H124.458L117.018 9.69703ZM142.16 12.3685C140.22 10.5976 137.201 9.69703 133.193 9.69703L126.875 9.70309V12.4401L133.267 12.457C136.207 12.457 138.407 13.1516 139.806 14.5225C140.938 15.6291 141.503 17.1479 141.486 19.0364C141.486 21.1285 140.809 22.8873 139.53 24.1261C138.041 25.5649 135.711 26.3225 132.791 26.3152C131.906 26.3152 130.938 26.3031 130.231 26.2328V17.6073H126.875V28.8401L127.255 28.8776C128.721 29.0231 130.322 29.091 132.356 29.091C136.521 29.091 139.951 28.0376 142.016 26.1261C143.941 24.2958 145 21.7443 145 18.9382C145 16.2546 144.044 14.0449 142.16 12.3685Z" fill="black" fill-opacity="0.5"/>
<path fill-rule="evenodd" clip-rule="evenodd" d="M29.5422 0.804909C29.5416 0.777017 29.5304 0.750416 29.5108 0.730577C29.4913 0.710737 29.4649 0.699166 29.4371 0.698242H29.4214C4.89704 3.03036 1.77108 19.9431 9.78837 25.3419C8.40604 31.4473 9.69412 31.3055 9.69412 31.3055C9.94188 29.4859 10.301 27.6833 10.7695 25.9079C13.8979 14.0073 21.6409 3.6243 29.4468 0.914V0.911575C29.4728 0.908358 29.4968 0.895784 29.5144 0.876177C29.5319 0.85657 29.5418 0.831255 29.5422 0.804909Z" fill="black" fill-opacity="0.5"/>
<path fill-rule="evenodd" clip-rule="evenodd" d="M28.246 4.69097C28.246 4.66204 28.2345 4.63429 28.2141 4.61383C28.1938 4.59337 28.1661 4.58188 28.1372 4.58188C28.1149 4.58191 28.0931 4.58894 28.0749 4.60197C28.0567 4.61501 28.043 4.6334 28.0357 4.65461C26.0094 8.62915 25.4245 14.3188 23.8791 18.6716C22.1125 23.6534 18.9732 27.0061 14.1242 26.6885V38.7952C14.1242 38.7952 1.17329 32.9382 1.17329 23.5213V5.87642L11.7571 4.90915H11.7607C11.7866 4.90606 11.8106 4.89372 11.8281 4.8744C11.8457 4.85508 11.8558 4.83005 11.8566 4.80389C11.8573 4.77773 11.8486 4.75217 11.8321 4.73189C11.8156 4.7116 11.7924 4.69794 11.7667 4.69339V4.69097H0V23.5213C0 34.1152 14.1206 40.0001 14.1206 40.0001C14.1206 40.0001 28.2484 34.0182 28.2484 23.5213V4.69097H28.246Z" fill="black" fill-opacity="0.5"/>
</g>
<defs>
<clipPath id="clip0_353_15758">
<rect width="145" height="40" fill="white"/>
</clipPath>
</defs>
</svg>
