<svg width="173" height="30" viewBox="0 0 173 30" fill="none" xmlns="http://www.w3.org/2000/svg">
<g clip-path="url(#clip0_353_15912)">
<path fill-rule="evenodd" clip-rule="evenodd" d="M72.5247 0.020091C80.1998 -0.389174 86.7663 5.5044 87.0949 13.1167C87.3822 18.4781 84.5508 23.3082 80.2001 25.8457L81.1435 27.6053C81.5539 28.4238 81.2671 29.4056 80.4464 29.815C79.6256 30.2242 78.6402 29.9382 78.2297 29.1199L77.2036 27.1552C76.1776 27.4417 75.1105 27.6461 74.0025 27.687C66.3273 28.0963 59.8009 22.2028 59.3905 14.5904C58.9801 6.93703 64.8905 0.429364 72.5247 0.020091ZM83.8938 13.2809C83.5654 7.4284 78.5582 2.96701 72.7301 3.2534C66.8609 3.58081 62.3872 8.57385 62.6743 14.3853C63.0026 20.2379 68.0098 24.6993 73.838 24.4128C74.4536 24.3719 75.0693 24.2897 75.6439 24.1669L74.6178 22.2032C74.2074 21.3846 74.4949 20.4018 75.3158 19.9926C76.1366 19.5835 77.1212 19.8702 77.5317 20.6886L78.7223 22.9391C81.9646 20.9746 84.0989 17.3326 83.8938 13.2809Z" fill="black" fill-opacity="0.5"/>
<path d="M51.1815 0.0609291C52.0844 0.0609291 52.8237 0.797758 52.8239 1.698V26.0091C52.8238 26.9095 52.0845 27.6462 51.1815 27.6462C50.2787 27.646 49.5401 26.9094 49.5401 26.0091V1.698C49.5403 0.797864 50.2788 0.0611018 51.1815 0.0609291Z" fill="black" fill-opacity="0.5"/>
<path d="M92.2664 0.266007C93.0872 -0.143264 94.0727 0.143487 94.4831 0.96203L105.811 22.5299L117.345 0.96203C117.755 0.18445 118.781 -0.143262 119.561 0.306845C120.341 0.716053 120.669 1.73897 120.218 2.51654L107.206 26.8276C106.919 27.3186 106.345 27.6461 105.77 27.6462C105.155 27.6462 104.58 27.3188 104.334 26.7868L91.5692 2.4757C91.159 1.65731 91.4458 0.675374 92.2664 0.266007Z" fill="black" fill-opacity="0.5"/>
<path d="M129.165 0.0609291C130.068 0.0609291 130.807 0.797758 130.807 1.698V26.0091C130.807 26.9095 130.068 27.6462 129.165 27.6462C128.262 27.646 127.523 26.9094 127.523 26.0091V1.698C127.524 0.797864 128.262 0.0611021 129.165 0.0609291Z" fill="black" fill-opacity="0.5"/>
<path d="M153.997 0.0609291C154.613 0.0610668 155.146 0.388582 155.433 0.920304L168.198 25.2314C168.609 26.0498 168.321 27.0317 167.5 27.4411C167.254 27.5638 166.967 27.6461 166.721 27.6462C166.146 27.6462 165.571 27.3188 165.284 26.7868L153.955 5.21807L142.423 26.7868C142.012 27.5644 140.986 27.8913 140.206 27.4411C139.426 27.0317 139.098 26.0089 139.55 25.2314L152.56 0.920304C152.848 0.388426 153.423 0.0200102 153.997 0.0609291Z" fill="black" fill-opacity="0.5"/>
<path d="M31.9733 23.1034C31.3987 24.1265 30.7417 25.0271 30.0029 25.8866H9.27599C8.49615 25.8866 7.88085 25.2721 7.88085 24.4945C7.88097 23.717 8.49623 23.1034 9.27599 23.1034H31.9733Z" fill="black" fill-opacity="0.5"/>
<path d="M40.0178 23.1034C40.7976 23.1034 41.4136 23.717 41.4547 24.4945C41.4547 25.2721 40.8385 25.8866 40.0587 25.8866H30.0438C30.7415 25.068 31.3987 24.1265 31.9733 23.1034H40.0178Z" fill="black" fill-opacity="0.5"/>
<path d="M157.854 18.8464C158.757 18.8464 159.497 19.5833 159.497 20.4835C159.497 21.3839 158.758 22.1206 157.814 22.1206H149.934C149.031 22.1206 148.291 21.3839 148.291 20.4835C148.292 19.5833 149.031 18.8464 149.934 18.8464H157.854Z" fill="black" fill-opacity="0.5"/>
<path d="M40.0178 17.7829C40.7976 17.7829 41.3719 18.3965 41.372 19.174C41.372 19.9516 40.7567 20.566 39.9769 20.5661H5.336C4.55617 20.5661 3.93998 19.9516 3.93998 19.174C3.94008 18.3965 4.55623 17.7829 5.336 17.7829H40.0178Z" fill="black" fill-opacity="0.5"/>
<path d="M6.89564 12.4624C6.03371 12.4624 5.3353 13.2399 5.54052 14.1403C5.37634 13.2399 6.07462 12.4624 6.93654 12.4624H34.1892C34.2302 12.8716 34.231 13.3217 34.231 13.7719C34.231 14.263 34.2302 14.7545 34.1892 15.2456H1.39513C0.615469 15.2454 0 14.631 0 13.8535C7.87818e-05 13.0761 0.615519 12.4626 1.39513 12.4624H6.89564Z" fill="black" fill-opacity="0.5"/>
<path d="M40.0178 12.4624C40.7976 12.4624 41.4129 13.076 41.4129 13.8535C41.4129 14.6312 40.7976 15.2456 40.0178 15.2456H34.231C34.272 14.7545 34.2719 14.263 34.2719 13.7719C34.2719 13.3218 34.272 12.9125 34.231 12.4624H40.0178Z" fill="black" fill-opacity="0.5"/>
<path d="M40.0178 7.1419C40.7976 7.1419 41.4129 7.79641 41.4129 8.53305C41.4129 9.31067 40.7976 9.92509 40.0178 9.9251H3.36557C2.58575 9.92508 1.97044 9.31066 1.97044 8.53305C1.9705 7.7555 2.58579 7.14191 3.36557 7.1419H40.0178Z" fill="black" fill-opacity="0.5"/>
<path d="M30.1674 1.8214C30.865 2.68069 31.5217 3.62171 32.0551 4.60372H19.0446C18.3879 4.60372 17.7717 4.15408 17.6486 3.49932C17.5365 3.00771 17.6946 2.55315 18.0007 2.24133C17.6676 2.5535 17.4907 3.0268 17.6077 3.54015C17.7719 4.19496 18.388 4.64545 19.0037 4.64545H13.4623C12.6825 4.64538 12.0671 4.03098 12.0671 3.2534C12.0672 2.47591 12.6826 1.86231 13.4623 1.86224H18.6676C18.7754 1.83588 18.8882 1.8214 19.0037 1.8214H30.1674Z" fill="black" fill-opacity="0.5"/>
<path d="M40.0178 1.8214C40.7976 1.82142 41.4129 2.43499 41.4129 3.21256C41.4129 3.99017 40.7976 4.60371 40.0178 4.60372H32.0551C31.5217 3.5808 30.865 2.63978 30.1674 1.8214H40.0178Z" fill="black" fill-opacity="0.5"/>
<path d="M168.28 0.552761H166.967V4.11278H166.392V0.5936H165.12V0.0609291H168.28V0.552761Z" fill="black" fill-opacity="0.5"/>
<path d="M170.949 3.17172L172.138 0.0609291H173.001V4.07194H172.426V0.716114L171.071 4.07194H170.702L169.347 0.716114V4.07194H168.814V0.0609291H169.676L170.949 3.17172Z" fill="black" fill-opacity="0.5"/>
</g>
<defs>
<clipPath id="clip0_353_15912">
<rect width="173" height="30" fill="white"/>
</clipPath>
</defs>
</svg>
