<svg width="200" height="36" viewBox="0 0 200 36" fill="none" xmlns="http://www.w3.org/2000/svg">
<g clip-path="url(#clip0_353_15818)">
<path fill-rule="evenodd" clip-rule="evenodd" d="M72.5683 13.0353C72.5683 12.7085 72.7923 12.5338 73.0736 12.5338C73.5496 12.5338 74.2683 13.0353 74.6736 14.0385C74.5283 14.0385 74.3096 14.0821 74.163 14.0821C73.2963 14.0821 72.5683 13.6732 72.5683 13.0353ZM20.1334 13.0353C20.1334 12.7085 20.3481 12.5338 20.6414 12.5338C21.1054 12.5338 21.7948 13.0353 22.1948 14.0385C20.8561 14.0385 20.1334 13.7513 20.1334 13.0353ZM30.2468 7.85164C30.2468 2.48531 31.3001 1.66085 31.6268 1.66085C32.2081 1.66085 32.2775 2.02081 32.2775 4.07867C32.2775 6.19344 31.3695 8.96063 30.2468 10.4799V7.85164ZM67.0616 13.1425C66.4376 14.0054 65.9323 15.2308 65.9323 16.8096C65.9323 19.8336 67.6696 22.7199 71.0456 22.7199C74.3096 22.7199 76.5963 20.1604 76.5963 16.5913C76.5963 15.5551 76.5563 15.4121 76.4883 14.982C77.247 14.6538 77.9016 14.1523 78.411 13.7513C78.8443 13.4271 79.1683 13.2457 79.427 13.2457C79.7523 13.2457 79.895 13.4985 79.895 13.9657V21.0272C79.895 22.1773 80.2617 22.7199 81.1643 22.7199C81.9963 22.7199 82.5817 22.1402 82.9057 21.4573C84.1057 18.9734 85.843 15.6622 86.6017 14.405C86.7843 14.1165 86.9323 13.8955 87.0363 13.8955C87.1817 13.8955 87.2563 14.0054 87.2563 14.4712V20.0929C87.2563 21.6744 87.9843 22.7199 89.5737 22.7199C91.2457 22.7199 92.075 21.1305 93.5364 18.6835C93.6057 18.5366 93.6364 18.4321 93.6364 18.3275C93.6364 18.0033 93.3537 17.8194 93.0617 17.8194C92.7324 17.8194 92.551 18.1462 91.4657 19.3307C91.2457 19.5556 91.0324 19.868 90.6297 19.868C90.4857 19.868 90.375 19.6946 90.375 19.4749V13.173C90.375 11.4804 89.6123 10.7975 88.6337 10.7975C87.8377 10.7975 87.1817 11.1217 86.4937 12.1301C85.2603 13.9339 83.991 16.492 83.3043 17.781C83.227 17.9319 83.123 18.1462 83.0523 18.1462C82.9763 18.1462 82.9443 18.0351 82.9443 17.781V13.173C82.9443 11.8443 82.5817 10.7975 81.1643 10.7975C79.6763 10.7975 78.9163 11.8072 77.8283 12.5616C77.139 13.0711 76.5243 13.4271 76.055 13.6428C75.3256 11.8072 73.9856 10.8769 72.8616 10.9047C71.7336 10.9431 70.9363 11.6312 70.9363 12.7839C70.9363 13.9657 71.6656 14.7888 72.6403 15.1554C73.1816 15.3711 73.6909 15.4121 74.4203 15.4121C74.639 15.4121 74.855 15.4121 74.995 15.3711C75.0723 15.7297 75.0376 16.2406 75.0376 16.6349C75.0376 18.4017 73.9856 20.1604 72.0296 20.1604C69.9936 20.1604 68.8016 18.2164 68.8016 15.9865C68.8016 14.2926 69.3069 12.8911 70.1349 11.9224C70.4696 11.5598 70.7189 11.3401 70.7189 11.0079C70.7189 10.8398 70.4696 10.7975 70.2496 10.7975C68.8683 10.7975 67.3496 11.4115 66.3003 11.9488C64.9149 12.6701 63.2869 13.8625 61.9429 15.0495C61.2909 13.6057 60.4936 12.3459 60.0922 11.3705C59.9482 10.9748 59.8429 10.5156 59.5522 10.5156C59.2949 10.5156 59.1829 10.7671 59.0056 11.2633C58.3549 13.173 54.8709 18.7577 54.1095 19.5133C54.0375 19.6165 53.9322 19.7303 53.8975 19.7303C53.8189 19.7303 53.7775 19.6946 53.7775 19.4749V13.173C53.7775 11.4804 53.0895 10.7975 52.1535 10.7975C51.3522 10.7975 50.6655 11.1217 50.0135 12.1301C48.8189 13.9339 47.3615 16.5622 46.6748 17.8551C46.5642 18.0774 46.4548 18.1462 46.4175 18.1462C46.3815 18.1462 46.3522 18.0033 46.3522 17.781V13.173C46.3522 11.4804 45.6602 10.7975 44.7162 10.7975C43.9162 10.7975 43.1588 11.0926 42.5388 12.1301C41.0188 14.6896 38.4815 18.6134 38.0095 19.2566C37.9361 19.3677 37.8628 19.4405 37.7908 19.4749C37.7188 19.4749 37.6775 19.4048 37.6775 19.2261V13.173C37.6775 11.4804 36.9895 10.7975 36.0521 10.7975C34.7441 10.7975 34.0228 11.9912 33.5468 12.7429C32.8908 13.787 32.0241 15.1938 31.3375 16.492C30.8641 17.3602 30.4628 18.1462 30.3161 18.1462C30.2468 18.1462 30.2468 17.8194 30.2468 17.2093V12.3869C32.5281 9.86187 33.9441 6.76912 33.9441 3.38522C33.9441 1.4372 33.0775 0.362615 31.7388 0.362615C29.2308 0.362615 27.3134 4.25204 27.3134 8.85609V12.5999C26.1508 13.3212 25.0614 13.6732 23.7174 13.9339C23.0308 11.9224 21.5774 10.8769 20.4214 10.9047C19.3001 10.9431 18.4987 11.6312 18.4987 12.7839C18.4987 14.6896 20.3854 15.481 22.0494 15.481H22.5214C22.5921 15.8436 22.5921 16.2406 22.5921 16.6349C22.5921 18.4017 21.5414 20.1604 19.5881 20.1604C17.5587 20.1604 16.3587 18.2164 16.3587 15.9865C16.3587 14.2926 16.8614 12.8911 17.6961 11.9224C18.0254 11.5598 18.2814 11.2355 18.2814 11.0079C18.2814 10.8398 18.0254 10.7975 17.8054 10.7975C16.4281 10.7975 13.3854 12.641 9.75605 16.2406C9.4347 13.3596 9.06937 10.5487 9.06937 7.81193C9.06937 4.75359 9.67871 2.15579 9.82404 1.40676C9.89737 0.942249 9.94271 0.649781 9.94271 0.43804C9.94271 0.148219 9.78804 0 9.39737 0C6.45603 0 0 4.6464 0 11.5942C0 16.5211 1.81734 18.8992 4.96669 21.9589C3.05468 25.0199 1.52134 28.6539 1.52134 31.8949C1.52134 34.2306 2.07067 36 3.80668 36C7.4347 36 10.152 28.5163 10.152 22.9687C10.152 21.3144 10.0854 19.6562 9.94271 18.0033C11.28 16.5913 13.3481 14.6896 13.8521 14.5096C13.6361 15.2666 13.4907 16.0606 13.4907 16.8096C13.4907 19.8336 15.2347 22.7199 18.6041 22.7199C21.7641 22.7199 24.1534 20.1604 24.1534 16.5913C24.1534 16.1307 24.1161 15.7297 24.0841 15.2996C25.2388 15.0839 26.3014 14.7888 27.3134 14.1867V21.4216C27.3134 22.3533 27.9614 22.7199 28.5788 22.7199C29.4174 22.7199 29.8521 22.1402 30.4628 20.8155C30.9761 19.7303 32.3495 17.249 33.1828 15.7681C33.8401 14.6128 34.2028 13.8624 34.4948 13.8624C34.5628 13.8624 34.6401 14.0385 34.6401 14.4712V20.6289C34.6401 22.2858 35.5108 22.7199 36.2641 22.7199C36.9895 22.7199 37.4641 22.3242 37.9361 21.6744C39.8241 19.0078 41.8215 15.8436 42.6135 14.4712C42.7602 14.2251 42.9402 14.0385 43.0868 14.0385C43.2282 14.0385 43.3015 14.1165 43.3015 14.5784V21.0272C43.3015 22.1773 43.6642 22.7199 44.5748 22.7199C45.4042 22.7199 45.9468 22.1402 46.2708 21.4573C47.4762 18.9734 49.2482 15.6953 50.0135 14.405C50.1908 14.1165 50.3735 13.8624 50.4815 13.8624C50.6322 13.8624 50.6655 14.0385 50.6655 14.5096V20.6289C50.6655 22.2858 51.5362 22.7199 52.3029 22.7199C53.3095 22.7199 53.9695 21.996 54.6215 21.1715C55.8109 19.6165 57.5536 16.8559 58.6069 15.0839C58.9722 15.6622 59.3669 16.3478 59.6989 17.1021C58.8269 18.1462 57.9549 19.3307 57.9549 20.5892C57.9549 21.9232 58.8976 22.7199 59.8776 22.7199C61.5429 22.7199 63.0642 21.1305 63.0642 18.9389C63.0642 18.0774 62.8149 17.1749 62.4909 16.3134C63.9696 14.8695 65.7496 13.4654 67.0616 13.1425ZM7.3227 20.9902C7.61603 22.8959 7.8707 24.7724 7.8707 26.2453C7.8707 29.6954 6.71336 33.7291 4.71735 33.696C3.94668 33.696 3.29868 32.9311 3.26668 31.6064C3.19335 27.2908 5.26002 23.6171 7.3227 20.9902ZM60.2736 18.5366C60.4936 19.156 60.6042 19.6562 60.6042 20.1604C60.6042 20.7374 60.3856 21.3144 59.9842 21.3144C59.6989 21.3144 59.4082 20.9902 59.4082 20.4847C59.4082 19.9434 59.8776 19.0792 60.2736 18.5366ZM8.63203 1.36838C8.63203 1.58806 8.12403 2.59251 7.47336 4.39496C6.78403 6.26358 6.12669 8.9249 6.12669 12.1301C6.12669 14.0385 6.60269 16.5622 7.00403 19.1163L5.84269 20.6699C3.99068 18.4321 2.83201 15.9163 2.83201 11.5942C2.83201 5.47616 6.56669 1.23207 8.48537 1.23207C8.60003 1.23207 8.63203 1.26383 8.63203 1.36838Z" fill="black" fill-opacity="0.5"/>
<path fill-rule="evenodd" clip-rule="evenodd" d="M178.934 13.0353C178.934 12.7085 179.146 12.5338 179.44 12.5338C179.908 12.5338 180.634 13.0353 181.032 14.0385C180.891 14.0385 180.673 14.0821 180.521 14.0821C179.658 14.0821 178.934 13.6732 178.934 13.0353ZM126.489 13.0353C126.489 12.7085 126.71 12.5338 126.997 12.5338C127.469 12.5338 128.165 13.0353 128.556 14.0385C127.214 14.0385 126.489 13.7513 126.489 13.0353ZM136.609 7.85164C136.609 2.48531 137.656 1.66085 137.986 1.66085C138.565 1.66085 138.638 2.02081 138.638 4.07867C138.638 6.19344 137.729 8.96063 136.609 10.4799V7.85164ZM113.692 20.9902C113.973 22.8959 114.237 24.7724 114.237 26.2453C114.237 29.6954 113.078 33.7291 111.078 33.696C110.318 33.696 109.665 32.9311 109.629 31.6064C109.554 27.2908 111.625 23.6171 113.692 20.9902ZM166.641 18.5366C166.861 19.156 166.965 19.6562 166.965 20.1604C166.965 20.7374 166.748 21.3144 166.349 21.3144C166.062 21.3144 165.764 20.9902 165.764 20.4847C165.764 19.9434 166.24 19.0792 166.641 18.5366ZM114.99 1.36838C114.99 1.58806 114.488 2.59251 113.83 4.39496C113.146 6.26358 112.489 8.9249 112.489 12.1301C112.489 14.0385 112.973 16.5622 113.369 19.1163L112.205 20.6699C110.358 18.4321 109.192 15.9163 109.192 11.5942C109.192 5.47616 112.934 1.23207 114.853 1.23207C114.958 1.23207 114.99 1.26383 114.99 1.36838ZM108.944 19.3677C109.592 20.2319 110.392 21.059 111.334 21.9589C109.41 25.0199 107.889 28.6539 107.889 31.8949C107.889 34.2306 108.437 36 110.178 36C113.801 36 116.518 28.5163 116.518 22.9687C116.518 21.3144 116.448 19.6562 116.302 18.0033C117.646 16.5913 119.706 14.6896 120.221 14.5096C120.002 15.2666 119.852 16.0606 119.852 16.8096C119.852 19.8336 121.594 22.7199 124.97 22.7199C128.122 22.7199 130.516 20.1604 130.516 16.5913C130.516 16.1307 130.482 15.7297 130.442 15.2996C131.605 15.0839 132.664 14.7888 133.673 14.1867V21.4216C133.673 22.3533 134.322 22.7199 134.934 22.7199C135.78 22.7199 136.214 22.1402 136.828 20.8155C137.333 19.7303 138.714 17.249 139.55 15.7681C140.201 14.6128 140.564 13.8624 140.861 13.8624C140.929 13.8624 140.997 14.0385 140.997 14.4712V20.6289C140.997 22.2858 141.865 22.7199 142.628 22.7199C143.356 22.7199 143.822 22.3242 144.304 21.6744C146.184 19.0078 148.181 15.8436 148.977 14.4712C149.122 14.2251 149.306 14.0385 149.446 14.0385C149.588 14.0385 149.668 14.1165 149.668 14.5784V21.0272C149.668 22.1773 150.026 22.7199 150.932 22.7199C151.766 22.7199 152.31 22.1402 152.64 21.4573C153.837 18.9734 155.613 15.6953 156.372 14.405C156.557 14.1165 156.737 13.8624 156.85 13.8624C156.992 13.8624 157.032 14.0385 157.032 14.5096V20.6289C157.032 22.2858 157.894 22.7199 158.654 22.7199C159.677 22.7199 160.33 21.996 160.978 21.1715C162.174 19.6165 163.92 16.8559 164.97 15.0839C165.329 15.6622 165.733 16.3478 166.062 17.1021C165.182 18.1462 164.321 19.3307 164.321 20.5892C164.321 21.9232 165.253 22.7199 166.24 22.7199C167.905 22.7199 169.426 21.1305 169.426 18.9389C169.426 18.0774 169.174 17.1749 168.848 16.3134C170.333 14.8695 172.112 13.4654 173.417 13.1425C172.801 14.0054 172.293 15.2308 172.293 16.8096C172.293 19.8336 174.036 22.7199 177.409 22.7199C180.673 22.7199 182.952 20.1604 182.952 16.5913C182.952 15.5551 182.918 15.4121 182.85 14.982C183.604 14.6538 184.261 14.1523 184.774 13.7513C185.2 13.4271 185.533 13.2457 185.782 13.2457C186.11 13.2457 186.264 13.4985 186.264 13.9657V21.0272C186.264 22.1773 186.621 22.7199 187.528 22.7199C188.359 22.7199 188.943 22.1402 189.27 21.4573C190.46 18.9734 192.204 15.6622 192.963 14.405C193.144 14.1165 193.292 13.8955 193.401 13.8955C193.549 13.8955 193.62 14.0054 193.62 14.4712V20.0929C193.62 21.6744 194.339 22.7199 195.939 22.7199C197.612 22.7199 198.444 21.1305 199.897 18.6835C199.965 18.5366 200 18.4321 200 18.3275C200 18.0033 199.709 17.8194 199.421 17.8194C199.097 17.8194 198.912 18.1462 197.827 19.3307C197.612 19.5556 197.391 19.868 196.993 19.868C196.844 19.868 196.741 19.6946 196.741 19.4749V13.173C196.741 11.4804 195.971 10.7975 194.992 10.7975C194.199 10.7975 193.549 11.1217 192.857 12.1301C191.621 13.9339 190.356 16.492 189.672 17.781C189.593 17.9319 189.488 18.1462 189.411 18.1462C189.333 18.1462 189.305 18.0351 189.305 17.781V13.173C189.305 11.8443 188.943 10.7975 187.528 10.7975C186.037 10.7975 185.28 11.8072 184.193 12.5616C183.497 13.0711 182.885 13.4271 182.409 13.6428C181.69 11.8072 180.344 10.8769 179.225 10.9047C178.094 10.9431 177.304 11.6312 177.304 12.7839C177.304 13.9657 178.029 14.7888 179 15.1554C179.545 15.3711 180.053 15.4121 180.788 15.4121C181 15.4121 181.21 15.4121 181.365 15.3711C181.436 15.7297 181.399 16.2406 181.399 16.6349C181.399 18.4017 180.344 20.1604 178.384 20.1604C176.355 20.1604 175.163 18.2164 175.163 15.9865C175.163 14.2926 175.667 12.8911 176.497 11.9224C176.828 11.5598 177.084 11.3401 177.084 11.0079C177.084 10.8398 176.828 10.7975 176.611 10.7975C175.239 10.7975 173.711 11.4115 172.659 11.9488C171.278 12.6701 169.646 13.8625 168.309 15.0495C167.654 13.6057 166.861 12.3458 166.457 11.3705C166.308 10.9748 166.209 10.5156 165.908 10.5156C165.657 10.5156 165.546 10.7671 165.368 11.2633C164.713 13.173 161.234 18.7576 160.473 19.5133C160.4 19.6165 160.292 19.7303 160.253 19.7303C160.185 19.7303 160.145 19.6946 160.145 19.4749V13.173C160.145 11.4804 159.461 10.7975 158.509 10.7975C157.71 10.7975 157.032 11.1217 156.372 12.1301C155.173 13.9339 153.726 16.5622 153.037 17.8551C152.93 18.0774 152.824 18.1462 152.789 18.1462C152.748 18.1462 152.71 18.0033 152.71 17.781V13.173C152.71 11.4804 152.026 10.7975 151.082 10.7975C150.282 10.7975 149.516 11.0926 148.905 12.1301C147.377 14.6896 144.842 18.6134 144.368 19.2566C144.304 19.3677 144.226 19.4405 144.149 19.4749C144.085 19.4749 144.042 19.4048 144.042 19.2261V13.173C144.042 11.4804 143.356 10.7975 142.409 10.7975C141.1 10.7975 140.38 11.9912 139.905 12.7429C139.253 13.787 138.388 15.1938 137.696 16.492C137.228 17.3601 136.828 18.1462 136.682 18.1462C136.609 18.1462 136.609 17.8194 136.609 17.2093V12.3869C138.897 9.86186 140.306 6.76911 140.306 3.38522C140.306 1.4372 139.438 0.362607 138.092 0.362607C135.593 0.362607 133.673 4.25203 133.673 8.85608V12.5999C132.509 13.3212 131.421 13.6732 130.077 13.9339C129.393 11.9224 127.941 10.8769 126.788 10.9047C125.656 10.9431 124.861 11.6312 124.861 12.7839C124.861 14.6896 126.741 15.4809 128.413 15.4809H128.888C128.954 15.8436 128.954 16.2406 128.954 16.6349C128.954 18.4017 127.906 20.1604 125.946 20.1604C123.914 20.1604 122.724 18.2164 122.724 15.9865C122.724 14.2925 123.23 12.8911 124.058 11.9224C124.384 11.5598 124.64 11.2355 124.64 11.0079C124.64 10.8398 124.384 10.7975 124.169 10.7975C122.789 10.7975 119.745 12.641 116.114 16.2406C115.796 13.3596 115.429 10.5487 115.429 7.81193C115.429 4.75359 116.045 2.15579 116.19 1.40676C116.262 0.942249 116.302 0.649781 116.302 0.43804C116.302 0.148219 116.154 0 115.762 0C112.824 0 106.367 4.6464 106.367 11.5942C106.367 14.4341 106.983 16.455 108.071 18.2164C107.666 18.1462 107.347 18.1462 107.05 18.1462C105.894 18.1462 104.802 18.4321 104.125 18.579V17.8551C104.125 16.3134 103.757 14.1867 103.102 13.4654C103.025 13.3913 102.917 13.3596 102.815 13.3596C102.517 13.3596 102.159 13.4985 101.762 13.7169C101.322 13.9339 100.887 14.1523 100.887 14.2925C100.887 14.3614 100.887 14.4341 100.997 14.6128C101.253 14.982 101.943 15.6953 102.193 17.3919C100.957 16.1665 99.5488 15.6225 97.7061 15.6225C95.5261 15.6225 94.8701 16.5913 94.8701 17.5692C94.8701 19.4405 97.3728 20.3761 100.533 20.3761C101.111 20.3761 101.762 20.2676 102.411 20.1207C102.411 20.6977 102.485 21.2085 102.485 21.6373C102.485 22.2501 102.59 22.7199 102.994 22.7199C103.609 22.7199 103.974 21.4904 104.043 19.7303C105.167 19.4405 106.33 19.1917 107.313 19.1917C107.782 19.1917 108.369 19.2566 108.944 19.3677ZM101.799 19.0078C101.189 19.0792 100.817 19.0792 100.17 19.0792C98.7515 19.0792 97.7061 18.5366 97.7061 17.7519C97.7061 17.249 97.9568 16.9565 98.6821 16.9565C99.8448 16.9565 100.782 17.7519 101.799 19.0078Z" fill="black" fill-opacity="0.5"/>
</g>
<defs>
<clipPath id="clip0_353_15818">
<rect width="200" height="36" fill="white"/>
</clipPath>
</defs>
</svg>
