<svg width="130" height="28" viewBox="0 0 130 28" fill="none" xmlns="http://www.w3.org/2000/svg">
<path d="M10.9316 17.9541H21.9196V24.4168H2.82617V3.2832H10.9316V17.9541Z" fill="black" fill-opacity="0.5"/>
<path d="M101.511 3.76051L101.584 3.66699H78.8768V9.49588C78.8768 9.49588 88.6534 9.49588 88.9145 9.49588C88.8936 9.51666 88.8727 9.54781 88.8727 9.54781C88.434 10.1297 78.1979 23.8135 77.8114 24.3434L77.7383 24.4265H100.811V18.3379C100.811 18.3379 90.9304 18.3379 90.7111 18.3379C90.732 18.3067 91.5257 17.2261 91.5257 17.2261C93.9489 13.9325 101.177 4.19689 101.511 3.76051Z" fill="black" fill-opacity="0.5"/>
<path d="M36.0731 2.81543C29.357 2.81543 23.4346 6.87799 23.4346 14.016C23.4346 21.1541 29.3987 25.1854 36.0731 25.1854C42.7475 25.1854 48.7219 21.1541 48.7219 14.016C48.7219 6.87799 42.7892 2.81543 36.0731 2.81543ZM36.0731 19.1799C33.1694 19.1799 30.8923 16.9045 30.8923 13.9952C30.8923 11.086 33.1694 8.80017 36.0731 8.80017C38.9768 8.80017 41.2538 11.086 41.2538 13.9952C41.2538 16.9045 38.9768 19.1799 36.0731 19.1799Z" fill="black" fill-opacity="0.5"/>
<path d="M65.4125 3.06488C63.1146 3.10644 60.6601 4.19742 59.2186 6.34818C59.2186 6.2235 59.2186 3.64674 59.2186 3.64674H51.8027V24.4167H59.2186V14.1408C59.1977 10.3692 62.3939 9.45485 64.0233 9.58992C66.6136 9.8185 67.9716 11.3874 67.9716 14.546L67.982 24.4167H75.3876V12.4057C75.3876 6.58716 71.0946 2.98176 65.4125 3.06488Z" fill="black" fill-opacity="0.5"/>
<path d="M119.904 3.50102C119.904 3.60491 119.904 5.62062 119.904 5.62062L119.8 5.50633C118.338 3.94781 115.789 3.0127 113.543 3.0127C110.473 3.0127 107.684 4.07248 105.689 5.98427C103.756 7.8545 102.681 10.7014 102.681 14.0159C102.681 20.3019 107.391 25.0502 113.627 25.0502C115.528 25.0502 118.139 24.593 119.8 22.4111L119.904 22.276C119.904 22.276 119.904 24.3125 119.904 24.4164C120.019 24.4164 127.07 24.4164 127.174 24.4164C127.174 24.3021 127.174 3.61531 127.174 3.50102C127.07 3.50102 120.019 3.50102 119.904 3.50102ZM115.486 19.1798C112.635 19.1798 110.305 16.8732 110.305 14.0263C110.305 11.1794 112.635 8.87274 115.486 8.87274C118.348 8.87274 120.51 11.1794 120.51 14.0263C120.51 16.8732 118.348 19.1798 115.486 19.1798Z" fill="black" fill-opacity="0.5"/>
</svg>
