<svg width="147" height="40" viewBox="0 0 147 40" fill="none" xmlns="http://www.w3.org/2000/svg">
<g clip-path="url(#clip0_353_15908)">
<path fill-rule="evenodd" clip-rule="evenodd" d="M39.8354 40H0V0H39.8354V40ZM0.663708 39.2951H7.34232V20.7639L19.9182 38.8238L32.5321 20.7639V39.2951H39.1717V0.679688L19.9182 27.1884L0.693129 0.665799H0.663708V39.2951Z" fill="black" fill-opacity="0.5"/>
<path fill-rule="evenodd" clip-rule="evenodd" d="M142.9 18.6441L142.939 18.6832C143.121 18.4025 143.345 18.1513 143.603 17.9392C143.898 17.6585 144.29 17.5042 144.696 17.5087C144.862 17.5047 145.027 17.5336 145.182 17.5946C145.336 17.6557 145.477 17.7472 145.595 17.8637C145.725 18.0132 145.822 18.1876 145.883 18.3759C145.944 18.5643 145.966 18.7636 145.949 18.9609C145.924 19.951 145.567 20.9038 144.934 21.6641C144.711 22.045 144.399 22.3657 144.025 22.5981C143.65 22.8303 143.225 22.9675 142.786 22.9974C142.642 23.0078 142.496 22.9946 142.356 22.9583C142.239 22.9192 142.122 22.8412 141.926 22.763L141.731 23.5069C141.666 23.7121 141.614 23.9216 141.576 24.1337C141.542 24.2625 141.516 24.3932 141.498 24.5252C141.498 24.6816 141.537 24.7603 141.654 24.8003C141.843 24.8568 142.041 24.8832 142.239 24.8785V25.1918H139.424V24.7995C139.613 24.8166 139.804 24.7749 139.97 24.6814C140.087 24.6032 140.166 24.4073 140.245 24.0946L141.612 19.079C141.627 18.9585 141.653 18.8397 141.69 18.724C141.729 18.5675 141.768 18.4488 141.768 18.4097C141.768 18.2535 141.729 18.1754 141.612 18.1354C141.462 18.0801 141.303 18.0537 141.143 18.0573V17.7431L141.69 17.704C141.807 17.704 142.044 17.665 142.354 17.6259C142.663 17.5868 142.978 17.5087 143.291 17.4696L142.9 18.6441ZM144.036 18.2552C143.786 18.2833 143.553 18.3933 143.372 18.5686C143.099 18.8255 142.897 19.1502 142.787 19.5095C142.618 19.9713 142.474 20.4422 142.357 20.9201C142.201 21.546 142.083 21.897 142.083 22.0165C142.075 22.0835 142.085 22.1516 142.112 22.2135C142.139 22.2755 142.182 22.3297 142.236 22.3698C142.284 22.4121 142.34 22.4443 142.401 22.4644C142.462 22.4845 142.526 22.4923 142.59 22.487C143.059 22.487 143.488 21.9778 143.919 20.9983C144.223 20.3445 144.409 19.6412 144.466 18.9219C144.477 18.7899 144.464 18.6567 144.427 18.5295C144.397 18.4499 144.343 18.3814 144.274 18.3325C144.204 18.2835 144.121 18.2564 144.036 18.2552Z" fill="black" fill-opacity="0.5"/>
<path fill-rule="evenodd" clip-rule="evenodd" d="M121.106 17.4748C121.454 17.4754 121.799 17.5415 122.122 17.6701C122.396 17.7875 122.512 17.8655 122.476 17.8655H123.765V18.5312H122.984C123.011 18.6066 123.024 18.6866 123.023 18.7665V19.0009C123.021 19.2702 122.96 19.536 122.846 19.7795C122.731 20.023 122.565 20.2385 122.359 20.4115C121.842 20.8306 121.187 21.0404 120.524 20.9991C120.314 20.9877 120.105 20.9616 119.899 20.921C119.821 20.921 119.782 20.9599 119.704 21.0773C119.67 21.1066 119.642 21.1429 119.622 21.1832C119.602 21.2233 119.59 21.2668 119.587 21.3116C119.587 21.429 119.665 21.5468 119.861 21.6259C119.963 21.6714 120.067 21.7105 120.173 21.7431L120.798 21.8993C121.189 22.0065 121.568 22.1512 121.931 22.3307C122.112 22.4307 122.262 22.5784 122.365 22.7578C122.469 22.9373 122.521 23.1418 122.517 23.349C122.504 23.6022 122.424 23.8477 122.287 24.0608C122.15 24.2739 121.96 24.4473 121.735 24.5634C121.154 24.8974 120.491 25.0607 119.822 25.0339C119.385 25.0385 118.95 24.9726 118.534 24.8385C117.909 24.6424 117.596 24.2894 117.596 23.7804C117.601 23.6108 117.651 23.4456 117.74 23.3012C117.829 23.1568 117.955 23.0382 118.104 22.9575C118.337 22.8361 118.579 22.7321 118.828 22.6458L119.047 22.5747C118.969 22.5856 118.866 22.5175 118.764 22.4505C118.682 22.3837 118.615 22.3003 118.568 22.2057C118.521 22.1112 118.494 22.0075 118.49 21.9019C118.491 21.8054 118.512 21.71 118.553 21.6224C118.593 21.5347 118.652 21.4569 118.724 21.3932C118.983 21.1597 119.272 20.962 119.583 20.8056C119.301 20.7162 119.054 20.5373 118.881 20.296C118.722 20.0516 118.641 19.7648 118.647 19.4731C118.662 19.2118 118.728 18.9559 118.842 18.7205C118.956 18.4851 119.115 18.2748 119.311 18.1016C119.805 17.6656 120.449 17.4407 121.106 17.4748ZM119.584 22.8038C119.584 22.7647 119.428 22.8426 119.154 23.0382C119.026 23.1156 118.919 23.225 118.844 23.355C118.769 23.4851 118.728 23.6319 118.725 23.7821C118.73 23.9692 118.799 24.149 118.92 24.2917C119.069 24.4354 119.248 24.5452 119.443 24.6128C119.639 24.6805 119.847 24.704 120.052 24.6832C120.393 24.7039 120.732 24.6225 121.027 24.4488C121.132 24.3904 121.22 24.3053 121.282 24.2023C121.344 24.0992 121.379 23.9815 121.381 23.8611C121.349 23.7157 121.281 23.5807 121.185 23.467V23.4696C121.049 23.3472 120.89 23.2532 120.717 23.1944C120.6 23.1553 120.362 23.0774 120.092 22.9601C119.818 22.8818 119.623 22.8038 119.584 22.8038ZM121.227 17.7882C120.873 17.7882 120.602 18.0629 120.367 18.5712C120.179 19.0185 120.073 19.4973 120.055 19.9826C120.048 20.0674 120.058 20.1527 120.084 20.2335C120.111 20.3143 120.154 20.3888 120.211 20.4523C120.253 20.5047 120.307 20.5466 120.369 20.5738C120.431 20.601 120.498 20.6125 120.565 20.6085C120.875 20.6072 121.147 20.3717 121.381 19.9019V19.9036C121.607 19.468 121.728 18.9845 121.735 18.4931C121.737 18.3164 121.697 18.1419 121.618 17.9844C121.573 17.9231 121.513 17.8734 121.446 17.8394C121.378 17.8055 121.303 17.7876 121.227 17.7882Z" fill="black" fill-opacity="0.5"/>
<path fill-rule="evenodd" clip-rule="evenodd" d="M131.845 17.434C132.186 17.452 132.52 17.5454 132.82 17.7083C133.091 17.8641 133.313 18.0949 133.458 18.3724C133.603 18.6498 133.667 18.963 133.641 19.2752C133.616 20.1573 133.284 21.0033 132.703 21.6658C132.441 22.0382 132.097 22.3452 131.697 22.5625C131.298 22.7799 130.853 22.9021 130.399 22.9193C129.948 22.9077 129.512 22.7569 129.15 22.4878C128.943 22.3202 128.781 22.1037 128.68 21.8576C128.578 21.6114 128.539 21.3432 128.566 21.0781C128.591 20.1961 128.923 19.3509 129.504 18.6884C129.771 18.3115 130.121 18.0015 130.527 17.7839C130.933 17.5662 131.385 17.4466 131.845 17.434ZM131.688 17.7865C131.141 17.7865 130.672 18.3744 130.32 19.5495C130.074 20.2699 129.929 21.0214 129.89 21.7821C129.896 21.9785 129.895 22.1353 129.972 22.2135L129.969 22.2144C130.012 22.3122 130.084 22.3945 130.174 22.4505C130.265 22.5066 130.371 22.5335 130.477 22.5278C130.945 22.5278 131.375 21.9796 131.765 20.8828C132.047 20.1159 132.205 19.3088 132.234 18.4922C132.235 18.3451 132.208 18.1992 132.157 18.0616C132.12 17.9702 132.054 17.8935 131.969 17.8438C131.884 17.794 131.785 17.7736 131.688 17.7865Z" fill="black" fill-opacity="0.5"/>
<path d="M136.61 19.2361L136.064 20.9991C136.025 21.0773 136.025 21.1944 135.986 21.3125C135.951 21.4544 135.925 21.5987 135.908 21.7439C135.907 21.7803 135.913 21.8169 135.927 21.8507C135.94 21.8844 135.96 21.9153 135.986 21.941C136.011 21.9666 136.042 21.9866 136.076 22C136.109 22.0134 136.146 22.0202 136.182 22.0191C136.377 22.0189 136.612 21.8232 136.885 21.4705C137.245 21.0421 137.523 20.5505 137.705 20.0208C137.861 19.6288 138.018 19.2375 138.135 18.8455C138.213 18.5708 138.369 18.1405 138.525 17.553H139.893L139.465 19.1615C139.409 19.4543 139.33 19.7431 139.231 20.0243C139.129 20.3179 139.051 20.6193 138.997 20.9253C138.958 21.1209 138.88 21.3175 138.841 21.474C138.805 21.5897 138.778 21.7085 138.763 21.829C138.763 21.9072 138.763 21.947 138.802 21.9861C138.841 22.0251 138.88 22.0642 138.919 22.0642C139.036 22.0641 139.192 21.9463 139.387 21.6719C139.505 21.5245 139.61 21.3669 139.701 21.2014L139.934 21.3585C139.725 21.7568 139.447 22.1147 139.114 22.4158C138.845 22.6877 138.48 22.8428 138.099 22.8472C137.974 22.8642 137.846 22.8477 137.729 22.7995C137.613 22.7512 137.512 22.6724 137.435 22.572C137.351 22.4304 137.309 22.2672 137.317 22.1024C137.307 21.9446 137.32 21.7859 137.356 21.6319C137.434 21.4007 137.5 21.1654 137.552 20.9271H137.513C137.203 21.3929 136.864 21.8383 136.497 22.2604C136.357 22.4261 136.184 22.5609 135.989 22.6554C135.794 22.7498 135.581 22.802 135.364 22.809C135.182 22.8175 135.003 22.7623 134.857 22.6528C134.737 22.563 134.641 22.4434 134.579 22.3064C134.518 22.1695 134.491 22.0188 134.502 21.8689C134.541 21.86 134.541 21.7041 134.58 21.5477L134.697 21.0773L135.283 18.8837C135.322 18.8057 135.322 18.6888 135.361 18.6493C135.37 18.5834 135.383 18.5175 135.4 18.4531C135.4 18.2968 135.361 18.2188 135.244 18.1788C135.081 18.1206 134.909 18.0941 134.736 18.1007V17.7865C135.517 17.7082 136.104 17.6303 136.494 17.5911C136.883 17.5132 137.116 17.4743 137.118 17.474L136.61 19.2361Z" fill="black" fill-opacity="0.5"/>
<path d="M127.905 17.3984C128.003 17.3915 128.101 17.4095 128.19 17.4505C128.278 17.4915 128.355 17.5542 128.413 17.6328C128.523 17.7793 128.577 17.9596 128.569 18.1424C128.57 18.3544 128.502 18.5611 128.374 18.73C128.319 18.8141 128.244 18.8835 128.155 18.9314C128.067 18.9794 127.967 19.0042 127.866 19.0043C127.773 19.0107 127.68 18.9974 127.593 18.9653C127.513 18.936 127.444 18.8811 127.398 18.809L127.281 18.6918C127.281 18.6527 127.242 18.6528 127.203 18.6528C127.164 18.6525 127.164 18.6137 127.125 18.6137C126.969 18.614 126.773 18.8091 126.539 19.2005C126.305 19.5852 126.109 19.9922 125.954 20.4149C125.837 20.6896 125.72 21.12 125.524 21.6293C125.368 22.1387 125.25 22.531 125.169 22.7656L123.841 22.7622C124.154 21.6653 124.427 20.7241 124.623 19.941C124.78 19.4417 124.898 18.9308 124.977 18.4132C124.977 18.2569 124.938 18.1789 124.821 18.1389C124.672 18.0795 124.512 18.053 124.352 18.0608V17.75C124.86 17.7109 125.251 17.6719 125.602 17.6328C125.836 17.5937 126.188 17.5548 126.695 17.4375L126.071 19.4748H126.11C126.337 18.9996 126.598 18.5412 126.89 18.1033C127.244 17.6333 127.554 17.3986 127.905 17.3984Z" fill="black" fill-opacity="0.5"/>
<path d="M113.53 19.901H43.5849V18.6085H113.53V19.901Z" fill="black" fill-opacity="0.5"/>
<path d="M86.1548 8.85417H86.2327V3.01649C86.2717 2.50781 86.1472 1.99966 85.8779 1.56684C85.478 1.21946 84.9614 1.03793 84.4328 1.05816V0.548611H88.6859V1.05816C88.2414 1.10093 87.813 1.24812 87.4363 1.48872C87.2415 1.64522 87.124 2.03751 87.124 2.66406V14.3776H86.5771L77.9125 3.72135H77.7983V11.5182C77.7603 11.9622 77.8416 12.4085 78.0328 12.8108C78.2379 13.0392 78.492 13.218 78.7761 13.3333C79.0602 13.4487 79.3668 13.4977 79.6726 13.4766V13.9861H75.1807V13.4766L75.14 13.4774C75.8817 13.4774 76.3503 13.3207 76.5462 13.046C76.7696 12.6965 76.8793 12.2862 76.8594 11.8715V2.46875C76.2347 1.80297 75.8844 1.37167 75.7267 1.25434C75.5532 1.12992 75.3521 1.04967 75.1409 1.01997V0.548611H79.3594L86.1548 8.85417Z" fill="black" fill-opacity="0.5"/>
<path d="M136.844 8.85417H136.922V3.01649C136.961 2.50781 136.836 1.99965 136.567 1.56684C136.167 1.21944 135.651 1.03793 135.122 1.05816V0.548611H139.375V1.05816C138.931 1.10092 138.502 1.24811 138.126 1.48872C137.931 1.6452 137.813 2.03747 137.813 2.66406V14.3776H137.266L128.566 3.72135H128.452V11.5182C128.414 11.9622 128.495 12.4085 128.687 12.8108C128.892 13.0392 129.146 13.218 129.43 13.3333C129.714 13.4487 130.021 13.4977 130.326 13.4766V13.9861H125.834V13.4766L125.794 13.4774C126.535 13.4774 127.004 13.3207 127.2 13.046C127.423 12.6965 127.533 12.2862 127.513 11.8715V2.46875C126.889 1.80297 126.538 1.37167 126.38 1.25434C126.207 1.12988 126.006 1.04964 125.795 1.01997V0.548611H130.049L136.844 8.85417Z" fill="black" fill-opacity="0.5"/>
<path d="M52.1396 9.75434H52.2962L56.1599 0.548611H61.1598V1.05816C60.6797 1.04352 60.2051 1.16648 59.7925 1.41319C59.5586 1.60873 59.4378 2.07901 59.4377 2.86285V11.678C59.3745 12.1884 59.501 12.7044 59.7925 13.1276C60.192 13.4075 60.6732 13.5459 61.1598 13.52V14.0295H54.559V13.52C55.0226 13.5429 55.4834 13.4345 55.8882 13.2066C56.2009 13.0111 56.3182 12.6578 56.3182 12.0312V2.31076H56.1616L51.3192 13.9861H50.7723L45.891 2.54601H45.8131V11.5573C45.774 12.0661 45.8986 12.574 46.1679 13.0069C46.4019 13.3207 46.9483 13.4774 47.8077 13.5165V14.026H43.1548V13.4774C43.6806 13.5315 44.2078 13.3918 44.6389 13.0851C44.8941 12.7491 45.0203 12.3322 44.9937 11.9106V2.46875C44.9937 1.92031 44.8763 1.56703 44.6025 1.41059C44.1758 1.20529 43.7086 1.09844 43.2353 1.09722V0.548611H48.2352L52.1396 9.75434Z" fill="black" fill-opacity="0.5"/>
<path fill-rule="evenodd" clip-rule="evenodd" d="M100.836 10.6953C101.147 11.4774 101.513 12.2364 101.93 12.967C102.045 13.1373 102.203 13.2743 102.388 13.3637C102.573 13.4531 102.779 13.492 102.984 13.4766V13.9861H96.5794V13.4792C97.0133 13.475 97.4455 13.4228 97.8679 13.3229C97.9762 13.2614 98.064 13.1689 98.1197 13.0573C98.1754 12.9457 98.196 12.8199 98.1803 12.6962C98.1693 12.454 98.1167 12.2154 98.0245 11.9913C97.9466 11.7958 97.8689 11.5601 97.7511 11.3255L97.2431 10.1111H92.7901C92.5165 10.8938 92.3222 11.4032 92.2441 11.6389C92.1089 12.0055 92.0165 12.3871 91.9698 12.7752C91.9698 13.0498 92.1649 13.2846 92.5556 13.4019C92.8859 13.4943 93.229 13.5337 93.5715 13.5191V14.0286H89.5123V13.4792C89.7407 13.4694 89.9631 13.4033 90.1604 13.2873C90.3578 13.1713 90.524 13.0087 90.6441 12.8134C90.9813 12.2838 91.2564 11.7168 91.4645 11.1241L95.8776 0.234375H96.4237L100.836 10.6953ZM93.1051 9.28733H96.9325L95.0573 4.70312H94.9015L93.1051 9.28733Z" fill="black" fill-opacity="0.5"/>
<path d="M73.3445 4.54861H72.8755C72.7873 3.54309 72.3277 2.60678 71.587 1.92361C70.5919 1.3572 69.4473 1.11115 68.3082 1.21875C67.9078 1.18455 67.5053 1.25164 67.1374 1.41406C67.0477 1.51397 66.9797 1.63214 66.9393 1.76042C66.899 1.88869 66.8866 2.02449 66.9029 2.15799V6.73872C67.7228 6.8368 68.5491 6.61209 69.2073 6.11198C69.703 5.43004 70.0247 4.63661 70.1445 3.80122H70.6524V10.5399H70.1445C70.0968 9.67613 69.7982 8.84475 69.2852 8.14931C68.9624 7.87907 68.588 7.67758 68.1854 7.55642C67.7827 7.43529 67.3596 7.397 66.9419 7.44444V12.263C66.9248 12.4212 66.9439 12.5814 66.9981 12.7309C67.0524 12.8804 67.1407 13.0149 67.2551 13.125C67.6694 13.3206 68.1283 13.4022 68.5843 13.3602C69.6623 13.4133 70.733 13.1551 71.6692 12.6163C72.6303 11.9096 73.3736 10.9452 73.8135 9.8342H74.3604L73.54 13.987H61.9403V13.4774C62.3576 13.5131 62.7769 13.4322 63.1509 13.2431C63.3418 13.1175 63.4939 12.9402 63.5905 12.7326C63.6869 12.5252 63.7235 12.295 63.6969 12.0677V2.46875C63.7257 2.23676 63.686 2.00077 63.5818 1.79167C63.4776 1.58276 63.314 1.40943 63.1119 1.2934C62.7386 1.14579 62.3415 1.06661 61.9403 1.05903V0.548611H73.3445V4.54861Z" fill="black" fill-opacity="0.5"/>
<path fill-rule="evenodd" clip-rule="evenodd" d="M110.137 0.548611C111.22 0.521176 112.301 0.666155 113.339 0.979167C114.027 1.13388 114.641 1.52359 115.075 2.08073C115.509 2.63782 115.737 3.32857 115.721 4.03559C115.737 4.53028 115.632 5.02118 115.414 5.46528C115.196 5.90938 114.873 6.29343 114.473 6.58247C113.87 7.03185 113.175 7.33912 112.437 7.48177L116.655 13.1233C116.741 13.2595 116.864 13.3688 117.009 13.4375C117.16 13.4891 117.319 13.5155 117.478 13.5156V13.9861H113.337L108.73 7.75694V11.6354C108.671 12.1333 108.798 12.6353 109.084 13.046C109.488 13.3487 109.989 13.4889 110.49 13.4384V13.9479H103.768V13.4774C104.254 13.5033 104.736 13.365 105.135 13.0851C105.426 12.6619 105.552 12.1458 105.489 11.6354V2.85938C105.524 2.59491 105.505 2.32576 105.431 2.06944C105.357 1.81319 105.23 1.57514 105.06 1.37066C104.666 1.15204 104.221 1.04407 103.771 1.05729V0.548611H110.137ZM110.673 1.32292C110.11 1.15135 109.504 1.18233 108.961 1.41059C108.875 1.49642 108.809 1.60102 108.768 1.71615C108.728 1.83146 108.714 1.95491 108.728 2.07639V7.12587C109.696 7.19413 110.666 7.00766 111.539 6.58247C112.086 6.22691 112.36 5.44606 112.36 4.19184C112.378 3.56349 112.273 2.93727 112.047 2.35069C111.723 1.8581 111.236 1.49458 110.673 1.32292Z" fill="black" fill-opacity="0.5"/>
<path d="M124.973 1.05816C124.535 1.05239 124.1 1.11821 123.684 1.25347C123.482 1.3694 123.318 1.54277 123.214 1.75174C123.11 1.96086 123.069 2.19682 123.098 2.42882V12.0668C123.098 12.6151 123.255 13.0067 123.567 13.1632C124.003 13.3793 124.489 13.4747 124.973 13.4384V13.9479H118.062V13.4774H118.1C118.513 13.4974 118.925 13.4311 119.311 13.2821C119.513 13.1661 119.676 12.9921 119.781 12.783C119.885 12.574 119.925 12.3387 119.897 12.1068V2.46875C119.925 2.23676 119.885 2.00077 119.781 1.79167C119.676 1.58276 119.513 1.40942 119.311 1.2934C118.911 1.1433 118.488 1.06419 118.061 1.05903V0.548611H124.973V1.05816Z" fill="black" fill-opacity="0.5"/>
<path d="M147 1.05816C146.562 1.05239 146.127 1.11824 145.711 1.25347C145.509 1.36946 145.345 1.54281 145.241 1.75174C145.137 1.96084 145.096 2.19683 145.125 2.42882V12.0668C145.125 12.6152 145.282 13.0068 145.594 13.1632C146.03 13.3793 146.516 13.4747 147 13.4384V13.9479H140.088V13.4774H140.126C140.539 13.4974 140.951 13.431 141.337 13.2821C141.539 13.1661 141.703 12.9921 141.808 12.783C141.912 12.574 141.951 12.3386 141.923 12.1068V2.46875C141.951 2.23676 141.912 2.00077 141.808 1.79167C141.703 1.58261 141.539 1.40945 141.337 1.2934C140.937 1.14333 140.514 1.06417 140.087 1.05903V0.548611H147V1.05816Z" fill="black" fill-opacity="0.5"/>
</g>
<defs>
<clipPath id="clip0_353_15908">
<rect width="147" height="40" fill="white"/>
</clipPath>
</defs>
</svg>
