<svg width="134" height="40" viewBox="0 0 134 40" fill="none" xmlns="http://www.w3.org/2000/svg">
<g clip-path="url(#clip0_353_15840)">
<path d="M63.6029 10.3223H69.6038V29.6758H65.1571V16.6611L59.4684 29.6758L53.4813 16.6448V29.6758H49.332V10.3223H55.2631L59.5391 20.3395L63.6029 10.3223Z" fill="black" fill-opacity="0.5"/>
<path d="M71.8154 10.3223V29.6758H82.9902V26.3948H76.1475V21.471H82.7073V18.159H76.1475V13.7188H82.9902V10.3223H71.8154Z" fill="black" fill-opacity="0.5"/>
<path d="M99.6562 20.0027C99.6562 27.2069 107.18 32.9717 115.108 29.1158V24.9695C109.008 29.2399 103.698 24.9597 103.785 20.1682C103.844 16.9837 105.986 13.9551 110.128 13.719C112.165 13.6034 113.545 14.1094 115.108 15.6047V11.2929C109.379 7.90071 99.6562 11.6342 99.6562 20.0027Z" fill="black" fill-opacity="0.5"/>
<path d="M116.937 29.6762H121.056V10.5088H116.937V29.6762Z" fill="black" fill-opacity="0.5"/>
<path d="M126.225 19.2976L132.449 10.5508H127.638L121.472 19.2812L128.631 29.6759H133.354L126.225 19.2976Z" fill="black" fill-opacity="0.5"/>
<path d="M84.916 10.3223V29.6759H89.2632V19.2782L96.4491 29.6759H101.083L95.3942 21.5494C98.0307 20.5531 98.8861 18.3439 98.8861 16.1359C98.8861 13.9296 97.0327 10.3223 92.5429 10.3223H84.916ZM89.2632 13.5428H91.1607C94.3689 13.5428 94.5402 15.6387 94.5402 16.4212C94.5402 17.9165 93.2706 19.1898 91.632 19.1898H89.2632V13.5428Z" fill="black" fill-opacity="0.5"/>
<path d="M10.3291 10.3231C10.3291 4.97797 14.6654 0.645508 20.0135 0.645508C25.3632 0.645508 29.6979 4.97797 29.6979 10.3231H10.3291ZM10.3291 29.6775C10.3291 24.3333 14.6654 19.9999 20.0135 19.9999C14.6654 19.9999 10.3291 15.6683 10.3291 10.3231C4.98103 10.3231 0.645508 14.6556 0.645508 19.9999C0.645508 25.3459 4.98103 29.6775 10.3291 29.6775ZM10.3291 29.6775C10.3291 35.0236 14.6654 39.3552 20.0135 39.3552C25.3632 39.3552 29.6979 35.0236 29.6979 29.6775H10.3291ZM20.0135 19.9999C25.3632 19.9999 29.6979 24.3333 29.6979 29.6775C35.0468 29.6775 39.3831 25.3459 39.3831 19.9999C39.3831 14.6556 35.0468 10.3231 29.6979 10.3231C29.6979 15.6683 25.3632 19.9999 20.0135 19.9999Z" fill="black" fill-opacity="0.5"/>
</g>
<defs>
<clipPath id="clip0_353_15840">
<rect width="134" height="40" fill="white"/>
</clipPath>
</defs>
</svg>
