<svg width="179" height="52" viewBox="0 0 179 52" fill="none" xmlns="http://www.w3.org/2000/svg">
<path d="M29.9338 16.7725C31.7561 20.1179 33.7078 24.2972 35.4322 27.7561L37.8021 32.5028C38.2854 33.467 38.902 34.6198 39.2976 35.5967C38.8941 35.5769 38.445 35.5727 38.0392 35.5817C35.3597 35.6408 32.5589 35.461 29.8909 35.6173C29.7698 35.3243 29.6343 35.0598 29.4964 34.7755C28.1199 31.939 26.6227 29.1419 25.2889 26.2861C23.7525 29.4323 22.1938 32.5676 20.6132 35.6918C19.1208 32.6431 17.2887 29.2935 15.9206 26.2351C14.5103 29.3096 12.8065 32.576 11.2867 35.6124C8.98215 35.4875 6.58388 35.6226 4.27025 35.5727C3.49589 35.556 2.63071 35.555 1.86523 35.6167C2.2807 34.7099 2.73879 33.7859 3.19221 32.8968C5.91503 27.5582 8.48123 22.1068 11.2533 16.7964C11.7664 17.5934 12.8206 19.8014 13.2783 20.7488C14.0932 22.4351 15.2334 24.5065 15.9436 26.1943C16.5495 24.6811 17.6601 22.6148 18.4038 21.1028C18.9819 19.9273 19.9602 17.8391 20.5975 16.8026C21.5695 18.5768 22.51 20.5699 23.4255 22.3875C23.9345 23.3981 24.885 25.181 25.2794 26.1847C25.7367 25.0012 26.5733 23.413 27.1501 22.2585C28.0557 20.4186 28.9837 18.5897 29.9338 16.7725Z" fill="black" fill-opacity="0.5"/>
<path d="M85.9925 19.2185C89.8256 18.9076 93.1889 21.7557 93.521 25.5927C93.8522 29.4297 91.0274 32.8146 87.1988 33.1684C83.3395 33.5249 79.9274 30.6683 79.5929 26.8009C79.2585 22.9336 82.1295 19.5319 85.9925 19.2185ZM86.7473 29.8133C88.7392 29.708 90.274 28.0155 90.1883 26.0198C90.1018 24.0241 88.4272 22.4703 86.434 22.5372C84.4134 22.6049 82.8361 24.3107 82.9233 26.3337C83.0104 28.3567 84.7285 29.92 86.7473 29.8133Z" fill="black" fill-opacity="0.5"/>
<path d="M144.079 19.224C147.921 18.8831 151.312 21.7249 151.656 25.5731C151.998 29.4213 149.163 32.82 145.322 33.1662C141.476 33.5128 138.079 30.67 137.735 26.818C137.392 22.9662 140.233 19.5654 144.079 19.224ZM144.871 29.8122C146.866 29.7164 148.411 28.0255 148.329 26.0259C148.248 24.0263 146.571 22.4672 144.574 22.5347C142.557 22.6029 140.981 24.3033 141.063 26.3231C141.146 28.3428 142.855 29.9089 144.871 29.8122Z" fill="black" fill-opacity="0.5"/>
<path d="M129.476 1.61818C133.309 1.47581 136.54 4.45603 136.714 8.2945C136.888 12.133 133.939 15.3938 130.108 15.5995C126.233 15.8075 122.931 12.8119 122.754 8.92833C122.579 5.04487 125.597 1.76221 129.476 1.61818ZM130.447 12.159C132.425 11.7598 133.7 9.82344 133.287 7.84517C132.875 5.86686 130.933 4.60349 128.961 5.03054C127.007 5.45337 125.762 7.37515 126.17 9.33391C126.578 11.2926 128.488 12.5542 130.447 12.159Z" fill="black" fill-opacity="0.5"/>
<path d="M109.274 37.1646C110.23 37.1027 111.377 37.2178 112.305 37.1443C116.672 36.798 121.19 38.287 121.559 43.4136C121.702 45.4138 120.985 46.9565 119.633 48.4756C116.632 51.0393 113.067 50.3743 109.268 50.4268L109.274 37.1646ZM112.697 47.1916C114.537 47.1994 115.517 47.3726 117.062 46.2335C118.378 44.8564 118.494 42.7418 117.097 41.354C115.882 40.1466 114.26 40.3545 112.686 40.3522C112.765 41.7376 112.72 43.2495 112.73 44.6513C112.734 45.2268 112.764 46.667 112.697 47.1916Z" fill="black" fill-opacity="0.5"/>
<path d="M82.0209 2.00555C82.9987 2.00856 83.9846 1.99263 84.9631 1.9834L84.9635 15.2383C83.8752 15.2952 82.7588 15.2449 81.5953 15.3095C81.5404 14.7777 81.5735 13.7256 81.5764 13.1534C81.5717 11.8961 81.5101 9.55993 81.6695 8.38221C80.9398 9.63723 78.2677 14.6768 77.4722 15.1533C77.2906 15.2621 77.0683 15.3076 76.862 15.2483C76.5929 15.1711 76.3706 14.9435 76.202 14.7284C75.6982 14.0856 75.3118 13.272 74.8966 12.5647C74.0946 11.1986 73.2656 9.8412 72.5197 8.44341C72.5978 10.6696 72.5786 13.022 72.5949 15.2577C71.5195 15.3289 70.3591 15.2209 69.1561 15.3066L69.1514 1.99958L72.0351 2.00949C72.4644 2.46091 73.5029 4.28561 73.8622 4.89011L77.0784 10.3325C77.5998 9.27069 78.4921 7.85808 79.1193 6.8114C80.0669 5.22995 81.0339 3.55128 82.0209 2.00555Z" fill="black" fill-opacity="0.5"/>
<path d="M138.715 1.96464C139.451 2.03962 140.825 2.00275 141.608 2.00456C141.891 2.34702 142.105 2.67717 142.328 3.06051C143.736 5.48817 145.274 7.87782 146.623 10.3375C146.95 9.6144 148.026 7.89092 148.459 7.17259C149.483 5.4705 150.524 3.65753 151.598 1.99939C152.551 2.00138 153.585 2.02413 154.529 1.95117C154.437 6.27653 154.513 10.9213 154.514 15.2731C153.454 15.2311 152.209 15.2145 151.158 15.2913C151.123 14.7901 151.146 14.012 151.147 13.488C151.143 12.1615 151.063 9.58787 151.205 8.36286C150.061 10.476 148.428 13.2567 147.133 15.2825C146.685 15.2792 146.49 15.2652 146.048 15.1902C144.813 13.351 143.217 10.4488 142.072 8.48756C142.063 10.7487 142.067 13.0098 142.087 15.2708C140.963 15.2324 139.84 15.2292 138.717 15.261C138.702 10.8733 138.655 6.34312 138.715 1.96464Z" fill="black" fill-opacity="0.5"/>
<path d="M162.597 19.5452C163.754 19.5776 164.855 19.5585 166.01 19.5381C166.055 20.8141 166.009 22.3541 166.007 23.6538C165.991 26.6298 165.999 29.6059 166.029 32.5817L166.024 32.7094C165.729 32.938 163.643 32.8295 163.121 32.8208C162.611 32.3155 161.512 30.8779 161.001 30.244C159.678 28.6105 158.366 26.9673 157.066 25.3146L157.072 32.8359C155.976 32.8142 154.804 32.834 153.702 32.8356C153.632 31.6684 153.702 29.7664 153.704 28.5336C153.715 25.5372 153.708 22.5406 153.681 19.5442C154.635 19.5494 155.588 19.5667 156.542 19.5963C157.13 20.1289 158.225 21.5801 158.761 22.2543L162.645 27.1553C162.49 25.1491 162.594 21.6437 162.597 19.5452Z" fill="black" fill-opacity="0.5"/>
<path d="M103.299 37.1637C104.454 37.1536 105.538 37.1553 106.698 37.1094C106.577 41.3064 106.646 46.0109 106.681 50.2276V50.3229C106.476 50.5011 104.192 50.4139 103.755 50.4096C101.88 47.9066 99.6753 45.3759 97.7393 42.8672C97.8905 44.7702 97.7891 48.38 97.7891 50.4265C96.6634 50.4033 95.5368 50.4054 94.4102 50.4329L94.4154 37.1541L97.2009 37.1498C97.8722 37.7694 98.8677 39.1022 99.4655 39.8536L103.32 44.7262L103.299 37.1637Z" fill="black" fill-opacity="0.5"/>
<path d="M160.982 1.98535C162.293 2.00184 163.604 2.00947 164.915 2.00824C166.758 6.08111 168.264 11.2476 170.117 15.2672C169.189 15.2341 167.259 15.1923 166.362 15.2965C166.145 14.7757 165.693 13.2028 165.398 12.8688L165.125 12.8602L160.342 12.8581C160.078 13.662 159.8 14.4603 159.504 15.2527L155.819 15.2337C156.551 12.9495 157.872 10.0515 158.702 7.71714C159.114 6.55855 160.478 2.91825 160.982 1.98535ZM161.359 9.90386L162.895 9.90018L164.456 9.89458C164.315 9.49915 162.941 5.52927 162.888 5.49125C162.678 6.34251 161.736 9.08823 161.359 9.90386Z" fill="black" fill-opacity="0.5"/>
<path d="M88.5432 37.1736C89.3622 37.1039 91.0971 37.1455 91.9825 37.1419L91.9641 40.0729C91.9598 41.387 91.9868 42.7017 91.9755 44.0158C91.9589 45.8484 91.6407 47.7134 90.2659 49.0515C89.0973 50.1886 87.421 50.6313 85.8262 50.6131C84.1901 50.5945 82.5963 50.0976 81.4337 48.8971C80.8765 48.3217 80.409 47.5762 80.1784 46.806C79.6026 44.8842 79.8161 39.3928 79.843 37.1651C80.9902 37.149 82.1377 37.1476 83.2851 37.1609L83.2494 43.6112C83.2495 44.7591 83.2088 45.8841 84.0847 46.7668C85.0262 47.7154 86.9241 47.6242 87.8379 46.6913C88.142 46.3802 88.3535 45.9892 88.4462 45.5634C88.614 44.7825 88.5581 43.0952 88.5563 42.2405L88.5432 37.1736Z" fill="black" fill-opacity="0.5"/>
<path d="M114.412 19.5364C115.619 19.5781 116.624 19.564 117.831 19.5283C117.797 20.4871 117.818 21.5737 117.815 22.5424C117.806 27.324 118.613 32.8008 111.737 33.0287C109.295 33.1664 106.4 31.4511 105.967 28.8882C105.489 26.0605 105.69 22.4395 105.705 19.544C106.856 19.5764 108.006 19.5715 109.156 19.5294C109.154 19.6166 109.152 19.7038 109.152 19.7911L109.134 24.6293C109.129 26.8004 108.678 29.8944 111.875 29.8477C114.777 29.8053 114.454 26.6946 114.449 24.6287L114.412 19.5364Z" fill="black" fill-opacity="0.5"/>
<path d="M110.362 1.97949C110.574 2.22384 110.473 4.52798 110.47 5.02661C108.545 4.9597 106.465 4.99458 104.529 4.99283L104.538 7.1757C106.368 7.13875 108.301 7.16713 110.14 7.16381C110.106 8.07837 110.126 9.06444 110.127 9.98486C108.331 9.93356 106.346 9.97243 104.535 9.96919L104.54 12.2319C105.104 12.1738 106.323 12.2083 106.933 12.2061C108.053 12.202 109.356 12.1498 110.461 12.2049C110.586 12.349 110.542 12.4345 110.543 12.6719C110.532 13.5318 110.543 14.4131 110.544 15.2749C108.192 15.1754 105.795 15.2656 103.438 15.2334C102.691 15.2233 101.863 15.2257 101.124 15.3048C101.072 10.906 101.129 6.4149 101.115 2.00348C104.197 2.02039 107.28 2.0124 110.362 1.97949Z" fill="black" fill-opacity="0.5"/>
<path d="M72.8576 19.3817C73.4731 19.2539 74.7843 19.4696 75.3703 19.7171C76.8182 20.3287 77.5026 21.1902 78.1036 22.5629C77.0979 22.9494 76.1048 23.2475 75.1068 23.6723C73.8148 20.7073 70.9861 22.9652 72.4567 23.9809C74.6047 25.4645 77.8386 24.9045 78.32 28.4726C78.4633 29.4724 78.1972 30.4878 77.5821 31.2882C76.6395 32.5123 75.368 32.8432 73.9327 33.0267C71.8254 33.0694 69.982 32.4111 68.9692 30.4133C68.8134 30.106 68.6442 29.8563 68.5957 29.5036C68.8371 29.1256 70.8393 28.6923 71.4867 28.4573C71.8479 29.2457 72.0505 29.7939 72.9422 30.102C73.6638 30.4642 75.0772 29.8153 74.8186 28.904C74.3351 27.2006 71.3887 27.5112 70.0869 26.2745C68.4185 24.6898 68.2772 22.6218 69.5822 20.8341C70.3264 19.8144 71.7105 19.5018 72.8576 19.3817Z" fill="black" fill-opacity="0.5"/>
<path d="M172.218 19.3818C172.887 19.2688 174.2 19.4889 174.835 19.7731C176.189 20.379 176.895 21.2554 177.437 22.5838C176.492 22.8773 175.372 23.2992 174.424 23.6309C174.257 23.2112 174.037 22.8391 173.667 22.5554C173.176 22.1388 171.965 22.117 171.583 22.6744C170.797 23.9242 172.639 24.5119 173.485 24.7628C174.417 25.039 175.539 25.3984 176.292 25.9839C178.425 27.6399 178.017 31.1484 175.649 32.372C174.697 32.8639 174.057 32.9337 173.025 33.0266C170.141 32.992 168.968 31.9296 167.837 29.4089C168.707 29.0699 169.938 28.7521 170.858 28.4877C171.01 28.9339 171.216 29.4138 171.589 29.7122C172.012 30.0547 172.555 30.2128 173.096 30.1514C173.404 30.1153 173.844 29.95 173.981 29.6994C175.006 27.818 171.931 27.5808 170.845 27.0598C170.324 26.8645 169.939 26.626 169.484 26.3032C167.318 24.765 167.711 21.1702 170.002 19.9689C170.76 19.5718 171.362 19.4741 172.218 19.3818Z" fill="black" fill-opacity="0.5"/>
<path d="M77.5999 37.1603C77.8441 37.1605 77.9718 37.1393 78.17 37.2746C78.4207 37.727 78.3066 39.5251 78.3138 40.1882C76.4665 40.218 74.4439 40.2013 72.5966 40.1682C72.64 40.8017 72.637 42.0255 72.5659 42.6442C74.2687 42.6557 75.9715 42.6508 77.6741 42.6298C77.6035 43.4806 77.6482 44.779 77.6874 45.6323L72.6139 45.6112C72.6334 46.2724 72.6156 47.011 72.6135 47.6784L72.6317 50.4283L69.1264 50.4262C69.214 47.0868 69.128 43.7236 69.1595 40.3821C69.1695 39.3199 69.166 38.2382 69.123 37.1776C71.663 37.2368 75.0829 37.2411 77.5999 37.1603Z" fill="black" fill-opacity="0.5"/>
<path d="M95.9547 1.99048C97.2482 2.00677 98.5418 2.00442 99.8345 1.9834C99.137 3.44661 97.9361 5.50116 97.1328 6.9548C96.5368 7.98021 95.9896 9.04199 95.397 10.0671C94.4846 11.6437 94.745 13.4777 94.766 15.268C93.7049 15.2272 92.4079 15.2156 91.3599 15.2911C91.2935 14.0457 91.5356 12.68 91.3022 11.4592C91.061 10.1982 87.1522 3.74088 86.2578 2.00238L90.2246 2.00524C90.7735 3.00859 92.7461 6.74973 93.0643 7.73963C93.8229 6.07429 95.0544 3.56899 95.9547 1.99048Z" fill="black" fill-opacity="0.5"/>
<path d="M119.032 19.5146C119.833 19.6261 122.177 19.5785 123.103 19.5785C125.65 19.5944 128.197 19.5783 130.743 19.5301C130.716 20.5743 130.734 21.6713 130.735 22.7197C129.77 22.8033 127.633 22.7388 126.59 22.7266C126.645 24.6783 126.608 26.7734 126.609 28.7356L126.62 32.835L123.151 32.8334L123.153 22.7072C122.463 22.7949 119.878 22.7493 119.05 22.7534L119.032 19.5146Z" fill="black" fill-opacity="0.5"/>
<path d="M95.5687 19.5225C96.6665 19.6036 97.9758 19.5602 99.0919 19.55C99.1505 21.0062 99.0307 23.0941 99.05 24.646C99.0657 25.9621 99.1339 28.4696 99.0342 29.6416C100.593 29.5285 102.926 29.6062 104.595 29.5754C104.564 30.5206 104.583 31.5485 104.583 32.5C104.606 32.6545 104.604 32.6725 104.534 32.8126C103.794 32.8806 102.256 32.8321 101.47 32.8308L95.5984 32.8395C95.4647 28.5084 95.692 23.9134 95.5687 19.5225Z" fill="black" fill-opacity="0.5"/>
<path d="M112.863 1.93262C113.458 2.07236 115.676 2.00056 116.329 1.94914C116.288 5.30086 116.317 8.69903 116.318 12.0541C117.871 11.962 120.253 12.0406 121.902 12.0042C121.839 13.0192 121.867 14.125 121.875 15.1484C121.619 15.3238 113.984 15.2053 112.896 15.2932C112.84 10.8509 112.956 6.37425 112.863 1.93262Z" fill="black" fill-opacity="0.5"/>
<path d="M132.175 19.5467C133.358 19.576 134.54 19.5699 135.723 19.5283C135.609 20.5698 135.671 23.1139 135.671 24.245C135.662 27.0954 135.668 29.9457 135.69 32.7959C135.504 32.8751 132.601 32.8359 132.185 32.8334C132.071 28.5548 132.213 23.886 132.175 19.5467Z" fill="black" fill-opacity="0.5"/>
<path d="M53.6621 1.10254C53.9076 1.14619 53.9812 1.16405 54.2113 1.25772C54.4369 1.64887 54.134 47.2375 54.3197 51.2727L53.793 51.2263C53.7594 51.1863 53.7189 51.1379 53.6715 51.0812C53.6604 37.2613 53.6796 13.9812 53.6621 1.10254Z" fill="black" fill-opacity="0.5"/>
</svg>
