<svg width="92" height="42" viewBox="0 0 92 42" fill="none" xmlns="http://www.w3.org/2000/svg">
<path d="M75.8633 1.84426C78.5583 1.6209 81.3397 2.05426 83.7524 3.31204C86.0306 4.46592 87.9223 6.36631 89.0544 8.66444C90.3247 11.1466 90.6772 14.0243 90.3653 16.7758C90.0742 19.3284 89.0219 21.7935 87.3533 23.7444C85.9272 25.4199 84.028 26.6621 81.9582 27.3804C79.83 28.1247 77.5289 28.3013 75.298 28.0386C72.6171 27.7188 70.0197 26.5775 68.0348 24.7291C66.4283 23.2427 65.2637 21.3038 64.6186 19.2142C64.1775 17.7775 63.989 16.2682 64.0119 14.7671C64.0119 12.3042 64.6312 9.82426 65.9207 7.71907C67.1488 5.67621 69.0272 4.05854 71.182 3.06642C72.6518 2.37631 74.248 1.97486 75.8633 1.84426ZM75.9328 4.95493C74.095 5.16196 72.3311 5.96857 70.9677 7.22189C69.1987 8.86479 68.1368 11.1963 67.8663 13.585C67.5685 16.2185 68.1279 18.9967 69.6583 21.1828C70.9825 23.0914 73.0804 24.4412 75.3653 24.8344C77.7247 25.2396 80.2653 24.8856 82.3055 23.5811C84.3177 22.3389 85.7077 20.2345 86.3011 17.9601C87.105 14.9073 86.6779 11.4775 84.8874 8.84698C83.6659 7.02377 81.7572 5.67695 79.629 5.159C78.4223 4.86886 77.1639 4.8132 75.9328 4.95493ZM13.3329 2.26204C13.4297 2.19154 13.5583 2.22568 13.6698 2.21529C15.464 2.22122 17.2582 2.21232 19.0524 2.21974C16.4631 3.08126 14.0888 4.5609 12.1395 6.47391C11.668 5.83352 11.1589 5.21985 10.6143 4.64105C11.4411 3.76246 12.3478 2.95808 13.3329 2.26204ZM23.6191 2.43122L28.1748 2.42974L40.9137 21.9946L41.2802 22.5089L41.2898 2.43122H44.7895V27.5118H40.3691L27.2821 7.19963L27.1255 7.00893L27.1188 27.5118H23.6191V2.43122Z" fill="black" fill-opacity="0.5"/>
<path d="M48.2078 27.511L48.21 2.42969C54.1002 2.43191 59.9904 2.42895 65.8807 2.43117C64.9289 3.3476 64.099 4.38944 63.4118 5.51884C59.5101 5.52181 55.6084 5.51439 51.706 5.52255L51.7082 13.0224L60.9962 13.0247L60.9437 16.0374L51.7082 16.0381L51.7075 24.384C55.6284 24.3884 59.5493 24.384 63.4709 24.3862C64.1729 25.5289 65.0116 26.5901 65.9841 27.5139C60.0584 27.508 54.1327 27.5139 48.2078 27.511ZM4.83034 18.4832C5.11041 14.1927 6.53659 9.94739 9.08747 6.47757C9.6306 7.00962 10.1412 7.57506 10.6134 8.17167C8.39063 10.9647 6.9844 14.3982 6.59497 17.9511C6.23584 21.1457 6.66887 24.4315 7.87632 27.4108C8.55542 29.1012 9.48872 30.684 10.6105 32.1154C11.0753 32.7194 11.5881 33.2878 12.1386 33.8139C14.0887 35.7069 16.4401 37.2088 19.0286 38.0444C17.1517 38.097 15.2711 38.0533 13.3926 38.0666C12.3869 37.3572 11.4595 36.5402 10.6142 35.646C10.0681 35.0665 9.55744 34.4536 9.08747 33.8102C5.87892 29.4388 4.46234 23.8734 4.83034 18.4832Z" fill="black" fill-opacity="0.5"/>
<path d="M2.20476 2.2224C4.08097 2.20904 5.95718 2.22092 7.83265 2.21646C8.84058 2.92512 9.77241 3.74063 10.6148 4.64074C11.1594 5.21954 11.6686 5.83321 12.14 6.4736C14.1596 9.22067 15.4779 12.4612 16.075 15.8167C17.0452 21.2916 16.1622 27.1382 13.3541 31.9578C12.9824 32.5975 12.5745 33.2163 12.1393 33.8137C11.5877 33.2872 11.0769 32.7194 10.6111 32.1151C12.0284 30.3349 13.1191 28.295 13.8182 26.1275C14.8934 22.8128 15.0441 19.2064 14.2726 15.8093C13.6438 13.0311 12.3861 10.3976 10.6141 8.17141C10.1419 7.5748 9.63127 7.00936 9.08813 6.47731C7.15207 4.5606 4.77854 3.10024 2.20476 2.2224ZM24.5101 30.5494C25.3769 29.7116 26.5947 29.2938 27.7874 29.3183C28.9062 29.3109 30.0671 29.6485 30.8955 30.4292C30.6147 30.7178 30.3405 31.0132 30.059 31.3011C28.8766 30.0596 26.6627 30.0589 25.4789 31.2981C24.2744 32.5514 24.2064 34.7026 25.2742 36.0613C25.8351 36.7796 26.7403 37.1766 27.6396 37.1996C28.3638 37.2167 29.1109 37.1225 29.7619 36.7856C29.7612 35.9975 29.7619 35.2102 29.7619 34.4221C29.1367 34.4207 28.5116 34.4229 27.8864 34.4214C27.8872 34.0815 27.8872 33.7417 27.8864 33.4018C28.9054 33.4011 29.9252 33.4011 30.9442 33.4018C30.9442 34.7806 30.9435 36.1585 30.945 37.5373C29.8225 38.1413 28.5197 38.3535 27.2583 38.2608C26.1218 38.1695 25.003 37.6567 24.2604 36.7759C23.5369 35.9293 23.1874 34.7976 23.2214 33.689C23.2251 32.5292 23.6685 31.356 24.5101 30.5494ZM52.2875 29.368C53.4558 29.2063 54.7002 29.4163 55.6882 30.0849C56.6185 30.6971 57.2503 31.7152 57.4572 32.8067C57.6826 34.0111 57.4986 35.3193 56.8129 36.3493C56.1907 37.3199 55.1436 37.9795 54.0203 38.1903C52.937 38.3929 51.7739 38.2726 50.7955 37.745C50.0255 37.3391 49.3923 36.6817 49.0132 35.8959C48.541 34.9431 48.4501 33.8322 48.6378 32.7941C48.8454 31.6617 49.5208 30.6132 50.5059 30.0114C51.0446 29.6723 51.6579 29.4556 52.2875 29.368ZM52.334 30.4433C51.7584 30.5627 51.219 30.8559 50.8074 31.2773C49.5053 32.6227 49.5075 35.0306 50.8495 36.347C52.051 37.541 54.2258 37.4786 55.3645 36.2261C56.0769 35.4514 56.351 34.3413 56.2261 33.3091C56.1138 32.3348 55.5973 31.3857 54.7593 30.8581C54.0506 30.3921 53.1543 30.283 52.334 30.4433ZM73.463 30.8017C74.7695 29.3042 77.0928 28.9124 78.867 29.7435C79.303 29.9543 79.6998 30.2548 79.9909 30.6459C79.6769 30.8885 79.3628 31.1312 79.0488 31.3746C78.2012 30.263 76.5208 30.0982 75.3533 30.772C74.3232 31.3441 73.729 32.5277 73.7194 33.689C73.6913 34.5928 73.9596 35.5293 74.5655 36.2127C75.4744 37.2494 77.1142 37.515 78.3179 36.8642C78.663 36.6772 78.9483 36.396 79.1796 36.0806C79.4973 36.2988 79.8166 36.517 80.1343 36.7366C79.5734 37.492 78.7288 38.0396 77.8014 38.2036C76.5674 38.4211 75.2299 38.2044 74.199 37.4668C73.1512 36.7299 72.5127 35.4848 72.4285 34.2136C72.3221 33.0011 72.6531 31.7255 73.463 30.8017ZM83.3133 29.4319C84.4875 29.144 85.8619 29.3836 86.714 30.2926C86.4361 30.5724 86.1516 30.8455 85.8686 31.12C85.2538 30.2926 83.9835 30.0723 83.1271 30.6377C82.6977 30.9226 82.4716 31.4658 82.5854 31.9719C82.6578 32.3889 83.0059 32.6917 83.3754 32.8557C84.0759 33.1644 84.8385 33.312 85.5272 33.6519C86.1206 33.9502 86.6349 34.4904 86.7487 35.1657C86.8588 35.8254 86.7797 36.5474 86.394 37.1084C85.9861 37.7384 85.2701 38.0997 84.5481 38.2214C83.2919 38.4411 81.8679 38.0619 81.0484 37.0386C81.3558 36.7737 81.6713 36.5184 81.9728 36.2468C82.3748 36.8123 83.0236 37.2041 83.719 37.2456C84.2843 37.2813 84.9013 37.1091 85.2737 36.6579C85.7238 36.1385 85.6765 35.2332 85.1075 34.8169C84.4602 34.3309 83.6266 34.2374 82.8995 33.9198C82.2647 33.6764 81.678 33.2059 81.463 32.5388C81.31 32.0164 81.3107 31.4406 81.4873 30.9249C81.777 30.1442 82.5197 29.607 83.3133 29.4319ZM32.6438 29.5335L38.0944 29.5343L38.0929 30.5909H33.8358V33.1317H37.8424L37.8439 34.1617L33.838 34.1609L33.8358 37L38.2688 37.0008L38.2695 38.0671H32.6438V29.5335ZM39.9041 29.5335H41.4588L45.9066 36.3626L45.9081 29.5343L47.1096 29.535L47.1104 38.0641L45.6007 38.0671L41.1041 31.0926L41.1049 38.0671H39.9041V29.5335ZM58.9965 29.5343L60.8586 29.5372L62.6484 34.1558L63.4139 36.0769L65.9175 29.5335H67.7716V38.0671H66.5715L66.5604 30.9249L63.7472 38.0634L62.9787 38.0664L60.1625 30.9115L60.1603 38.0671L58.9965 38.0656V29.5343ZM69.5362 29.5335H70.7274V38.0671H69.5362V29.5335ZM2.18555 38.0485C4.7778 37.2123 7.14099 35.7133 9.08813 33.81C9.55811 34.4533 10.0687 35.0662 10.6148 35.6458C9.77019 36.5422 8.84058 37.3577 7.83486 38.0671C5.952 38.0552 4.06767 38.0916 2.18555 38.0485Z" fill="black" fill-opacity="0.5"/>
</svg>
