<svg width="200" height="33" viewBox="0 0 200 33" fill="none" xmlns="http://www.w3.org/2000/svg">
<g clip-path="url(#clip0_353_15762)">
<path d="M19.9973 14.8025L19.9161 15.0143C21.27 15.6154 24.3095 17.9994 24.3095 22.8015C24.3095 27.3235 20.5321 31.8797 14.5952 31.8797C7.20959 31.8797 4.66423 27.5216 4.66423 23.5187C4.66423 18.3887 8.21825 14.9733 8.21825 10.301C8.19889 8.64849 7.6246 7.0515 6.58925 5.77102C5.5539 4.49054 4.11872 3.60231 2.51828 3.2515L2.39643 3.46326C2.97682 4.03152 3.43734 4.71235 3.75028 5.46482C4.06322 6.21728 4.22212 7.02583 4.21744 7.84185C4.21744 12.8899 0 16.4761 0 22.2687C0 27.6036 3.69618 33.041 14.3989 33.041C23.9372 33.041 28.967 28.3277 28.967 23.3138C28.9602 19.0104 25.9071 15.3695 19.9973 14.8025Z" fill="black" fill-opacity="0.5"/>
<path d="M61.9009 32.1803L49.2215 15.6837V30.5545L51.8075 31.1762V31.8592H45.9112V31.1762L48.0233 30.5545V14.3517C47.5092 13.8682 46.8903 13.5126 46.2158 13.3134C45.9586 13.2587 45.6133 13.1973 45.6133 13.1973V12.5142H50.616L61.4473 26.7224V13.8325L58.8614 13.2041V12.521H64.7576V13.2041L62.6455 13.8325V28.5804C62.6455 29.9466 62.7403 31.9344 62.7606 32.1871L61.9009 32.1803ZM88.4105 21.6744C88.4105 28.5053 83.6718 32.4672 78.4931 32.4672C73.3144 32.4672 68.5554 28.4506 68.5554 22.2072C68.5554 15.9638 73.2941 11.9062 78.4457 11.9062C79.7425 11.863 81.0345 12.0842 82.2446 12.5566C83.4547 13.029 84.5579 13.7429 85.4882 14.6554C86.4185 15.568 87.1568 16.6606 87.6589 17.8678C88.161 19.075 88.4167 20.372 88.4105 21.6812V21.6744ZM85.1137 22.699C85.1137 17.6783 82.1351 12.8079 78.0869 12.8079C73.7815 12.8079 71.8386 17.0089 71.8386 21.5036C71.8386 25.9983 74.296 31.5723 78.9196 31.5723C83.2656 31.5723 85.1137 27.1323 85.1137 22.699ZM92.5061 13.8189L90.4752 13.1904V12.5073H98.2534V13.1904L95.8164 13.8189L101.185 28.5872L106.553 13.8189L104.116 13.1904V12.5073H109.87V13.1904L107.839 13.8189L101.117 32.2281H99.3975L92.5061 13.8189ZM138.471 21.9818H137.239V13.5251C141.301 13.5251 143.718 14.4678 143.718 17.8149C143.698 20.3014 141.585 21.9818 138.471 21.9818ZM173.274 31.1762L175.982 30.5545V13.8257L173.274 13.1973V12.5142H181.715V13.1973L179.008 13.8257V30.5545L181.715 31.1762V31.8592H173.274V31.1762ZM186.887 26.5448H187.422L189.216 30.7117C190.283 31.2522 191.455 31.5462 192.648 31.5723C194.977 31.5723 197.103 30.2062 197.103 27.7607C197.103 25.9027 195.911 24.7961 193.982 23.7783L192.073 22.781C189.791 21.5856 187.51 19.8915 187.51 17.166C187.51 14.2014 189.541 11.9131 193.887 11.9131C195.414 11.9287 196.93 12.1798 198.382 12.6576L198.836 17.1387H198.26L196.602 13.5456C195.743 13.0618 194.776 12.8078 193.792 12.8079C191.592 12.8079 190.096 14.1741 190.096 16.0662C190.096 17.7808 191.227 18.8601 193.163 19.871L195.424 21.0596C198.511 22.6717 199.973 24.1677 199.973 26.9342C199.973 30.3496 196.798 32.474 192.851 32.474C190.993 32.5025 189.143 32.2233 187.375 31.6475L186.887 26.5448ZM108.631 31.1762L110.804 30.5545L117.513 12.5005L119.754 11.9199L126.679 30.5477L128.852 31.1762V31.8592H120.634V31.1762L123.416 30.5477L121.453 25.1923H114.074L112.124 30.5477L114.907 31.1693V31.8524H108.631V31.1762ZM114.588 23.7646H120.972L117.804 15.1304L114.588 23.7646ZM142.344 22.3985C143.021 22.2277 146.818 21.2509 146.818 17.6168C146.818 14.7001 144.605 12.439 139.148 12.439C135.764 12.439 132.379 12.5142 131.952 12.5278V13.2109L134.18 13.8394V30.5477L131.952 31.1762V31.8592H139.832V31.1762L137.246 30.5477V22.9928H139.473L145.167 31.8729H150.21V31.1898L147.658 30.5067L142.344 22.3985ZM158.983 13.5183V30.5545L156.275 31.1762V31.8592H164.717V31.1762L162.009 30.5545V13.5251H166.565L168.068 16.7903H168.65L168.217 12.5347H152.775L152.342 16.7903H152.924L154.414 13.5593L158.983 13.5183ZM14.5275 25.8139L17.2353 0H11.6166L14.3244 25.8139H14.5275Z" fill="black" fill-opacity="0.5"/>
</g>
<defs>
<clipPath id="clip0_353_15762">
<rect width="200" height="33" fill="white"/>
</clipPath>
</defs>
</svg>
