<svg width="145" height="53" viewBox="0 0 145 53" fill="none" xmlns="http://www.w3.org/2000/svg">
<path fill-rule="evenodd" clip-rule="evenodd" d="M14.4795 11.0796C15.1661 10.9937 16.0589 11.0247 16.7373 11.1206C22.4609 11.9295 24.2048 17.4737 23.4824 22.5415C22.8122 27.2436 19.467 30.3637 14.5898 29.604C12.5964 29.2935 11.2227 28.5774 10.0127 26.9516L10.0088 29.7768L10.0205 35.7446C8.73018 35.7806 7.35253 35.76 6.05566 35.7632L6.06348 11.5376L9.80859 11.5317L9.82812 13.8891C9.99979 13.6 10.1883 13.3204 10.3926 13.0532C11.39 11.771 12.9259 11.2689 14.4795 11.0796ZM19.4805 18.4927C18.9393 15.7848 16.9747 13.8855 14.0586 14.2046C12.7721 14.4596 11.6944 14.9619 10.9834 16.1225C8.66413 19.9084 9.87066 27.1191 15.5186 26.5503C19.3261 25.7118 20.158 21.8833 19.4805 18.4927Z" fill="black" fill-opacity="0.5"/>
<path fill-rule="evenodd" clip-rule="evenodd" d="M98.7362 11.0794C103.975 10.7327 107.973 13.3373 108.664 18.6907C109.386 24.2916 106.808 28.879 100.991 29.6458C95.7377 30.2186 91.4945 27.2212 90.9295 21.8636C90.3451 16.3277 92.8837 11.7189 98.7362 11.0794ZM102.065 14.7386C101.078 14.186 100.152 14.1239 99.0487 14.1966C97.697 14.5176 96.5072 15.208 95.8114 16.4427C93.5725 20.4154 95.0328 27.2076 100.679 26.5198C101.173 26.3844 101.628 26.2537 102.075 25.9974C105.727 23.9022 105.763 16.8079 102.065 14.7386Z" fill="black" fill-opacity="0.5"/>
<path fill-rule="evenodd" clip-rule="evenodd" d="M32.9472 11.0516C35.0633 10.9585 37.769 11.2888 39.3964 12.785C40.0146 13.3504 40.4538 14.0836 40.6601 14.8944C40.8686 15.7099 40.8255 16.5548 40.8271 17.3895C40.8321 20.0784 40.8135 22.7683 40.8202 25.4569C40.8235 26.7676 41.7108 26.6042 42.6767 26.5409C42.6948 27.4502 42.6766 28.4147 42.6728 29.329C41.178 29.6446 39.1839 30.1144 37.9111 28.9696C37.4915 28.5921 37.345 28.1424 37.1474 27.6327C34.4841 30.325 27.9644 30.6623 25.6386 27.1024C24.9442 25.8718 24.8347 24.3117 25.1699 22.9286C26.0884 19.2112 30.4561 19.1835 33.6015 18.742C35.1404 18.5261 38.2351 18.0821 36.8486 15.5086C35.9369 13.8168 32.2167 13.8423 30.8085 14.8495C29.981 15.4415 29.7816 15.9617 29.5966 16.9432C28.2694 16.9615 26.9414 16.9606 25.6142 16.9413C26.1023 12.8155 28.5865 11.4488 32.4999 11.0829C32.6487 11.0681 32.7978 11.058 32.9472 11.0516ZM36.7167 20.5555C35.8351 20.8935 35.4521 20.9394 34.5429 21.0917C32.7583 21.3904 30.0706 21.3276 29.1738 23.1991C28.6414 24.3101 28.9668 25.1881 29.8906 25.9237C31.9612 27.0888 35.2321 26.7522 36.5058 24.5907C37.0303 23.7003 36.9006 21.7067 36.8525 20.6346C36.7738 20.5725 36.7872 20.5582 36.7167 20.5555Z" fill="black" fill-opacity="0.5"/>
<path fill-rule="evenodd" clip-rule="evenodd" d="M79.9578 11.0793C86.1564 10.6147 89.8271 15.5247 89.2821 21.3938L76.2469 21.4065C76.3585 25.1327 79.0389 27.5035 82.8641 26.2854C84.0795 25.898 84.8013 24.7758 85.2938 23.6565L86.5028 23.6604L89.034 23.6653C88.367 27.1384 85.5732 29.194 82.1063 29.6418C73.0511 30.8111 69.6967 20.5346 74.3709 14.0959C75.6418 12.3447 77.7889 11.3298 79.9578 11.0793ZM85.3475 18.8264C84.8397 15.953 83.4798 13.9816 80.2069 14.1965C77.6694 14.7662 76.5176 16.3184 76.2283 18.8235L81.6483 18.8332L85.3475 18.8264Z" fill="black" fill-opacity="0.5"/>
<path d="M58.6892 2.56543L58.8378 2.59063C58.9261 2.78958 58.8905 12.7243 58.8925 13.7842C60.2887 11.8981 61.9311 11.0266 64.2951 10.989C67.1123 10.9057 69.8787 12.34 70.41 15.2987C70.6914 16.8652 70.561 18.833 70.5608 20.4587L70.5661 29.2802L66.5958 29.2755C66.6019 25.6126 66.7501 20.6485 66.5525 17.1136C66.177 15.0609 65.2902 14.2101 63.1962 14.1427C61.0881 14.0749 59.4509 15.5963 59.056 17.5808C58.7604 19.0662 58.8764 20.8873 58.8814 22.4041L58.8954 29.277L54.9122 29.2799L54.9062 4.4632C55.978 3.99996 57.5711 3.11648 58.6892 2.56543Z" fill="black" fill-opacity="0.5"/>
<path d="M119.018 11.0738C119.199 11.0491 119.382 11.0355 119.565 11.0331C121.312 11.0014 123.252 11.3741 124.542 12.6339C126.539 14.5827 126.068 17.9283 126.068 20.4999L126.076 29.2092L122.177 29.2152L122.184 22.0171C122.185 19.5791 122.802 14.6243 119.532 14.2136C118.16 14.0414 117.186 14.2862 116.059 15.0819C116.012 15.1237 115.967 15.1669 115.922 15.2115C113.978 17.1576 114.434 20.277 114.439 22.8441L114.447 29.2248C113.131 29.208 111.815 29.2056 110.499 29.2176C110.438 27.2997 110.491 25.0897 110.491 23.1388L110.484 11.5391L114.255 11.5395V14.1441C114.288 14.0958 114.323 14.0479 114.358 14.0004C115.649 12.2377 116.841 11.4139 119.018 11.0738Z" fill="black" fill-opacity="0.5"/>
<path d="M49.2241 7.05371L49.3013 7.0857C49.4422 7.398 49.3851 10.8366 49.3839 11.4685L52.9218 11.4721L52.9184 14.4415L49.3777 14.444L49.3731 20.7644C49.3727 21.7715 49.1539 25.0529 49.8734 25.8978C50.3737 26.4853 52.1279 26.2897 52.9267 26.2143C52.9054 27.2052 52.9268 28.2691 52.9294 29.2655C51.9085 29.3127 50.9439 29.4888 49.9177 29.4534C46.0472 29.2034 45.4067 27.815 45.426 24.1593C45.4299 23.4108 45.4246 22.5959 45.4246 21.843L45.4295 14.4419L42.4268 14.439L42.4303 11.4737L45.4011 11.4756C45.4363 10.6518 45.4182 9.86829 45.403 9.04591L49.2241 7.05371Z" fill="black" fill-opacity="0.5"/>
<path d="M97.2957 39.833C98.4849 39.7703 100.346 40.1972 100.687 41.7261C100.727 41.9058 100.542 42.0705 100.424 42.1901C100.066 42.3556 99.5091 42.281 99.0982 42.261C99.0182 42.0789 98.8362 41.6382 98.6916 41.5153C98.1463 41.0536 97.0745 40.955 96.5548 41.5093C96.4706 41.6268 96.3914 41.7954 96.4314 41.9442C96.622 42.6875 97.6904 42.774 98.3165 42.9266C99.5184 43.2199 100.795 43.4657 100.913 44.9476C100.994 45.9743 100.468 46.7869 99.5167 47.193C98.9349 47.4414 98.3199 47.4876 97.7057 47.5244C95.7288 47.421 94.7684 46.8371 94.4111 44.8581L96.0827 44.8371C96.3642 45.7379 96.6007 46.1553 97.6079 46.1755C98.2697 46.1887 99.2726 46.0809 99.2862 45.2323C98.7605 44.2398 96.4076 44.2909 95.5297 43.5368C93.5886 41.8691 95.2371 40.1231 97.2957 39.833Z" fill="black" fill-opacity="0.5"/>
<path d="M45.8595 41.8706C45.898 41.8726 46.2867 41.9002 46.2681 41.9054C46.5152 41.8021 47.5923 42.5775 47.6722 42.5056C48.9674 41.3397 51.2009 41.7191 51.2478 43.7519C51.2727 44.8348 51.2519 46.1183 51.2407 47.2876L49.6814 47.2849C49.6708 46.4498 49.8517 43.6249 49.4084 43.3009C47.3668 41.8087 47.7818 46.1957 47.7869 46.5334L47.7856 47.3029L46.2263 47.2876C46.2156 46.7278 46.3699 43.5894 46.04 43.3542C43.8638 41.8025 44.329 46.3046 44.3412 47.2975L42.8271 47.2891L42.829 42.0046C43.1432 41.9976 43.9567 41.9439 44.2036 42.0496L44.3029 42.369C44.6541 42.4367 45.025 41.9816 45.8595 41.8706Z" fill="black" fill-opacity="0.5"/>
<path fill-rule="evenodd" clip-rule="evenodd" d="M6.97959 40.0312L6.95908 42.46C10.0402 40.539 12.46 43.7924 10.6065 46.6875C9.17851 48.0614 8.46626 47.2753 7.04697 46.9727C6.89171 47.12 6.80878 47.175 6.62998 47.2939C6.36085 47.3354 6.3179 47.3438 6.05967 47.2295C5.85322 46.6385 5.98811 41.046 5.99424 40.0117L6.97959 40.0312ZM8.31162 42.709C6.25525 43.3574 6.32531 46.503 8.88584 46.6582C10.964 45.7902 10.6461 42.7103 8.31162 42.709Z" fill="black" fill-opacity="0.5"/>
<path fill-rule="evenodd" clip-rule="evenodd" d="M54.5345 41.8047C56.116 41.6754 57.5048 42.8443 57.6429 44.4209C57.781 45.9975 56.6165 47.39 55.0365 47.5361C53.4446 47.6832 52.0361 46.5103 51.8968 44.9219C51.7578 43.3333 52.9411 41.9349 54.5345 41.8047ZM54.3002 43.0557C52.8406 44.0568 53.2827 46.6622 55.1918 46.2715C56.604 45.5513 56.4778 42.7916 54.3002 43.0557Z" fill="black" fill-opacity="0.5"/>
<path fill-rule="evenodd" clip-rule="evenodd" d="M35.2949 41.8799C37.3544 42.0374 37.9495 43.0883 37.999 45.0439C37.3879 45.0573 34.2777 44.9085 34.0576 45.2119C34.4022 46.7214 35.6491 46.5374 36.6064 45.6611C37.0307 45.6331 37.5075 45.6504 37.9365 45.6562C37.1005 47.5829 35.2391 48.0819 33.3994 46.8525C32.8663 46.4122 32.4949 45.6364 32.4726 44.9648C32.4068 42.9845 33.472 42.0189 35.2949 41.8799ZM34.8447 43.0283C34.5155 43.251 34.3703 43.3262 34.1533 43.6523L34.1367 43.8428C34.4283 44.176 35.3553 44.0695 35.7841 44.0605C36.1549 44.0458 36.1245 44.1088 36.333 43.9092C36.3123 43.128 35.4519 43.0167 34.8447 43.0283Z" fill="black" fill-opacity="0.5"/>
<path fill-rule="evenodd" clip-rule="evenodd" d="M112.727 41.8789C114.886 42.0052 115.366 43.0989 115.528 45.0576C114.883 45.0503 111.869 44.9213 111.549 45.1924C111.533 45.4501 111.758 45.8279 111.941 45.998C112.692 46.6925 113.518 46.2091 114.085 45.6562C114.466 45.6413 114.891 45.6483 115.275 45.6465L115.346 45.79C114.928 47.5228 112.068 48.0114 110.936 46.9023C109.078 45.0827 109.834 42.1224 112.727 41.8789ZM113.817 43.9043C113.808 43.1487 112.878 42.9541 112.256 43.0566C111.941 43.2755 111.855 43.3285 111.621 43.627L111.601 43.8271C111.906 44.1799 112.834 44.0692 113.278 44.0586C113.638 44.0379 113.623 44.1006 113.817 43.9043Z" fill="black" fill-opacity="0.5"/>
<path d="M66.1888 40.0215L66.8427 40.0253L66.8319 41.4058L63.1885 41.4178L63.195 43.0051L66.3814 43.0153L66.3741 44.3185C65.5758 44.3111 64.0294 44.2618 63.2947 44.3446C63.1278 44.605 63.185 44.6228 63.1782 44.9841L63.1982 47.2907L61.4756 47.2881L61.482 40.0398L66.1888 40.0215Z" fill="black" fill-opacity="0.5"/>
<path fill-rule="evenodd" clip-rule="evenodd" d="M84.4707 41.8779C86.5894 42.0146 87.0628 43.097 87.25 45.0342C86.4041 45.0742 83.7568 44.8006 83.2822 45.3486C83.2831 45.5737 83.4359 45.8148 83.583 45.9531C84.4353 46.7547 85.1748 46.0903 85.9736 45.6748C86.0954 45.6116 86.7722 45.6433 86.9619 45.6504L87.0517 45.79C86.6187 47.5521 83.7674 47.9933 82.6386 46.8877C80.7605 45.0474 81.5649 42.1319 84.4707 41.8779ZM83.999 43.0479C83.646 43.2877 83.3936 43.4181 83.3086 43.8271C83.6456 44.183 84.4613 44.0577 84.9511 44.0605C85.3244 44.0411 85.2899 44.1035 85.5136 43.9033C85.5372 43.1419 84.5995 42.9825 83.999 43.0479Z" fill="black" fill-opacity="0.5"/>
<path d="M75.7432 40.0418L77.2743 40.0234L77.2828 42.7305C77.3449 42.6643 77.4079 42.5988 77.4725 42.5343C78.2602 41.729 79.6553 41.5907 80.4132 42.3684C81.2409 43.2174 80.9381 46.1734 80.9245 47.288L79.4333 47.2911L79.418 45.4869C79.4163 44.7728 79.5762 43.0085 78.4559 43.0492C77.7975 43.0916 77.4394 43.3933 77.3458 44.0472C77.1927 45.1138 77.2607 46.2205 77.2743 47.2965L75.7517 47.2878C75.7644 44.8725 75.7619 42.4571 75.7432 40.0418Z" fill="black" fill-opacity="0.5"/>
<path d="M26.578 40.0166L28.0772 40.0212L28.0846 42.6366C28.8998 41.9639 30.3662 41.421 31.2177 42.3477C32.0527 43.2564 31.7477 45.9965 31.7265 47.2955L30.232 47.2909L30.2254 45.1595C30.22 44.6242 30.2438 43.6437 29.7894 43.3023C27.6482 41.6939 28.0741 46.4931 28.0842 47.2893L26.579 47.2975C26.5612 44.8706 26.5609 42.4435 26.578 40.0166Z" fill="black" fill-opacity="0.5"/>
<path d="M25.909 40.0234L26.0029 40.094C26.053 40.4093 26.0141 41.0672 26.004 41.4105L23.6926 41.4119L23.6869 47.2951L21.9879 47.2898L21.9846 45.5075L21.985 41.4144L19.7372 41.4063L19.7217 40.0346L25.909 40.0234Z" fill="black" fill-opacity="0.5"/>
<path d="M119.223 41.8732L119.301 41.8722C120.737 41.8611 121.402 42.5354 121.44 43.9591C121.469 45.063 121.432 46.1861 121.418 47.2898L119.831 47.2809C119.857 45.8945 120.464 42.0354 118.066 43.3693C117.602 43.9645 117.762 46.4236 117.769 47.3002L116.177 47.2877L116.205 42.0074C116.601 42.0184 117.33 41.8823 117.6 42.1274C117.715 42.2319 117.591 42.2975 117.814 42.4721C118.405 42.1295 118.555 41.9822 119.223 41.8732Z" fill="black" fill-opacity="0.5"/>
<path d="M72.2664 41.8779C72.3804 41.8817 72.4935 41.8866 72.6066 41.8923C73.6436 41.9452 74.8796 42.2499 74.803 43.5381C74.6388 43.6406 73.7371 43.5989 73.4743 43.5984C72.9656 42.7802 71.7977 42.584 71.6139 43.4818C72.0988 44.1557 75.071 44.0369 75.1348 45.5282C75.196 46.9401 73.5211 47.3932 72.4884 47.509C70.8985 47.3098 70.2703 47.2134 69.8008 45.5904C70.3082 45.5802 70.8211 45.5981 71.329 45.61C71.5663 46.0576 71.6148 46.3123 72.223 46.3973C72.6772 46.4607 72.9843 46.3938 73.351 46.114C73.4854 45.8529 73.47 45.9652 73.425 45.6905C72.9571 45.0035 68.5387 44.8681 70.251 42.6929C70.8313 41.9556 71.3902 41.9588 72.2664 41.8779Z" fill="black" fill-opacity="0.5"/>
<path d="M136.647 41.9588C138.367 41.7472 139.719 41.9883 140.131 43.8899L138.631 43.9279C137.583 41.7621 135.769 43.8187 136.27 45.2718C136.745 46.6505 137.919 46.6852 138.628 45.4029L138.708 45.275C139.075 45.2031 139.786 45.2536 140.184 45.2677L140.175 45.2982C139.627 47.1581 138.073 48.0174 136.228 47.2361C135.601 46.9753 135.105 46.4739 134.852 45.8447C134.181 44.1724 134.971 42.5649 136.647 41.9588Z" fill="black" fill-opacity="0.5"/>
<path d="M104.151 41.8743C105.732 41.861 106.511 42.42 106.941 43.9018C106.464 43.9199 105.546 44.0965 105.173 43.5924C103.454 41.2675 101.727 46.075 104.225 46.3388C105.096 46.4307 105.115 45.3734 105.665 45.2412L106.954 45.265C105.72 49.7747 99.3316 46.8013 102.031 42.8298C102.515 42.1177 103.357 41.9596 104.151 41.8743Z" fill="black" fill-opacity="0.5"/>
<path d="M130.92 40.0186L131.72 40.0203C131.738 42.0592 131.42 40.6927 130.663 41.3507C130.588 41.6021 130.559 41.6628 130.625 41.9278C130.815 42.0555 131.335 42.0231 131.596 42.027C131.596 42.313 131.631 42.7143 131.488 42.9428C131.269 43.1115 130.887 43.0615 130.595 43.056C130.586 43.6682 130.693 46.9937 130.485 47.276L130.121 47.2976L129.003 47.2893C128.99 46.3299 129.113 43.9712 128.932 43.1553C128.664 42.9003 127.733 43.4254 128.102 42.0703C128.343 41.9044 128.385 41.9799 128.764 42.0216C129.684 41.4751 128.199 40.2335 130.92 40.0186Z" fill="black" fill-opacity="0.5"/>
<path d="M122.827 40.416C123.325 40.4065 123.855 40.4172 124.356 40.4191L124.329 41.9964L125.495 42.0187L125.477 43.0538L124.34 43.0524C124.32 44.0293 124.303 45.162 124.429 46.1251C124.751 46.1591 125.162 46.173 125.493 46.194L125.486 47.3251C121.885 47.9461 123.036 45.5091 122.799 43.1985C122.571 42.863 122.455 43.2538 121.971 42.8988C121.862 42.6459 121.857 42.1955 122.043 41.9829C123.11 42.1661 122.859 41.2036 122.827 40.416Z" fill="black" fill-opacity="0.5"/>
<path d="M15.783 41.8994C16.0922 42.0225 16.2693 41.9571 16.6365 42.0811C16.7359 42.3971 14.2572 48.6003 13.6319 49.1984C13.3049 49.5113 12.4989 49.5836 12.0989 49.1039C12.0438 48.8199 12.0254 48.9323 12.166 48.6818C12.5167 48.5095 12.5662 48.5807 12.9974 48.6128C13.3665 48.0922 13.4851 47.8241 13.7179 47.2415L13.3232 46.3172C12.7726 45.0955 11.9938 43.2329 11.5537 41.9912L12.6497 42.0113C13.0608 43.3104 13.7185 44.9346 14.1948 46.2484C14.7429 44.8473 15.2648 43.3204 15.783 41.8994Z" fill="black" fill-opacity="0.5"/>
<path d="M91.0116 41.8594C91.3127 41.8704 91.2506 41.8282 91.4854 41.9716C91.6513 42.3398 91.5594 42.9059 91.5347 43.341C88.9326 42.9751 89.4617 45.489 89.4932 47.2889L87.9391 47.2829C87.8276 46.3394 87.9127 43.0933 87.9161 42.0077C88.3116 42.0026 89.0917 41.9591 89.4141 42.0974C89.4396 42.2513 89.466 42.405 89.494 42.5584C89.5323 42.567 89.5706 42.5755 89.608 42.5841C90.2324 42.145 90.2613 42.0149 91.0116 41.8594Z" fill="black" fill-opacity="0.5"/>
<path d="M41.7717 41.859C41.9914 41.8508 42.0468 41.8299 42.2293 41.9327C42.4636 42.2948 42.3709 42.8612 42.3523 43.3186C39.7104 43.0361 40.2675 45.4358 40.2855 47.295L38.7473 47.2863C38.6648 46.8862 38.7276 42.6723 38.7336 42.0053C39.1295 42.0079 39.547 42.001 39.9418 42.0171C40.4189 42.0366 40.0423 42.3021 40.3132 42.6291C40.8544 42.2549 41.1199 42.0097 41.7717 41.859Z" fill="black" fill-opacity="0.5"/>
<path d="M107.635 42.0079L109.207 42.0078L109.205 47.2946L107.629 47.2885L107.635 42.0079Z" fill="black" fill-opacity="0.5"/>
<path d="M67.5326 42.0113L69.1131 42.0098L69.1028 47.2912L67.5107 47.287C67.5386 45.5446 67.5268 43.7572 67.5326 42.0113Z" fill="black" fill-opacity="0.5"/>
<path d="M132.485 42.0099C133.006 41.9991 133.525 42.0123 134.046 42.0214C134.01 43.7532 134.036 45.55 134.038 47.2865L132.472 47.2819C132.454 45.5246 132.458 43.7671 132.485 42.0099Z" fill="black" fill-opacity="0.5"/>
<path d="M126.1 42.0053C126.598 42.0161 127.161 41.9995 127.665 41.9961C127.645 43.7439 127.664 45.5338 127.666 47.2849L126.095 47.2883L126.1 42.0053Z" fill="black" fill-opacity="0.5"/>
<path d="M108.099 40.0179L109.654 40.0049C109.5 40.4694 109.351 40.9356 109.208 41.4034C108.725 41.4206 108.127 41.3991 107.636 41.394C107.757 40.9516 107.945 40.4557 108.099 40.0179Z" fill="black" fill-opacity="0.5"/>
<path d="M67.981 39.9912C68.3939 40.0411 69.1586 40.033 69.6004 40.0398L69.1185 41.3925C68.534 41.4161 68.1214 41.4121 67.5371 41.3822C67.7199 40.8784 67.8514 40.5117 67.981 39.9912Z" fill="black" fill-opacity="0.5"/>
<path d="M127.132 40.0146L128.113 40.0443C127.89 40.677 127.924 41.3259 127.206 41.4188C126.836 41.4207 126.432 41.3979 126.062 41.3847C126.329 40.575 126.187 40.0881 127.132 40.0146Z" fill="black" fill-opacity="0.5"/>
<path d="M133.307 40.0137L134.493 40.0412C134.375 40.4269 134.214 41.2595 133.845 41.4095L132.479 41.4153C132.581 41.0505 132.722 40.4302 132.931 40.1342C133.014 40.0166 133.135 40.037 133.307 40.0137Z" fill="black" fill-opacity="0.5"/>
</svg>
