<svg width="103" height="42" viewBox="0 0 103 42" fill="none" xmlns="http://www.w3.org/2000/svg">
<g clip-path="url(#clip0_353_15834)">
<path d="M2.00707 16.8059C3.22238 12.3808 8.28406 11.3276 12.9443 11.1975C16.7754 11.0906 21.0469 11.5951 21.0469 11.5951L19.0398 18.9032C19.0398 18.9032 14.7683 18.3987 10.9372 18.5057C6.27703 18.6358 1.21532 19.6889 0 24.1141L2.00707 16.8059Z" fill="black" fill-opacity="0.5"/>
<path d="M66.4939 9.02539C60.3588 9.02543 58.7871 14.9389 57.9075 18.1417L51.3539 42.0003H55.1774L60.9878 20.845H64.959L62.3154 30.4714H66.1389L69.3093 18.927H61.5149C61.9143 17.472 62.3402 15.9219 62.6873 14.6579C63.3284 12.3236 64.3756 10.6285 65.8985 10.6855C67.5816 10.7485 66.725 11.8492 66.4945 12.6884C66.1757 13.8495 67.0365 15.0169 68.5449 15.0169C71.8211 15.0169 72.6291 9.02539 66.4939 9.02539ZM44.8048 13.2001V13.2004L40.0615 30.4714H44.0475L45.804 24.0757H49.2664C53.0868 24.0757 55.6222 21.9757 56.3078 19.0567C56.9479 16.3312 55.3495 13.2002 51.0684 13.2002C48.9804 13.2002 46.8929 13.2001 44.8048 13.2001ZM48.2327 15.2325H49.7653C51.3698 15.2325 52.6428 16.5117 52.3354 18.7379C52.0505 20.8015 49.8005 22.0385 47.8386 22.0385H46.3634L48.2327 15.2325ZM86.0313 18.5774C82.6798 18.5774 80.2621 21.449 79.682 24.3187C79.1244 27.0764 80.7123 30.7411 85.084 30.7411C88.1912 30.7411 89.7538 29.3785 89.7538 29.3785L89.0387 27.6204C89.0387 27.6204 87.7324 28.6792 85.9123 28.6792C84.0921 28.6792 82.9503 27.2483 83.2029 24.9681H90.6356C91.1669 23.6253 91.4579 18.5774 86.0313 18.5774ZM100.847 18.7327C98.3541 18.7327 96.8844 21.2964 96.8844 21.2964L97.535 18.9272H93.7115L90.541 30.4714H94.3645C94.3645 30.4714 95.2852 27.0985 95.7538 25.4147C96.4771 22.7825 97.9524 21.1343 98.6617 21.0668C99.4814 20.9889 99.4029 22.9559 101.002 22.9559C103.427 22.9559 103.95 18.7327 100.847 18.7327H100.847ZM70.7499 18.9272L70.223 20.8454H75.0695L67.4505 30.4714H78.2096L78.7362 28.5532H73.2692L80.888 18.9272H70.7499ZM86.0171 20.4836V20.4838C88.0959 20.4838 87.6228 23.2174 87.6228 23.2174L83.4584 23.2078C83.4584 23.2078 84.149 20.4836 86.0171 20.4836Z" fill="black" fill-opacity="0.5"/>
<path d="M31.0902 30.4979C17.3789 29.6463 1.4451 22.6027 2.00755 16.8057L0.115795 23.6941C-0.458039 29.6086 14.3228 36.6307 29.0832 37.8061L31.0902 30.4979Z" fill="black" fill-opacity="0.5"/>
<path d="M36.073 21.0006C34.8577 25.4257 29.796 26.4789 25.1358 26.609C21.3047 26.716 17.0332 26.2114 17.0332 26.2114L19.0403 18.9032C19.0403 18.9032 23.3118 19.4078 27.1429 19.3008C31.8031 19.1707 36.8648 18.1176 38.08 13.6924L36.073 21.0006Z" fill="black" fill-opacity="0.5"/>
<path d="M6.99023 7.30819C20.7016 8.15972 36.6354 15.2034 36.0729 21.0004L37.9647 14.112C38.5385 8.19747 23.7577 1.17536 8.99729 0L6.99023 7.30819Z" fill="black" fill-opacity="0.5"/>
</g>
<defs>
<clipPath id="clip0_353_15834">
<rect width="103" height="42" fill="white"/>
</clipPath>
</defs>
</svg>
