<svg width="94" height="28" viewBox="0 0 94 28" fill="none" xmlns="http://www.w3.org/2000/svg">
<g clip-path="url(#clip0_353_15910)">
<path d="M61.7085 0.237246C62.3232 0.173443 64.0445 0.222167 64.7352 0.223068L79.3247 0.241813C80.5461 0.242294 82.5651 0.183117 83.7503 0.264342C84.5726 0.326523 85.3823 0.504112 86.1545 0.791945C87.036 1.12448 87.9586 1.65749 88.3534 2.55169C88.5183 2.92597 88.5774 3.33823 88.5237 3.74345C88.3873 4.72314 87.8191 6.56579 87.5172 7.53545C86.9213 9.44484 86.3 11.3464 85.6546 13.2397L83.6839 18.9969C82.3278 22.927 82.0906 24.3759 77.9378 26.145C75.8222 26.9939 73.3854 27.9616 71.0893 27.9923C69.6559 28.0115 68.2003 27.9888 66.7645 27.9881H56.0247C57.909 22 59.9824 15.8988 61.9501 9.92757L63.6756 4.69112C63.9503 3.85682 64.2275 2.9971 64.4919 2.17836C64.6133 1.36431 63.6219 1.17338 63.0217 1.11583C62.3884 1.05503 61.0879 1.30411 61.7085 0.237246ZM66.526 26.0654C67.8277 26.2576 69.3486 26.1124 70.5568 25.5949C70.9214 25.4067 71.5457 25.0905 71.713 24.7199C72.1628 23.722 72.5528 22.4486 72.9 21.4077C73.8733 18.4685 74.8278 15.5232 75.7631 12.5718C76.2624 11.0043 78.7801 3.49725 78.7421 2.48662C78.5821 2.28362 78.2651 2.18816 78.0206 2.17314C76.807 2.09852 75.501 2.21531 74.2887 2.13168C73.4688 4.93864 72.3808 8.05566 71.4691 10.8617L66.526 26.0654Z" fill="black" fill-opacity="0.5"/>
<path d="M5.85335 0L25.045 0.0945024C26.2294 0.094983 27.474 0.0237898 28.6491 0.181374C29.6322 0.313185 30.7831 0.618741 31.5235 1.30681C31.9732 1.72471 32.2622 2.29431 32.27 2.91294C32.2945 4.83807 29.7416 12.1385 28.8322 13.8947C28.6216 14.3014 28.3373 14.6547 28.0158 14.9792C26.1534 16.8591 22.7717 17.9314 20.1821 18.3222C18.2163 18.619 16.1819 18.6696 14.1954 18.6795C13.6618 18.6708 13.3487 18.675 12.8272 18.5757C11.7543 21.5577 10.7176 24.7917 9.70334 27.8074C6.50512 27.8529 3.20408 27.813 0 27.8096C0.260043 27.2175 0.7628 25.5358 0.9935 24.832L6.60565 7.73953C6.90862 6.81679 8.48548 2.36424 8.46839 1.74791C7.98761 0.530307 6.26572 1.21946 5.6043 0.750011C5.39859 0.413094 5.57175 0.215499 5.85335 0ZM13.3823 16.6876C14.6512 16.8431 16.2507 16.6773 17.4551 16.2835C18.2628 15.9204 18.593 15.4925 18.8764 14.6676C19.5069 12.8331 22.7967 3.5989 22.7043 2.35565C22.4168 1.85574 18.9968 2.07929 18.263 2.04337C17.7822 3.69893 17.0958 5.60244 16.5423 7.25374L13.3823 16.6876Z" fill="black" fill-opacity="0.5"/>
<path d="M34.1016 0.138659C35.8299 0.098407 37.7592 0.145208 39.5094 0.147551L54.1729 0.201381C55.1233 0.204024 56.1026 0.168338 57.0444 0.309341C58.0201 0.45539 59.0954 0.791346 59.8188 1.49047C60.2806 1.93721 60.466 2.44337 60.4678 3.07809C60.4738 5.01458 57.9604 12.2806 57.0124 14.0493C56.806 14.4349 56.527 14.7749 56.2185 15.0841C52.9394 18.3725 46.5908 18.787 42.1845 18.7933C41.7398 18.7867 41.4626 18.7483 41.0221 18.6864C40.5872 20.1049 40.0274 21.6577 39.5479 23.0778C39.0145 24.6573 38.4719 26.3533 37.9012 27.9079L31.692 27.9005C30.6325 27.8992 29.2762 27.8594 28.235 27.9203C30.2355 21.5152 32.4752 14.9847 34.5753 8.59119L36.0066 4.23657C36.0765 4.02552 36.1751 3.72987 36.2465 3.51684C36.6873 2.20101 37.2022 1.36545 35.3556 1.03844C34.8384 0.946826 34.1765 1.26824 33.7668 0.803601C33.6514 0.444996 33.7878 0.267046 34.1016 0.138659ZM41.5808 16.799C42.8796 16.939 44.4472 16.7973 45.6797 16.3842C46.5709 15.9746 46.8021 15.564 47.1366 14.6403C48.3405 11.311 49.4225 7.93214 50.4779 4.55342C50.6348 4.05123 51.0013 2.97331 50.9403 2.48266C50.6729 2.14874 50.0299 2.15187 49.6326 2.15187C48.5868 2.15175 47.5466 2.17812 46.5014 2.13487C44.8938 6.97162 43.2707 12.0004 41.5808 16.799Z" fill="black" fill-opacity="0.5"/>
<path d="M90.2324 5.16597C89.57 4.51191 89.3919 3.51449 89.7868 2.67346C90.1823 1.83237 91.0656 1.3288 91.9948 1.41495C92.9234 1.5011 93.698 2.15842 93.9305 3.05766C94.1623 3.95691 93.8025 4.90433 93.0302 5.42545C92.1554 6.01578 90.9822 5.90703 90.2324 5.16597ZM93.1884 4.80214C93.2874 4.56688 93.4426 4.34387 93.5024 4.09563C93.7403 3.11017 93.3062 2.13661 92.2942 1.86145C91.8239 1.73054 91.3204 1.79056 90.8947 2.02835C89.8339 2.62967 89.782 3.79518 90.3682 4.76009C91.2902 5.74434 92.2182 5.62383 93.1884 4.80214Z" fill="black" fill-opacity="0.5"/>
<path d="M90.9388 2.34213C92.0171 2.33108 93.887 2.43778 92.2169 3.79842C92.2411 4.1351 92.7163 4.46553 92.7748 4.79535L92.6975 4.86132L92.4084 4.83519C92.2321 4.52032 91.8487 3.68692 91.4785 3.68475C91.2733 3.84985 91.3499 4.51413 91.2358 4.85892C91.065 4.87802 91.1217 4.8946 90.981 4.82563C90.9237 4.39962 90.943 2.84859 90.9388 2.34213ZM91.3258 3.46992C91.6995 3.46883 91.9754 3.48211 92.3359 3.35433C92.392 3.15817 92.4409 3.05862 92.3619 2.86727C92.1385 2.58275 91.6585 2.64439 91.3179 2.64264L91.3258 3.46992Z" fill="black" fill-opacity="0.5"/>
<path d="M90.3682 4.76009C91.2902 5.74434 92.2182 5.62383 93.1884 4.80214C93.2295 5.03975 93.119 5.19631 93.0302 5.42545C92.1554 6.01578 90.9822 5.90703 90.2324 5.16597C90.306 5.00088 90.3247 4.936 90.3682 4.76009Z" fill="black" fill-opacity="0.5"/>
</g>
<defs>
<clipPath id="clip0_353_15910">
<rect width="94" height="28" fill="white"/>
</clipPath>
</defs>
</svg>
