<svg width="184" height="22" viewBox="0 0 184 22" fill="none" xmlns="http://www.w3.org/2000/svg">
<g clip-path="url(#clip0_353_15981)">
<path d="M4.69426 0.906567H14.3308C17.9548 0.824041 20.3433 2.3074 20.3433 6.18005C20.3433 8.89913 18.449 11.2063 15.731 11.6182V11.7007C17.3783 12.1951 17.7901 13.6782 17.7901 15.2438C17.7901 16.1501 17.6254 17.4685 17.6254 18.7869C17.6254 19.6932 17.7079 20.5172 17.8725 21.094H13.5073C13.4248 20.5996 13.3426 20.1876 13.3426 19.7757C13.3426 18.4573 13.5898 17.0566 13.5898 15.6558C13.5898 13.6783 12.4367 13.1839 10.7071 13.1839H6.50653L4.85928 21.094H0.411621L4.69426 0.906567ZM7.24757 10.0527H11.3657C13.6719 10.0527 15.9781 9.14628 15.9781 6.83914C15.9781 4.69684 14.4132 4.36729 12.6836 4.36729H8.483L7.24757 10.0527Z" fill="black" fill-opacity="0.5"/>
<path d="M37.2278 17.3856L36.4041 21.0935H20.8374L25.1203 0.90625H40.5223L39.6987 4.61411H28.7443L27.8383 8.98115H37.969L37.2278 12.4418H27.097L26.1087 17.3856H37.2278Z" fill="black" fill-opacity="0.5"/>
<path d="M54.9362 19.0335C53.536 20.8463 51.6417 21.5878 49.8297 21.5878C44.1466 21.5878 40.8521 18.3743 40.8521 12.689C40.8521 6.17962 45.0526 0.494141 51.8888 0.494141C56.5835 0.494141 60.4546 2.71887 60.4546 7.66269H56.0069C55.9245 5.19078 54.3597 4.20206 51.8888 4.20206C47.3588 4.20206 45.2997 8.8163 45.2997 12.689C45.2997 15.4905 46.6175 17.88 49.912 17.88C53.2889 17.88 54.7715 16.0672 55.5128 13.5129H50.8181L51.5593 10.217H60.1251L57.8189 21.0934H54.9362V19.0335Z" fill="black" fill-opacity="0.5"/>
<path d="M77.5038 17.3856L76.7625 21.0935H61.1958L65.3963 0.90625H80.7983L80.0571 4.61411H69.1027L68.1967 8.98115H78.3274L77.5862 12.4418H67.4554L66.3847 17.3856H77.5038Z" fill="black" fill-opacity="0.5"/>
<path d="M87.0579 6.92122L84.1752 21.0935H79.9746L84.2575 0.90625H88.8699L94.3059 15.2433H94.3882L97.271 0.90625H101.389L97.1062 21.0935H92.6586L87.1403 6.92122H87.0579Z" fill="black" fill-opacity="0.5"/>
<path d="M117.368 17.3856L116.544 21.0935H100.978L105.178 0.90625H120.58L119.839 4.61411H108.884L107.978 8.98115H118.109L117.368 12.4418H107.237L106.166 17.3856H117.368Z" fill="black" fill-opacity="0.5"/>
<path d="M124.039 0.906567H133.676C137.3 0.824041 139.689 2.3074 139.689 6.18005C139.689 8.89913 137.794 11.2063 135.076 11.6182V11.7007C136.723 12.1951 137.135 13.6782 137.135 15.2438C137.135 16.1501 136.971 17.4685 136.971 18.7869C136.971 19.6932 137.053 20.5172 137.218 21.094H132.852C132.77 20.5996 132.688 20.1876 132.688 19.7757C132.688 18.4573 132.935 17.0566 132.935 15.6558C132.935 13.6783 131.782 13.1839 130.052 13.1839H125.852L124.204 21.094H119.757L124.039 0.906567ZM126.593 10.0527H130.711C133.099 10.0527 135.323 9.14628 135.323 6.83914C135.323 4.69684 133.758 4.36729 132.029 4.36729H127.828L126.593 10.0527Z" fill="black" fill-opacity="0.5"/>
<path d="M152.455 0.412109C157.891 0.412109 161.432 3.37842 161.432 9.06382C161.432 15.738 157.479 21.5882 150.396 21.5882C144.713 21.5882 141.418 18.3747 141.418 12.6893C141.418 6.09758 145.619 0.412109 152.455 0.412109ZM150.396 17.8803C154.761 17.8803 156.902 13.2661 156.902 9.39342C156.902 6.59193 155.667 4.12003 152.372 4.12003C147.842 4.12003 145.783 8.73429 145.783 12.6069C145.866 15.4084 147.183 17.8803 150.396 17.8803Z" fill="black" fill-opacity="0.5"/>
<path d="M166.374 21.0935H162.256L166.456 0.90625H171.069L176.587 15.2433L179.47 0.90625H183.588L179.305 21.0935H174.857L169.339 6.92122H169.257L166.374 21.0935Z" fill="black" fill-opacity="0.5"/>
</g>
<defs>
<clipPath id="clip0_353_15981">
<rect width="184" height="22" fill="white"/>
</clipPath>
</defs>
</svg>
