<svg width="180" height="49" viewBox="0 0 180 49" fill="none" xmlns="http://www.w3.org/2000/svg">
<path d="M10.5737 40.2524V6.72751H15.7087L13.997 3.62695H7.4541V43.4083H44.5308L42.8191 40.2801H10.5737V40.2524ZM23.3283 25.8292H25.7854L28.7946 31.5043H32.494L29.0983 25.3032C29.1535 25.2755 29.2087 25.2479 29.2363 25.2479C30.0921 24.8326 30.7547 24.2512 31.224 23.5038C31.6934 22.7286 31.9142 21.8151 31.9142 20.7631C31.9142 19.7111 31.6934 18.7976 31.224 17.9947C30.7823 17.1919 30.1197 16.6106 29.2639 16.1953C28.4081 15.7801 27.3866 15.5586 26.1995 15.5586H19.9602V31.532H23.3559V25.8292H23.3283ZM25.5921 18.2993C26.2271 18.2993 26.7793 18.41 27.1934 18.5761C27.6075 18.7422 27.9388 19.0467 28.1596 19.4066C28.3805 19.7665 28.4909 20.2094 28.4909 20.7354C28.4909 21.2614 28.3805 21.7044 28.1596 22.0642C27.9388 22.4241 27.6351 22.6733 27.1934 22.8671C26.7516 23.0609 26.2271 23.1439 25.5921 23.1439H23.3283V18.2993H25.5921ZM40.9694 24.9157H47.7885V22.1473H40.9694V18.327H48.3406V15.5309H37.6013V31.5043H48.3682V28.7083H40.9694V24.9157ZM65.0431 23.836C64.6289 23.4484 64.1044 23.1439 63.5247 22.8671C62.9449 22.5902 62.3099 22.3964 61.6197 22.2303L60.1842 21.8981C59.8253 21.8151 59.494 21.732 59.2179 21.6213C58.9142 21.5106 58.6381 21.3722 58.4173 21.2337C58.1964 21.0676 58.0032 20.9015 57.8651 20.6801C57.7271 20.4586 57.6719 20.2094 57.6995 19.9326C57.6995 19.6004 57.8099 19.2959 58.0032 19.019C58.1964 18.7422 58.5001 18.5484 58.8866 18.3823C59.2731 18.2162 59.7424 18.1609 60.267 18.1609C61.0676 18.1609 61.7026 18.327 62.1719 18.6868C62.6412 19.0467 62.9173 19.5173 62.9725 20.1541H66.2026C66.2026 19.1851 65.9265 18.3546 65.4296 17.6349C64.9326 16.9151 64.2424 16.3614 63.359 15.9462C62.4756 15.5309 61.4541 15.3371 60.267 15.3371C59.1075 15.3371 58.0584 15.5309 57.1474 15.9462C56.2363 16.3614 55.5185 16.9151 54.994 17.6349C54.4694 18.3546 54.221 19.2128 54.221 20.1818C54.221 21.3445 54.6075 22.3134 55.3805 23.0055C56.1535 23.6976 57.2302 24.2236 58.5553 24.5558L60.2946 24.9987C60.8743 25.1371 61.3713 25.3032 61.7578 25.4693C62.1719 25.6354 62.4756 25.8569 62.6688 26.106C62.8897 26.3552 63.0001 26.6597 63.0001 27.0196C63.0001 27.4072 62.8897 27.7394 62.6412 28.0439C62.4204 28.3484 62.0891 28.5699 61.6474 28.736C61.2332 28.9021 60.7363 28.9851 60.1566 28.9851C59.5768 28.9851 59.0523 28.9021 58.5829 28.7083C58.1136 28.5145 57.7547 28.2654 57.4786 27.9055C57.2026 27.5456 57.0645 27.1027 57.0093 26.5767H53.7516C53.7793 27.7394 54.0553 28.6806 54.5799 29.4834C55.1044 30.2586 55.8498 30.8399 56.8161 31.2275C57.7823 31.6151 58.8866 31.8089 60.1842 31.8089C61.4817 31.8089 62.586 31.6151 63.497 31.2275C64.4081 30.8399 65.1259 30.2863 65.6228 29.5665C66.1197 28.8467 66.3682 27.9885 66.3682 27.0196C66.3682 26.3552 66.2302 25.7738 66.0093 25.2479C65.7885 24.6665 65.4572 24.2236 65.0431 23.836ZM75.313 15.5309H71.9449V31.5043H75.313V15.5309ZM84.7271 15.5309H81.359V31.5043H91.5737V28.7083H84.7547V15.5309H84.7271ZM100.436 15.5309H97.0676V31.5043H100.436V15.5309ZM109.877 24.9157H116.696V22.1473H109.877V18.327H117.249V15.5309H106.509V31.5043H117.276V28.7083H109.877V24.9157ZM133.178 25.5801H133.04L126.166 15.5309H123.212V31.5043H126.58V21.4552H126.69L133.62 31.5043H136.546V15.5309H133.206V25.5801H133.178ZM147.644 18.936C148.252 18.5207 148.969 18.327 149.798 18.327C150.267 18.327 150.681 18.3823 151.068 18.5207C151.454 18.6592 151.813 18.8529 152.117 19.0744C152.42 19.3236 152.669 19.6004 152.862 19.9603C153.055 20.2925 153.193 20.7077 153.249 21.123H156.644C156.534 20.2094 156.285 19.3789 155.899 18.6592C155.512 17.9394 155.015 17.3303 154.408 16.8597C153.801 16.3614 153.083 15.9738 152.31 15.7247C151.509 15.4479 150.681 15.3371 149.742 15.3371C148.334 15.3371 147.092 15.6693 145.96 16.306C144.856 16.9428 143.945 17.884 143.31 19.1021C142.675 20.3202 142.316 21.8151 142.316 23.5592C142.316 25.3032 142.647 26.7705 143.282 27.9885C143.917 29.2066 144.828 30.1479 145.933 30.7846C147.037 31.4213 148.307 31.7535 149.742 31.7535C150.764 31.7535 151.675 31.5874 152.503 31.2829C153.304 30.9784 154.022 30.5354 154.601 30.0094C155.181 29.4834 155.65 28.8744 156.009 28.21C156.368 27.5179 156.589 26.8258 156.672 26.0784H153.276C153.193 26.4936 153.055 26.8812 152.862 27.2134C152.669 27.5456 152.42 27.8224 152.117 28.0716C151.813 28.2931 151.482 28.4868 151.095 28.5976C150.709 28.7083 150.295 28.7637 149.853 28.7637C149.052 28.7637 148.334 28.5699 147.727 28.1823C147.12 27.7947 146.65 27.2134 146.292 26.4383C145.96 25.6631 145.795 24.6942 145.795 23.5592C145.795 22.4518 145.96 21.5106 146.292 20.7354C146.568 19.9326 147.037 19.3236 147.644 18.936ZM165.699 28.7083V24.9157H172.519V22.1473H165.699V18.327H173.071V15.5309H162.331V31.5043H173.098V28.7083H165.699Z" fill="black" fill-opacity="0.5"/>
</svg>
