<svg width="89" height="48" viewBox="0 0 89 48" fill="none" xmlns="http://www.w3.org/2000/svg">
<path d="M59.4546 18.9107C58.9269 18.5245 58.0887 18.2774 57.2817 18.2928C56.3969 18.3082 55.5588 18.5863 54.969 19.0497V13.5195H52.2217V31.5622H54.969V22.1392C54.969 21.4904 55.5277 20.7644 56.5521 20.718C57.0023 20.7026 57.6386 20.9034 57.9646 21.3823C58.306 21.8766 58.2905 22.5563 58.2905 23.2823L58.275 31.5622H61.0223V23.1896C61.0223 20.7181 60.7118 19.8375 59.4546 18.9107Z" fill="black" fill-opacity="0.5"/>
<path d="M37.1041 25.1043C37.1041 26.8653 37.042 27.3596 37.0265 27.5141C36.9334 28.5028 36.5143 29.5377 35.3657 29.5377C34.2327 29.5377 33.767 28.4255 33.7205 27.4678C33.705 27.4678 33.6429 26.8653 33.6429 25.1043C33.6429 23.3433 33.705 22.6018 33.7205 22.6018C33.7205 21.5977 34.2482 20.6091 35.3657 20.6091C36.4988 20.6091 37.011 21.5977 37.0265 22.5864C37.0265 22.6018 37.1041 23.3433 37.1041 25.1043ZM39.7583 22.9726C39.3702 19.1262 37.1662 18.292 35.3657 18.292C32.8047 18.292 31.2526 19.914 30.9732 22.9726C30.9422 23.2197 30.9111 23.6677 30.8956 25.1043C30.8801 26.1548 30.9577 27.0198 30.9732 27.2361C31.1439 30.0938 32.7892 31.8394 35.3657 31.8394C37.9423 31.8394 39.5875 30.063 39.7738 27.2361C39.7893 27.0353 39.8359 26.1548 39.8359 25.1043C39.8359 24.6255 39.8048 23.3433 39.7583 22.9726Z" fill="black" fill-opacity="0.5"/>
<path d="M65.6167 23.4823C65.6323 22.8799 65.6322 22.7563 65.6478 22.5864C65.7254 21.5051 66.2065 20.6091 67.3241 20.6091C68.6434 20.5937 68.9538 21.8758 69.0004 22.5864C69.0314 22.9726 69.0469 23.2197 69.0469 23.4823H65.6167ZM69.0159 27.097C69.0159 27.097 69.0159 27.2979 68.9848 27.545C68.9072 28.1784 68.6589 29.5377 67.3241 29.5377C66.1755 29.5377 65.7409 28.5028 65.6633 27.4832C65.6478 27.1897 65.6012 26.8653 65.6012 25.7531H71.7321C71.7321 25.7531 71.7321 24.8417 71.7166 24.3011C71.7166 24.0848 71.7011 23.7295 71.6545 22.9726C71.5614 21.814 71.1268 20.5473 70.4594 19.7441C69.6988 18.7863 68.6123 18.292 67.3241 18.292C64.8407 18.292 63.2885 19.8985 62.9936 22.9726C62.9626 23.2506 62.916 23.6368 62.916 25.1043C62.916 26.1548 62.9781 27.0353 62.9936 27.2361C63.1488 30.0475 64.8251 31.8394 67.3241 31.8394C69.8075 31.8394 71.4683 30.0938 71.6545 27.097H69.0159Z" fill="black" fill-opacity="0.5"/>
<path d="M22.2037 4.31251H66.8741L83.9475 24.2088L66.8741 43.8271H22.2037L5.05267 24.147L22.2037 4.31251ZM67.945 2.10352H21.1172L2.11914 24.0698L21.1327 45.897H67.945L86.881 24.147L67.945 2.10352Z" fill="black" fill-opacity="0.5"/>
<path d="M22.7621 15.9753H24.0504C25.4628 15.9753 26.2389 16.7168 26.2699 18.0453C26.2699 18.1534 26.2855 18.2615 26.2855 18.4624C26.2855 18.7095 26.2855 18.7867 26.2699 18.8949C26.1923 19.6827 25.8353 21.0575 24.1901 21.0575H22.7621V15.9753ZM29.2656 30.4341L28.9862 26.0162C28.862 24.0389 28.3498 22.8649 27.3099 22.2624C28.0549 21.8144 29.0172 20.7177 29.0017 18.416C29.0017 14.9249 26.8132 13.6891 24.2366 13.6582H20.0459V31.5618H22.7466L22.7621 23.3747H24.2677C25.1369 23.3747 26.1147 24.1316 26.2699 26.2633L26.5493 30.4496C26.5804 31.052 26.689 31.5618 26.689 31.5618H29.4053C29.4053 31.5618 29.2811 31.0675 29.2656 30.4341Z" fill="black" fill-opacity="0.5"/>
<path d="M47.7831 26.9735C47.7831 27.1743 47.7676 27.3442 47.7521 27.4678C47.6745 28.4719 47.333 29.5377 46.0913 29.5377C44.9583 29.5377 44.5082 28.3792 44.415 27.5296C44.3685 27.0198 44.384 26.6182 44.3685 25.1043C44.3529 23.3433 44.415 22.8799 44.4461 22.6018C44.5392 21.4742 44.9738 20.6091 46.0913 20.6091C47.2554 20.5937 47.7366 21.5977 47.7521 22.5864C47.7521 22.6018 47.7832 22.8335 47.7987 23.3588H50.5149C50.5149 23.1734 50.4994 23.0189 50.4994 22.9417C50.189 19.2034 47.8918 18.292 46.0913 18.292C43.5303 18.292 41.9782 19.914 41.6988 22.9726C41.6678 23.2197 41.6367 23.6677 41.6212 25.1043C41.6057 26.1548 41.6833 27.0198 41.6988 27.2361C41.8695 30.0938 43.5148 31.8394 46.0913 31.8394C48.761 31.8549 50.2355 30.2329 50.4994 27.2361C50.4994 27.1279 50.5149 27.0507 50.5149 26.9735H47.7831Z" fill="black" fill-opacity="0.5"/>
</svg>
