<svg width="131" height="44" viewBox="0 0 131 44" fill="none" xmlns="http://www.w3.org/2000/svg">
<g clip-path="url(#clip0_353_15760)">
<path fill-rule="evenodd" clip-rule="evenodd" d="M103.792 43.9246C103.792 43.9246 116.324 44.2689 117.96 31.5534C117.961 31.5478 118.093 30.8931 118.1 29.897C120.613 33.8058 121.722 36.5263 121.727 36.5396L131 30.3385C131 30.3385 108.022 0.0752152 65.3304 0.0751953C22.6655 0.0751953 0.0316785 30.3151 0 30.3574L9.27823 36.6245C9.27823 36.6245 10.4003 33.8155 12.9713 29.7968C12.9816 30.7964 13.1179 31.496 13.12 31.5066C14.7595 44.2308 27.1267 43.9246 27.1267 43.9246H103.792ZM27.0914 41.0914C16.3444 41.0914 14.8211 31.2925 14.8178 31.2715C14.404 28.6651 14.908 26.8807 15.7131 25.6467C23.4608 15.4511 38.7918 1.75763 65.2968 1.75763C92.027 1.75763 107.488 15.6484 115.232 25.8457C116.127 26.9828 116.463 28.8382 116.063 31.3616C116.058 31.3907 114.376 41.0914 103.632 41.0914H27.0914Z" fill="black" fill-opacity="0.5"/>
<path d="M42.9751 20.7541L44.2528 18.0179H27.8796L26.5949 20.7541H32.9385L26.3716 34.1031H30.6116L37.1751 20.7541H42.9751Z" fill="black" fill-opacity="0.5"/>
<path d="M102.104 29.6747C100.887 31.3881 99.1626 32.257 98.2502 31.6097C97.3395 30.9607 97.5905 29.0482 98.8077 27.3348C100.025 25.6214 101.753 24.7509 102.662 25.3982C103.576 26.0489 103.321 27.9613 102.104 29.6747ZM87.7738 29.609C86.5498 31.3258 84.8254 32.1912 83.9147 31.5439C83.0092 30.8966 83.2516 28.9842 84.4722 27.2673C85.6945 25.5539 87.4224 24.6868 88.3279 25.3324C89.2334 25.9797 88.991 27.8956 87.7738 29.609ZM69.9653 28.3629C69.9653 28.3629 70.7582 25.7028 73.3241 24.6384C73.3241 24.6384 74.0547 24.3909 74.446 24.7111C74.446 24.7111 74.9948 25.2389 74.3421 26.2168C73.7569 27.0891 72.3511 28.6675 70.8258 29.1988C70.8258 29.1988 69.4424 29.8028 69.9653 28.3629ZM44.9665 29.609C43.7424 31.3258 42.0215 32.1912 41.1125 31.5439C40.2018 30.8966 40.446 28.9842 41.6631 27.2673C42.8837 25.5539 44.6116 24.6868 45.5205 25.3324C46.4347 25.9797 46.1802 27.8956 44.9665 29.609ZM106.183 31.6927C106.183 31.6927 105.357 32.077 105.002 31.7066C104.647 31.3397 104.964 30.6561 104.964 30.6561L108.424 23.3853H104.897L104.357 24.3563C102.296 22.5442 98.4216 23.4805 96.0219 25.9883C94.6351 27.4335 93.8508 29.1486 93.7452 30.6405C93.3522 30.9001 92.696 31.2964 91.8512 31.6287C91.8512 31.6287 91.0236 32.0164 90.6652 31.6426C90.3102 31.2756 90.6306 30.5886 90.6306 30.5886L96.7716 17.9544H93.2483L90.0229 24.2905C87.9626 22.4819 84.0913 23.4148 81.6865 25.9226C81.2 26.4366 80.7914 26.9748 80.452 27.5287L80.4555 27.5165C80.433 27.5615 80.4087 27.61 80.3845 27.6515C80.3066 27.7831 80.2321 27.9094 80.1681 28.0375C78.2515 31.357 75.8674 31.9074 75.8674 31.9074C70.8292 33.4131 70.2544 30.9468 70.2544 30.9468C75.8969 28.8613 78.0178 26.3916 77.8221 24.5016C77.6317 22.61 75.0347 22.5113 75.0347 22.5113C70.7669 22.2552 67.0722 25.2389 66.1754 28.1586C65.9053 29.0482 65.8205 29.962 65.9867 30.7945C64.2778 31.7049 63.2945 31.8502 63.2945 31.8502C61.8748 32.2985 61.6982 31.6252 61.5302 31.2151C61.3571 30.7945 60.7148 27.1618 60.7148 27.1618L66.7069 23.2434H63.0417L58.5402 26.0333C57.5256 26.4539 57.9186 25.3878 57.9186 25.3878L61.5943 17.9492H58.0641L52.1014 30.0261C51.4157 30.438 50.0428 31.2341 49.0421 31.6287C49.0421 31.6287 48.2162 32.0164 47.8613 31.6426C47.4995 31.2756 47.8215 30.5886 47.8215 30.5886L51.2842 23.3196H47.7557L47.2155 24.2905C45.1569 22.4819 41.2805 23.4148 38.8808 25.9226C36.476 28.4321 35.8631 31.7412 37.5079 33.3144C38.822 34.5726 41.187 34.3373 43.3096 32.9094C43.3096 32.9094 43.8446 32.4491 44.1355 32.9873C44.435 33.5481 45.6504 34.8149 48.45 33.7108C49.3485 33.3594 50.1536 32.9544 50.8444 32.5737L50.1138 34.0517H53.637L55.4047 30.4812L56.9404 29.5034C56.9404 29.5034 57.4114 29.133 57.5966 29.924C57.5966 29.924 58.3601 32.9302 58.6545 33.3179C58.9523 33.7108 59.5409 34.5986 62.0202 33.8873C63.9195 33.3386 65.6889 32.6671 66.6255 32.2673C67.4549 33.4131 69.046 34.1867 71.6672 34.1867C75.5315 34.1867 78.2653 32.3418 79.4184 31.3812C79.5015 32.1462 79.7958 32.8177 80.317 33.3144C81.6293 34.5726 83.9926 34.3373 86.1135 32.9094C86.1135 32.9094 86.6502 32.4491 86.9445 32.9873C87.2458 33.5481 88.456 34.8149 91.259 33.7108C92.5454 33.2037 93.4042 32.7191 93.9686 32.3418C94.1209 32.7398 94.3443 33.0877 94.6473 33.3819C95.9665 34.6349 98.3263 34.403 100.447 32.9717C100.447 32.9717 100.986 32.5096 101.28 33.0531C101.576 33.6138 102.795 34.8824 105.591 33.7748C108.394 32.6723 109.196 31.672 109.196 31.672L108.489 30.4259C108.391 30.4812 107.528 31.1649 106.183 31.6927Z" fill="black" fill-opacity="0.5"/>
</g>
<defs>
<clipPath id="clip0_353_15760">
<rect width="131" height="44" fill="white"/>
</clipPath>
</defs>
</svg>
