<svg width="142" height="32" viewBox="0 0 142 32" fill="none" xmlns="http://www.w3.org/2000/svg">
<path fill-rule="evenodd" clip-rule="evenodd" d="M14.3725 4.09665V1.08813H0.867188V4.09665H5.49584V17.1782H9.67898V4.09665H14.3725ZM66.4298 17.1782C66.3187 16.1095 66.2501 15.2846 66.2501 14.7271V9.31127C66.2501 7.06143 64.6053 5.65781 62.4239 5.65781C60.8427 5.67906 59.465 6.39276 58.7074 7.64017C58.2407 6.39276 56.8617 5.72403 55.5701 5.72403C54.0127 5.72403 52.6998 6.23652 51.9635 7.64017L51.8761 5.96907H48.0499V17.1782H52.0097V10.4274C52.0097 10.0712 51.8537 8.15389 53.6794 8.15389C54.9024 8.15389 55.1932 9.24632 55.1932 10.315V17.1782H59.1305V10.4274C59.1305 10.0712 58.9745 8.15389 60.7991 8.15389C62.0233 8.15389 62.3115 9.24632 62.3115 10.315V17.1782H66.4298ZM47.1402 9.26755V5.85776C45.4267 5.83402 44.1126 6.39276 43.6022 8.10888L43.5136 5.96907H39.5526C39.6412 6.88275 39.6411 8.1089 39.6411 8.84385V17.1782H43.6022V12.2761C43.6022 10.4274 44.1363 9.28879 46.3178 9.24505C46.5836 9.24505 46.8506 9.24505 47.1402 9.26755ZM73.2536 5.65781C69.6046 5.65781 67.2235 7.68516 67.2235 11.5399C67.2235 15.5071 69.6271 17.4907 73.2536 17.4907C76.8802 17.4907 79.2838 15.5071 79.2838 11.5399C79.2838 7.68516 76.9027 5.65781 73.2536 5.65781ZM73.2536 8.02016C74.9222 8.02016 75.2341 9.73504 75.2341 11.4962C75.2341 13.5473 74.8785 15.1508 73.2536 15.1508C71.6288 15.1508 71.2732 13.5473 71.2732 11.4962C71.2732 9.71255 71.5851 7.99766 73.2536 7.99766V8.02016ZM26.5713 17.1782C26.4603 16.1095 26.4153 15.3508 26.4153 14.7271V9.31127C26.4153 7.06143 24.7468 5.65781 22.5667 5.65781C21.899 5.65781 21.2525 5.76902 20.6972 6.014C20.1855 6.25899 19.6963 6.61396 19.2733 7.15017V1.08691H15.3122V17.177H19.2733V10.4262C19.2733 10.07 19.1173 8.1526 20.9418 8.1526C22.1873 8.1526 22.4555 9.24502 22.4555 10.3137V17.177L26.5713 17.1782ZM38.6765 12.3424C38.699 8.3089 37.4971 5.65781 33.0245 5.65781C29.4865 5.65781 27.375 7.84137 27.375 11.2511C27.375 15.4421 28.8638 17.4907 33.2254 17.4907C34.5819 17.4907 35.7837 17.1783 36.696 16.5545C37.6756 15.9083 38.4768 14.8834 38.5879 13.4785H34.849C34.738 14.5047 34.1389 15.1946 32.9584 15.1946C31.4446 15.1946 31.1339 13.746 31.1563 12.3424H38.6765ZM34.894 10.1825H31.2237C31.311 9.00132 31.5781 7.79765 33.0482 7.73141C33.7146 7.70766 34.1614 8.02017 34.4497 8.51138C34.7617 8.97885 34.894 9.60256 34.894 10.2038V10.1825Z" fill="black" fill-opacity="0.5"/>
<path fill-rule="evenodd" clip-rule="evenodd" d="M141.256 9.06792V5.65691C139.543 5.63441 138.23 6.19313 137.718 7.90925L137.63 5.96939H133.668C133.757 6.88307 133.757 8.10794 133.757 8.84539V17.1798H137.718V12.2752C137.718 10.4265 138.252 9.08912 140.432 9.04412C140.699 9.04412 140.968 9.04417 141.256 9.06792ZM120.654 17.1798C120.542 16.1099 120.498 15.3512 120.498 14.7275V9.31159C120.498 7.0605 118.829 5.65691 116.649 5.65691C115.981 5.65691 115.378 5.76812 114.824 6.0131C114.313 6.25809 113.779 6.61553 113.356 7.15049V1.08846H109.393V17.1785H113.356V10.4265C113.356 10.0691 113.2 8.15292 115.024 8.15292C116.271 8.15292 116.538 9.24539 116.538 10.3153V17.1785H120.654V17.1798ZM108.424 13.8363C108.424 12.0976 107.51 11.2515 106.242 10.784C103.862 9.93534 102.081 9.89279 102.081 8.99911C102.081 8.33291 102.46 7.95297 103.104 7.95297C103.615 7.95297 103.951 8.08542 104.172 8.30916C104.373 8.53289 104.46 8.88789 104.46 9.3791H108.221C108.133 6.43681 105.819 5.65562 103.282 5.65562C101.123 5.65562 98.3189 6.41308 98.3189 9.11163C98.3189 13.0339 104.66 12.0077 104.66 14.1038C104.66 14.8387 104.061 15.1712 103.282 15.1712C102.836 15.1712 102.48 14.9487 102.259 14.6362C102.035 14.3475 101.947 13.9238 102.014 13.5451H98.2327C98.1641 16.8873 100.635 17.4898 103.373 17.4898C105.931 17.4923 108.424 16.5561 108.424 13.8363ZM132.78 12.3439C132.804 8.30919 131.601 5.65691 127.128 5.65691C123.59 5.65691 121.477 7.84045 121.477 11.2514C121.477 15.4411 122.967 17.4923 127.329 17.4923C128.685 17.4923 129.887 17.1798 130.799 16.5561C131.778 15.9086 132.579 14.8837 132.69 13.4801H128.954C128.841 14.5037 128.241 15.195 127.062 15.195C125.548 15.195 125.237 13.7475 125.258 12.3439H132.78ZM128.997 10.1828H125.327C125.414 9.00039 125.683 7.798 127.152 7.73051C127.819 7.70801 128.264 8.02044 128.553 8.51041C128.865 8.97912 128.997 9.60288 128.997 10.2041V10.1828ZM97.2219 5.96939H93.2609V17.1798H97.2219V5.96939ZM92.0291 4.05325L92.9639 1.08968H82.3213V17.1798H86.5044V10.8502H89.8839L90.8149 7.88675H86.5044V4.05447L92.0291 4.05325ZM97.2194 4.04448L98.1604 1.08594H94.2468L93.3071 4.04448H97.2194Z" fill="black" fill-opacity="0.5"/>
<path d="M38.6616 21.8936H37.209V31.0154H38.6616V21.8936Z" fill="black" fill-opacity="0.5"/>
<path fill-rule="evenodd" clip-rule="evenodd" d="M135.001 31.1712C131.967 31.1712 129.697 29.4863 129.697 26.524C129.697 23.5255 132.244 21.7031 135.096 21.7031C136.115 21.7031 137.237 22.0381 137.954 22.5031L137.21 23.3905C136.566 23.0356 135.872 22.7993 135.113 22.7931C134.024 22.7843 132.952 23.1118 132.227 23.908C131.635 24.558 131.306 25.3979 131.306 26.5766C131.306 27.8565 131.7 28.5589 132.387 29.2389C133.082 29.9276 134.146 30.1163 135.191 30.1163C136.024 30.1163 136.849 29.8063 137.494 29.4651L138.202 30.3188C137.465 30.8137 136.209 31.1712 135.001 31.1712Z" fill="black" fill-opacity="0.5"/>
<path d="M121.181 21.8936H119.728V31.0154H121.181V21.8936Z" fill="black" fill-opacity="0.5"/>
<path fill-rule="evenodd" clip-rule="evenodd" d="M86.8849 22.9847H83.4917V31.0154H82.074V22.9847H78.707V21.8936H87.0434L86.8849 22.9847Z" fill="black" fill-opacity="0.5"/>
<path fill-rule="evenodd" clip-rule="evenodd" d="M11.2161 30.691C10.5223 31.036 9.65369 31.2048 8.64909 31.2048C7.35995 31.2048 6.05209 30.9185 4.96387 30.3823L5.56667 29.3499C6.62369 29.8773 7.62824 30.1148 8.74392 30.1148C9.47148 30.1148 9.95322 29.9886 10.4 29.7448C10.9204 29.4598 11.2011 29.0699 11.2011 28.5662C11.2011 27.805 10.6172 27.3288 9.20946 27L7.72683 26.6551C6.25299 26.3101 5.32582 25.3877 5.32582 24.3077C5.32582 22.7516 6.85205 21.6504 9.02849 21.6504C10.2977 21.6504 11.6542 21.9691 12.5228 22.5191L11.8675 23.4715C10.9777 22.9791 10.0505 22.7415 9.10458 22.7415C7.81045 22.7415 6.91319 23.2453 6.91319 24.1002C6.91319 24.7589 7.45978 25.1514 8.73394 25.4576L10.1029 25.7864C10.8804 25.9739 11.6692 26.3026 12.1184 26.7113C12.5465 27.1025 12.826 27.73 12.826 28.3412C12.8272 29.2724 12.232 30.1811 11.2161 30.691Z" fill="black" fill-opacity="0.5"/>
<path fill-rule="evenodd" clip-rule="evenodd" d="M69.5573 31.0147L65.9395 26.1488C65.2606 25.2376 64.115 23.459 64.115 23.459C64.115 23.459 64.2435 24.9989 64.2535 26.3488L64.2872 31.0147H62.8408V21.8916H64.5642L68.2207 26.8587C68.9321 27.8274 69.923 29.3611 69.923 29.3611C69.923 29.3611 69.7071 27.6787 69.6958 26.4701L69.6634 21.8916H71.096V31.0147H69.5573Z" fill="black" fill-opacity="0.5"/>
<path d="M95.9624 21.8936H94.5098V31.0154H95.9624V21.8936Z" fill="black" fill-opacity="0.5"/>
<path fill-rule="evenodd" clip-rule="evenodd" d="M111.801 22.9659H106.806V25.6658H111.032V26.7407H106.806V31.0154H105.353V21.8936H111.994L111.801 22.9659Z" fill="black" fill-opacity="0.5"/>
<path fill-rule="evenodd" clip-rule="evenodd" d="M48.0498 31.0154V21.8936H54.765L54.5716 22.9847H49.5036V25.702H53.8241V26.792H49.5212V29.8717H54.946V31.0154H48.0498Z" fill="black" fill-opacity="0.5"/>
<path fill-rule="evenodd" clip-rule="evenodd" d="M25.9806 31.1712C22.9455 31.1712 20.6768 29.4863 20.6768 26.524C20.6768 23.5255 23.2239 21.7031 26.0742 21.7031C27.0938 21.7031 28.2169 22.0381 28.932 22.5031L28.1882 23.3905C27.5455 23.0356 26.8504 22.7993 26.0929 22.7931C25.0035 22.7843 23.9302 23.1118 23.2051 23.908C22.6136 24.558 22.2842 25.3979 22.2842 26.5766C22.2842 27.8565 22.6785 28.5589 23.3648 29.2389C24.0612 29.9276 25.1245 30.1163 26.169 30.1163C27.0027 30.1163 27.8275 29.8063 28.474 29.4651L29.1804 30.3188C28.4428 30.8137 27.1886 31.1712 25.9806 31.1712Z" fill="black" fill-opacity="0.5"/>
</svg>
