<svg preserveAspectRatio="none" width="100%" height="100%" overflow="visible" style="display: block;" viewBox="0 0 60 60" fill="none" xmlns="http://www.w3.org/2000/svg">
<g id="Frame 1000007693" clip-path="url(#clip0_0_35)">
<circle id="Ellipse 59" cx="30" cy="30" r="30" fill="url(#paint0_radial_0_35)"/>
<rect id="Rectangle 30" x="29" y="2" width="1" height="56" fill="var(--fill-0, #F76A00)"/>
<rect id="Rectangle 31" x="58" y="31" width="1" height="56" transform="rotate(90 58 31)" fill="var(--fill-0, #F76A00)"/>
<circle id="Ellipse 60" cx="33" cy="27" r="2" fill="var(--fill-0, #F76A00)"/>
<circle id="Ellipse 69" cx="26" cy="28" r="2" fill="var(--fill-0, #F76A00)"/>
<circle id="Ellipse 61" cx="36.5" cy="28.5" r="1.5" fill="var(--fill-0, #F76A00)"/>
<circle id="Ellipse 62" cx="36.5" cy="24.5" r="1.5" fill="var(--fill-0, #F76A00)"/>
<circle id="Ellipse 63" cx="26.5" cy="23.5" r="1.5" fill="var(--fill-0, #F76A00)"/>
<circle id="Ellipse 72" cx="18.5" cy="28.5" r="1.5" fill="var(--fill-0, #F76A00)"/>
<circle id="Ellipse 64" cx="25" cy="37" r="2" fill="var(--fill-0, #F76A00)"/>
<circle id="Ellipse 66" cx="21.5" cy="40.5" r="1.5" fill="var(--fill-0, #F76A00)"/>
<circle id="Ellipse 71" cx="20.5" cy="34.5" r="1.5" fill="var(--fill-0, #F76A00)"/>
<circle id="Ellipse 67" cx="26.5" cy="41.5" r="1.5" fill="var(--fill-0, #F76A00)"/>
<circle id="Ellipse 65" cx="34" cy="36" r="3" fill="var(--fill-0, #F76A00)"/>
<circle id="Ellipse 68" cx="32.5" cy="41.5" r="1.5" fill="var(--fill-0, #F76A00)"/>
<circle id="Ellipse 70" cx="39.5" cy="36.5" r="1.5" fill="var(--fill-0, #F76A00)"/>
</g>
<defs>
<radialGradient id="paint0_radial_0_35" cx="0" cy="0" r="1" gradientUnits="userSpaceOnUse" gradientTransform="translate(30 30) rotate(90) scale(30)">
<stop stop-color="#F86902" stop-opacity="0.2"/>
<stop offset="1" stop-color="#F86902" stop-opacity="0"/>
</radialGradient>
<clipPath id="clip0_0_35">
<rect width="60" height="60" fill="white"/>
</clipPath>
</defs>
</svg>
