<svg width="30" height="30" viewBox="0 0 30 30" fill="none" xmlns="http://www.w3.org/2000/svg">
<path d="M19.8091 2.47632V7.4287M9.9043 2.47632V7.4287" stroke="#F76A00" stroke-width="1.85714" stroke-linecap="round" stroke-linejoin="round"/>
<path d="M16.0958 4.95239H13.6196C8.95045 4.95239 6.61589 4.95239 5.16536 6.40291C3.71484 7.85344 3.71484 10.188 3.71484 14.8572V17.3333C3.71484 22.0024 3.71484 24.3371 5.16536 25.7876C6.61589 27.2381 8.95045 27.2381 13.6196 27.2381H16.0958C20.7649 27.2381 23.0996 27.2381 24.55 25.7876C26.0006 24.3371 26.0006 22.0024 26.0006 17.3333V14.8572C26.0006 10.188 26.0006 7.85344 24.55 6.40291C23.0996 4.95239 20.7649 4.95239 16.0958 4.95239Z" fill="#F76A00" stroke="#F76A00" stroke-width="1.85714" stroke-linecap="round" stroke-linejoin="round"/>
<path d="M7.42969 8.91431H22.2868" stroke="white" stroke-width="1.85714" stroke-linecap="round" stroke-linejoin="round"/>
<path d="M8.91406 17.8286L13.3712 22.2858L20.7998 14.8572" stroke="white" stroke-width="1.85714" stroke-linecap="round" stroke-linejoin="round"/>
</svg>
