<svg preserveAspectRatio="none" width="100%" height="100%" overflow="visible" style="display: block;" viewBox="0 0 26.9758 27.2553" fill="none" xmlns="http://www.w3.org/2000/svg">
<g id="Mark">
<g id="Vector">
<path d="M17.3442 5.45932e-05C20.5382 -0.00189082 23.1285 2.6131 23.1285 5.83953C23.1285 9.06305 20.5427 11.6769 17.3516 11.6791L15.4147 11.6804V11.686H5.78049C4.71633 11.6861 3.85361 12.5575 3.85361 13.6325C3.85366 14.7075 4.71636 15.5789 5.78049 15.5789L17.3607 15.572C20.5546 15.5698 23.1451 18.1849 23.1451 21.4113C23.1451 24.6348 20.5591 27.2485 17.3681 27.2505L9.65319 27.2553C6.46061 27.2573 3.87145 24.6433 3.87145 21.4182H7.7252C7.7252 22.4924 8.5875 23.363 9.65082 23.3623L17.3658 23.3577C18.4294 23.357 19.2913 22.4857 19.2913 21.4113C19.2913 20.3359 18.4279 19.4643 17.3633 19.465L15.4147 19.4662V19.4719H5.78049C2.58803 19.4719 5.20648e-05 16.8575 0 13.6325C0 10.4075 2.58799 7.79307 5.78049 7.79306L17.3491 7.78616C18.4128 7.78539 19.2747 6.91406 19.2747 5.83953C19.2747 4.76404 18.4113 3.89242 17.3466 3.89304L9.65082 3.89768C8.58866 3.89835 7.7252 4.77049 7.7252 5.84657H3.87145C3.87145 2.62453 6.4558 0.00682598 9.64845 0.0048399L17.3442 5.45932e-05Z" fill="var(--fill-0, #F76A00)"/>
<path d="M26.9758 13.6324C26.9758 14.7074 26.1131 15.5789 25.0489 15.5789C23.9848 15.5789 23.1221 14.7074 23.1221 13.6324C23.1221 12.5574 23.9848 11.686 25.0489 11.686C26.1131 11.686 26.9758 12.5574 26.9758 13.6324Z" fill="var(--fill-0, #F76A00)"/>
</g>
</g>
</svg>
