<svg preserveAspectRatio="none" width="100%" height="100%" overflow="visible" style="display: block;" viewBox="0 0 114.719 25.8474" fill="none" xmlns="http://www.w3.org/2000/svg">
<g id="Slingshot">
<path id="Vector" d="M113.019 20.1952C111.415 20.1952 110.169 19.755 109.28 18.8746C108.409 17.9766 107.973 16.7176 107.973 15.0976V8.75869H105.515V5.66845H105.777C106.474 5.66845 107.014 5.48357 107.398 5.1138C107.781 4.74402 107.973 4.20697 107.973 3.50264V2.39333H111.398V5.66845H114.666V8.75869H111.398V14.9128C111.398 15.3882 111.476 15.7932 111.633 16.1277C111.808 16.4623 112.069 16.7176 112.418 16.8937C112.784 17.0698 113.246 17.1578 113.803 17.1578C113.925 17.1578 114.065 17.149 114.222 17.1314C114.396 17.1138 114.562 17.0962 114.719 17.0786V20.0367C114.474 20.072 114.196 20.1072 113.882 20.1424C113.568 20.1776 113.28 20.1952 113.019 20.1952Z" fill="var(--fill-0, #0D0C0C)"/>
<path id="Vector_2" d="M97.4985 20.3537C96.104 20.3537 94.8316 20.0279 93.6812 19.3764C92.5482 18.7249 91.6418 17.8357 90.962 16.7088C90.2996 15.5818 89.9684 14.2964 89.9684 12.8526C89.9684 11.4087 90.2996 10.1233 90.962 8.99638C91.6418 7.86945 92.5482 6.98024 93.6812 6.32873C94.8142 5.67723 96.0866 5.35148 97.4985 5.35148C98.8929 5.35148 100.157 5.67723 101.29 6.32873C102.423 6.98024 103.32 7.86945 103.983 8.99638C104.663 10.1057 105.002 11.3911 105.002 12.8526C105.002 14.2964 104.663 15.5818 103.983 16.7088C103.303 17.8357 102.397 18.7249 101.264 19.3764C100.131 20.0279 98.8755 20.3537 97.4985 20.3537ZM97.4985 17.1842C98.2654 17.1842 98.9365 16.9993 99.5117 16.6295C100.104 16.2598 100.566 15.7491 100.897 15.0976C101.246 14.4285 101.42 13.6802 101.42 12.8526C101.42 12.0074 101.246 11.2678 100.897 10.6339C100.566 9.98243 100.104 9.4718 99.5117 9.10202C98.9365 8.71464 98.2654 8.52096 97.4985 8.52096C96.7141 8.52096 96.0256 8.71464 95.4329 9.10202C94.8403 9.4718 94.3697 9.98243 94.0211 10.6339C93.6899 11.2678 93.5243 12.0074 93.5243 12.8526C93.5243 13.6802 93.6899 14.4285 94.0211 15.0976C94.3697 15.7491 94.8403 16.2598 95.4329 16.6295C96.0256 16.9993 96.7141 17.1842 97.4985 17.1842Z" fill="var(--fill-0, #0D0C0C)"/>
<path id="Vector_3" d="M75.4498 20.0367V0.0425723H78.875V8.49451L78.4044 7.99267C78.7355 7.12987 79.2759 6.47837 80.0254 6.03816C80.7924 5.58035 81.6813 5.35144 82.6923 5.35144C83.7382 5.35144 84.662 5.58035 85.4638 6.03816C86.2831 6.49598 86.9193 7.13868 87.3725 7.96626C87.8257 8.77624 88.0523 9.71828 88.0523 10.7924V20.0367H84.6271V11.6112C84.6271 10.9773 84.5051 10.4314 84.2611 9.97359C84.0171 9.51578 83.6772 9.16362 83.2414 8.9171C82.823 8.65298 82.3263 8.52092 81.7511 8.52092C81.1933 8.52092 80.6965 8.65298 80.2607 8.9171C79.825 9.16362 79.4851 9.51578 79.241 9.97359C78.997 10.4314 78.875 10.9773 78.875 11.6112V20.0367H75.4498Z" fill="var(--fill-0, #0D0C0C)"/>
<path id="Vector_4" d="M67.8365 20.3537C66.32 20.3537 64.9952 19.9927 63.8622 19.2708C62.7467 18.5312 61.9797 17.5364 61.5614 16.2862L64.1237 15.0448C64.4898 15.8548 64.9952 16.4887 65.6402 16.9465C66.3026 17.4043 67.0346 17.6332 67.8365 17.6332C68.464 17.6332 68.9607 17.4923 69.3268 17.2106C69.6928 16.9289 69.8759 16.5591 69.8759 16.1013C69.8759 15.8196 69.7974 15.5906 69.6405 15.4146C69.5011 15.2209 69.3006 15.0624 69.0392 14.9391C68.7952 14.7983 68.525 14.6838 68.2287 14.5958L65.9016 13.9355C64.6989 13.5833 63.7838 13.0463 63.1563 12.3243C62.5462 11.6024 62.2412 10.7484 62.2412 9.76233C62.2412 8.88192 62.4591 8.11597 62.8948 7.46446C63.348 6.79535 63.9668 6.27591 64.7512 5.90614C65.553 5.53637 66.4681 5.35148 67.4966 5.35148C68.8387 5.35148 70.024 5.67723 71.0524 6.32873C72.0808 6.98024 72.8129 7.89586 73.2487 9.07561L70.6341 10.317C70.3901 9.66549 69.9804 9.14604 69.4052 8.75866C68.83 8.37128 68.1851 8.17759 67.4704 8.17759C66.8952 8.17759 66.442 8.30966 66.1108 8.57378C65.7796 8.8379 65.614 9.18126 65.614 9.60386C65.614 9.86798 65.6838 10.0969 65.8232 10.2906C65.9627 10.4843 66.1544 10.6427 66.3984 10.766C66.6599 10.8893 66.9562 11.0037 67.2874 11.1094L69.5621 11.7961C70.73 12.1482 71.6276 12.6765 72.2551 13.3808C72.9001 14.0851 73.2226 14.9479 73.2226 15.9692C73.2226 16.832 72.996 17.598 72.5428 18.2671C72.0896 18.9186 71.4621 19.4292 70.6602 19.799C69.8584 20.1688 68.9172 20.3537 67.8365 20.3537Z" fill="var(--fill-0, #0D0C0C)"/>
<path id="Vector_5" d="M52.6754 25.8474C51.6121 25.8474 50.6273 25.6713 49.7209 25.3192C48.8145 24.967 48.0301 24.474 47.3677 23.8401C46.7228 23.2238 46.2522 22.4931 45.9559 21.6479L49.1457 20.4329C49.3548 21.102 49.7645 21.6391 50.3745 22.044C51.0021 22.4666 51.769 22.6779 52.6754 22.6779C53.3726 22.6779 53.9827 22.5459 54.5056 22.2818C55.046 22.0176 55.4643 21.6303 55.7606 21.1196C56.057 20.6266 56.2051 20.0279 56.2051 19.3236V16.0485L56.8588 16.8408C56.3707 17.7036 55.7171 18.3551 54.8978 18.7953C54.0786 19.2355 53.146 19.4556 52.1002 19.4556C50.7755 19.4556 49.5902 19.1475 48.5443 18.5312C47.4985 17.9149 46.6792 17.0697 46.0866 15.9956C45.4939 14.9215 45.1976 13.7154 45.1976 12.3771C45.1976 11.0213 45.4939 9.81516 46.0866 8.75866C46.6792 7.70217 47.4898 6.87459 48.5182 6.27591C49.5466 5.65962 50.7144 5.35148 52.0217 5.35148C53.085 5.35148 54.0176 5.58039 54.8194 6.0382C55.6386 6.4784 56.3184 7.1211 56.8588 7.9663L56.3881 8.8379V5.66843H59.6303V19.3236C59.6303 20.5738 59.3252 21.6919 58.7152 22.6779C58.1225 23.664 57.3033 24.4388 56.2574 25.0022C55.229 25.5657 54.035 25.8474 52.6754 25.8474ZM52.5185 16.2598C53.2506 16.2598 53.8868 16.1013 54.4272 15.7843C54.985 15.4498 55.4207 14.992 55.7345 14.4109C56.0483 13.8298 56.2051 13.1607 56.2051 12.4036C56.2051 11.664 56.0395 11.0037 55.7084 10.4226C55.3946 9.82396 54.9588 9.35734 54.401 9.02279C53.8607 8.68823 53.2332 8.52095 52.5185 8.52095C51.8039 8.52095 51.1589 8.68823 50.5837 9.02279C50.0085 9.35734 49.5553 9.82396 49.2241 10.4226C48.9104 11.0037 48.7535 11.664 48.7535 12.4036C48.7535 13.1431 48.9104 13.8034 49.2241 14.3845C49.5553 14.9656 49.9998 15.4234 50.5576 15.7579C51.1328 16.0925 51.7864 16.2598 52.5185 16.2598Z" fill="var(--fill-0, #0D0C0C)"/>
<path id="Vector_6" d="M30.6485 20.0367V5.66843H33.8644V8.49454L33.603 7.99271C33.9342 7.12991 34.4745 6.4784 35.224 6.0382C35.991 5.58039 36.88 5.35148 37.8909 5.35148C38.9368 5.35148 39.8606 5.58039 40.6624 6.0382C41.4817 6.49601 42.1179 7.13871 42.5711 7.9663C43.0243 8.77627 43.2509 9.71831 43.2509 10.7924V20.0367H39.8258V11.6112C39.8258 10.9773 39.7037 10.4314 39.4597 9.97363C39.2157 9.51582 38.8758 9.16365 38.44 8.91714C38.0217 8.65302 37.5249 8.52096 36.9497 8.52096C36.3919 8.52096 35.8951 8.65302 35.4594 8.91714C35.0236 9.16365 34.6837 9.51582 34.4397 9.97363C34.1956 10.4314 34.0736 10.9773 34.0736 11.6112V20.0367H30.6485Z" fill="var(--fill-0, #0D0C0C)"/>
<path id="Vector_7" d="M23.8215 20.0367V5.66839H27.2466V20.0367H23.8215ZM23.8215 3.48494V1.47647e-06H27.2466V3.48494H23.8215Z" fill="var(--fill-0, #0D0C0C)"/>
<path id="Vector_8" d="M16.9945 20.0367V0.0425723H20.4196V20.0367H16.9945Z" fill="var(--fill-0, #0D0C0C)"/>
<path id="Vector_9" d="M7.81769 20.3536C6.5801 20.3536 5.42968 20.1247 4.3664 19.6669C3.32056 19.2091 2.41416 18.5752 1.64721 17.7652C0.897684 16.9376 0.348615 15.978 6.68426e-07 14.8863L2.95451 13.5921C3.42514 14.719 4.10494 15.6082 4.99391 16.2597C5.88287 16.8936 6.88514 17.2106 8.00071 17.2106C8.62822 17.2106 9.16857 17.1137 9.62177 16.92C10.0924 16.7087 10.4497 16.427 10.6938 16.0748C10.9552 15.7227 11.0859 15.3001 11.0859 14.807C11.0859 14.226 10.9116 13.7506 10.563 13.3808C10.2318 12.9934 9.72635 12.6941 9.04655 12.4828L5.30766 11.2678C3.79119 10.7924 2.64947 10.0792 1.88252 9.1284C1.11557 8.17756 0.732092 7.05944 0.732092 5.77404C0.732092 4.64712 1.00227 3.65225 1.54262 2.78945C2.1004 1.92665 2.86736 1.25754 3.84348 0.782116C4.83703 0.289087 5.97003 0.0425723 7.24247 0.0425723C8.41033 0.0425723 9.48232 0.25387 10.4584 0.676467C11.4346 1.08146 12.2712 1.65372 12.9685 2.39327C13.6831 3.1152 14.2148 3.9692 14.5634 4.95526L11.635 6.27587C11.2515 5.28981 10.6763 4.53266 9.90938 4.00442C9.14242 3.45856 8.25346 3.18564 7.24247 3.18564C6.64983 3.18564 6.12691 3.29128 5.67371 3.50258C5.22051 3.69627 4.86318 3.978 4.60172 4.34778C4.35769 4.69994 4.23567 5.12254 4.23567 5.61557C4.23567 6.16142 4.40998 6.64564 4.75859 7.06824C5.10721 7.47323 5.63884 7.79018 6.3535 8.01909L9.93552 9.15481C11.4869 9.66545 12.646 10.3698 13.413 11.2678C14.1973 12.1658 14.5895 13.2751 14.5895 14.5957C14.5895 15.7227 14.3019 16.7175 13.7267 17.5803C13.1515 18.4431 12.3584 19.1211 11.3474 19.6141C10.3364 20.1071 9.15985 20.3536 7.81769 20.3536Z" fill="var(--fill-0, #0D0C0C)"/>
</g>
</svg>
