<svg preserveAspectRatio="none" width="100%" height="100%" overflow="visible" style="display: block;" viewBox="0 0 36.2756 20.3055" fill="none" xmlns="http://www.w3.org/2000/svg">
<g id="Bio">
<path id="Vector" d="M29.1638 20.3055C27.8391 20.3055 26.6364 19.9885 25.5557 19.3546C24.475 18.7031 23.6121 17.8227 22.9672 16.7134C22.3397 15.5865 22.026 14.3099 22.026 12.8836C22.026 11.475 22.3397 10.216 22.9672 9.10665C23.5947 7.99733 24.4401 7.12573 25.5034 6.49183C26.5841 5.84033 27.8042 5.51458 29.1638 5.51458C30.5234 5.51458 31.7349 5.83152 32.7981 6.46542C33.8789 7.09931 34.7242 7.97092 35.3343 9.08024C35.9618 10.1896 36.2756 11.4573 36.2756 12.8836C36.2756 14.3275 35.9531 15.6129 35.3082 16.7398C34.6632 17.8491 33.8004 18.7207 32.7197 19.3546C31.6564 19.9885 30.4711 20.3055 29.1638 20.3055ZM29.1638 18.3245C30.1051 18.3245 30.9505 18.0868 31.7 17.6114C32.467 17.136 33.0683 16.4845 33.5041 15.6569C33.9573 14.8293 34.1839 13.9049 34.1839 12.8836C34.1839 11.8623 33.9573 10.9467 33.5041 10.1367C33.0683 9.32675 32.467 8.68405 31.7 8.20863C30.9505 7.73321 30.1051 7.4955 29.1638 7.4955C28.2226 7.4955 27.3685 7.73321 26.6015 8.20863C25.852 8.68405 25.2506 9.32675 24.7974 10.1367C24.3442 10.9467 24.1176 11.8623 24.1176 12.8836C24.1176 13.9049 24.3442 14.8293 24.7974 15.6569C25.2506 16.4845 25.852 17.136 26.6015 17.6114C27.3685 18.0868 28.2226 18.3245 29.1638 18.3245Z" fill="var(--fill-0, #0D0C0C)"/>
<path id="Vector_2" d="M17.3012 19.9885V5.61848H19.2622V19.9885H17.3012ZM17.3012 3.4461V3.86568e-06H19.2622V3.4461H17.3012Z" fill="var(--fill-0, #0D0C0C)"/>
<path id="Vector_3" d="M0 19.9885V0H8.18373C9.28187 0 10.2318 0.214642 11.0337 0.643926C11.8529 1.05532 12.4804 1.63664 12.9162 2.38789C13.3694 3.13914 13.596 4.01559 13.596 5.01725C13.596 6.05469 13.3432 6.97586 12.8377 7.78076C12.3497 8.56778 11.6437 9.16699 10.7199 9.57839L10.6938 8.93446C11.4607 9.22065 12.1144 9.6231 12.6547 10.1418C13.2125 10.6605 13.6396 11.2687 13.9359 11.9663C14.2322 12.646 14.3804 13.3793 14.3804 14.1664C14.3804 15.955 13.8226 17.377 12.707 18.4324C11.6089 19.4698 10.1098 19.9885 8.20988 19.9885H0ZM2.09169 17.9762H8.20988C9.44746 17.9762 10.4323 17.6453 11.1644 16.9835C11.9139 16.3038 12.2887 15.3737 12.2887 14.1932C12.2887 13.0305 11.9139 12.1094 11.1644 11.4297C10.4323 10.7321 9.44746 10.3833 8.20988 10.3833H2.09169V17.9762ZM2.09169 8.45152H8.02685C9.0727 8.45152 9.90937 8.1385 10.5369 7.51246C11.1818 6.88642 11.5043 6.08152 11.5043 5.09774C11.5043 4.09608 11.1818 3.33589 10.5369 2.81717C9.90937 2.28057 9.0727 2.01227 8.02685 2.01227H2.09169V8.45152Z" fill="var(--fill-0, #0D0C0C)"/>
</g>
</svg>
