<svg width="200" height="30" viewBox="0 0 200 30" fill="none" xmlns="http://www.w3.org/2000/svg">
<path d="M182.306 23.9196C180.982 23.9196 179.779 23.6027 178.698 22.9688C177.617 22.3173 176.755 21.4369 176.11 20.3276C175.482 19.2006 175.168 17.924 175.168 16.4978C175.168 15.0891 175.482 13.8301 176.11 12.7208C176.737 11.6115 177.583 10.7399 178.646 10.106C179.727 9.45449 180.947 9.12874 182.306 9.12874C183.666 9.12874 184.877 9.44569 185.941 10.0796C187.021 10.7135 187.867 11.5851 188.477 12.6944C189.104 13.8037 189.418 15.0715 189.418 16.4978C189.418 17.9416 189.096 19.227 188.451 20.354C187.806 21.4633 186.943 22.3349 185.862 22.9688C184.799 23.6027 183.614 23.9196 182.306 23.9196ZM182.306 21.9387C183.248 21.9387 184.093 21.701 184.842 21.2256C185.609 20.7502 186.211 20.0986 186.647 19.2711C187.1 18.4435 187.326 17.519 187.326 16.4978C187.326 15.4765 187.1 14.5609 186.647 13.7509C186.211 12.9409 185.609 12.2982 184.842 11.8228C184.093 11.3474 183.248 11.1097 182.306 11.1097C181.365 11.1097 180.511 11.3474 179.744 11.8228C178.994 12.2982 178.393 12.9409 177.94 13.7509C177.487 14.5609 177.26 15.4765 177.26 16.4978C177.26 17.519 177.487 18.4435 177.94 19.2711C178.393 20.0986 178.994 20.7502 179.744 21.2256C180.511 21.701 181.365 21.9387 182.306 21.9387Z" fill="white"/>
<path d="M170.444 23.6027V9.23264H172.405V23.6027H170.444ZM170.444 7.06027V3.61417H172.405V7.06027H170.444Z" fill="white"/>
<path d="M153.142 23.6027V3.61416H161.326C162.424 3.61416 163.374 3.82881 164.176 4.25809C164.995 4.66949 165.623 5.25081 166.059 6.00205C166.512 6.7533 166.738 7.62975 166.738 8.63142C166.738 9.66885 166.486 10.59 165.98 11.3949C165.492 12.1819 164.786 12.7812 163.862 13.1926L163.836 12.5486C164.603 12.8348 165.257 13.2373 165.797 13.756C166.355 14.2747 166.782 14.8829 167.078 15.5804C167.375 16.2601 167.523 16.9935 167.523 17.7805C167.523 19.5692 166.965 20.9912 165.849 22.0465C164.751 23.084 163.252 23.6027 161.352 23.6027H153.142ZM155.234 21.5904H161.352C162.59 21.5904 163.575 21.2595 164.307 20.5977C165.056 19.918 165.431 18.9879 165.431 17.8073C165.431 16.6447 165.056 15.7235 164.307 15.0438C163.575 14.3463 162.59 13.9975 161.352 13.9975H155.234V21.5904ZM155.234 12.0657H161.169C162.215 12.0657 163.052 11.7527 163.679 11.1266C164.324 10.5006 164.647 9.69568 164.647 8.71191C164.647 7.71024 164.324 6.95006 163.679 6.43134C163.052 5.89473 162.215 5.62643 161.169 5.62643H155.234V12.0657Z" fill="white"/>
<path d="M148.125 23.7611C146.522 23.7611 145.275 23.3209 144.386 22.4405C143.515 21.5424 143.079 20.2835 143.079 18.6635V12.3245H140.621V9.23431H140.883C141.58 9.23431 142.12 9.04942 142.504 8.67965C142.887 8.30988 143.079 7.77283 143.079 7.0685V5.95919H146.504V9.23431H149.772V12.3245H146.504V18.4786C146.504 18.954 146.583 19.359 146.74 19.6936C146.914 20.0281 147.175 20.2835 147.524 20.4595C147.89 20.6356 148.352 20.7237 148.91 20.7237C149.032 20.7237 149.171 20.7149 149.328 20.6972C149.502 20.6796 149.668 20.662 149.825 20.6444V23.6026C149.581 23.6378 149.302 23.673 148.988 23.7082C148.674 23.7435 148.387 23.7611 148.125 23.7611Z" fill="white"/>
<path d="M132.605 23.9195C131.21 23.9195 129.938 23.5938 128.787 22.9423C127.654 22.2908 126.748 21.4015 126.068 20.2746C125.406 19.1477 125.075 17.8623 125.075 16.4184C125.075 14.9746 125.406 13.6892 126.068 12.5622C126.748 11.4353 127.654 10.5461 128.787 9.89459C129.92 9.24309 131.193 8.91734 132.605 8.91734C133.999 8.91734 135.263 9.24309 136.396 9.89459C137.529 10.5461 138.427 11.4353 139.089 12.5622C139.769 13.6715 140.109 14.9569 140.109 16.4184C140.109 17.8623 139.769 19.1477 139.089 20.2746C138.409 21.4015 137.503 22.2908 136.37 22.9423C135.237 23.5938 133.982 23.9195 132.605 23.9195ZM132.605 20.75C133.372 20.75 134.043 20.5652 134.618 20.1954C135.211 19.8256 135.673 19.315 136.004 18.6635C136.352 17.9944 136.527 17.246 136.527 16.4184C136.527 15.5732 136.352 14.8337 136.004 14.1998C135.673 13.5483 135.211 13.0377 134.618 12.6679C134.043 12.2805 133.372 12.0868 132.605 12.0868C131.82 12.0868 131.132 12.2805 130.539 12.6679C129.947 13.0377 129.476 13.5483 129.127 14.1998C128.796 14.8337 128.631 15.5732 128.631 16.4184C128.631 17.246 128.796 17.9944 129.127 18.6635C129.476 19.315 129.947 19.8256 130.539 20.1954C131.132 20.5652 131.82 20.75 132.605 20.75Z" fill="white"/>
<path d="M110.556 23.6025V3.60843H113.981V12.0604L113.511 11.5585C113.842 10.6957 114.382 10.0442 115.132 9.60402C115.899 9.14621 116.788 8.9173 117.799 8.9173C118.844 8.9173 119.768 9.14621 120.57 9.60402C121.389 10.0618 122.026 10.7045 122.479 11.5321C122.932 12.3421 123.159 13.2841 123.159 14.3582V23.6025H119.733V15.177C119.733 14.5431 119.611 13.9973 119.367 13.5395C119.123 13.0816 118.783 12.7295 118.348 12.483C117.929 12.2188 117.433 12.0868 116.857 12.0868C116.3 12.0868 115.803 12.2188 115.367 12.483C114.931 12.7295 114.591 13.0816 114.347 13.5395C114.103 13.9973 113.981 14.5431 113.981 15.177V23.6025H110.556Z" fill="white"/>
<path d="M102.943 23.9195C101.426 23.9195 100.101 23.5585 98.9685 22.8366C97.8529 22.0971 97.086 21.1022 96.6676 19.852L99.23 18.6106C99.596 19.4206 100.101 20.0545 100.746 20.5123C101.409 20.9701 102.141 21.1991 102.943 21.1991C103.57 21.1991 104.067 21.0582 104.433 20.7765C104.799 20.4947 104.982 20.125 104.982 19.6671C104.982 19.3854 104.904 19.1565 104.747 18.9804C104.607 18.7867 104.407 18.6283 104.145 18.505C103.901 18.3641 103.631 18.2497 103.335 18.1616L101.008 17.5013C99.8052 17.1492 98.8901 16.6121 98.2625 15.8902C97.6525 15.1682 97.3474 14.3142 97.3474 13.3282C97.3474 12.4478 97.5653 11.6818 98.0011 11.0303C98.4543 10.3612 99.0731 9.84177 99.8575 9.47199C100.659 9.10222 101.574 8.91734 102.603 8.91734C103.945 8.91734 105.13 9.24309 106.159 9.89459C107.187 10.5461 107.919 11.4617 108.355 12.6415L105.74 13.8828C105.496 13.2313 105.087 12.7119 104.511 12.3245C103.936 11.9371 103.291 11.7435 102.577 11.7435C102.001 11.7435 101.548 11.8755 101.217 12.1396C100.886 12.4038 100.72 12.7471 100.72 13.1697C100.72 13.4338 100.79 13.6627 100.929 13.8564C101.069 14.0501 101.261 14.2086 101.505 14.3319C101.766 14.4551 102.062 14.5696 102.394 14.6752L104.668 15.3619C105.836 15.7141 106.734 16.2423 107.361 16.9467C108.006 17.651 108.329 18.5138 108.329 19.5351C108.329 20.3979 108.102 21.1638 107.649 21.8329C107.196 22.4844 106.568 22.9951 105.766 23.3649C104.965 23.7346 104.023 23.9195 102.943 23.9195Z" fill="white"/>
<path d="M87.7817 29.4133C86.7184 29.4133 85.7335 29.2372 84.8271 28.885C83.9207 28.5329 83.1364 28.0398 82.474 27.4059C81.8291 26.7897 81.3584 26.0589 81.0621 25.2137L84.2519 23.9988C84.4611 24.6679 84.8707 25.2049 85.4808 25.6099C86.1083 26.0325 86.8753 26.2438 87.7817 26.2438C88.4789 26.2438 89.089 26.1117 89.6119 25.8476C90.1522 25.5835 90.5706 25.1961 90.8669 24.6855C91.1632 24.1924 91.3114 23.5938 91.3114 22.8894V19.6143L91.965 20.4067C91.477 21.2695 90.8233 21.921 90.0041 22.3612C89.1848 22.8014 88.2523 23.0215 87.2064 23.0215C85.8817 23.0215 84.6964 22.7134 83.6506 22.0971C82.6047 21.4808 81.7855 20.6356 81.1928 19.5615C80.6002 18.4874 80.3039 17.2812 80.3039 15.943C80.3039 14.5872 80.6002 13.381 81.1928 12.3245C81.7855 11.268 82.596 10.4404 83.6244 9.84177C84.6528 9.22548 85.8207 8.91734 87.128 8.91734C88.1913 8.91734 89.1238 9.14624 89.9256 9.60406C90.7449 10.0443 91.4247 10.687 91.965 11.5322L91.4944 12.4038V9.23428H94.7365V22.8894C94.7365 24.1396 94.4315 25.2577 93.8214 26.2438C93.2288 27.2299 92.4095 28.0046 91.3637 28.5681C90.3353 29.1315 89.1412 29.4133 87.7817 29.4133ZM87.6248 19.8256C88.3569 19.8256 88.9931 19.6671 89.5334 19.3502C90.0912 19.0156 90.527 18.5578 90.8407 17.9768C91.1545 17.3957 91.3114 16.7266 91.3114 15.9694C91.3114 15.2299 91.1458 14.5696 90.8146 13.9885C90.5008 13.3898 90.0651 12.9232 89.5073 12.5886C88.9669 12.2541 88.3394 12.0868 87.6248 12.0868C86.9101 12.0868 86.2652 12.2541 85.69 12.5886C85.1147 12.9232 84.6615 13.3898 84.3304 13.9885C84.0166 14.5696 83.8597 15.2299 83.8597 15.9694C83.8597 16.709 84.0166 17.3693 84.3304 17.9503C84.6615 18.5314 85.106 18.9892 85.6638 19.3238C86.239 19.6583 86.8927 19.8256 87.6248 19.8256Z" fill="white"/>
<path d="M65.7547 23.6026V9.23428H68.9707V12.0604L68.7092 11.5586C69.0404 10.6958 69.5808 10.0443 70.3303 9.60406C71.0972 9.14624 71.9862 8.91734 72.9972 8.91734C74.043 8.91734 74.9669 9.14624 75.7687 9.60406C76.5879 10.0619 77.2241 10.7046 77.6773 11.5322C78.1305 12.3421 78.3571 13.2842 78.3571 14.3583V23.6026H74.932V15.1771C74.932 14.5432 74.81 13.9973 74.566 13.5395C74.3219 13.0817 73.982 12.7295 73.5463 12.483C73.1279 12.2189 72.6311 12.0868 72.0559 12.0868C71.4981 12.0868 71.0014 12.2189 70.5656 12.483C70.1298 12.7295 69.7899 13.0817 69.5459 13.5395C69.3019 13.9973 69.1799 14.5432 69.1799 15.1771V23.6026H65.7547Z" fill="white"/>
<path d="M58.9277 23.6025V9.23425H62.3529V23.6025H58.9277ZM58.9277 7.05079V3.56586H62.3529V7.05079H58.9277Z" fill="white"/>
<path d="M52.1007 23.6025V3.60843H55.5259V23.6025H52.1007Z" fill="white"/>
<path d="M42.9239 23.9195C41.6864 23.9195 40.5359 23.6906 39.4726 23.2328C38.4268 22.7749 37.5204 22.1411 36.7535 21.3311C36.0039 20.5035 35.4549 19.5438 35.1062 18.4521L38.0608 17.1579C38.5314 18.2849 39.2112 19.1741 40.1002 19.8256C40.9891 20.4595 41.9914 20.7764 43.107 20.7764C43.7345 20.7764 44.2748 20.6796 44.728 20.4859C45.1986 20.2746 45.556 19.9929 45.8 19.6407C46.0615 19.2885 46.1922 18.8659 46.1922 18.3729C46.1922 17.7918 46.0179 17.3164 45.6693 16.9466C45.3381 16.5593 44.8326 16.2599 44.1528 16.0486L40.4139 14.8337C38.8974 14.3582 37.7557 13.6451 36.9888 12.6943C36.2218 11.7434 35.8383 10.6253 35.8383 9.3399C35.8383 8.21297 36.1085 7.21811 36.6489 6.35531C37.2067 5.49251 37.9736 4.82339 38.9497 4.34797C39.9433 3.85494 41.0763 3.60843 42.3487 3.60843C43.5166 3.60843 44.5886 3.81973 45.5647 4.24232C46.5408 4.64731 47.3775 5.21958 48.0747 5.95912C48.7894 6.68106 49.321 7.53506 49.6696 8.52111L46.7413 9.84173C46.3578 8.85567 45.7826 8.09852 45.0156 7.57027C44.2487 7.02442 43.3597 6.75149 42.3487 6.75149C41.7561 6.75149 41.2332 6.85714 40.78 7.06844C40.3268 7.26213 39.9694 7.54386 39.708 7.91363C39.4639 8.2658 39.3419 8.68839 39.3419 9.18142C39.3419 9.72728 39.5162 10.2115 39.8648 10.6341C40.2135 11.0391 40.7451 11.356 41.4598 11.5849L45.0418 12.7207C46.5931 13.2313 47.7522 13.9356 48.5192 14.8337C49.3036 15.7317 49.6958 16.841 49.6958 18.1616C49.6958 19.2885 49.4082 20.2834 48.833 21.1462C48.2577 22.009 47.4646 22.6869 46.4537 23.1799C45.4427 23.673 44.2661 23.9195 42.9239 23.9195Z" fill="white"/>
<path d="M17.3442 5.44905e-05C20.5382 -0.00189093 23.1285 2.6131 23.1285 5.83953C23.1285 9.06305 20.5427 11.6769 17.3516 11.6791L15.4147 11.6804V11.686H5.78049C4.71633 11.6861 3.85361 12.5575 3.85361 13.6325C3.85366 14.7075 4.71636 15.5789 5.78049 15.5789L17.3607 15.572C20.5546 15.5698 23.1451 18.1849 23.1451 21.4113C23.1451 24.6348 20.5591 27.2485 17.3681 27.2505L9.65319 27.2553C6.46061 27.2573 3.87145 24.6433 3.87145 21.4182H7.7252C7.7252 22.4924 8.5875 23.363 9.65082 23.3623L17.3658 23.3577C18.4294 23.357 19.2913 22.4857 19.2913 21.4113C19.2913 20.3359 18.4279 19.4643 17.3633 19.465L15.4147 19.4662V19.4719H5.78049C2.58803 19.4719 5.20648e-05 16.8575 0 13.6325C0 10.4075 2.58799 7.79307 5.78049 7.79306L17.3491 7.78616C18.4128 7.78539 19.2747 6.91406 19.2747 5.83953C19.2747 4.76404 18.4113 3.89242 17.3466 3.89304L9.65082 3.89768C8.58866 3.89835 7.7252 4.77049 7.7252 5.84657H3.87145C3.87145 2.62453 6.4558 0.00682588 9.64845 0.00483979L17.3442 5.44905e-05Z" fill="#F76A00"/>
<path d="M26.9758 13.6324C26.9758 14.7074 26.1131 15.5789 25.0489 15.5789C23.9848 15.5789 23.1221 14.7074 23.1221 13.6324C23.1221 12.5574 23.9848 11.686 25.0489 11.686C26.1131 11.686 26.9758 12.5574 26.9758 13.6324Z" fill="#F76A00"/>
<path d="M191.256 9.06521V4.43106H189.622V3.55391H193.865V4.43106H192.239V9.06521H191.256Z" fill="white"/>
<path d="M194.39 9.06521V3.55391H195.714L197.196 7.82323L198.678 3.55391H200.001V9.06521H199.018V5.26164L197.665 9.05745H196.727L195.373 5.26164V9.06521H194.39Z" fill="white"/>
</svg>
