<svg width="200" height="30" viewBox="0 0 200 30" fill="none" xmlns="http://www.w3.org/2000/svg">
<path d="M182.306 23.9196C180.982 23.9196 179.779 23.6027 178.698 22.9688C177.617 22.3173 176.755 21.4369 176.11 20.3276C175.482 19.2006 175.168 17.924 175.168 16.4978C175.168 15.0891 175.482 13.8301 176.11 12.7208C176.737 11.6115 177.583 10.7399 178.646 10.106C179.727 9.4545 180.947 9.12875 182.306 9.12875C183.666 9.12875 184.877 9.4457 185.941 10.0796C187.021 10.7135 187.867 11.5851 188.477 12.6944C189.104 13.8037 189.418 15.0715 189.418 16.4978C189.418 17.9417 189.096 19.2271 188.451 20.354C187.806 21.4633 186.943 22.3349 185.862 22.9688C184.799 23.6027 183.614 23.9196 182.306 23.9196ZM182.306 21.9387C183.248 21.9387 184.093 21.701 184.843 21.2256C185.609 20.7502 186.211 20.0987 186.647 19.2711C187.1 18.4435 187.326 17.5191 187.326 16.4978C187.326 15.4765 187.1 14.5609 186.647 13.7509C186.211 12.9409 185.609 12.2982 184.843 11.8228C184.093 11.3474 183.248 11.1097 182.306 11.1097C181.365 11.1097 180.511 11.3474 179.744 11.8228C178.995 12.2982 178.393 12.9409 177.94 13.7509C177.487 14.5609 177.26 15.4765 177.26 16.4978C177.26 17.5191 177.487 18.4435 177.94 19.2711C178.393 20.0987 178.995 20.7502 179.744 21.2256C180.511 21.701 181.365 21.9387 182.306 21.9387Z" fill="#0D0C0C"/>
<path d="M170.444 23.6027V9.23264H172.405V23.6027H170.444ZM170.444 7.06027V3.61417H172.405V7.06027H170.444Z" fill="#0D0C0C"/>
<path d="M153.143 23.6027V3.61417H161.326C162.424 3.61417 163.374 3.82881 164.176 4.25809C164.995 4.66949 165.623 5.25081 166.059 6.00206C166.512 6.7533 166.739 7.62976 166.739 8.63142C166.739 9.66885 166.486 10.59 165.98 11.3949C165.492 12.1819 164.786 12.7812 163.862 13.1926L163.836 12.5486C164.603 12.8348 165.257 13.2373 165.797 13.756C166.355 14.2747 166.782 14.8829 167.078 15.5804C167.375 16.2601 167.523 16.9935 167.523 17.7805C167.523 19.5692 166.965 20.9912 165.85 22.0465C164.751 23.084 163.252 23.6027 161.352 23.6027H153.143ZM155.234 21.5904H161.352C162.59 21.5904 163.575 21.2595 164.307 20.5977C165.056 19.918 165.431 18.9879 165.431 17.8074C165.431 16.6447 165.056 15.7235 164.307 15.0438C163.575 14.3463 162.59 13.9975 161.352 13.9975H155.234V21.5904ZM155.234 12.0657H161.169C162.215 12.0657 163.052 11.7527 163.679 11.1266C164.324 10.5006 164.647 9.69568 164.647 8.71191C164.647 7.71025 164.324 6.95006 163.679 6.43134C163.052 5.89474 162.215 5.62643 161.169 5.62643H155.234V12.0657Z" fill="#0D0C0C"/>
<path d="M148.126 23.7611C146.522 23.7611 145.276 23.3209 144.387 22.4405C143.515 21.5424 143.079 20.2835 143.079 18.6635V12.3246H140.622V9.23432H140.883C141.58 9.23432 142.121 9.04944 142.504 8.67966C142.888 8.30989 143.079 7.77284 143.079 7.06851V5.9592H146.504V9.23432H149.773V12.3246H146.504V18.4786C146.504 18.954 146.583 19.359 146.74 19.6936C146.914 20.0281 147.176 20.2835 147.524 20.4595C147.89 20.6356 148.352 20.7237 148.91 20.7237C149.032 20.7237 149.171 20.7149 149.328 20.6973C149.503 20.6796 149.668 20.662 149.825 20.6444V23.6026C149.581 23.6378 149.302 23.673 148.988 23.7083C148.675 23.7435 148.387 23.7611 148.126 23.7611Z" fill="#0D0C0C"/>
<path d="M132.605 23.9195C131.21 23.9195 129.938 23.5938 128.787 22.9423C127.654 22.2908 126.748 21.4015 126.068 20.2746C125.406 19.1477 125.075 17.8623 125.075 16.4184C125.075 14.9745 125.406 13.6891 126.068 12.5622C126.748 11.4353 127.654 10.5461 128.787 9.89458C129.92 9.24308 131.193 8.91733 132.605 8.91733C133.999 8.91733 135.263 9.24308 136.396 9.89458C137.529 10.5461 138.427 11.4353 139.089 12.5622C139.769 13.6715 140.109 14.9569 140.109 16.4184C140.109 17.8623 139.769 19.1477 139.089 20.2746C138.409 21.4015 137.503 22.2908 136.37 22.9423C135.237 23.5938 133.982 23.9195 132.605 23.9195ZM132.605 20.75C133.372 20.75 134.043 20.5651 134.618 20.1954C135.211 19.8256 135.673 19.315 136.004 18.6635C136.352 17.9944 136.527 17.246 136.527 16.4184C136.527 15.5732 136.352 14.8337 136.004 14.1998C135.673 13.5483 135.211 13.0376 134.618 12.6679C134.043 12.2805 133.372 12.0868 132.605 12.0868C131.82 12.0868 131.132 12.2805 130.539 12.6679C129.947 13.0376 129.476 13.5483 129.127 14.1998C128.796 14.8337 128.631 15.5732 128.631 16.4184C128.631 17.246 128.796 17.9944 129.127 18.6635C129.476 19.315 129.947 19.8256 130.539 20.1954C131.132 20.5651 131.82 20.75 132.605 20.75Z" fill="#0D0C0C"/>
<path d="M110.556 23.6025V3.60843H113.981V12.0604L113.511 11.5585C113.842 10.6957 114.382 10.0442 115.132 9.60402C115.899 9.14621 116.788 8.9173 117.799 8.9173C118.844 8.9173 119.768 9.14621 120.57 9.60402C121.389 10.0618 122.026 10.7045 122.479 11.5321C122.932 12.3421 123.159 13.2841 123.159 14.3582V23.6025H119.733V15.177C119.733 14.5431 119.611 13.9973 119.367 13.5395C119.123 13.0816 118.783 12.7295 118.348 12.483C117.929 12.2188 117.433 12.0868 116.857 12.0868C116.3 12.0868 115.803 12.2188 115.367 12.483C114.931 12.7295 114.591 13.0816 114.347 13.5395C114.103 13.9973 113.981 14.5431 113.981 15.177V23.6025H110.556Z" fill="#0D0C0C"/>
<path d="M102.943 23.9195C101.427 23.9195 100.102 23.5585 98.9688 22.8366C97.8533 22.0971 97.0863 21.1022 96.668 19.852L99.2303 18.6106C99.5963 19.4206 100.102 20.0545 100.747 20.5123C101.409 20.9701 102.141 21.199 102.943 21.199C103.571 21.199 104.067 21.0582 104.433 20.7764C104.799 20.4947 104.982 20.1249 104.982 19.6671C104.982 19.3854 104.904 19.1565 104.747 18.9804C104.608 18.7867 104.407 18.6282 104.146 18.505C103.902 18.3641 103.632 18.2497 103.335 18.1616L101.008 17.5013C99.8055 17.1492 98.8904 16.6121 98.2629 15.8902C97.6528 15.1682 97.3478 14.3142 97.3478 13.3282C97.3478 12.4478 97.5656 11.6818 98.0014 11.0303C98.4546 10.3612 99.0734 9.84176 99.8578 9.47199C100.66 9.10221 101.575 8.91733 102.603 8.91733C103.945 8.91733 105.131 9.24308 106.159 9.89458C107.187 10.5461 107.92 11.4617 108.355 12.6415L105.741 13.8828C105.497 13.2313 105.087 12.7119 104.512 12.3245C103.937 11.9371 103.292 11.7434 102.577 11.7434C102.002 11.7434 101.549 11.8755 101.217 12.1396C100.886 12.4038 100.721 12.7471 100.721 13.1697C100.721 13.4338 100.79 13.6627 100.93 13.8564C101.069 14.0501 101.261 14.2086 101.505 14.3318C101.766 14.4551 102.063 14.5696 102.394 14.6752L104.669 15.3619C105.837 15.7141 106.734 16.2423 107.362 16.9467C108.007 17.651 108.329 18.5138 108.329 19.5351C108.329 20.3979 108.103 21.1638 107.649 21.8329C107.196 22.4844 106.569 22.9951 105.767 23.3649C104.965 23.7346 104.024 23.9195 102.943 23.9195Z" fill="#0D0C0C"/>
<path d="M87.782 29.4133C86.7187 29.4133 85.7339 29.2372 84.8275 28.885C83.9211 28.5329 83.1367 28.0398 82.4743 27.4059C81.8294 26.7896 81.3588 26.0589 81.0624 25.2137L84.2523 23.9987C84.4614 24.6679 84.8711 25.2049 85.4811 25.6099C86.1086 26.0325 86.8756 26.2438 87.782 26.2438C88.4792 26.2438 89.0893 26.1117 89.6122 25.8476C90.1526 25.5835 90.5709 25.1961 90.8672 24.6855C91.1635 24.1924 91.3117 23.5938 91.3117 22.8894V19.6143L91.9654 20.4067C91.4773 21.2695 90.8236 21.921 90.0044 22.3612C89.1852 22.8014 88.2526 23.0215 87.2068 23.0215C85.882 23.0215 84.6967 22.7133 83.6509 22.0971C82.6051 21.4808 81.7858 20.6356 81.1932 19.5615C80.6005 18.4874 80.3042 17.2812 80.3042 15.943C80.3042 14.5872 80.6005 13.381 81.1932 12.3245C81.7858 11.268 82.5963 10.4404 83.6248 9.84176C84.6532 9.22547 85.821 8.91733 87.1283 8.91733C88.1916 8.91733 89.1242 9.14623 89.926 9.60405C90.7452 10.0443 91.425 10.687 91.9654 11.5321L91.4947 12.4038V9.23428H94.7369V22.8894C94.7369 24.1396 94.4318 25.2577 93.8217 26.2438C93.2291 27.2298 92.4098 28.0046 91.364 28.5681C90.3356 29.1315 89.1416 29.4133 87.782 29.4133ZM87.6251 19.8256C88.3572 19.8256 88.9934 19.6671 89.5338 19.3502C90.0916 19.0156 90.5273 18.5578 90.8411 17.9767C91.1548 17.3957 91.3117 16.7266 91.3117 15.9694C91.3117 15.2299 91.1461 14.5696 90.8149 13.9885C90.5012 13.3898 90.0654 12.9232 89.5076 12.5886C88.9673 12.2541 88.3398 12.0868 87.6251 12.0868C86.9104 12.0868 86.2655 12.2541 85.6903 12.5886C85.1151 12.9232 84.6619 13.3898 84.3307 13.9885C84.0169 14.5696 83.8601 15.2299 83.8601 15.9694C83.8601 16.709 84.0169 17.3693 84.3307 17.9503C84.6619 18.5314 85.1064 18.9892 85.6642 19.3238C86.2394 19.6583 86.893 19.8256 87.6251 19.8256Z" fill="#0D0C0C"/>
<path d="M65.7549 23.6026V9.23428H68.9709V12.0604L68.7094 11.5586C69.0406 10.6958 69.5809 10.0443 70.3305 9.60405C71.0974 9.14623 71.9864 8.91733 72.9974 8.91733C74.0432 8.91733 74.967 9.14623 75.7688 9.60405C76.5881 10.0619 77.2243 10.7046 77.6775 11.5321C78.1307 12.3421 78.3573 13.2842 78.3573 14.3583V23.6026H74.9322V15.177C74.9322 14.5431 74.8102 13.9973 74.5661 13.5395C74.3221 13.0817 73.9822 12.7295 73.5464 12.483C73.1281 12.2189 72.6313 12.0868 72.0561 12.0868C71.4983 12.0868 71.0015 12.2189 70.5658 12.483C70.13 12.7295 69.7901 13.0817 69.5461 13.5395C69.302 13.9973 69.18 14.5431 69.18 15.177V23.6026H65.7549Z" fill="#0D0C0C"/>
<path d="M58.9277 23.6025V9.23424H62.3529V23.6025H58.9277ZM58.9277 7.05079V3.56586H62.3529V7.05079H58.9277Z" fill="#0D0C0C"/>
<path d="M52.1011 23.6025V3.60843H55.5262V23.6025H52.1011Z" fill="#0D0C0C"/>
<path d="M42.9241 23.9195C41.6865 23.9195 40.5361 23.6906 39.4728 23.2328C38.427 22.7749 37.5206 22.1411 36.7537 21.3311C36.0041 20.5035 35.4551 19.5438 35.1064 18.4521L38.061 17.1579C38.5316 18.2849 39.2114 19.1741 40.1004 19.8256C40.9893 20.4595 41.9916 20.7764 43.1072 20.7764C43.7347 20.7764 44.275 20.6796 44.7282 20.4859C45.1988 20.2746 45.5562 19.9929 45.8002 19.6407C46.0617 19.2885 46.1924 18.8659 46.1924 18.3729C46.1924 17.7918 46.0181 17.3164 45.6695 16.9466C45.3383 16.5593 44.8328 16.2599 44.153 16.0486L40.4141 14.8337C38.8976 14.3582 37.7559 13.6451 36.989 12.6943C36.222 11.7434 35.8385 10.6253 35.8385 9.3399C35.8385 8.21297 36.1087 7.21811 36.6491 6.35531C37.2068 5.49251 37.9738 4.82339 38.9499 4.34797C39.9435 3.85494 41.0765 3.60843 42.3489 3.60843C43.5168 3.60843 44.5888 3.81973 45.5649 4.24232C46.541 4.64731 47.3777 5.21958 48.0749 5.95912C48.7896 6.68106 49.3212 7.53506 49.6698 8.52111L46.7415 9.84173C46.358 8.85567 45.7828 8.09852 45.0158 7.57027C44.2489 7.02442 43.3599 6.75149 42.3489 6.75149C41.7563 6.75149 41.2333 6.85714 40.7802 7.06844C40.327 7.26213 39.9696 7.54386 39.7082 7.91363C39.4641 8.2658 39.3421 8.68839 39.3421 9.18142C39.3421 9.72728 39.5164 10.2115 39.865 10.6341C40.2137 11.0391 40.7453 11.356 41.4599 11.5849L45.042 12.7207C46.5933 13.2313 47.7524 13.9356 48.5194 14.8337C49.3038 15.7317 49.696 16.841 49.696 18.1616C49.696 19.2885 49.4084 20.2834 48.8332 21.1462C48.2579 22.009 47.4648 22.6869 46.4539 23.1799C45.4429 23.673 44.2663 23.9195 42.9241 23.9195Z" fill="#0D0C0C"/>
<path d="M17.3442 6.21199e-05C20.5382 -0.0018833 23.1285 2.61311 23.1285 5.83954C23.1285 9.06306 20.5427 11.677 17.3516 11.6792L15.4147 11.6804V11.6861H5.78049C4.71633 11.6861 3.85361 12.5575 3.85361 13.6325C3.85366 14.7075 4.71636 15.5789 5.78049 15.5789L17.3607 15.572C20.5546 15.5698 23.1451 18.1849 23.1451 21.4113C23.1451 24.6348 20.5591 27.2485 17.3681 27.2505L9.65319 27.2553C6.46061 27.2573 3.87145 24.6433 3.87145 21.4182H7.7252C7.7252 22.4924 8.5875 23.363 9.65082 23.3623L17.3658 23.3577C18.4294 23.357 19.2913 22.4857 19.2913 21.4113C19.2913 20.3359 18.4279 19.4643 17.3633 19.465L15.4147 19.4663V19.4719H5.78049C2.58803 19.4719 5.20648e-05 16.8575 0 13.6325C0 10.4075 2.58799 7.79308 5.78049 7.79307L17.3491 7.78617C18.4128 7.7854 19.2747 6.91407 19.2747 5.83954C19.2747 4.76405 18.4113 3.89242 17.3466 3.89305L9.65082 3.89769C8.58866 3.89835 7.7252 4.77049 7.7252 5.84658H3.87145C3.87145 2.62454 6.4558 0.00683351 9.64845 0.00484742L17.3442 6.21199e-05Z" fill="#F76A00"/>
<path d="M26.9758 13.6324C26.9758 14.7074 26.1131 15.5789 25.0489 15.5789C23.9848 15.5789 23.1221 14.7074 23.1221 13.6324C23.1221 12.5574 23.9848 11.686 25.0489 11.686C26.1131 11.686 26.9758 12.5574 26.9758 13.6324Z" fill="#F76A00"/>
<path d="M191.255 9.06522V4.43108H189.622V3.55392H193.864V4.43108H192.239V9.06522H191.255Z" fill="#0D0C0C"/>
<path d="M194.39 9.06522V3.55392H195.714L197.196 7.82324L198.678 3.55392H200.001V9.06522H199.018V5.26165L197.665 9.05746H196.727L195.373 5.26165V9.06522H194.39Z" fill="#0D0C0C"/>
</svg>
